<?xml version="1.0" encoding="utf-8" standalone="no"?>
<!DOCTYPE svg PUBLIC "-//W3C//DTD SVG 1.1//EN"
  "http://www.w3.org/Graphics/SVG/1.1/DTD/svg11.dtd">
<svg xmlns:xlink="http://www.w3.org/1999/xlink" width="720pt" height="360pt" viewBox="0 0 720 360" xmlns="http://www.w3.org/2000/svg" version="1.1">
 <metadata>
  <rdf:RDF xmlns:dc="http://purl.org/dc/elements/1.1/" xmlns:cc="http://creativecommons.org/ns#" xmlns:rdf="http://www.w3.org/1999/02/22-rdf-syntax-ns#">
   <cc:Work>
    <dc:type rdf:resource="http://purl.org/dc/dcmitype/StillImage"/>
    <dc:date>2026-04-19T14:35:18.817540</dc:date>
    <dc:format>image/svg+xml</dc:format>
    <dc:creator>
     <cc:Agent>
      <dc:title>Matplotlib v3.10.1, https://matplotlib.org/</dc:title>
     </cc:Agent>
    </dc:creator>
   </cc:Work>
  </rdf:RDF>
 </metadata>
 <defs>
  <style type="text/css">*{stroke-linejoin: round; stroke-linecap: butt}</style>
 </defs>
 <g id="figure_1">
  <g id="patch_1">
   <path d="M 0 360 
L 720 360 
L 720 0 
L 0 0 
z
" style="fill: #ffffff"/>
  </g>
  <g id="axes_1">
   <g id="patch_2">
    <path d="M 60.68 240.372785 
L 709.2 240.372785 
L 709.2 26.88 
L 60.68 26.88 
z
" style="fill: #ffffff"/>
   </g>
   <g id="patch_3">
    <path d="M 90.158182 240.372785 
L 124.838396 240.372785 
L 124.838396 37.046323 
L 90.158182 37.046323 
z
" clip-path="url(#p1d7ad2fecd)" style="fill: #376f8f"/>
   </g>
   <g id="patch_4">
    <path d="M 176.858717 240.372785 
L 211.53893 240.372785 
L 211.53893 158.428195 
L 176.858717 158.428195 
z
" clip-path="url(#p1d7ad2fecd)" style="fill: #376f8f"/>
   </g>
   <g id="patch_5">
    <path d="M 263.559251 240.372785 
L 298.239465 240.372785 
L 298.239465 159.127315 
L 263.559251 159.127315 
z
" clip-path="url(#p1d7ad2fecd)" style="fill: #376f8f"/>
   </g>
   <g id="patch_6">
    <path d="M 350.259786 240.372785 
L 384.94 240.372785 
L 384.94 99.8673 
L 350.259786 99.8673 
z
" clip-path="url(#p1d7ad2fecd)" style="fill: #376f8f"/>
   </g>
   <g id="patch_7">
    <path d="M 436.960321 240.372785 
L 471.640535 240.372785 
L 471.640535 229.455822 
L 436.960321 229.455822 
z
" clip-path="url(#p1d7ad2fecd)" style="fill: #376f8f"/>
   </g>
   <g id="patch_8">
    <path d="M 523.660856 240.372785 
L 558.34107 240.372785 
L 558.34107 118.990914 
L 523.660856 118.990914 
z
" clip-path="url(#p1d7ad2fecd)" style="fill: #376f8f"/>
   </g>
   <g id="patch_9">
    <path d="M 610.36139 240.372785 
L 645.041604 240.372785 
L 645.041604 118.23108 
L 610.36139 118.23108 
z
" clip-path="url(#p1d7ad2fecd)" style="fill: #376f8f"/>
   </g>
   <g id="patch_10">
    <path d="M 124.838396 240.372785 
L 159.51861 240.372785 
L 159.51861 233.710729 
L 124.838396 233.710729 
z
" clip-path="url(#p1d7ad2fecd)" style="fill: #6f8f37"/>
   </g>
   <g id="patch_11">
    <path d="M 211.53893 240.372785 
L 246.219144 240.372785 
L 246.219144 234.690592 
L 211.53893 234.690592 
z
" clip-path="url(#p1d7ad2fecd)" style="fill: #6f8f37"/>
   </g>
   <g id="patch_12">
    <path d="M 298.239465 240.372785 
L 332.919679 240.372785 
L 332.919679 234.929142 
L 298.239465 234.929142 
z
" clip-path="url(#p1d7ad2fecd)" style="fill: #6f8f37"/>
   </g>
   <g id="patch_13">
    <path d="M 384.94 240.372785 
L 419.620214 240.372785 
L 419.620214 223.381507 
L 384.94 223.381507 
z
" clip-path="url(#p1d7ad2fecd)" style="fill: #6f8f37"/>
   </g>
   <g id="patch_14">
    <path d="M 471.640535 240.372785 
L 506.320749 240.372785 
L 506.320749 238.225961 
L 471.640535 238.225961 
z
" clip-path="url(#p1d7ad2fecd)" style="fill: #6f8f37"/>
   </g>
   <g id="patch_15">
    <path d="M 558.34107 240.372785 
L 593.021283 240.372785 
L 593.021283 237.047349 
L 558.34107 237.047349 
z
" clip-path="url(#p1d7ad2fecd)" style="fill: #6f8f37"/>
   </g>
   <g id="patch_16">
    <path d="M 645.041604 240.372785 
L 679.721818 240.372785 
L 679.721818 236.937709 
L 645.041604 236.937709 
z
" clip-path="url(#p1d7ad2fecd)" style="fill: #6f8f37"/>
   </g>
   <g id="matplotlib.axis_1">
    <g id="xtick_1">
     <g id="line2d_1">
      <defs>
       <path id="m6972820582" d="M 0 0 
L 0 3.5 
" style="stroke: #000000; stroke-width: 0.8"/>
      </defs>
      <g>
       <use xlink:href="#m6972820582" x="124.838396" y="240.372785" style="stroke: #000000; stroke-width: 0.8"/>
      </g>
     </g>
     <g id="text_1">
      <!-- correct_value_logit -->
      <g transform="translate(46.264291 307.66829) rotate(-35) scale(0.1 -0.1)">
       <defs>
        <path id="DejaVuSans-63" d="M 3122 3366 
L 3122 2828 
Q 2878 2963 2633 3030 
Q 2388 3097 2138 3097 
Q 1578 3097 1268 2742 
Q 959 2388 959 1747 
Q 959 1106 1268 751 
Q 1578 397 2138 397 
Q 2388 397 2633 464 
Q 2878 531 3122 666 
L 3122 134 
Q 2881 22 2623 -34 
Q 2366 -91 2075 -91 
Q 1284 -91 818 406 
Q 353 903 353 1747 
Q 353 2603 823 3093 
Q 1294 3584 2113 3584 
Q 2378 3584 2631 3529 
Q 2884 3475 3122 3366 
z
" transform="scale(0.015625)"/>
        <path id="DejaVuSans-6f" d="M 1959 3097 
Q 1497 3097 1228 2736 
Q 959 2375 959 1747 
Q 959 1119 1226 758 
Q 1494 397 1959 397 
Q 2419 397 2687 759 
Q 2956 1122 2956 1747 
Q 2956 2369 2687 2733 
Q 2419 3097 1959 3097 
z
M 1959 3584 
Q 2709 3584 3137 3096 
Q 3566 2609 3566 1747 
Q 3566 888 3137 398 
Q 2709 -91 1959 -91 
Q 1206 -91 779 398 
Q 353 888 353 1747 
Q 353 2609 779 3096 
Q 1206 3584 1959 3584 
z
" transform="scale(0.015625)"/>
        <path id="DejaVuSans-72" d="M 2631 2963 
Q 2534 3019 2420 3045 
Q 2306 3072 2169 3072 
Q 1681 3072 1420 2755 
Q 1159 2438 1159 1844 
L 1159 0 
L 581 0 
L 581 3500 
L 1159 3500 
L 1159 2956 
Q 1341 3275 1631 3429 
Q 1922 3584 2338 3584 
Q 2397 3584 2469 3576 
Q 2541 3569 2628 3553 
L 2631 2963 
z
" transform="scale(0.015625)"/>
        <path id="DejaVuSans-65" d="M 3597 1894 
L 3597 1613 
L 953 1613 
Q 991 1019 1311 708 
Q 1631 397 2203 397 
Q 2534 397 2845 478 
Q 3156 559 3463 722 
L 3463 178 
Q 3153 47 2828 -22 
Q 2503 -91 2169 -91 
Q 1331 -91 842 396 
Q 353 884 353 1716 
Q 353 2575 817 3079 
Q 1281 3584 2069 3584 
Q 2775 3584 3186 3129 
Q 3597 2675 3597 1894 
z
M 3022 2063 
Q 3016 2534 2758 2815 
Q 2500 3097 2075 3097 
Q 1594 3097 1305 2825 
Q 1016 2553 972 2059 
L 3022 2063 
z
" transform="scale(0.015625)"/>
        <path id="DejaVuSans-74" d="M 1172 4494 
L 1172 3500 
L 2356 3500 
L 2356 3053 
L 1172 3053 
L 1172 1153 
Q 1172 725 1289 603 
Q 1406 481 1766 481 
L 2356 481 
L 2356 0 
L 1766 0 
Q 1100 0 847 248 
Q 594 497 594 1153 
L 594 3053 
L 172 3053 
L 172 3500 
L 594 3500 
L 594 4494 
L 1172 4494 
z
" transform="scale(0.015625)"/>
        <path id="DejaVuSans-5f" d="M 3263 -1063 
L 3263 -1509 
L -63 -1509 
L -63 -1063 
L 3263 -1063 
z
" transform="scale(0.015625)"/>
        <path id="DejaVuSans-76" d="M 191 3500 
L 800 3500 
L 1894 563 
L 2988 3500 
L 3597 3500 
L 2284 0 
L 1503 0 
L 191 3500 
z
" transform="scale(0.015625)"/>
        <path id="DejaVuSans-61" d="M 2194 1759 
Q 1497 1759 1228 1600 
Q 959 1441 959 1056 
Q 959 750 1161 570 
Q 1363 391 1709 391 
Q 2188 391 2477 730 
Q 2766 1069 2766 1631 
L 2766 1759 
L 2194 1759 
z
M 3341 1997 
L 3341 0 
L 2766 0 
L 2766 531 
Q 2569 213 2275 61 
Q 1981 -91 1556 -91 
Q 1019 -91 701 211 
Q 384 513 384 1019 
Q 384 1609 779 1909 
Q 1175 2209 1959 2209 
L 2766 2209 
L 2766 2266 
Q 2766 2663 2505 2880 
Q 2244 3097 1772 3097 
Q 1472 3097 1187 3025 
Q 903 2953 641 2809 
L 641 3341 
Q 956 3463 1253 3523 
Q 1550 3584 1831 3584 
Q 2591 3584 2966 3190 
Q 3341 2797 3341 1997 
z
" transform="scale(0.015625)"/>
        <path id="DejaVuSans-6c" d="M 603 4863 
L 1178 4863 
L 1178 0 
L 603 0 
L 603 4863 
z
" transform="scale(0.015625)"/>
        <path id="DejaVuSans-75" d="M 544 1381 
L 544 3500 
L 1119 3500 
L 1119 1403 
Q 1119 906 1312 657 
Q 1506 409 1894 409 
Q 2359 409 2629 706 
Q 2900 1003 2900 1516 
L 2900 3500 
L 3475 3500 
L 3475 0 
L 2900 0 
L 2900 538 
Q 2691 219 2414 64 
Q 2138 -91 1772 -91 
Q 1169 -91 856 284 
Q 544 659 544 1381 
z
M 1991 3584 
L 1991 3584 
z
" transform="scale(0.015625)"/>
        <path id="DejaVuSans-67" d="M 2906 1791 
Q 2906 2416 2648 2759 
Q 2391 3103 1925 3103 
Q 1463 3103 1205 2759 
Q 947 2416 947 1791 
Q 947 1169 1205 825 
Q 1463 481 1925 481 
Q 2391 481 2648 825 
Q 2906 1169 2906 1791 
z
M 3481 434 
Q 3481 -459 3084 -895 
Q 2688 -1331 1869 -1331 
Q 1566 -1331 1297 -1286 
Q 1028 -1241 775 -1147 
L 775 -588 
Q 1028 -725 1275 -790 
Q 1522 -856 1778 -856 
Q 2344 -856 2625 -561 
Q 2906 -266 2906 331 
L 2906 616 
Q 2728 306 2450 153 
Q 2172 0 1784 0 
Q 1141 0 747 490 
Q 353 981 353 1791 
Q 353 2603 747 3093 
Q 1141 3584 1784 3584 
Q 2172 3584 2450 3431 
Q 2728 3278 2906 2969 
L 2906 3500 
L 3481 3500 
L 3481 434 
z
" transform="scale(0.015625)"/>
        <path id="DejaVuSans-69" d="M 603 3500 
L 1178 3500 
L 1178 0 
L 603 0 
L 603 3500 
z
M 603 4863 
L 1178 4863 
L 1178 4134 
L 603 4134 
L 603 4863 
z
" transform="scale(0.015625)"/>
       </defs>
       <use xlink:href="#DejaVuSans-63"/>
       <use xlink:href="#DejaVuSans-6f" transform="translate(54.980469 0)"/>
       <use xlink:href="#DejaVuSans-72" transform="translate(116.162109 0)"/>
       <use xlink:href="#DejaVuSans-72" transform="translate(155.525391 0)"/>
       <use xlink:href="#DejaVuSans-65" transform="translate(194.388672 0)"/>
       <use xlink:href="#DejaVuSans-63" transform="translate(255.912109 0)"/>
       <use xlink:href="#DejaVuSans-74" transform="translate(310.892578 0)"/>
       <use xlink:href="#DejaVuSans-5f" transform="translate(350.101562 0)"/>
       <use xlink:href="#DejaVuSans-76" transform="translate(400.101562 0)"/>
       <use xlink:href="#DejaVuSans-61" transform="translate(459.28125 0)"/>
       <use xlink:href="#DejaVuSans-6c" transform="translate(520.560547 0)"/>
       <use xlink:href="#DejaVuSans-75" transform="translate(548.34375 0)"/>
       <use xlink:href="#DejaVuSans-65" transform="translate(611.722656 0)"/>
       <use xlink:href="#DejaVuSans-5f" transform="translate(673.246094 0)"/>
       <use xlink:href="#DejaVuSans-6c" transform="translate(723.246094 0)"/>
       <use xlink:href="#DejaVuSans-6f" transform="translate(751.029297 0)"/>
       <use xlink:href="#DejaVuSans-67" transform="translate(812.210938 0)"/>
       <use xlink:href="#DejaVuSans-69" transform="translate(875.6875 0)"/>
       <use xlink:href="#DejaVuSans-74" transform="translate(903.470703 0)"/>
      </g>
     </g>
    </g>
    <g id="xtick_2">
     <g id="line2d_2">
      <g>
       <use xlink:href="#m6972820582" x="211.53893" y="240.372785" style="stroke: #000000; stroke-width: 0.8"/>
      </g>
     </g>
     <g id="text_2">
      <!-- fixed_source_competitor_margin -->
      <g transform="translate(77.003942 346.852523) rotate(-35) scale(0.1 -0.1)">
       <defs>
        <path id="DejaVuSans-66" d="M 2375 4863 
L 2375 4384 
L 1825 4384 
Q 1516 4384 1395 4259 
Q 1275 4134 1275 3809 
L 1275 3500 
L 2222 3500 
L 2222 3053 
L 1275 3053 
L 1275 0 
L 697 0 
L 697 3053 
L 147 3053 
L 147 3500 
L 697 3500 
L 697 3744 
Q 697 4328 969 4595 
Q 1241 4863 1831 4863 
L 2375 4863 
z
" transform="scale(0.015625)"/>
        <path id="DejaVuSans-78" d="M 3513 3500 
L 2247 1797 
L 3578 0 
L 2900 0 
L 1881 1375 
L 863 0 
L 184 0 
L 1544 1831 
L 300 3500 
L 978 3500 
L 1906 2253 
L 2834 3500 
L 3513 3500 
z
" transform="scale(0.015625)"/>
        <path id="DejaVuSans-64" d="M 2906 2969 
L 2906 4863 
L 3481 4863 
L 3481 0 
L 2906 0 
L 2906 525 
Q 2725 213 2448 61 
Q 2172 -91 1784 -91 
Q 1150 -91 751 415 
Q 353 922 353 1747 
Q 353 2572 751 3078 
Q 1150 3584 1784 3584 
Q 2172 3584 2448 3432 
Q 2725 3281 2906 2969 
z
M 947 1747 
Q 947 1113 1208 752 
Q 1469 391 1925 391 
Q 2381 391 2643 752 
Q 2906 1113 2906 1747 
Q 2906 2381 2643 2742 
Q 2381 3103 1925 3103 
Q 1469 3103 1208 2742 
Q 947 2381 947 1747 
z
" transform="scale(0.015625)"/>
        <path id="DejaVuSans-73" d="M 2834 3397 
L 2834 2853 
Q 2591 2978 2328 3040 
Q 2066 3103 1784 3103 
Q 1356 3103 1142 2972 
Q 928 2841 928 2578 
Q 928 2378 1081 2264 
Q 1234 2150 1697 2047 
L 1894 2003 
Q 2506 1872 2764 1633 
Q 3022 1394 3022 966 
Q 3022 478 2636 193 
Q 2250 -91 1575 -91 
Q 1294 -91 989 -36 
Q 684 19 347 128 
L 347 722 
Q 666 556 975 473 
Q 1284 391 1588 391 
Q 1994 391 2212 530 
Q 2431 669 2431 922 
Q 2431 1156 2273 1281 
Q 2116 1406 1581 1522 
L 1381 1569 
Q 847 1681 609 1914 
Q 372 2147 372 2553 
Q 372 3047 722 3315 
Q 1072 3584 1716 3584 
Q 2034 3584 2315 3537 
Q 2597 3491 2834 3397 
z
" transform="scale(0.015625)"/>
        <path id="DejaVuSans-6d" d="M 3328 2828 
Q 3544 3216 3844 3400 
Q 4144 3584 4550 3584 
Q 5097 3584 5394 3201 
Q 5691 2819 5691 2113 
L 5691 0 
L 5113 0 
L 5113 2094 
Q 5113 2597 4934 2840 
Q 4756 3084 4391 3084 
Q 3944 3084 3684 2787 
Q 3425 2491 3425 1978 
L 3425 0 
L 2847 0 
L 2847 2094 
Q 2847 2600 2669 2842 
Q 2491 3084 2119 3084 
Q 1678 3084 1418 2786 
Q 1159 2488 1159 1978 
L 1159 0 
L 581 0 
L 581 3500 
L 1159 3500 
L 1159 2956 
Q 1356 3278 1631 3431 
Q 1906 3584 2284 3584 
Q 2666 3584 2933 3390 
Q 3200 3197 3328 2828 
z
" transform="scale(0.015625)"/>
        <path id="DejaVuSans-70" d="M 1159 525 
L 1159 -1331 
L 581 -1331 
L 581 3500 
L 1159 3500 
L 1159 2969 
Q 1341 3281 1617 3432 
Q 1894 3584 2278 3584 
Q 2916 3584 3314 3078 
Q 3713 2572 3713 1747 
Q 3713 922 3314 415 
Q 2916 -91 2278 -91 
Q 1894 -91 1617 61 
Q 1341 213 1159 525 
z
M 3116 1747 
Q 3116 2381 2855 2742 
Q 2594 3103 2138 3103 
Q 1681 3103 1420 2742 
Q 1159 2381 1159 1747 
Q 1159 1113 1420 752 
Q 1681 391 2138 391 
Q 2594 391 2855 752 
Q 3116 1113 3116 1747 
z
" transform="scale(0.015625)"/>
        <path id="DejaVuSans-6e" d="M 3513 2113 
L 3513 0 
L 2938 0 
L 2938 2094 
Q 2938 2591 2744 2837 
Q 2550 3084 2163 3084 
Q 1697 3084 1428 2787 
Q 1159 2491 1159 1978 
L 1159 0 
L 581 0 
L 581 3500 
L 1159 3500 
L 1159 2956 
Q 1366 3272 1645 3428 
Q 1925 3584 2291 3584 
Q 2894 3584 3203 3211 
Q 3513 2838 3513 2113 
z
" transform="scale(0.015625)"/>
       </defs>
       <use xlink:href="#DejaVuSans-66"/>
       <use xlink:href="#DejaVuSans-69" transform="translate(35.205078 0)"/>
       <use xlink:href="#DejaVuSans-78" transform="translate(62.988281 0)"/>
       <use xlink:href="#DejaVuSans-65" transform="translate(119.042969 0)"/>
       <use xlink:href="#DejaVuSans-64" transform="translate(180.566406 0)"/>
       <use xlink:href="#DejaVuSans-5f" transform="translate(244.042969 0)"/>
       <use xlink:href="#DejaVuSans-73" transform="translate(294.042969 0)"/>
       <use xlink:href="#DejaVuSans-6f" transform="translate(346.142578 0)"/>
       <use xlink:href="#DejaVuSans-75" transform="translate(407.324219 0)"/>
       <use xlink:href="#DejaVuSans-72" transform="translate(470.703125 0)"/>
       <use xlink:href="#DejaVuSans-63" transform="translate(509.566406 0)"/>
       <use xlink:href="#DejaVuSans-65" transform="translate(564.546875 0)"/>
       <use xlink:href="#DejaVuSans-5f" transform="translate(626.070312 0)"/>
       <use xlink:href="#DejaVuSans-63" transform="translate(676.070312 0)"/>
       <use xlink:href="#DejaVuSans-6f" transform="translate(731.050781 0)"/>
       <use xlink:href="#DejaVuSans-6d" transform="translate(792.232422 0)"/>
       <use xlink:href="#DejaVuSans-70" transform="translate(889.644531 0)"/>
       <use xlink:href="#DejaVuSans-65" transform="translate(953.121094 0)"/>
       <use xlink:href="#DejaVuSans-74" transform="translate(1014.644531 0)"/>
       <use xlink:href="#DejaVuSans-69" transform="translate(1053.853516 0)"/>
       <use xlink:href="#DejaVuSans-74" transform="translate(1081.636719 0)"/>
       <use xlink:href="#DejaVuSans-6f" transform="translate(1120.845703 0)"/>
       <use xlink:href="#DejaVuSans-72" transform="translate(1182.027344 0)"/>
       <use xlink:href="#DejaVuSans-5f" transform="translate(1223.140625 0)"/>
       <use xlink:href="#DejaVuSans-6d" transform="translate(1273.140625 0)"/>
       <use xlink:href="#DejaVuSans-61" transform="translate(1370.552734 0)"/>
       <use xlink:href="#DejaVuSans-72" transform="translate(1431.832031 0)"/>
       <use xlink:href="#DejaVuSans-67" transform="translate(1471.195312 0)"/>
       <use xlink:href="#DejaVuSans-69" transform="translate(1534.671875 0)"/>
       <use xlink:href="#DejaVuSans-6e" transform="translate(1562.455078 0)"/>
      </g>
     </g>
    </g>
    <g id="xtick_3">
     <g id="line2d_3">
      <g>
       <use xlink:href="#m6972820582" x="298.239465" y="240.372785" style="stroke: #000000; stroke-width: 0.8"/>
      </g>
     </g>
     <g id="text_3">
      <!-- fixed_target_competitor_margin -->
      <g transform="translate(165.995542 345.248302) rotate(-35) scale(0.1 -0.1)">
       <use xlink:href="#DejaVuSans-66"/>
       <use xlink:href="#DejaVuSans-69" transform="translate(35.205078 0)"/>
       <use xlink:href="#DejaVuSans-78" transform="translate(62.988281 0)"/>
       <use xlink:href="#DejaVuSans-65" transform="translate(119.042969 0)"/>
       <use xlink:href="#DejaVuSans-64" transform="translate(180.566406 0)"/>
       <use xlink:href="#DejaVuSans-5f" transform="translate(244.042969 0)"/>
       <use xlink:href="#DejaVuSans-74" transform="translate(294.042969 0)"/>
       <use xlink:href="#DejaVuSans-61" transform="translate(333.251953 0)"/>
       <use xlink:href="#DejaVuSans-72" transform="translate(394.53125 0)"/>
       <use xlink:href="#DejaVuSans-67" transform="translate(433.894531 0)"/>
       <use xlink:href="#DejaVuSans-65" transform="translate(497.371094 0)"/>
       <use xlink:href="#DejaVuSans-74" transform="translate(558.894531 0)"/>
       <use xlink:href="#DejaVuSans-5f" transform="translate(598.103516 0)"/>
       <use xlink:href="#DejaVuSans-63" transform="translate(648.103516 0)"/>
       <use xlink:href="#DejaVuSans-6f" transform="translate(703.083984 0)"/>
       <use xlink:href="#DejaVuSans-6d" transform="translate(764.265625 0)"/>
       <use xlink:href="#DejaVuSans-70" transform="translate(861.677734 0)"/>
       <use xlink:href="#DejaVuSans-65" transform="translate(925.154297 0)"/>
       <use xlink:href="#DejaVuSans-74" transform="translate(986.677734 0)"/>
       <use xlink:href="#DejaVuSans-69" transform="translate(1025.886719 0)"/>
       <use xlink:href="#DejaVuSans-74" transform="translate(1053.669922 0)"/>
       <use xlink:href="#DejaVuSans-6f" transform="translate(1092.878906 0)"/>
       <use xlink:href="#DejaVuSans-72" transform="translate(1154.060547 0)"/>
       <use xlink:href="#DejaVuSans-5f" transform="translate(1195.173828 0)"/>
       <use xlink:href="#DejaVuSans-6d" transform="translate(1245.173828 0)"/>
       <use xlink:href="#DejaVuSans-61" transform="translate(1342.585938 0)"/>
       <use xlink:href="#DejaVuSans-72" transform="translate(1403.865234 0)"/>
       <use xlink:href="#DejaVuSans-67" transform="translate(1443.228516 0)"/>
       <use xlink:href="#DejaVuSans-69" transform="translate(1506.705078 0)"/>
       <use xlink:href="#DejaVuSans-6e" transform="translate(1534.488281 0)"/>
      </g>
     </g>
    </g>
    <g id="xtick_4">
     <g id="line2d_4">
      <g>
       <use xlink:href="#m6972820582" x="384.94" y="240.372785" style="stroke: #000000; stroke-width: 0.8"/>
      </g>
     </g>
     <g id="text_4">
      <!-- moving_answer_margin -->
      <g transform="translate(286.413143 321.639358) rotate(-35) scale(0.1 -0.1)">
       <defs>
        <path id="DejaVuSans-77" d="M 269 3500 
L 844 3500 
L 1563 769 
L 2278 3500 
L 2956 3500 
L 3675 769 
L 4391 3500 
L 4966 3500 
L 4050 0 
L 3372 0 
L 2619 2869 
L 1863 0 
L 1184 0 
L 269 3500 
z
" transform="scale(0.015625)"/>
       </defs>
       <use xlink:href="#DejaVuSans-6d"/>
       <use xlink:href="#DejaVuSans-6f" transform="translate(97.412109 0)"/>
       <use xlink:href="#DejaVuSans-76" transform="translate(158.59375 0)"/>
       <use xlink:href="#DejaVuSans-69" transform="translate(217.773438 0)"/>
       <use xlink:href="#DejaVuSans-6e" transform="translate(245.556641 0)"/>
       <use xlink:href="#DejaVuSans-67" transform="translate(308.935547 0)"/>
       <use xlink:href="#DejaVuSans-5f" transform="translate(372.412109 0)"/>
       <use xlink:href="#DejaVuSans-61" transform="translate(422.412109 0)"/>
       <use xlink:href="#DejaVuSans-6e" transform="translate(483.691406 0)"/>
       <use xlink:href="#DejaVuSans-73" transform="translate(547.070312 0)"/>
       <use xlink:href="#DejaVuSans-77" transform="translate(599.169922 0)"/>
       <use xlink:href="#DejaVuSans-65" transform="translate(680.957031 0)"/>
       <use xlink:href="#DejaVuSans-72" transform="translate(742.480469 0)"/>
       <use xlink:href="#DejaVuSans-5f" transform="translate(783.59375 0)"/>
       <use xlink:href="#DejaVuSans-6d" transform="translate(833.59375 0)"/>
       <use xlink:href="#DejaVuSans-61" transform="translate(931.005859 0)"/>
       <use xlink:href="#DejaVuSans-72" transform="translate(992.285156 0)"/>
       <use xlink:href="#DejaVuSans-67" transform="translate(1031.648438 0)"/>
       <use xlink:href="#DejaVuSans-69" transform="translate(1095.125 0)"/>
       <use xlink:href="#DejaVuSans-6e" transform="translate(1122.908203 0)"/>
      </g>
     </g>
    </g>
    <g id="xtick_5">
     <g id="line2d_5">
      <g>
       <use xlink:href="#m6972820582" x="471.640535" y="240.372785" style="stroke: #000000; stroke-width: 0.8"/>
      </g>
     </g>
     <g id="text_5">
      <!-- negative_answer_loss -->
      <g transform="translate(380.861064 316.214579) rotate(-35) scale(0.1 -0.1)">
       <use xlink:href="#DejaVuSans-6e"/>
       <use xlink:href="#DejaVuSans-65" transform="translate(63.378906 0)"/>
       <use xlink:href="#DejaVuSans-67" transform="translate(124.902344 0)"/>
       <use xlink:href="#DejaVuSans-61" transform="translate(188.378906 0)"/>
       <use xlink:href="#DejaVuSans-74" transform="translate(249.658203 0)"/>
       <use xlink:href="#DejaVuSans-69" transform="translate(288.867188 0)"/>
       <use xlink:href="#DejaVuSans-76" transform="translate(316.650391 0)"/>
       <use xlink:href="#DejaVuSans-65" transform="translate(375.830078 0)"/>
       <use xlink:href="#DejaVuSans-5f" transform="translate(437.353516 0)"/>
       <use xlink:href="#DejaVuSans-61" transform="translate(487.353516 0)"/>
       <use xlink:href="#DejaVuSans-6e" transform="translate(548.632812 0)"/>
       <use xlink:href="#DejaVuSans-73" transform="translate(612.011719 0)"/>
       <use xlink:href="#DejaVuSans-77" transform="translate(664.111328 0)"/>
       <use xlink:href="#DejaVuSans-65" transform="translate(745.898438 0)"/>
       <use xlink:href="#DejaVuSans-72" transform="translate(807.421875 0)"/>
       <use xlink:href="#DejaVuSans-5f" transform="translate(848.535156 0)"/>
       <use xlink:href="#DejaVuSans-6c" transform="translate(898.535156 0)"/>
       <use xlink:href="#DejaVuSans-6f" transform="translate(926.318359 0)"/>
       <use xlink:href="#DejaVuSans-73" transform="translate(987.5 0)"/>
       <use xlink:href="#DejaVuSans-73" transform="translate(1039.599609 0)"/>
      </g>
     </g>
    </g>
    <g id="xtick_6">
     <g id="line2d_6">
      <g>
       <use xlink:href="#m6972820582" x="558.34107" y="240.372785" style="stroke: #000000; stroke-width: 0.8"/>
      </g>
     </g>
     <g id="text_6">
      <!-- source_best_wrong_logit -->
      <g transform="translate(456.522245 323.944418) rotate(-35) scale(0.1 -0.1)">
       <defs>
        <path id="DejaVuSans-62" d="M 3116 1747 
Q 3116 2381 2855 2742 
Q 2594 3103 2138 3103 
Q 1681 3103 1420 2742 
Q 1159 2381 1159 1747 
Q 1159 1113 1420 752 
Q 1681 391 2138 391 
Q 2594 391 2855 752 
Q 3116 1113 3116 1747 
z
M 1159 2969 
Q 1341 3281 1617 3432 
Q 1894 3584 2278 3584 
Q 2916 3584 3314 3078 
Q 3713 2572 3713 1747 
Q 3713 922 3314 415 
Q 2916 -91 2278 -91 
Q 1894 -91 1617 61 
Q 1341 213 1159 525 
L 1159 0 
L 581 0 
L 581 4863 
L 1159 4863 
L 1159 2969 
z
" transform="scale(0.015625)"/>
       </defs>
       <use xlink:href="#DejaVuSans-73"/>
       <use xlink:href="#DejaVuSans-6f" transform="translate(52.099609 0)"/>
       <use xlink:href="#DejaVuSans-75" transform="translate(113.28125 0)"/>
       <use xlink:href="#DejaVuSans-72" transform="translate(176.660156 0)"/>
       <use xlink:href="#DejaVuSans-63" transform="translate(215.523438 0)"/>
       <use xlink:href="#DejaVuSans-65" transform="translate(270.503906 0)"/>
       <use xlink:href="#DejaVuSans-5f" transform="translate(332.027344 0)"/>
       <use xlink:href="#DejaVuSans-62" transform="translate(382.027344 0)"/>
       <use xlink:href="#DejaVuSans-65" transform="translate(445.503906 0)"/>
       <use xlink:href="#DejaVuSans-73" transform="translate(507.027344 0)"/>
       <use xlink:href="#DejaVuSans-74" transform="translate(559.126953 0)"/>
       <use xlink:href="#DejaVuSans-5f" transform="translate(598.335938 0)"/>
       <use xlink:href="#DejaVuSans-77" transform="translate(648.335938 0)"/>
       <use xlink:href="#DejaVuSans-72" transform="translate(730.123047 0)"/>
       <use xlink:href="#DejaVuSans-6f" transform="translate(768.986328 0)"/>
       <use xlink:href="#DejaVuSans-6e" transform="translate(830.167969 0)"/>
       <use xlink:href="#DejaVuSans-67" transform="translate(893.546875 0)"/>
       <use xlink:href="#DejaVuSans-5f" transform="translate(957.023438 0)"/>
       <use xlink:href="#DejaVuSans-6c" transform="translate(1007.023438 0)"/>
       <use xlink:href="#DejaVuSans-6f" transform="translate(1034.806641 0)"/>
       <use xlink:href="#DejaVuSans-67" transform="translate(1095.988281 0)"/>
       <use xlink:href="#DejaVuSans-69" transform="translate(1159.464844 0)"/>
       <use xlink:href="#DejaVuSans-74" transform="translate(1187.248047 0)"/>
      </g>
     </g>
    </g>
    <g id="xtick_7">
     <g id="line2d_7">
      <g>
       <use xlink:href="#m6972820582" x="645.041604" y="240.372785" style="stroke: #000000; stroke-width: 0.8"/>
      </g>
     </g>
     <g id="text_7">
      <!-- target_best_wrong_logit -->
      <g transform="translate(545.513846 322.340196) rotate(-35) scale(0.1 -0.1)">
       <use xlink:href="#DejaVuSans-74"/>
       <use xlink:href="#DejaVuSans-61" transform="translate(39.208984 0)"/>
       <use xlink:href="#DejaVuSans-72" transform="translate(100.488281 0)"/>
       <use xlink:href="#DejaVuSans-67" transform="translate(139.851562 0)"/>
       <use xlink:href="#DejaVuSans-65" transform="translate(203.328125 0)"/>
       <use xlink:href="#DejaVuSans-74" transform="translate(264.851562 0)"/>
       <use xlink:href="#DejaVuSans-5f" transform="translate(304.060547 0)"/>
       <use xlink:href="#DejaVuSans-62" transform="translate(354.060547 0)"/>
       <use xlink:href="#DejaVuSans-65" transform="translate(417.537109 0)"/>
       <use xlink:href="#DejaVuSans-73" transform="translate(479.060547 0)"/>
       <use xlink:href="#DejaVuSans-74" transform="translate(531.160156 0)"/>
       <use xlink:href="#DejaVuSans-5f" transform="translate(570.369141 0)"/>
       <use xlink:href="#DejaVuSans-77" transform="translate(620.369141 0)"/>
       <use xlink:href="#DejaVuSans-72" transform="translate(702.15625 0)"/>
       <use xlink:href="#DejaVuSans-6f" transform="translate(741.019531 0)"/>
       <use xlink:href="#DejaVuSans-6e" transform="translate(802.201172 0)"/>
       <use xlink:href="#DejaVuSans-67" transform="translate(865.580078 0)"/>
       <use xlink:href="#DejaVuSans-5f" transform="translate(929.056641 0)"/>
       <use xlink:href="#DejaVuSans-6c" transform="translate(979.056641 0)"/>
       <use xlink:href="#DejaVuSans-6f" transform="translate(1006.839844 0)"/>
       <use xlink:href="#DejaVuSans-67" transform="translate(1068.021484 0)"/>
       <use xlink:href="#DejaVuSans-69" transform="translate(1131.498047 0)"/>
       <use xlink:href="#DejaVuSans-74" transform="translate(1159.28125 0)"/>
      </g>
     </g>
    </g>
   </g>
   <g id="matplotlib.axis_2">
    <g id="ytick_1">
     <g id="line2d_8">
      <path d="M 60.68 240.372785 
L 709.2 240.372785 
" clip-path="url(#p1d7ad2fecd)" style="fill: none; stroke: #b0b0b0; stroke-opacity: 0.25; stroke-width: 0.8; stroke-linecap: square"/>
     </g>
     <g id="line2d_9">
      <defs>
       <path id="mac11d94965" d="M 0 0 
L -3.5 0 
" style="stroke: #000000; stroke-width: 0.8"/>
      </defs>
      <g>
       <use xlink:href="#mac11d94965" x="60.68" y="240.372785" style="stroke: #000000; stroke-width: 0.8"/>
      </g>
     </g>
     <g id="text_8">
      <!-- 0.000 -->
      <g transform="translate(25.051875 244.172004) scale(0.1 -0.1)">
       <defs>
        <path id="DejaVuSans-30" d="M 2034 4250 
Q 1547 4250 1301 3770 
Q 1056 3291 1056 2328 
Q 1056 1369 1301 889 
Q 1547 409 2034 409 
Q 2525 409 2770 889 
Q 3016 1369 3016 2328 
Q 3016 3291 2770 3770 
Q 2525 4250 2034 4250 
z
M 2034 4750 
Q 2819 4750 3233 4129 
Q 3647 3509 3647 2328 
Q 3647 1150 3233 529 
Q 2819 -91 2034 -91 
Q 1250 -91 836 529 
Q 422 1150 422 2328 
Q 422 3509 836 4129 
Q 1250 4750 2034 4750 
z
" transform="scale(0.015625)"/>
        <path id="DejaVuSans-2e" d="M 684 794 
L 1344 794 
L 1344 0 
L 684 0 
L 684 794 
z
" transform="scale(0.015625)"/>
       </defs>
       <use xlink:href="#DejaVuSans-30"/>
       <use xlink:href="#DejaVuSans-2e" transform="translate(63.623047 0)"/>
       <use xlink:href="#DejaVuSans-30" transform="translate(95.410156 0)"/>
       <use xlink:href="#DejaVuSans-30" transform="translate(159.033203 0)"/>
       <use xlink:href="#DejaVuSans-30" transform="translate(222.65625 0)"/>
      </g>
     </g>
    </g>
    <g id="ytick_2">
     <g id="line2d_10">
      <path d="M 60.68 209.181521 
L 709.2 209.181521 
" clip-path="url(#p1d7ad2fecd)" style="fill: none; stroke: #b0b0b0; stroke-opacity: 0.25; stroke-width: 0.8; stroke-linecap: square"/>
     </g>
     <g id="line2d_11">
      <g>
       <use xlink:href="#mac11d94965" x="60.68" y="209.181521" style="stroke: #000000; stroke-width: 0.8"/>
      </g>
     </g>
     <g id="text_9">
      <!-- 0.005 -->
      <g transform="translate(25.051875 212.98074) scale(0.1 -0.1)">
       <defs>
        <path id="DejaVuSans-35" d="M 691 4666 
L 3169 4666 
L 3169 4134 
L 1269 4134 
L 1269 2991 
Q 1406 3038 1543 3061 
Q 1681 3084 1819 3084 
Q 2600 3084 3056 2656 
Q 3513 2228 3513 1497 
Q 3513 744 3044 326 
Q 2575 -91 1722 -91 
Q 1428 -91 1123 -41 
Q 819 9 494 109 
L 494 744 
Q 775 591 1075 516 
Q 1375 441 1709 441 
Q 2250 441 2565 725 
Q 2881 1009 2881 1497 
Q 2881 1984 2565 2268 
Q 2250 2553 1709 2553 
Q 1456 2553 1204 2497 
Q 953 2441 691 2322 
L 691 4666 
z
" transform="scale(0.015625)"/>
       </defs>
       <use xlink:href="#DejaVuSans-30"/>
       <use xlink:href="#DejaVuSans-2e" transform="translate(63.623047 0)"/>
       <use xlink:href="#DejaVuSans-30" transform="translate(95.410156 0)"/>
       <use xlink:href="#DejaVuSans-30" transform="translate(159.033203 0)"/>
       <use xlink:href="#DejaVuSans-35" transform="translate(222.65625 0)"/>
      </g>
     </g>
    </g>
    <g id="ytick_3">
     <g id="line2d_12">
      <path d="M 60.68 177.990258 
L 709.2 177.990258 
" clip-path="url(#p1d7ad2fecd)" style="fill: none; stroke: #b0b0b0; stroke-opacity: 0.25; stroke-width: 0.8; stroke-linecap: square"/>
     </g>
     <g id="line2d_13">
      <g>
       <use xlink:href="#mac11d94965" x="60.68" y="177.990258" style="stroke: #000000; stroke-width: 0.8"/>
      </g>
     </g>
     <g id="text_10">
      <!-- 0.010 -->
      <g transform="translate(25.051875 181.789476) scale(0.1 -0.1)">
       <defs>
        <path id="DejaVuSans-31" d="M 794 531 
L 1825 531 
L 1825 4091 
L 703 3866 
L 703 4441 
L 1819 4666 
L 2450 4666 
L 2450 531 
L 3481 531 
L 3481 0 
L 794 0 
L 794 531 
z
" transform="scale(0.015625)"/>
       </defs>
       <use xlink:href="#DejaVuSans-30"/>
       <use xlink:href="#DejaVuSans-2e" transform="translate(63.623047 0)"/>
       <use xlink:href="#DejaVuSans-30" transform="translate(95.410156 0)"/>
       <use xlink:href="#DejaVuSans-31" transform="translate(159.033203 0)"/>
       <use xlink:href="#DejaVuSans-30" transform="translate(222.65625 0)"/>
      </g>
     </g>
    </g>
    <g id="ytick_4">
     <g id="line2d_14">
      <path d="M 60.68 146.798994 
L 709.2 146.798994 
" clip-path="url(#p1d7ad2fecd)" style="fill: none; stroke: #b0b0b0; stroke-opacity: 0.25; stroke-width: 0.8; stroke-linecap: square"/>
     </g>
     <g id="line2d_15">
      <g>
       <use xlink:href="#mac11d94965" x="60.68" y="146.798994" style="stroke: #000000; stroke-width: 0.8"/>
      </g>
     </g>
     <g id="text_11">
      <!-- 0.015 -->
      <g transform="translate(25.051875 150.598213) scale(0.1 -0.1)">
       <use xlink:href="#DejaVuSans-30"/>
       <use xlink:href="#DejaVuSans-2e" transform="translate(63.623047 0)"/>
       <use xlink:href="#DejaVuSans-30" transform="translate(95.410156 0)"/>
       <use xlink:href="#DejaVuSans-31" transform="translate(159.033203 0)"/>
       <use xlink:href="#DejaVuSans-35" transform="translate(222.65625 0)"/>
      </g>
     </g>
    </g>
    <g id="ytick_5">
     <g id="line2d_16">
      <path d="M 60.68 115.60773 
L 709.2 115.60773 
" clip-path="url(#p1d7ad2fecd)" style="fill: none; stroke: #b0b0b0; stroke-opacity: 0.25; stroke-width: 0.8; stroke-linecap: square"/>
     </g>
     <g id="line2d_17">
      <g>
       <use xlink:href="#mac11d94965" x="60.68" y="115.60773" style="stroke: #000000; stroke-width: 0.8"/>
      </g>
     </g>
     <g id="text_12">
      <!-- 0.020 -->
      <g transform="translate(25.051875 119.406949) scale(0.1 -0.1)">
       <defs>
        <path id="DejaVuSans-32" d="M 1228 531 
L 3431 531 
L 3431 0 
L 469 0 
L 469 531 
Q 828 903 1448 1529 
Q 2069 2156 2228 2338 
Q 2531 2678 2651 2914 
Q 2772 3150 2772 3378 
Q 2772 3750 2511 3984 
Q 2250 4219 1831 4219 
Q 1534 4219 1204 4116 
Q 875 4013 500 3803 
L 500 4441 
Q 881 4594 1212 4672 
Q 1544 4750 1819 4750 
Q 2544 4750 2975 4387 
Q 3406 4025 3406 3419 
Q 3406 3131 3298 2873 
Q 3191 2616 2906 2266 
Q 2828 2175 2409 1742 
Q 1991 1309 1228 531 
z
" transform="scale(0.015625)"/>
       </defs>
       <use xlink:href="#DejaVuSans-30"/>
       <use xlink:href="#DejaVuSans-2e" transform="translate(63.623047 0)"/>
       <use xlink:href="#DejaVuSans-30" transform="translate(95.410156 0)"/>
       <use xlink:href="#DejaVuSans-32" transform="translate(159.033203 0)"/>
       <use xlink:href="#DejaVuSans-30" transform="translate(222.65625 0)"/>
      </g>
     </g>
    </g>
    <g id="ytick_6">
     <g id="line2d_18">
      <path d="M 60.68 84.416466 
L 709.2 84.416466 
" clip-path="url(#p1d7ad2fecd)" style="fill: none; stroke: #b0b0b0; stroke-opacity: 0.25; stroke-width: 0.8; stroke-linecap: square"/>
     </g>
     <g id="line2d_19">
      <g>
       <use xlink:href="#mac11d94965" x="60.68" y="84.416466" style="stroke: #000000; stroke-width: 0.8"/>
      </g>
     </g>
     <g id="text_13">
      <!-- 0.025 -->
      <g transform="translate(25.051875 88.215685) scale(0.1 -0.1)">
       <use xlink:href="#DejaVuSans-30"/>
       <use xlink:href="#DejaVuSans-2e" transform="translate(63.623047 0)"/>
       <use xlink:href="#DejaVuSans-30" transform="translate(95.410156 0)"/>
       <use xlink:href="#DejaVuSans-32" transform="translate(159.033203 0)"/>
       <use xlink:href="#DejaVuSans-35" transform="translate(222.65625 0)"/>
      </g>
     </g>
    </g>
    <g id="ytick_7">
     <g id="line2d_20">
      <path d="M 60.68 53.225203 
L 709.2 53.225203 
" clip-path="url(#p1d7ad2fecd)" style="fill: none; stroke: #b0b0b0; stroke-opacity: 0.25; stroke-width: 0.8; stroke-linecap: square"/>
     </g>
     <g id="line2d_21">
      <g>
       <use xlink:href="#mac11d94965" x="60.68" y="53.225203" style="stroke: #000000; stroke-width: 0.8"/>
      </g>
     </g>
     <g id="text_14">
      <!-- 0.030 -->
      <g transform="translate(25.051875 57.024421) scale(0.1 -0.1)">
       <defs>
        <path id="DejaVuSans-33" d="M 2597 2516 
Q 3050 2419 3304 2112 
Q 3559 1806 3559 1356 
Q 3559 666 3084 287 
Q 2609 -91 1734 -91 
Q 1441 -91 1130 -33 
Q 819 25 488 141 
L 488 750 
Q 750 597 1062 519 
Q 1375 441 1716 441 
Q 2309 441 2620 675 
Q 2931 909 2931 1356 
Q 2931 1769 2642 2001 
Q 2353 2234 1838 2234 
L 1294 2234 
L 1294 2753 
L 1863 2753 
Q 2328 2753 2575 2939 
Q 2822 3125 2822 3475 
Q 2822 3834 2567 4026 
Q 2313 4219 1838 4219 
Q 1578 4219 1281 4162 
Q 984 4106 628 3988 
L 628 4550 
Q 988 4650 1302 4700 
Q 1616 4750 1894 4750 
Q 2613 4750 3031 4423 
Q 3450 4097 3450 3541 
Q 3450 3153 3228 2886 
Q 3006 2619 2597 2516 
z
" transform="scale(0.015625)"/>
       </defs>
       <use xlink:href="#DejaVuSans-30"/>
       <use xlink:href="#DejaVuSans-2e" transform="translate(63.623047 0)"/>
       <use xlink:href="#DejaVuSans-30" transform="translate(95.410156 0)"/>
       <use xlink:href="#DejaVuSans-33" transform="translate(159.033203 0)"/>
       <use xlink:href="#DejaVuSans-30" transform="translate(222.65625 0)"/>
      </g>
     </g>
    </g>
    <g id="text_15">
     <!-- mean |actual - predicted| -->
     <g transform="translate(18.694063 196.858424) rotate(-90) scale(0.1 -0.1)">
      <defs>
       <path id="DejaVuSans-20" transform="scale(0.015625)"/>
       <path id="DejaVuSans-7c" d="M 1344 4891 
L 1344 -1509 
L 813 -1509 
L 813 4891 
L 1344 4891 
z
" transform="scale(0.015625)"/>
       <path id="DejaVuSans-2d" d="M 313 2009 
L 1997 2009 
L 1997 1497 
L 313 1497 
L 313 2009 
z
" transform="scale(0.015625)"/>
      </defs>
      <use xlink:href="#DejaVuSans-6d"/>
      <use xlink:href="#DejaVuSans-65" transform="translate(97.412109 0)"/>
      <use xlink:href="#DejaVuSans-61" transform="translate(158.935547 0)"/>
      <use xlink:href="#DejaVuSans-6e" transform="translate(220.214844 0)"/>
      <use xlink:href="#DejaVuSans-20" transform="translate(283.59375 0)"/>
      <use xlink:href="#DejaVuSans-7c" transform="translate(315.380859 0)"/>
      <use xlink:href="#DejaVuSans-61" transform="translate(349.072266 0)"/>
      <use xlink:href="#DejaVuSans-63" transform="translate(410.351562 0)"/>
      <use xlink:href="#DejaVuSans-74" transform="translate(465.332031 0)"/>
      <use xlink:href="#DejaVuSans-75" transform="translate(504.541016 0)"/>
      <use xlink:href="#DejaVuSans-61" transform="translate(567.919922 0)"/>
      <use xlink:href="#DejaVuSans-6c" transform="translate(629.199219 0)"/>
      <use xlink:href="#DejaVuSans-20" transform="translate(656.982422 0)"/>
      <use xlink:href="#DejaVuSans-2d" transform="translate(688.769531 0)"/>
      <use xlink:href="#DejaVuSans-20" transform="translate(724.853516 0)"/>
      <use xlink:href="#DejaVuSans-70" transform="translate(756.640625 0)"/>
      <use xlink:href="#DejaVuSans-72" transform="translate(820.117188 0)"/>
      <use xlink:href="#DejaVuSans-65" transform="translate(858.980469 0)"/>
      <use xlink:href="#DejaVuSans-64" transform="translate(920.503906 0)"/>
      <use xlink:href="#DejaVuSans-69" transform="translate(983.980469 0)"/>
      <use xlink:href="#DejaVuSans-63" transform="translate(1011.763672 0)"/>
      <use xlink:href="#DejaVuSans-74" transform="translate(1066.744141 0)"/>
      <use xlink:href="#DejaVuSans-65" transform="translate(1105.953125 0)"/>
      <use xlink:href="#DejaVuSans-64" transform="translate(1167.476562 0)"/>
      <use xlink:href="#DejaVuSans-7c" transform="translate(1230.953125 0)"/>
     </g>
    </g>
   </g>
   <g id="patch_17">
    <path d="M 60.68 240.372785 
L 60.68 26.88 
" style="fill: none; stroke: #000000; stroke-width: 0.8; stroke-linejoin: miter; stroke-linecap: square"/>
   </g>
   <g id="patch_18">
    <path d="M 709.2 240.372785 
L 709.2 26.88 
" style="fill: none; stroke: #000000; stroke-width: 0.8; stroke-linejoin: miter; stroke-linecap: square"/>
   </g>
   <g id="patch_19">
    <path d="M 60.68 240.372785 
L 709.2 240.372785 
" style="fill: none; stroke: #000000; stroke-width: 0.8; stroke-linejoin: miter; stroke-linecap: square"/>
   </g>
   <g id="patch_20">
    <path d="M 60.68 26.88 
L 709.2 26.88 
" style="fill: none; stroke: #000000; stroke-width: 0.8; stroke-linejoin: miter; stroke-linecap: square"/>
   </g>
   <g id="text_16">
    <!-- Scalar residual diagnosis: mean absolute error -->
    <g transform="translate(245.329375 20.88) scale(0.12 -0.12)">
     <defs>
      <path id="DejaVuSans-53" d="M 3425 4513 
L 3425 3897 
Q 3066 4069 2747 4153 
Q 2428 4238 2131 4238 
Q 1616 4238 1336 4038 
Q 1056 3838 1056 3469 
Q 1056 3159 1242 3001 
Q 1428 2844 1947 2747 
L 2328 2669 
Q 3034 2534 3370 2195 
Q 3706 1856 3706 1288 
Q 3706 609 3251 259 
Q 2797 -91 1919 -91 
Q 1588 -91 1214 -16 
Q 841 59 441 206 
L 441 856 
Q 825 641 1194 531 
Q 1563 422 1919 422 
Q 2459 422 2753 634 
Q 3047 847 3047 1241 
Q 3047 1584 2836 1778 
Q 2625 1972 2144 2069 
L 1759 2144 
Q 1053 2284 737 2584 
Q 422 2884 422 3419 
Q 422 4038 858 4394 
Q 1294 4750 2059 4750 
Q 2388 4750 2728 4690 
Q 3069 4631 3425 4513 
z
" transform="scale(0.015625)"/>
      <path id="DejaVuSans-3a" d="M 750 794 
L 1409 794 
L 1409 0 
L 750 0 
L 750 794 
z
M 750 3309 
L 1409 3309 
L 1409 2516 
L 750 2516 
L 750 3309 
z
" transform="scale(0.015625)"/>
     </defs>
     <use xlink:href="#DejaVuSans-53"/>
     <use xlink:href="#DejaVuSans-63" transform="translate(63.476562 0)"/>
     <use xlink:href="#DejaVuSans-61" transform="translate(118.457031 0)"/>
     <use xlink:href="#DejaVuSans-6c" transform="translate(179.736328 0)"/>
     <use xlink:href="#DejaVuSans-61" transform="translate(207.519531 0)"/>
     <use xlink:href="#DejaVuSans-72" transform="translate(268.798828 0)"/>
     <use xlink:href="#DejaVuSans-20" transform="translate(309.912109 0)"/>
     <use xlink:href="#DejaVuSans-72" transform="translate(341.699219 0)"/>
     <use xlink:href="#DejaVuSans-65" transform="translate(380.5625 0)"/>
     <use xlink:href="#DejaVuSans-73" transform="translate(442.085938 0)"/>
     <use xlink:href="#DejaVuSans-69" transform="translate(494.185547 0)"/>
     <use xlink:href="#DejaVuSans-64" transform="translate(521.96875 0)"/>
     <use xlink:href="#DejaVuSans-75" transform="translate(585.445312 0)"/>
     <use xlink:href="#DejaVuSans-61" transform="translate(648.824219 0)"/>
     <use xlink:href="#DejaVuSans-6c" transform="translate(710.103516 0)"/>
     <use xlink:href="#DejaVuSans-20" transform="translate(737.886719 0)"/>
     <use xlink:href="#DejaVuSans-64" transform="translate(769.673828 0)"/>
     <use xlink:href="#DejaVuSans-69" transform="translate(833.150391 0)"/>
     <use xlink:href="#DejaVuSans-61" transform="translate(860.933594 0)"/>
     <use xlink:href="#DejaVuSans-67" transform="translate(922.212891 0)"/>
     <use xlink:href="#DejaVuSans-6e" transform="translate(985.689453 0)"/>
     <use xlink:href="#DejaVuSans-6f" transform="translate(1049.068359 0)"/>
     <use xlink:href="#DejaVuSans-73" transform="translate(1110.25 0)"/>
     <use xlink:href="#DejaVuSans-69" transform="translate(1162.349609 0)"/>
     <use xlink:href="#DejaVuSans-73" transform="translate(1190.132812 0)"/>
     <use xlink:href="#DejaVuSans-3a" transform="translate(1242.232422 0)"/>
     <use xlink:href="#DejaVuSans-20" transform="translate(1275.923828 0)"/>
     <use xlink:href="#DejaVuSans-6d" transform="translate(1307.710938 0)"/>
     <use xlink:href="#DejaVuSans-65" transform="translate(1405.123047 0)"/>
     <use xlink:href="#DejaVuSans-61" transform="translate(1466.646484 0)"/>
     <use xlink:href="#DejaVuSans-6e" transform="translate(1527.925781 0)"/>
     <use xlink:href="#DejaVuSans-20" transform="translate(1591.304688 0)"/>
     <use xlink:href="#DejaVuSans-61" transform="translate(1623.091797 0)"/>
     <use xlink:href="#DejaVuSans-62" transform="translate(1684.371094 0)"/>
     <use xlink:href="#DejaVuSans-73" transform="translate(1747.847656 0)"/>
     <use xlink:href="#DejaVuSans-6f" transform="translate(1799.947266 0)"/>
     <use xlink:href="#DejaVuSans-6c" transform="translate(1861.128906 0)"/>
     <use xlink:href="#DejaVuSans-75" transform="translate(1888.912109 0)"/>
     <use xlink:href="#DejaVuSans-74" transform="translate(1952.291016 0)"/>
     <use xlink:href="#DejaVuSans-65" transform="translate(1991.5 0)"/>
     <use xlink:href="#DejaVuSans-20" transform="translate(2053.023438 0)"/>
     <use xlink:href="#DejaVuSans-65" transform="translate(2084.810547 0)"/>
     <use xlink:href="#DejaVuSans-72" transform="translate(2146.333984 0)"/>
     <use xlink:href="#DejaVuSans-72" transform="translate(2185.697266 0)"/>
     <use xlink:href="#DejaVuSans-6f" transform="translate(2224.560547 0)"/>
     <use xlink:href="#DejaVuSans-72" transform="translate(2285.742188 0)"/>
    </g>
   </g>
   <g id="legend_1">
    <g id="patch_21">
     <path d="M 580.125 64.23625 
L 702.2 64.23625 
Q 704.2 64.23625 704.2 62.23625 
L 704.2 33.88 
Q 704.2 31.88 702.2 31.88 
L 580.125 31.88 
Q 578.125 31.88 578.125 33.88 
L 578.125 62.23625 
Q 578.125 64.23625 580.125 64.23625 
z
" style="fill: #ffffff; opacity: 0.8; stroke: #cccccc; stroke-linejoin: miter"/>
    </g>
    <g id="patch_22">
     <path d="M 582.125 43.478437 
L 602.125 43.478437 
L 602.125 36.478437 
L 582.125 36.478437 
z
" style="fill: #376f8f"/>
    </g>
    <g id="text_17">
     <!-- first-order -->
     <g transform="translate(610.125 43.478437) scale(0.1 -0.1)">
      <use xlink:href="#DejaVuSans-66"/>
      <use xlink:href="#DejaVuSans-69" transform="translate(35.205078 0)"/>
      <use xlink:href="#DejaVuSans-72" transform="translate(62.988281 0)"/>
      <use xlink:href="#DejaVuSans-73" transform="translate(104.101562 0)"/>
      <use xlink:href="#DejaVuSans-74" transform="translate(156.201172 0)"/>
      <use xlink:href="#DejaVuSans-2d" transform="translate(195.410156 0)"/>
      <use xlink:href="#DejaVuSans-6f" transform="translate(233.369141 0)"/>
      <use xlink:href="#DejaVuSans-72" transform="translate(294.550781 0)"/>
      <use xlink:href="#DejaVuSans-64" transform="translate(333.914062 0)"/>
      <use xlink:href="#DejaVuSans-65" transform="translate(397.390625 0)"/>
      <use xlink:href="#DejaVuSans-72" transform="translate(458.914062 0)"/>
     </g>
    </g>
    <g id="patch_23">
     <path d="M 582.125 58.156563 
L 602.125 58.156563 
L 602.125 51.156563 
L 582.125 51.156563 
z
" style="fill: #6f8f37"/>
    </g>
    <g id="text_18">
     <!-- endpoint-gradient -->
     <g transform="translate(610.125 58.156563) scale(0.1 -0.1)">
      <use xlink:href="#DejaVuSans-65"/>
      <use xlink:href="#DejaVuSans-6e" transform="translate(61.523438 0)"/>
      <use xlink:href="#DejaVuSans-64" transform="translate(124.902344 0)"/>
      <use xlink:href="#DejaVuSans-70" transform="translate(188.378906 0)"/>
      <use xlink:href="#DejaVuSans-6f" transform="translate(251.855469 0)"/>
      <use xlink:href="#DejaVuSans-69" transform="translate(313.037109 0)"/>
      <use xlink:href="#DejaVuSans-6e" transform="translate(340.820312 0)"/>
      <use xlink:href="#DejaVuSans-74" transform="translate(404.199219 0)"/>
      <use xlink:href="#DejaVuSans-2d" transform="translate(443.408203 0)"/>
      <use xlink:href="#DejaVuSans-67" transform="translate(479.492188 0)"/>
      <use xlink:href="#DejaVuSans-72" transform="translate(542.96875 0)"/>
      <use xlink:href="#DejaVuSans-61" transform="translate(584.082031 0)"/>
      <use xlink:href="#DejaVuSans-64" transform="translate(645.361328 0)"/>
      <use xlink:href="#DejaVuSans-69" transform="translate(708.837891 0)"/>
      <use xlink:href="#DejaVuSans-65" transform="translate(736.621094 0)"/>
      <use xlink:href="#DejaVuSans-6e" transform="translate(798.144531 0)"/>
      <use xlink:href="#DejaVuSans-74" transform="translate(861.523438 0)"/>
     </g>
    </g>
   </g>
  </g>
 </g>
 <defs>
  <clipPath id="p1d7ad2fecd">
   <rect x="60.68" y="26.88" width="648.52" height="213.492785"/>
  </clipPath>
 </defs>
</svg>
