<?xml version="1.0" encoding="utf-8" standalone="no"?>
<!DOCTYPE svg PUBLIC "-//W3C//DTD SVG 1.1//EN"
  "http://www.w3.org/Graphics/SVG/1.1/DTD/svg11.dtd">
<svg xmlns:xlink="http://www.w3.org/1999/xlink" width="864pt" height="432pt" viewBox="0 0 864 432" xmlns="http://www.w3.org/2000/svg" version="1.1">
 <metadata>
  <rdf:RDF xmlns:dc="http://purl.org/dc/elements/1.1/" xmlns:cc="http://creativecommons.org/ns#" xmlns:rdf="http://www.w3.org/1999/02/22-rdf-syntax-ns#">
   <cc:Work>
    <dc:type rdf:resource="http://purl.org/dc/dcmitype/StillImage"/>
    <dc:date>2026-04-11T14:01:16.381937</dc:date>
    <dc:format>image/svg+xml</dc:format>
    <dc:creator>
     <cc:Agent>
      <dc:title>Matplotlib v3.10.1, https://matplotlib.org/</dc:title>
     </cc:Agent>
    </dc:creator>
   </cc:Work>
  </rdf:RDF>
 </metadata>
 <defs>
  <style type="text/css">*{stroke-linejoin: round; stroke-linecap: butt}</style>
 </defs>
 <g id="figure_1">
  <g id="patch_1">
   <path d="M 0 432 
L 864 432 
L 864 0 
L 0 0 
z
" style="fill: #ffffff"/>
  </g>
  <g id="axes_1">
   <g id="patch_2">
    <path d="M 73.916145 293.530799 
L 853.2 293.530799 
L 853.2 26.88 
L 73.916145 26.88 
z
" style="fill: #ffffff"/>
   </g>
   <g id="patch_3">
    <path d="M 109.338139 236.886594 
L 151.74475 236.886594 
L 151.74475 39.000491 
L 109.338139 39.000491 
z
" clip-path="url(#p0b819fc24b)" style="fill: #1f77b4"/>
   </g>
   <g id="patch_4">
    <path d="M 234.063467 236.886594 
L 276.470079 236.886594 
L 276.470079 222.905929 
L 234.063467 222.905929 
z
" clip-path="url(#p0b819fc24b)" style="fill: #1f77b4"/>
   </g>
   <g id="patch_5">
    <path d="M 358.788796 236.886594 
L 401.195408 236.886594 
L 401.195408 233.096952 
L 358.788796 233.096952 
z
" clip-path="url(#p0b819fc24b)" style="fill: #1f77b4"/>
   </g>
   <g id="patch_6">
    <path d="M 483.514125 236.886594 
L 525.920737 236.886594 
L 525.920737 39.000491 
L 483.514125 39.000491 
z
" clip-path="url(#p0b819fc24b)" style="fill: #1f77b4"/>
   </g>
   <g id="patch_7">
    <path d="M 608.239454 236.886594 
L 650.646066 236.886594 
L 650.646066 222.905929 
L 608.239454 222.905929 
z
" clip-path="url(#p0b819fc24b)" style="fill: #1f77b4"/>
   </g>
   <g id="patch_8">
    <path d="M 732.964783 236.886594 
L 775.371395 236.886594 
L 775.371395 233.096952 
L 732.964783 233.096952 
z
" clip-path="url(#p0b819fc24b)" style="fill: #1f77b4"/>
   </g>
   <g id="patch_9">
    <path d="M 151.74475 236.886594 
L 194.151362 236.886594 
L 194.151362 261.472214 
L 151.74475 261.472214 
z
" clip-path="url(#p0b819fc24b)" style="fill: #ff7f0e"/>
   </g>
   <g id="patch_10">
    <path d="M 276.470079 236.886594 
L 318.876691 236.886594 
L 318.876691 149.977764 
L 276.470079 149.977764 
z
" clip-path="url(#p0b819fc24b)" style="fill: #ff7f0e"/>
   </g>
   <g id="patch_11">
    <path d="M 401.195408 236.886594 
L 443.60202 236.886594 
L 443.60202 215.910229 
L 401.195408 215.910229 
z
" clip-path="url(#p0b819fc24b)" style="fill: #ff7f0e"/>
   </g>
   <g id="patch_12">
    <path d="M 525.920737 236.886594 
L 568.327349 236.886594 
L 568.327349 281.410308 
L 525.920737 281.410308 
z
" clip-path="url(#p0b819fc24b)" style="fill: #ff7f0e"/>
   </g>
   <g id="patch_13">
    <path d="M 650.646066 236.886594 
L 693.052678 236.886594 
L 693.052678 178.435104 
L 650.646066 178.435104 
z
" clip-path="url(#p0b819fc24b)" style="fill: #ff7f0e"/>
   </g>
   <g id="patch_14">
    <path d="M 775.371395 236.886594 
L 817.778007 236.886594 
L 817.778007 139.272422 
L 775.371395 139.272422 
z
" clip-path="url(#p0b819fc24b)" style="fill: #ff7f0e"/>
   </g>
   <g id="matplotlib.axis_1">
    <g id="xtick_1">
     <g id="line2d_1">
      <defs>
       <path id="me61a2cb3d4" d="M 0 0 
L 0 3.5 
" style="stroke: #000000; stroke-width: 0.8"/>
      </defs>
      <g>
       <use xlink:href="#me61a2cb3d4" x="151.74475" y="293.530799" style="stroke: #000000; stroke-width: 0.8"/>
      </g>
     </g>
     <g id="text_1">
      <!-- layer2_family7_top2:top_head -->
      <g transform="translate(26.576253 393.452049) rotate(-35) scale(0.1 -0.1)">
       <defs>
        <path id="DejaVuSans-6c" d="M 603 4863 
L 1178 4863 
L 1178 0 
L 603 0 
L 603 4863 
z
" transform="scale(0.015625)"/>
        <path id="DejaVuSans-61" d="M 2194 1759 
Q 1497 1759 1228 1600 
Q 959 1441 959 1056 
Q 959 750 1161 570 
Q 1363 391 1709 391 
Q 2188 391 2477 730 
Q 2766 1069 2766 1631 
L 2766 1759 
L 2194 1759 
z
M 3341 1997 
L 3341 0 
L 2766 0 
L 2766 531 
Q 2569 213 2275 61 
Q 1981 -91 1556 -91 
Q 1019 -91 701 211 
Q 384 513 384 1019 
Q 384 1609 779 1909 
Q 1175 2209 1959 2209 
L 2766 2209 
L 2766 2266 
Q 2766 2663 2505 2880 
Q 2244 3097 1772 3097 
Q 1472 3097 1187 3025 
Q 903 2953 641 2809 
L 641 3341 
Q 956 3463 1253 3523 
Q 1550 3584 1831 3584 
Q 2591 3584 2966 3190 
Q 3341 2797 3341 1997 
z
" transform="scale(0.015625)"/>
        <path id="DejaVuSans-79" d="M 2059 -325 
Q 1816 -950 1584 -1140 
Q 1353 -1331 966 -1331 
L 506 -1331 
L 506 -850 
L 844 -850 
Q 1081 -850 1212 -737 
Q 1344 -625 1503 -206 
L 1606 56 
L 191 3500 
L 800 3500 
L 1894 763 
L 2988 3500 
L 3597 3500 
L 2059 -325 
z
" transform="scale(0.015625)"/>
        <path id="DejaVuSans-65" d="M 3597 1894 
L 3597 1613 
L 953 1613 
Q 991 1019 1311 708 
Q 1631 397 2203 397 
Q 2534 397 2845 478 
Q 3156 559 3463 722 
L 3463 178 
Q 3153 47 2828 -22 
Q 2503 -91 2169 -91 
Q 1331 -91 842 396 
Q 353 884 353 1716 
Q 353 2575 817 3079 
Q 1281 3584 2069 3584 
Q 2775 3584 3186 3129 
Q 3597 2675 3597 1894 
z
M 3022 2063 
Q 3016 2534 2758 2815 
Q 2500 3097 2075 3097 
Q 1594 3097 1305 2825 
Q 1016 2553 972 2059 
L 3022 2063 
z
" transform="scale(0.015625)"/>
        <path id="DejaVuSans-72" d="M 2631 2963 
Q 2534 3019 2420 3045 
Q 2306 3072 2169 3072 
Q 1681 3072 1420 2755 
Q 1159 2438 1159 1844 
L 1159 0 
L 581 0 
L 581 3500 
L 1159 3500 
L 1159 2956 
Q 1341 3275 1631 3429 
Q 1922 3584 2338 3584 
Q 2397 3584 2469 3576 
Q 2541 3569 2628 3553 
L 2631 2963 
z
" transform="scale(0.015625)"/>
        <path id="DejaVuSans-32" d="M 1228 531 
L 3431 531 
L 3431 0 
L 469 0 
L 469 531 
Q 828 903 1448 1529 
Q 2069 2156 2228 2338 
Q 2531 2678 2651 2914 
Q 2772 3150 2772 3378 
Q 2772 3750 2511 3984 
Q 2250 4219 1831 4219 
Q 1534 4219 1204 4116 
Q 875 4013 500 3803 
L 500 4441 
Q 881 4594 1212 4672 
Q 1544 4750 1819 4750 
Q 2544 4750 2975 4387 
Q 3406 4025 3406 3419 
Q 3406 3131 3298 2873 
Q 3191 2616 2906 2266 
Q 2828 2175 2409 1742 
Q 1991 1309 1228 531 
z
" transform="scale(0.015625)"/>
        <path id="DejaVuSans-5f" d="M 3263 -1063 
L 3263 -1509 
L -63 -1509 
L -63 -1063 
L 3263 -1063 
z
" transform="scale(0.015625)"/>
        <path id="DejaVuSans-66" d="M 2375 4863 
L 2375 4384 
L 1825 4384 
Q 1516 4384 1395 4259 
Q 1275 4134 1275 3809 
L 1275 3500 
L 2222 3500 
L 2222 3053 
L 1275 3053 
L 1275 0 
L 697 0 
L 697 3053 
L 147 3053 
L 147 3500 
L 697 3500 
L 697 3744 
Q 697 4328 969 4595 
Q 1241 4863 1831 4863 
L 2375 4863 
z
" transform="scale(0.015625)"/>
        <path id="DejaVuSans-6d" d="M 3328 2828 
Q 3544 3216 3844 3400 
Q 4144 3584 4550 3584 
Q 5097 3584 5394 3201 
Q 5691 2819 5691 2113 
L 5691 0 
L 5113 0 
L 5113 2094 
Q 5113 2597 4934 2840 
Q 4756 3084 4391 3084 
Q 3944 3084 3684 2787 
Q 3425 2491 3425 1978 
L 3425 0 
L 2847 0 
L 2847 2094 
Q 2847 2600 2669 2842 
Q 2491 3084 2119 3084 
Q 1678 3084 1418 2786 
Q 1159 2488 1159 1978 
L 1159 0 
L 581 0 
L 581 3500 
L 1159 3500 
L 1159 2956 
Q 1356 3278 1631 3431 
Q 1906 3584 2284 3584 
Q 2666 3584 2933 3390 
Q 3200 3197 3328 2828 
z
" transform="scale(0.015625)"/>
        <path id="DejaVuSans-69" d="M 603 3500 
L 1178 3500 
L 1178 0 
L 603 0 
L 603 3500 
z
M 603 4863 
L 1178 4863 
L 1178 4134 
L 603 4134 
L 603 4863 
z
" transform="scale(0.015625)"/>
        <path id="DejaVuSans-37" d="M 525 4666 
L 3525 4666 
L 3525 4397 
L 1831 0 
L 1172 0 
L 2766 4134 
L 525 4134 
L 525 4666 
z
" transform="scale(0.015625)"/>
        <path id="DejaVuSans-74" d="M 1172 4494 
L 1172 3500 
L 2356 3500 
L 2356 3053 
L 1172 3053 
L 1172 1153 
Q 1172 725 1289 603 
Q 1406 481 1766 481 
L 2356 481 
L 2356 0 
L 1766 0 
Q 1100 0 847 248 
Q 594 497 594 1153 
L 594 3053 
L 172 3053 
L 172 3500 
L 594 3500 
L 594 4494 
L 1172 4494 
z
" transform="scale(0.015625)"/>
        <path id="DejaVuSans-6f" d="M 1959 3097 
Q 1497 3097 1228 2736 
Q 959 2375 959 1747 
Q 959 1119 1226 758 
Q 1494 397 1959 397 
Q 2419 397 2687 759 
Q 2956 1122 2956 1747 
Q 2956 2369 2687 2733 
Q 2419 3097 1959 3097 
z
M 1959 3584 
Q 2709 3584 3137 3096 
Q 3566 2609 3566 1747 
Q 3566 888 3137 398 
Q 2709 -91 1959 -91 
Q 1206 -91 779 398 
Q 353 888 353 1747 
Q 353 2609 779 3096 
Q 1206 3584 1959 3584 
z
" transform="scale(0.015625)"/>
        <path id="DejaVuSans-70" d="M 1159 525 
L 1159 -1331 
L 581 -1331 
L 581 3500 
L 1159 3500 
L 1159 2969 
Q 1341 3281 1617 3432 
Q 1894 3584 2278 3584 
Q 2916 3584 3314 3078 
Q 3713 2572 3713 1747 
Q 3713 922 3314 415 
Q 2916 -91 2278 -91 
Q 1894 -91 1617 61 
Q 1341 213 1159 525 
z
M 3116 1747 
Q 3116 2381 2855 2742 
Q 2594 3103 2138 3103 
Q 1681 3103 1420 2742 
Q 1159 2381 1159 1747 
Q 1159 1113 1420 752 
Q 1681 391 2138 391 
Q 2594 391 2855 752 
Q 3116 1113 3116 1747 
z
" transform="scale(0.015625)"/>
        <path id="DejaVuSans-3a" d="M 750 794 
L 1409 794 
L 1409 0 
L 750 0 
L 750 794 
z
M 750 3309 
L 1409 3309 
L 1409 2516 
L 750 2516 
L 750 3309 
z
" transform="scale(0.015625)"/>
        <path id="DejaVuSans-68" d="M 3513 2113 
L 3513 0 
L 2938 0 
L 2938 2094 
Q 2938 2591 2744 2837 
Q 2550 3084 2163 3084 
Q 1697 3084 1428 2787 
Q 1159 2491 1159 1978 
L 1159 0 
L 581 0 
L 581 4863 
L 1159 4863 
L 1159 2956 
Q 1366 3272 1645 3428 
Q 1925 3584 2291 3584 
Q 2894 3584 3203 3211 
Q 3513 2838 3513 2113 
z
" transform="scale(0.015625)"/>
        <path id="DejaVuSans-64" d="M 2906 2969 
L 2906 4863 
L 3481 4863 
L 3481 0 
L 2906 0 
L 2906 525 
Q 2725 213 2448 61 
Q 2172 -91 1784 -91 
Q 1150 -91 751 415 
Q 353 922 353 1747 
Q 353 2572 751 3078 
Q 1150 3584 1784 3584 
Q 2172 3584 2448 3432 
Q 2725 3281 2906 2969 
z
M 947 1747 
Q 947 1113 1208 752 
Q 1469 391 1925 391 
Q 2381 391 2643 752 
Q 2906 1113 2906 1747 
Q 2906 2381 2643 2742 
Q 2381 3103 1925 3103 
Q 1469 3103 1208 2742 
Q 947 2381 947 1747 
z
" transform="scale(0.015625)"/>
       </defs>
       <use xlink:href="#DejaVuSans-6c"/>
       <use xlink:href="#DejaVuSans-61" transform="translate(27.783203 0)"/>
       <use xlink:href="#DejaVuSans-79" transform="translate(89.0625 0)"/>
       <use xlink:href="#DejaVuSans-65" transform="translate(148.242188 0)"/>
       <use xlink:href="#DejaVuSans-72" transform="translate(209.765625 0)"/>
       <use xlink:href="#DejaVuSans-32" transform="translate(250.878906 0)"/>
       <use xlink:href="#DejaVuSans-5f" transform="translate(314.501953 0)"/>
       <use xlink:href="#DejaVuSans-66" transform="translate(364.501953 0)"/>
       <use xlink:href="#DejaVuSans-61" transform="translate(399.707031 0)"/>
       <use xlink:href="#DejaVuSans-6d" transform="translate(460.986328 0)"/>
       <use xlink:href="#DejaVuSans-69" transform="translate(558.398438 0)"/>
       <use xlink:href="#DejaVuSans-6c" transform="translate(586.181641 0)"/>
       <use xlink:href="#DejaVuSans-79" transform="translate(613.964844 0)"/>
       <use xlink:href="#DejaVuSans-37" transform="translate(673.144531 0)"/>
       <use xlink:href="#DejaVuSans-5f" transform="translate(736.767578 0)"/>
       <use xlink:href="#DejaVuSans-74" transform="translate(786.767578 0)"/>
       <use xlink:href="#DejaVuSans-6f" transform="translate(825.976562 0)"/>
       <use xlink:href="#DejaVuSans-70" transform="translate(887.158203 0)"/>
       <use xlink:href="#DejaVuSans-32" transform="translate(950.634766 0)"/>
       <use xlink:href="#DejaVuSans-3a" transform="translate(1014.257812 0)"/>
       <use xlink:href="#DejaVuSans-74" transform="translate(1047.949219 0)"/>
       <use xlink:href="#DejaVuSans-6f" transform="translate(1087.158203 0)"/>
       <use xlink:href="#DejaVuSans-70" transform="translate(1148.339844 0)"/>
       <use xlink:href="#DejaVuSans-5f" transform="translate(1211.816406 0)"/>
       <use xlink:href="#DejaVuSans-68" transform="translate(1261.816406 0)"/>
       <use xlink:href="#DejaVuSans-65" transform="translate(1325.195312 0)"/>
       <use xlink:href="#DejaVuSans-61" transform="translate(1386.71875 0)"/>
       <use xlink:href="#DejaVuSans-64" transform="translate(1447.998047 0)"/>
      </g>
     </g>
    </g>
    <g id="xtick_2">
     <g id="line2d_2">
      <g>
       <use xlink:href="#me61a2cb3d4" x="276.470079" y="293.530799" style="stroke: #000000; stroke-width: 0.8"/>
      </g>
     </g>
     <g id="text_2">
      <!-- layer2_family7_top2:top_mlp -->
      <g transform="translate(156.29841 389.953233) rotate(-35) scale(0.1 -0.1)">
       <use xlink:href="#DejaVuSans-6c"/>
       <use xlink:href="#DejaVuSans-61" transform="translate(27.783203 0)"/>
       <use xlink:href="#DejaVuSans-79" transform="translate(89.0625 0)"/>
       <use xlink:href="#DejaVuSans-65" transform="translate(148.242188 0)"/>
       <use xlink:href="#DejaVuSans-72" transform="translate(209.765625 0)"/>
       <use xlink:href="#DejaVuSans-32" transform="translate(250.878906 0)"/>
       <use xlink:href="#DejaVuSans-5f" transform="translate(314.501953 0)"/>
       <use xlink:href="#DejaVuSans-66" transform="translate(364.501953 0)"/>
       <use xlink:href="#DejaVuSans-61" transform="translate(399.707031 0)"/>
       <use xlink:href="#DejaVuSans-6d" transform="translate(460.986328 0)"/>
       <use xlink:href="#DejaVuSans-69" transform="translate(558.398438 0)"/>
       <use xlink:href="#DejaVuSans-6c" transform="translate(586.181641 0)"/>
       <use xlink:href="#DejaVuSans-79" transform="translate(613.964844 0)"/>
       <use xlink:href="#DejaVuSans-37" transform="translate(673.144531 0)"/>
       <use xlink:href="#DejaVuSans-5f" transform="translate(736.767578 0)"/>
       <use xlink:href="#DejaVuSans-74" transform="translate(786.767578 0)"/>
       <use xlink:href="#DejaVuSans-6f" transform="translate(825.976562 0)"/>
       <use xlink:href="#DejaVuSans-70" transform="translate(887.158203 0)"/>
       <use xlink:href="#DejaVuSans-32" transform="translate(950.634766 0)"/>
       <use xlink:href="#DejaVuSans-3a" transform="translate(1014.257812 0)"/>
       <use xlink:href="#DejaVuSans-74" transform="translate(1047.949219 0)"/>
       <use xlink:href="#DejaVuSans-6f" transform="translate(1087.158203 0)"/>
       <use xlink:href="#DejaVuSans-70" transform="translate(1148.339844 0)"/>
       <use xlink:href="#DejaVuSans-5f" transform="translate(1211.816406 0)"/>
       <use xlink:href="#DejaVuSans-6d" transform="translate(1261.816406 0)"/>
       <use xlink:href="#DejaVuSans-6c" transform="translate(1359.228516 0)"/>
       <use xlink:href="#DejaVuSans-70" transform="translate(1387.011719 0)"/>
      </g>
     </g>
    </g>
    <g id="xtick_3">
     <g id="line2d_3">
      <g>
       <use xlink:href="#me61a2cb3d4" x="401.195408" y="293.530799" style="stroke: #000000; stroke-width: 0.8"/>
      </g>
     </g>
     <g id="text_3">
      <!-- layer2_family7_top2:top_neuron_group -->
      <g transform="translate(239.785833 418.828325) rotate(-35) scale(0.1 -0.1)">
       <defs>
        <path id="DejaVuSans-6e" d="M 3513 2113 
L 3513 0 
L 2938 0 
L 2938 2094 
Q 2938 2591 2744 2837 
Q 2550 3084 2163 3084 
Q 1697 3084 1428 2787 
Q 1159 2491 1159 1978 
L 1159 0 
L 581 0 
L 581 3500 
L 1159 3500 
L 1159 2956 
Q 1366 3272 1645 3428 
Q 1925 3584 2291 3584 
Q 2894 3584 3203 3211 
Q 3513 2838 3513 2113 
z
" transform="scale(0.015625)"/>
        <path id="DejaVuSans-75" d="M 544 1381 
L 544 3500 
L 1119 3500 
L 1119 1403 
Q 1119 906 1312 657 
Q 1506 409 1894 409 
Q 2359 409 2629 706 
Q 2900 1003 2900 1516 
L 2900 3500 
L 3475 3500 
L 3475 0 
L 2900 0 
L 2900 538 
Q 2691 219 2414 64 
Q 2138 -91 1772 -91 
Q 1169 -91 856 284 
Q 544 659 544 1381 
z
M 1991 3584 
L 1991 3584 
z
" transform="scale(0.015625)"/>
        <path id="DejaVuSans-67" d="M 2906 1791 
Q 2906 2416 2648 2759 
Q 2391 3103 1925 3103 
Q 1463 3103 1205 2759 
Q 947 2416 947 1791 
Q 947 1169 1205 825 
Q 1463 481 1925 481 
Q 2391 481 2648 825 
Q 2906 1169 2906 1791 
z
M 3481 434 
Q 3481 -459 3084 -895 
Q 2688 -1331 1869 -1331 
Q 1566 -1331 1297 -1286 
Q 1028 -1241 775 -1147 
L 775 -588 
Q 1028 -725 1275 -790 
Q 1522 -856 1778 -856 
Q 2344 -856 2625 -561 
Q 2906 -266 2906 331 
L 2906 616 
Q 2728 306 2450 153 
Q 2172 0 1784 0 
Q 1141 0 747 490 
Q 353 981 353 1791 
Q 353 2603 747 3093 
Q 1141 3584 1784 3584 
Q 2172 3584 2450 3431 
Q 2728 3278 2906 2969 
L 2906 3500 
L 3481 3500 
L 3481 434 
z
" transform="scale(0.015625)"/>
       </defs>
       <use xlink:href="#DejaVuSans-6c"/>
       <use xlink:href="#DejaVuSans-61" transform="translate(27.783203 0)"/>
       <use xlink:href="#DejaVuSans-79" transform="translate(89.0625 0)"/>
       <use xlink:href="#DejaVuSans-65" transform="translate(148.242188 0)"/>
       <use xlink:href="#DejaVuSans-72" transform="translate(209.765625 0)"/>
       <use xlink:href="#DejaVuSans-32" transform="translate(250.878906 0)"/>
       <use xlink:href="#DejaVuSans-5f" transform="translate(314.501953 0)"/>
       <use xlink:href="#DejaVuSans-66" transform="translate(364.501953 0)"/>
       <use xlink:href="#DejaVuSans-61" transform="translate(399.707031 0)"/>
       <use xlink:href="#DejaVuSans-6d" transform="translate(460.986328 0)"/>
       <use xlink:href="#DejaVuSans-69" transform="translate(558.398438 0)"/>
       <use xlink:href="#DejaVuSans-6c" transform="translate(586.181641 0)"/>
       <use xlink:href="#DejaVuSans-79" transform="translate(613.964844 0)"/>
       <use xlink:href="#DejaVuSans-37" transform="translate(673.144531 0)"/>
       <use xlink:href="#DejaVuSans-5f" transform="translate(736.767578 0)"/>
       <use xlink:href="#DejaVuSans-74" transform="translate(786.767578 0)"/>
       <use xlink:href="#DejaVuSans-6f" transform="translate(825.976562 0)"/>
       <use xlink:href="#DejaVuSans-70" transform="translate(887.158203 0)"/>
       <use xlink:href="#DejaVuSans-32" transform="translate(950.634766 0)"/>
       <use xlink:href="#DejaVuSans-3a" transform="translate(1014.257812 0)"/>
       <use xlink:href="#DejaVuSans-74" transform="translate(1047.949219 0)"/>
       <use xlink:href="#DejaVuSans-6f" transform="translate(1087.158203 0)"/>
       <use xlink:href="#DejaVuSans-70" transform="translate(1148.339844 0)"/>
       <use xlink:href="#DejaVuSans-5f" transform="translate(1211.816406 0)"/>
       <use xlink:href="#DejaVuSans-6e" transform="translate(1261.816406 0)"/>
       <use xlink:href="#DejaVuSans-65" transform="translate(1325.195312 0)"/>
       <use xlink:href="#DejaVuSans-75" transform="translate(1386.71875 0)"/>
       <use xlink:href="#DejaVuSans-72" transform="translate(1450.097656 0)"/>
       <use xlink:href="#DejaVuSans-6f" transform="translate(1488.960938 0)"/>
       <use xlink:href="#DejaVuSans-6e" transform="translate(1550.142578 0)"/>
       <use xlink:href="#DejaVuSans-5f" transform="translate(1613.521484 0)"/>
       <use xlink:href="#DejaVuSans-67" transform="translate(1663.521484 0)"/>
       <use xlink:href="#DejaVuSans-72" transform="translate(1726.998047 0)"/>
       <use xlink:href="#DejaVuSans-6f" transform="translate(1765.861328 0)"/>
       <use xlink:href="#DejaVuSans-75" transform="translate(1827.042969 0)"/>
       <use xlink:href="#DejaVuSans-70" transform="translate(1890.421875 0)"/>
      </g>
     </g>
    </g>
    <g id="xtick_4">
     <g id="line2d_4">
      <g>
       <use xlink:href="#me61a2cb3d4" x="525.920737" y="293.530799" style="stroke: #000000; stroke-width: 0.8"/>
      </g>
     </g>
     <g id="text_4">
      <!-- layer2_family4_top2:top_head -->
      <g transform="translate(400.75224 393.452049) rotate(-35) scale(0.1 -0.1)">
       <defs>
        <path id="DejaVuSans-34" d="M 2419 4116 
L 825 1625 
L 2419 1625 
L 2419 4116 
z
M 2253 4666 
L 3047 4666 
L 3047 1625 
L 3713 1625 
L 3713 1100 
L 3047 1100 
L 3047 0 
L 2419 0 
L 2419 1100 
L 313 1100 
L 313 1709 
L 2253 4666 
z
" transform="scale(0.015625)"/>
       </defs>
       <use xlink:href="#DejaVuSans-6c"/>
       <use xlink:href="#DejaVuSans-61" transform="translate(27.783203 0)"/>
       <use xlink:href="#DejaVuSans-79" transform="translate(89.0625 0)"/>
       <use xlink:href="#DejaVuSans-65" transform="translate(148.242188 0)"/>
       <use xlink:href="#DejaVuSans-72" transform="translate(209.765625 0)"/>
       <use xlink:href="#DejaVuSans-32" transform="translate(250.878906 0)"/>
       <use xlink:href="#DejaVuSans-5f" transform="translate(314.501953 0)"/>
       <use xlink:href="#DejaVuSans-66" transform="translate(364.501953 0)"/>
       <use xlink:href="#DejaVuSans-61" transform="translate(399.707031 0)"/>
       <use xlink:href="#DejaVuSans-6d" transform="translate(460.986328 0)"/>
       <use xlink:href="#DejaVuSans-69" transform="translate(558.398438 0)"/>
       <use xlink:href="#DejaVuSans-6c" transform="translate(586.181641 0)"/>
       <use xlink:href="#DejaVuSans-79" transform="translate(613.964844 0)"/>
       <use xlink:href="#DejaVuSans-34" transform="translate(673.144531 0)"/>
       <use xlink:href="#DejaVuSans-5f" transform="translate(736.767578 0)"/>
       <use xlink:href="#DejaVuSans-74" transform="translate(786.767578 0)"/>
       <use xlink:href="#DejaVuSans-6f" transform="translate(825.976562 0)"/>
       <use xlink:href="#DejaVuSans-70" transform="translate(887.158203 0)"/>
       <use xlink:href="#DejaVuSans-32" transform="translate(950.634766 0)"/>
       <use xlink:href="#DejaVuSans-3a" transform="translate(1014.257812 0)"/>
       <use xlink:href="#DejaVuSans-74" transform="translate(1047.949219 0)"/>
       <use xlink:href="#DejaVuSans-6f" transform="translate(1087.158203 0)"/>
       <use xlink:href="#DejaVuSans-70" transform="translate(1148.339844 0)"/>
       <use xlink:href="#DejaVuSans-5f" transform="translate(1211.816406 0)"/>
       <use xlink:href="#DejaVuSans-68" transform="translate(1261.816406 0)"/>
       <use xlink:href="#DejaVuSans-65" transform="translate(1325.195312 0)"/>
       <use xlink:href="#DejaVuSans-61" transform="translate(1386.71875 0)"/>
       <use xlink:href="#DejaVuSans-64" transform="translate(1447.998047 0)"/>
      </g>
     </g>
    </g>
    <g id="xtick_5">
     <g id="line2d_5">
      <g>
       <use xlink:href="#me61a2cb3d4" x="650.646066" y="293.530799" style="stroke: #000000; stroke-width: 0.8"/>
      </g>
     </g>
     <g id="text_5">
      <!-- layer2_family4_top2:top_mlp -->
      <g transform="translate(530.474396 389.953233) rotate(-35) scale(0.1 -0.1)">
       <use xlink:href="#DejaVuSans-6c"/>
       <use xlink:href="#DejaVuSans-61" transform="translate(27.783203 0)"/>
       <use xlink:href="#DejaVuSans-79" transform="translate(89.0625 0)"/>
       <use xlink:href="#DejaVuSans-65" transform="translate(148.242188 0)"/>
       <use xlink:href="#DejaVuSans-72" transform="translate(209.765625 0)"/>
       <use xlink:href="#DejaVuSans-32" transform="translate(250.878906 0)"/>
       <use xlink:href="#DejaVuSans-5f" transform="translate(314.501953 0)"/>
       <use xlink:href="#DejaVuSans-66" transform="translate(364.501953 0)"/>
       <use xlink:href="#DejaVuSans-61" transform="translate(399.707031 0)"/>
       <use xlink:href="#DejaVuSans-6d" transform="translate(460.986328 0)"/>
       <use xlink:href="#DejaVuSans-69" transform="translate(558.398438 0)"/>
       <use xlink:href="#DejaVuSans-6c" transform="translate(586.181641 0)"/>
       <use xlink:href="#DejaVuSans-79" transform="translate(613.964844 0)"/>
       <use xlink:href="#DejaVuSans-34" transform="translate(673.144531 0)"/>
       <use xlink:href="#DejaVuSans-5f" transform="translate(736.767578 0)"/>
       <use xlink:href="#DejaVuSans-74" transform="translate(786.767578 0)"/>
       <use xlink:href="#DejaVuSans-6f" transform="translate(825.976562 0)"/>
       <use xlink:href="#DejaVuSans-70" transform="translate(887.158203 0)"/>
       <use xlink:href="#DejaVuSans-32" transform="translate(950.634766 0)"/>
       <use xlink:href="#DejaVuSans-3a" transform="translate(1014.257812 0)"/>
       <use xlink:href="#DejaVuSans-74" transform="translate(1047.949219 0)"/>
       <use xlink:href="#DejaVuSans-6f" transform="translate(1087.158203 0)"/>
       <use xlink:href="#DejaVuSans-70" transform="translate(1148.339844 0)"/>
       <use xlink:href="#DejaVuSans-5f" transform="translate(1211.816406 0)"/>
       <use xlink:href="#DejaVuSans-6d" transform="translate(1261.816406 0)"/>
       <use xlink:href="#DejaVuSans-6c" transform="translate(1359.228516 0)"/>
       <use xlink:href="#DejaVuSans-70" transform="translate(1387.011719 0)"/>
      </g>
     </g>
    </g>
    <g id="xtick_6">
     <g id="line2d_6">
      <g>
       <use xlink:href="#me61a2cb3d4" x="775.371395" y="293.530799" style="stroke: #000000; stroke-width: 0.8"/>
      </g>
     </g>
     <g id="text_6">
      <!-- layer2_family4_top2:top_neuron_group -->
      <g transform="translate(613.961819 418.828325) rotate(-35) scale(0.1 -0.1)">
       <use xlink:href="#DejaVuSans-6c"/>
       <use xlink:href="#DejaVuSans-61" transform="translate(27.783203 0)"/>
       <use xlink:href="#DejaVuSans-79" transform="translate(89.0625 0)"/>
       <use xlink:href="#DejaVuSans-65" transform="translate(148.242188 0)"/>
       <use xlink:href="#DejaVuSans-72" transform="translate(209.765625 0)"/>
       <use xlink:href="#DejaVuSans-32" transform="translate(250.878906 0)"/>
       <use xlink:href="#DejaVuSans-5f" transform="translate(314.501953 0)"/>
       <use xlink:href="#DejaVuSans-66" transform="translate(364.501953 0)"/>
       <use xlink:href="#DejaVuSans-61" transform="translate(399.707031 0)"/>
       <use xlink:href="#DejaVuSans-6d" transform="translate(460.986328 0)"/>
       <use xlink:href="#DejaVuSans-69" transform="translate(558.398438 0)"/>
       <use xlink:href="#DejaVuSans-6c" transform="translate(586.181641 0)"/>
       <use xlink:href="#DejaVuSans-79" transform="translate(613.964844 0)"/>
       <use xlink:href="#DejaVuSans-34" transform="translate(673.144531 0)"/>
       <use xlink:href="#DejaVuSans-5f" transform="translate(736.767578 0)"/>
       <use xlink:href="#DejaVuSans-74" transform="translate(786.767578 0)"/>
       <use xlink:href="#DejaVuSans-6f" transform="translate(825.976562 0)"/>
       <use xlink:href="#DejaVuSans-70" transform="translate(887.158203 0)"/>
       <use xlink:href="#DejaVuSans-32" transform="translate(950.634766 0)"/>
       <use xlink:href="#DejaVuSans-3a" transform="translate(1014.257812 0)"/>
       <use xlink:href="#DejaVuSans-74" transform="translate(1047.949219 0)"/>
       <use xlink:href="#DejaVuSans-6f" transform="translate(1087.158203 0)"/>
       <use xlink:href="#DejaVuSans-70" transform="translate(1148.339844 0)"/>
       <use xlink:href="#DejaVuSans-5f" transform="translate(1211.816406 0)"/>
       <use xlink:href="#DejaVuSans-6e" transform="translate(1261.816406 0)"/>
       <use xlink:href="#DejaVuSans-65" transform="translate(1325.195312 0)"/>
       <use xlink:href="#DejaVuSans-75" transform="translate(1386.71875 0)"/>
       <use xlink:href="#DejaVuSans-72" transform="translate(1450.097656 0)"/>
       <use xlink:href="#DejaVuSans-6f" transform="translate(1488.960938 0)"/>
       <use xlink:href="#DejaVuSans-6e" transform="translate(1550.142578 0)"/>
       <use xlink:href="#DejaVuSans-5f" transform="translate(1613.521484 0)"/>
       <use xlink:href="#DejaVuSans-67" transform="translate(1663.521484 0)"/>
       <use xlink:href="#DejaVuSans-72" transform="translate(1726.998047 0)"/>
       <use xlink:href="#DejaVuSans-6f" transform="translate(1765.861328 0)"/>
       <use xlink:href="#DejaVuSans-75" transform="translate(1827.042969 0)"/>
       <use xlink:href="#DejaVuSans-70" transform="translate(1890.421875 0)"/>
      </g>
     </g>
    </g>
   </g>
   <g id="matplotlib.axis_2">
    <g id="ytick_1">
     <g id="line2d_7">
      <path d="M 73.916145 274.764373 
L 853.2 274.764373 
" clip-path="url(#p0b819fc24b)" style="fill: none; stroke: #b0b0b0; stroke-opacity: 0.25; stroke-width: 0.8; stroke-linecap: square"/>
     </g>
     <g id="line2d_8">
      <defs>
       <path id="m148055240c" d="M 0 0 
L -3.5 0 
" style="stroke: #000000; stroke-width: 0.8"/>
      </defs>
      <g>
       <use xlink:href="#m148055240c" x="73.916145" y="274.764373" style="stroke: #000000; stroke-width: 0.8"/>
      </g>
     </g>
     <g id="text_7">
      <!-- −0.05 -->
      <g transform="translate(36.270833 278.563592) scale(0.1 -0.1)">
       <defs>
        <path id="DejaVuSans-2212" d="M 678 2272 
L 4684 2272 
L 4684 1741 
L 678 1741 
L 678 2272 
z
" transform="scale(0.015625)"/>
        <path id="DejaVuSans-30" d="M 2034 4250 
Q 1547 4250 1301 3770 
Q 1056 3291 1056 2328 
Q 1056 1369 1301 889 
Q 1547 409 2034 409 
Q 2525 409 2770 889 
Q 3016 1369 3016 2328 
Q 3016 3291 2770 3770 
Q 2525 4250 2034 4250 
z
M 2034 4750 
Q 2819 4750 3233 4129 
Q 3647 3509 3647 2328 
Q 3647 1150 3233 529 
Q 2819 -91 2034 -91 
Q 1250 -91 836 529 
Q 422 1150 422 2328 
Q 422 3509 836 4129 
Q 1250 4750 2034 4750 
z
" transform="scale(0.015625)"/>
        <path id="DejaVuSans-2e" d="M 684 794 
L 1344 794 
L 1344 0 
L 684 0 
L 684 794 
z
" transform="scale(0.015625)"/>
        <path id="DejaVuSans-35" d="M 691 4666 
L 3169 4666 
L 3169 4134 
L 1269 4134 
L 1269 2991 
Q 1406 3038 1543 3061 
Q 1681 3084 1819 3084 
Q 2600 3084 3056 2656 
Q 3513 2228 3513 1497 
Q 3513 744 3044 326 
Q 2575 -91 1722 -91 
Q 1428 -91 1123 -41 
Q 819 9 494 109 
L 494 744 
Q 775 591 1075 516 
Q 1375 441 1709 441 
Q 2250 441 2565 725 
Q 2881 1009 2881 1497 
Q 2881 1984 2565 2268 
Q 2250 2553 1709 2553 
Q 1456 2553 1204 2497 
Q 953 2441 691 2322 
L 691 4666 
z
" transform="scale(0.015625)"/>
       </defs>
       <use xlink:href="#DejaVuSans-2212"/>
       <use xlink:href="#DejaVuSans-30" transform="translate(83.789062 0)"/>
       <use xlink:href="#DejaVuSans-2e" transform="translate(147.412109 0)"/>
       <use xlink:href="#DejaVuSans-30" transform="translate(179.199219 0)"/>
       <use xlink:href="#DejaVuSans-35" transform="translate(242.822266 0)"/>
      </g>
     </g>
    </g>
    <g id="ytick_2">
     <g id="line2d_9">
      <path d="M 73.916145 236.886594 
L 853.2 236.886594 
" clip-path="url(#p0b819fc24b)" style="fill: none; stroke: #b0b0b0; stroke-opacity: 0.25; stroke-width: 0.8; stroke-linecap: square"/>
     </g>
     <g id="line2d_10">
      <g>
       <use xlink:href="#m148055240c" x="73.916145" y="236.886594" style="stroke: #000000; stroke-width: 0.8"/>
      </g>
     </g>
     <g id="text_8">
      <!-- 0.00 -->
      <g transform="translate(44.65052 240.685813) scale(0.1 -0.1)">
       <use xlink:href="#DejaVuSans-30"/>
       <use xlink:href="#DejaVuSans-2e" transform="translate(63.623047 0)"/>
       <use xlink:href="#DejaVuSans-30" transform="translate(95.410156 0)"/>
       <use xlink:href="#DejaVuSans-30" transform="translate(159.033203 0)"/>
      </g>
     </g>
    </g>
    <g id="ytick_3">
     <g id="line2d_11">
      <path d="M 73.916145 199.008816 
L 853.2 199.008816 
" clip-path="url(#p0b819fc24b)" style="fill: none; stroke: #b0b0b0; stroke-opacity: 0.25; stroke-width: 0.8; stroke-linecap: square"/>
     </g>
     <g id="line2d_12">
      <g>
       <use xlink:href="#m148055240c" x="73.916145" y="199.008816" style="stroke: #000000; stroke-width: 0.8"/>
      </g>
     </g>
     <g id="text_9">
      <!-- 0.05 -->
      <g transform="translate(44.65052 202.808034) scale(0.1 -0.1)">
       <use xlink:href="#DejaVuSans-30"/>
       <use xlink:href="#DejaVuSans-2e" transform="translate(63.623047 0)"/>
       <use xlink:href="#DejaVuSans-30" transform="translate(95.410156 0)"/>
       <use xlink:href="#DejaVuSans-35" transform="translate(159.033203 0)"/>
      </g>
     </g>
    </g>
    <g id="ytick_4">
     <g id="line2d_13">
      <path d="M 73.916145 161.131037 
L 853.2 161.131037 
" clip-path="url(#p0b819fc24b)" style="fill: none; stroke: #b0b0b0; stroke-opacity: 0.25; stroke-width: 0.8; stroke-linecap: square"/>
     </g>
     <g id="line2d_14">
      <g>
       <use xlink:href="#m148055240c" x="73.916145" y="161.131037" style="stroke: #000000; stroke-width: 0.8"/>
      </g>
     </g>
     <g id="text_10">
      <!-- 0.10 -->
      <g transform="translate(44.65052 164.930256) scale(0.1 -0.1)">
       <defs>
        <path id="DejaVuSans-31" d="M 794 531 
L 1825 531 
L 1825 4091 
L 703 3866 
L 703 4441 
L 1819 4666 
L 2450 4666 
L 2450 531 
L 3481 531 
L 3481 0 
L 794 0 
L 794 531 
z
" transform="scale(0.015625)"/>
       </defs>
       <use xlink:href="#DejaVuSans-30"/>
       <use xlink:href="#DejaVuSans-2e" transform="translate(63.623047 0)"/>
       <use xlink:href="#DejaVuSans-31" transform="translate(95.410156 0)"/>
       <use xlink:href="#DejaVuSans-30" transform="translate(159.033203 0)"/>
      </g>
     </g>
    </g>
    <g id="ytick_5">
     <g id="line2d_15">
      <path d="M 73.916145 123.253258 
L 853.2 123.253258 
" clip-path="url(#p0b819fc24b)" style="fill: none; stroke: #b0b0b0; stroke-opacity: 0.25; stroke-width: 0.8; stroke-linecap: square"/>
     </g>
     <g id="line2d_16">
      <g>
       <use xlink:href="#m148055240c" x="73.916145" y="123.253258" style="stroke: #000000; stroke-width: 0.8"/>
      </g>
     </g>
     <g id="text_11">
      <!-- 0.15 -->
      <g transform="translate(44.65052 127.052477) scale(0.1 -0.1)">
       <use xlink:href="#DejaVuSans-30"/>
       <use xlink:href="#DejaVuSans-2e" transform="translate(63.623047 0)"/>
       <use xlink:href="#DejaVuSans-31" transform="translate(95.410156 0)"/>
       <use xlink:href="#DejaVuSans-35" transform="translate(159.033203 0)"/>
      </g>
     </g>
    </g>
    <g id="ytick_6">
     <g id="line2d_17">
      <path d="M 73.916145 85.37548 
L 853.2 85.37548 
" clip-path="url(#p0b819fc24b)" style="fill: none; stroke: #b0b0b0; stroke-opacity: 0.25; stroke-width: 0.8; stroke-linecap: square"/>
     </g>
     <g id="line2d_18">
      <g>
       <use xlink:href="#m148055240c" x="73.916145" y="85.37548" style="stroke: #000000; stroke-width: 0.8"/>
      </g>
     </g>
     <g id="text_12">
      <!-- 0.20 -->
      <g transform="translate(44.65052 89.174698) scale(0.1 -0.1)">
       <use xlink:href="#DejaVuSans-30"/>
       <use xlink:href="#DejaVuSans-2e" transform="translate(63.623047 0)"/>
       <use xlink:href="#DejaVuSans-32" transform="translate(95.410156 0)"/>
       <use xlink:href="#DejaVuSans-30" transform="translate(159.033203 0)"/>
      </g>
     </g>
    </g>
    <g id="ytick_7">
     <g id="line2d_19">
      <path d="M 73.916145 47.497701 
L 853.2 47.497701 
" clip-path="url(#p0b819fc24b)" style="fill: none; stroke: #b0b0b0; stroke-opacity: 0.25; stroke-width: 0.8; stroke-linecap: square"/>
     </g>
     <g id="line2d_20">
      <g>
       <use xlink:href="#m148055240c" x="73.916145" y="47.497701" style="stroke: #000000; stroke-width: 0.8"/>
      </g>
     </g>
     <g id="text_13">
      <!-- 0.25 -->
      <g transform="translate(44.65052 51.29692) scale(0.1 -0.1)">
       <use xlink:href="#DejaVuSans-30"/>
       <use xlink:href="#DejaVuSans-2e" transform="translate(63.623047 0)"/>
       <use xlink:href="#DejaVuSans-32" transform="translate(95.410156 0)"/>
       <use xlink:href="#DejaVuSans-35" transform="translate(159.033203 0)"/>
      </g>
     </g>
    </g>
    <g id="text_14">
     <!-- Cumulative dot update -->
     <g transform="translate(30.191145 217.732743) rotate(-90) scale(0.1 -0.1)">
      <defs>
       <path id="DejaVuSans-43" d="M 4122 4306 
L 4122 3641 
Q 3803 3938 3442 4084 
Q 3081 4231 2675 4231 
Q 1875 4231 1450 3742 
Q 1025 3253 1025 2328 
Q 1025 1406 1450 917 
Q 1875 428 2675 428 
Q 3081 428 3442 575 
Q 3803 722 4122 1019 
L 4122 359 
Q 3791 134 3420 21 
Q 3050 -91 2638 -91 
Q 1578 -91 968 557 
Q 359 1206 359 2328 
Q 359 3453 968 4101 
Q 1578 4750 2638 4750 
Q 3056 4750 3426 4639 
Q 3797 4528 4122 4306 
z
" transform="scale(0.015625)"/>
       <path id="DejaVuSans-76" d="M 191 3500 
L 800 3500 
L 1894 563 
L 2988 3500 
L 3597 3500 
L 2284 0 
L 1503 0 
L 191 3500 
z
" transform="scale(0.015625)"/>
       <path id="DejaVuSans-20" transform="scale(0.015625)"/>
      </defs>
      <use xlink:href="#DejaVuSans-43"/>
      <use xlink:href="#DejaVuSans-75" transform="translate(69.824219 0)"/>
      <use xlink:href="#DejaVuSans-6d" transform="translate(133.203125 0)"/>
      <use xlink:href="#DejaVuSans-75" transform="translate(230.615234 0)"/>
      <use xlink:href="#DejaVuSans-6c" transform="translate(293.994141 0)"/>
      <use xlink:href="#DejaVuSans-61" transform="translate(321.777344 0)"/>
      <use xlink:href="#DejaVuSans-74" transform="translate(383.056641 0)"/>
      <use xlink:href="#DejaVuSans-69" transform="translate(422.265625 0)"/>
      <use xlink:href="#DejaVuSans-76" transform="translate(450.048828 0)"/>
      <use xlink:href="#DejaVuSans-65" transform="translate(509.228516 0)"/>
      <use xlink:href="#DejaVuSans-20" transform="translate(570.751953 0)"/>
      <use xlink:href="#DejaVuSans-64" transform="translate(602.539062 0)"/>
      <use xlink:href="#DejaVuSans-6f" transform="translate(666.015625 0)"/>
      <use xlink:href="#DejaVuSans-74" transform="translate(727.197266 0)"/>
      <use xlink:href="#DejaVuSans-20" transform="translate(766.40625 0)"/>
      <use xlink:href="#DejaVuSans-75" transform="translate(798.193359 0)"/>
      <use xlink:href="#DejaVuSans-70" transform="translate(861.572266 0)"/>
      <use xlink:href="#DejaVuSans-64" transform="translate(925.048828 0)"/>
      <use xlink:href="#DejaVuSans-61" transform="translate(988.525391 0)"/>
      <use xlink:href="#DejaVuSans-74" transform="translate(1049.804688 0)"/>
      <use xlink:href="#DejaVuSans-65" transform="translate(1089.013672 0)"/>
     </g>
    </g>
   </g>
   <g id="line2d_21">
    <path d="M 73.916145 236.886594 
L 853.2 236.886594 
" clip-path="url(#p0b819fc24b)" style="fill: none; stroke: #000000; stroke-opacity: 0.35; stroke-width: 0.8; stroke-linecap: square"/>
   </g>
   <g id="patch_15">
    <path d="M 73.916145 293.530799 
L 73.916145 26.88 
" style="fill: none; stroke: #000000; stroke-width: 0.8; stroke-linejoin: miter; stroke-linecap: square"/>
   </g>
   <g id="patch_16">
    <path d="M 853.2 293.530799 
L 853.2 26.88 
" style="fill: none; stroke: #000000; stroke-width: 0.8; stroke-linejoin: miter; stroke-linecap: square"/>
   </g>
   <g id="patch_17">
    <path d="M 73.916145 293.530799 
L 853.2 293.530799 
" style="fill: none; stroke: #000000; stroke-width: 0.8; stroke-linejoin: miter; stroke-linecap: square"/>
   </g>
   <g id="patch_18">
    <path d="M 73.916145 26.88 
L 853.2 26.88 
" style="fill: none; stroke: #000000; stroke-width: 0.8; stroke-linejoin: miter; stroke-linecap: square"/>
   </g>
   <g id="text_15">
    <!-- Component-level projected update contributions -->
    <g transform="translate(317.61651 20.88) scale(0.12 -0.12)">
     <defs>
      <path id="DejaVuSans-2d" d="M 313 2009 
L 1997 2009 
L 1997 1497 
L 313 1497 
L 313 2009 
z
" transform="scale(0.015625)"/>
      <path id="DejaVuSans-6a" d="M 603 3500 
L 1178 3500 
L 1178 -63 
Q 1178 -731 923 -1031 
Q 669 -1331 103 -1331 
L -116 -1331 
L -116 -844 
L 38 -844 
Q 366 -844 484 -692 
Q 603 -541 603 -63 
L 603 3500 
z
M 603 4863 
L 1178 4863 
L 1178 4134 
L 603 4134 
L 603 4863 
z
" transform="scale(0.015625)"/>
      <path id="DejaVuSans-63" d="M 3122 3366 
L 3122 2828 
Q 2878 2963 2633 3030 
Q 2388 3097 2138 3097 
Q 1578 3097 1268 2742 
Q 959 2388 959 1747 
Q 959 1106 1268 751 
Q 1578 397 2138 397 
Q 2388 397 2633 464 
Q 2878 531 3122 666 
L 3122 134 
Q 2881 22 2623 -34 
Q 2366 -91 2075 -91 
Q 1284 -91 818 406 
Q 353 903 353 1747 
Q 353 2603 823 3093 
Q 1294 3584 2113 3584 
Q 2378 3584 2631 3529 
Q 2884 3475 3122 3366 
z
" transform="scale(0.015625)"/>
      <path id="DejaVuSans-62" d="M 3116 1747 
Q 3116 2381 2855 2742 
Q 2594 3103 2138 3103 
Q 1681 3103 1420 2742 
Q 1159 2381 1159 1747 
Q 1159 1113 1420 752 
Q 1681 391 2138 391 
Q 2594 391 2855 752 
Q 3116 1113 3116 1747 
z
M 1159 2969 
Q 1341 3281 1617 3432 
Q 1894 3584 2278 3584 
Q 2916 3584 3314 3078 
Q 3713 2572 3713 1747 
Q 3713 922 3314 415 
Q 2916 -91 2278 -91 
Q 1894 -91 1617 61 
Q 1341 213 1159 525 
L 1159 0 
L 581 0 
L 581 4863 
L 1159 4863 
L 1159 2969 
z
" transform="scale(0.015625)"/>
      <path id="DejaVuSans-73" d="M 2834 3397 
L 2834 2853 
Q 2591 2978 2328 3040 
Q 2066 3103 1784 3103 
Q 1356 3103 1142 2972 
Q 928 2841 928 2578 
Q 928 2378 1081 2264 
Q 1234 2150 1697 2047 
L 1894 2003 
Q 2506 1872 2764 1633 
Q 3022 1394 3022 966 
Q 3022 478 2636 193 
Q 2250 -91 1575 -91 
Q 1294 -91 989 -36 
Q 684 19 347 128 
L 347 722 
Q 666 556 975 473 
Q 1284 391 1588 391 
Q 1994 391 2212 530 
Q 2431 669 2431 922 
Q 2431 1156 2273 1281 
Q 2116 1406 1581 1522 
L 1381 1569 
Q 847 1681 609 1914 
Q 372 2147 372 2553 
Q 372 3047 722 3315 
Q 1072 3584 1716 3584 
Q 2034 3584 2315 3537 
Q 2597 3491 2834 3397 
z
" transform="scale(0.015625)"/>
     </defs>
     <use xlink:href="#DejaVuSans-43"/>
     <use xlink:href="#DejaVuSans-6f" transform="translate(69.824219 0)"/>
     <use xlink:href="#DejaVuSans-6d" transform="translate(131.005859 0)"/>
     <use xlink:href="#DejaVuSans-70" transform="translate(228.417969 0)"/>
     <use xlink:href="#DejaVuSans-6f" transform="translate(291.894531 0)"/>
     <use xlink:href="#DejaVuSans-6e" transform="translate(353.076172 0)"/>
     <use xlink:href="#DejaVuSans-65" transform="translate(416.455078 0)"/>
     <use xlink:href="#DejaVuSans-6e" transform="translate(477.978516 0)"/>
     <use xlink:href="#DejaVuSans-74" transform="translate(541.357422 0)"/>
     <use xlink:href="#DejaVuSans-2d" transform="translate(580.566406 0)"/>
     <use xlink:href="#DejaVuSans-6c" transform="translate(616.650391 0)"/>
     <use xlink:href="#DejaVuSans-65" transform="translate(644.433594 0)"/>
     <use xlink:href="#DejaVuSans-76" transform="translate(705.957031 0)"/>
     <use xlink:href="#DejaVuSans-65" transform="translate(765.136719 0)"/>
     <use xlink:href="#DejaVuSans-6c" transform="translate(826.660156 0)"/>
     <use xlink:href="#DejaVuSans-20" transform="translate(854.443359 0)"/>
     <use xlink:href="#DejaVuSans-70" transform="translate(886.230469 0)"/>
     <use xlink:href="#DejaVuSans-72" transform="translate(949.707031 0)"/>
     <use xlink:href="#DejaVuSans-6f" transform="translate(988.570312 0)"/>
     <use xlink:href="#DejaVuSans-6a" transform="translate(1049.751953 0)"/>
     <use xlink:href="#DejaVuSans-65" transform="translate(1077.535156 0)"/>
     <use xlink:href="#DejaVuSans-63" transform="translate(1139.058594 0)"/>
     <use xlink:href="#DejaVuSans-74" transform="translate(1194.039062 0)"/>
     <use xlink:href="#DejaVuSans-65" transform="translate(1233.248047 0)"/>
     <use xlink:href="#DejaVuSans-64" transform="translate(1294.771484 0)"/>
     <use xlink:href="#DejaVuSans-20" transform="translate(1358.248047 0)"/>
     <use xlink:href="#DejaVuSans-75" transform="translate(1390.035156 0)"/>
     <use xlink:href="#DejaVuSans-70" transform="translate(1453.414062 0)"/>
     <use xlink:href="#DejaVuSans-64" transform="translate(1516.890625 0)"/>
     <use xlink:href="#DejaVuSans-61" transform="translate(1580.367188 0)"/>
     <use xlink:href="#DejaVuSans-74" transform="translate(1641.646484 0)"/>
     <use xlink:href="#DejaVuSans-65" transform="translate(1680.855469 0)"/>
     <use xlink:href="#DejaVuSans-20" transform="translate(1742.378906 0)"/>
     <use xlink:href="#DejaVuSans-63" transform="translate(1774.166016 0)"/>
     <use xlink:href="#DejaVuSans-6f" transform="translate(1829.146484 0)"/>
     <use xlink:href="#DejaVuSans-6e" transform="translate(1890.328125 0)"/>
     <use xlink:href="#DejaVuSans-74" transform="translate(1953.707031 0)"/>
     <use xlink:href="#DejaVuSans-72" transform="translate(1992.916016 0)"/>
     <use xlink:href="#DejaVuSans-69" transform="translate(2034.029297 0)"/>
     <use xlink:href="#DejaVuSans-62" transform="translate(2061.8125 0)"/>
     <use xlink:href="#DejaVuSans-75" transform="translate(2125.289062 0)"/>
     <use xlink:href="#DejaVuSans-74" transform="translate(2188.667969 0)"/>
     <use xlink:href="#DejaVuSans-69" transform="translate(2227.876953 0)"/>
     <use xlink:href="#DejaVuSans-6f" transform="translate(2255.660156 0)"/>
     <use xlink:href="#DejaVuSans-6e" transform="translate(2316.841797 0)"/>
     <use xlink:href="#DejaVuSans-73" transform="translate(2380.220703 0)"/>
    </g>
   </g>
   <g id="legend_1">
    <g id="patch_19">
     <path d="M 744.328125 64.23625 
L 846.2 64.23625 
Q 848.2 64.23625 848.2 62.23625 
L 848.2 33.88 
Q 848.2 31.88 846.2 31.88 
L 744.328125 31.88 
Q 742.328125 31.88 742.328125 33.88 
L 742.328125 62.23625 
Q 742.328125 64.23625 744.328125 64.23625 
z
" style="fill: #ffffff; opacity: 0.8; stroke: #cccccc; stroke-linejoin: miter"/>
    </g>
    <g id="patch_20">
     <path d="M 746.328125 43.478437 
L 766.328125 43.478437 
L 766.328125 36.478437 
L 746.328125 36.478437 
z
" style="fill: #1f77b4"/>
    </g>
    <g id="text_16">
     <!-- loss reduction -->
     <g transform="translate(774.328125 43.478437) scale(0.1 -0.1)">
      <use xlink:href="#DejaVuSans-6c"/>
      <use xlink:href="#DejaVuSans-6f" transform="translate(27.783203 0)"/>
      <use xlink:href="#DejaVuSans-73" transform="translate(88.964844 0)"/>
      <use xlink:href="#DejaVuSans-73" transform="translate(141.064453 0)"/>
      <use xlink:href="#DejaVuSans-20" transform="translate(193.164062 0)"/>
      <use xlink:href="#DejaVuSans-72" transform="translate(224.951172 0)"/>
      <use xlink:href="#DejaVuSans-65" transform="translate(263.814453 0)"/>
      <use xlink:href="#DejaVuSans-64" transform="translate(325.337891 0)"/>
      <use xlink:href="#DejaVuSans-75" transform="translate(388.814453 0)"/>
      <use xlink:href="#DejaVuSans-63" transform="translate(452.193359 0)"/>
      <use xlink:href="#DejaVuSans-74" transform="translate(507.173828 0)"/>
      <use xlink:href="#DejaVuSans-69" transform="translate(546.382812 0)"/>
      <use xlink:href="#DejaVuSans-6f" transform="translate(574.166016 0)"/>
      <use xlink:href="#DejaVuSans-6e" transform="translate(635.347656 0)"/>
     </g>
    </g>
    <g id="patch_21">
     <path d="M 746.328125 58.156563 
L 766.328125 58.156563 
L 766.328125 51.156563 
L 746.328125 51.156563 
z
" style="fill: #ff7f0e"/>
    </g>
    <g id="text_17">
     <!-- score drive -->
     <g transform="translate(774.328125 58.156563) scale(0.1 -0.1)">
      <use xlink:href="#DejaVuSans-73"/>
      <use xlink:href="#DejaVuSans-63" transform="translate(52.099609 0)"/>
      <use xlink:href="#DejaVuSans-6f" transform="translate(107.080078 0)"/>
      <use xlink:href="#DejaVuSans-72" transform="translate(168.261719 0)"/>
      <use xlink:href="#DejaVuSans-65" transform="translate(207.125 0)"/>
      <use xlink:href="#DejaVuSans-20" transform="translate(268.648438 0)"/>
      <use xlink:href="#DejaVuSans-64" transform="translate(300.435547 0)"/>
      <use xlink:href="#DejaVuSans-72" transform="translate(363.912109 0)"/>
      <use xlink:href="#DejaVuSans-69" transform="translate(405.025391 0)"/>
      <use xlink:href="#DejaVuSans-76" transform="translate(432.808594 0)"/>
      <use xlink:href="#DejaVuSans-65" transform="translate(491.988281 0)"/>
     </g>
    </g>
   </g>
  </g>
 </g>
 <defs>
  <clipPath id="p0b819fc24b">
   <rect x="73.916145" y="26.88" width="779.283855" height="266.650799"/>
  </clipPath>
 </defs>
</svg>
