<?xml version="1.0" encoding="utf-8" standalone="no"?>
<!DOCTYPE svg PUBLIC "-//W3C//DTD SVG 1.1//EN"
  "http://www.w3.org/Graphics/SVG/1.1/DTD/svg11.dtd">
<svg xmlns:xlink="http://www.w3.org/1999/xlink" width="792pt" height="504pt" viewBox="0 0 792 504" xmlns="http://www.w3.org/2000/svg" version="1.1">
 <metadata>
  <rdf:RDF xmlns:dc="http://purl.org/dc/elements/1.1/" xmlns:cc="http://creativecommons.org/ns#" xmlns:rdf="http://www.w3.org/1999/02/22-rdf-syntax-ns#">
   <cc:Work>
    <dc:type rdf:resource="http://purl.org/dc/dcmitype/StillImage"/>
    <dc:date>2026-04-10T08:24:42.722610</dc:date>
    <dc:format>image/svg+xml</dc:format>
    <dc:creator>
     <cc:Agent>
      <dc:title>Matplotlib v3.10.1, https://matplotlib.org/</dc:title>
     </cc:Agent>
    </dc:creator>
   </cc:Work>
  </rdf:RDF>
 </metadata>
 <defs>
  <style type="text/css">*{stroke-linejoin: round; stroke-linecap: butt}</style>
 </defs>
 <g id="figure_1">
  <g id="patch_1">
   <path d="M 0 504 
L 792 504 
L 792 0 
L 0 0 
z
" style="fill: #ffffff"/>
  </g>
  <g id="axes_1">
   <g id="patch_2">
    <path d="M 47.72 237.31 
L 781.2 237.31 
L 781.2 26.88 
L 47.72 26.88 
z
" style="fill: #ffffff"/>
   </g>
   <g id="patch_3">
    <path d="M 133.980635 237.31 
L 155.148889 237.31 
L 155.148889 26.88 
L 133.980635 26.88 
z
" clip-path="url(#pa355d5f606)" style="fill: #dbeafe; opacity: 0.35; stroke: #dbeafe; stroke-linejoin: miter"/>
   </g>
   <g id="patch_4">
    <path d="M 250.406032 237.31 
L 271.574286 237.31 
L 271.574286 26.88 
L 250.406032 26.88 
z
" clip-path="url(#pa355d5f606)" style="fill: #dbeafe; opacity: 0.35; stroke: #dbeafe; stroke-linejoin: miter"/>
   </g>
   <g id="patch_5">
    <path d="M 387.999683 237.31 
L 409.167937 237.31 
L 409.167937 26.88 
L 387.999683 26.88 
z
" clip-path="url(#pa355d5f606)" style="fill: #dbeafe; opacity: 0.35; stroke: #dbeafe; stroke-linejoin: miter"/>
   </g>
   <g id="matplotlib.axis_1">
    <g id="xtick_1">
     <g id="line2d_1">
      <path d="M 70.475873 237.31 
L 70.475873 26.88 
" clip-path="url(#pa355d5f606)" style="fill: none; stroke: #b0b0b0; stroke-opacity: 0.25; stroke-width: 0.8; stroke-linecap: square"/>
     </g>
     <g id="line2d_2">
      <defs>
       <path id="m8b1ab6ac50" d="M 0 0 
L 0 3.5 
" style="stroke: #000000; stroke-width: 0.8"/>
      </defs>
      <g>
       <use xlink:href="#m8b1ab6ac50" x="70.475873" y="237.31" style="stroke: #000000; stroke-width: 0.8"/>
      </g>
     </g>
    </g>
    <g id="xtick_2">
     <g id="line2d_3">
      <path d="M 155.148889 237.31 
L 155.148889 26.88 
" clip-path="url(#pa355d5f606)" style="fill: none; stroke: #b0b0b0; stroke-opacity: 0.25; stroke-width: 0.8; stroke-linecap: square"/>
     </g>
     <g id="line2d_4">
      <g>
       <use xlink:href="#m8b1ab6ac50" x="155.148889" y="237.31" style="stroke: #000000; stroke-width: 0.8"/>
      </g>
     </g>
    </g>
    <g id="xtick_3">
     <g id="line2d_5">
      <path d="M 239.821905 237.31 
L 239.821905 26.88 
" clip-path="url(#pa355d5f606)" style="fill: none; stroke: #b0b0b0; stroke-opacity: 0.25; stroke-width: 0.8; stroke-linecap: square"/>
     </g>
     <g id="line2d_6">
      <g>
       <use xlink:href="#m8b1ab6ac50" x="239.821905" y="237.31" style="stroke: #000000; stroke-width: 0.8"/>
      </g>
     </g>
    </g>
    <g id="xtick_4">
     <g id="line2d_7">
      <path d="M 324.494921 237.31 
L 324.494921 26.88 
" clip-path="url(#pa355d5f606)" style="fill: none; stroke: #b0b0b0; stroke-opacity: 0.25; stroke-width: 0.8; stroke-linecap: square"/>
     </g>
     <g id="line2d_8">
      <g>
       <use xlink:href="#m8b1ab6ac50" x="324.494921" y="237.31" style="stroke: #000000; stroke-width: 0.8"/>
      </g>
     </g>
    </g>
    <g id="xtick_5">
     <g id="line2d_9">
      <path d="M 409.167937 237.31 
L 409.167937 26.88 
" clip-path="url(#pa355d5f606)" style="fill: none; stroke: #b0b0b0; stroke-opacity: 0.25; stroke-width: 0.8; stroke-linecap: square"/>
     </g>
     <g id="line2d_10">
      <g>
       <use xlink:href="#m8b1ab6ac50" x="409.167937" y="237.31" style="stroke: #000000; stroke-width: 0.8"/>
      </g>
     </g>
    </g>
    <g id="xtick_6">
     <g id="line2d_11">
      <path d="M 493.840952 237.31 
L 493.840952 26.88 
" clip-path="url(#pa355d5f606)" style="fill: none; stroke: #b0b0b0; stroke-opacity: 0.25; stroke-width: 0.8; stroke-linecap: square"/>
     </g>
     <g id="line2d_12">
      <g>
       <use xlink:href="#m8b1ab6ac50" x="493.840952" y="237.31" style="stroke: #000000; stroke-width: 0.8"/>
      </g>
     </g>
    </g>
    <g id="xtick_7">
     <g id="line2d_13">
      <path d="M 578.513968 237.31 
L 578.513968 26.88 
" clip-path="url(#pa355d5f606)" style="fill: none; stroke: #b0b0b0; stroke-opacity: 0.25; stroke-width: 0.8; stroke-linecap: square"/>
     </g>
     <g id="line2d_14">
      <g>
       <use xlink:href="#m8b1ab6ac50" x="578.513968" y="237.31" style="stroke: #000000; stroke-width: 0.8"/>
      </g>
     </g>
    </g>
    <g id="xtick_8">
     <g id="line2d_15">
      <path d="M 663.186984 237.31 
L 663.186984 26.88 
" clip-path="url(#pa355d5f606)" style="fill: none; stroke: #b0b0b0; stroke-opacity: 0.25; stroke-width: 0.8; stroke-linecap: square"/>
     </g>
     <g id="line2d_16">
      <g>
       <use xlink:href="#m8b1ab6ac50" x="663.186984" y="237.31" style="stroke: #000000; stroke-width: 0.8"/>
      </g>
     </g>
    </g>
    <g id="xtick_9">
     <g id="line2d_17">
      <path d="M 747.86 237.31 
L 747.86 26.88 
" clip-path="url(#pa355d5f606)" style="fill: none; stroke: #b0b0b0; stroke-opacity: 0.25; stroke-width: 0.8; stroke-linecap: square"/>
     </g>
     <g id="line2d_18">
      <g>
       <use xlink:href="#m8b1ab6ac50" x="747.86" y="237.31" style="stroke: #000000; stroke-width: 0.8"/>
      </g>
     </g>
    </g>
   </g>
   <g id="matplotlib.axis_2">
    <g id="ytick_1">
     <g id="line2d_19">
      <path d="M 47.72 227.745 
L 781.2 227.745 
" clip-path="url(#pa355d5f606)" style="fill: none; stroke: #b0b0b0; stroke-opacity: 0.25; stroke-width: 0.8; stroke-linecap: square"/>
     </g>
     <g id="line2d_20">
      <defs>
       <path id="m9f54d4f566" d="M 0 0 
L -3.5 0 
" style="stroke: #000000; stroke-width: 0.8"/>
      </defs>
      <g>
       <use xlink:href="#m9f54d4f566" x="47.72" y="227.745" style="stroke: #000000; stroke-width: 0.8"/>
      </g>
     </g>
     <g id="text_1">
      <!-- 0.0 -->
      <g transform="translate(24.816875 231.544219) scale(0.1 -0.1)">
       <defs>
        <path id="DejaVuSans-30" d="M 2034 4250 
Q 1547 4250 1301 3770 
Q 1056 3291 1056 2328 
Q 1056 1369 1301 889 
Q 1547 409 2034 409 
Q 2525 409 2770 889 
Q 3016 1369 3016 2328 
Q 3016 3291 2770 3770 
Q 2525 4250 2034 4250 
z
M 2034 4750 
Q 2819 4750 3233 4129 
Q 3647 3509 3647 2328 
Q 3647 1150 3233 529 
Q 2819 -91 2034 -91 
Q 1250 -91 836 529 
Q 422 1150 422 2328 
Q 422 3509 836 4129 
Q 1250 4750 2034 4750 
z
" transform="scale(0.015625)"/>
        <path id="DejaVuSans-2e" d="M 684 794 
L 1344 794 
L 1344 0 
L 684 0 
L 684 794 
z
" transform="scale(0.015625)"/>
       </defs>
       <use xlink:href="#DejaVuSans-30"/>
       <use xlink:href="#DejaVuSans-2e" transform="translate(63.623047 0)"/>
       <use xlink:href="#DejaVuSans-30" transform="translate(95.410156 0)"/>
      </g>
     </g>
    </g>
    <g id="ytick_2">
     <g id="line2d_21">
      <path d="M 47.72 185.631475 
L 781.2 185.631475 
" clip-path="url(#pa355d5f606)" style="fill: none; stroke: #b0b0b0; stroke-opacity: 0.25; stroke-width: 0.8; stroke-linecap: square"/>
     </g>
     <g id="line2d_22">
      <g>
       <use xlink:href="#m9f54d4f566" x="47.72" y="185.631475" style="stroke: #000000; stroke-width: 0.8"/>
      </g>
     </g>
     <g id="text_2">
      <!-- 0.2 -->
      <g transform="translate(24.816875 189.430694) scale(0.1 -0.1)">
       <defs>
        <path id="DejaVuSans-32" d="M 1228 531 
L 3431 531 
L 3431 0 
L 469 0 
L 469 531 
Q 828 903 1448 1529 
Q 2069 2156 2228 2338 
Q 2531 2678 2651 2914 
Q 2772 3150 2772 3378 
Q 2772 3750 2511 3984 
Q 2250 4219 1831 4219 
Q 1534 4219 1204 4116 
Q 875 4013 500 3803 
L 500 4441 
Q 881 4594 1212 4672 
Q 1544 4750 1819 4750 
Q 2544 4750 2975 4387 
Q 3406 4025 3406 3419 
Q 3406 3131 3298 2873 
Q 3191 2616 2906 2266 
Q 2828 2175 2409 1742 
Q 1991 1309 1228 531 
z
" transform="scale(0.015625)"/>
       </defs>
       <use xlink:href="#DejaVuSans-30"/>
       <use xlink:href="#DejaVuSans-2e" transform="translate(63.623047 0)"/>
       <use xlink:href="#DejaVuSans-32" transform="translate(95.410156 0)"/>
      </g>
     </g>
    </g>
    <g id="ytick_3">
     <g id="line2d_23">
      <path d="M 47.72 143.51795 
L 781.2 143.51795 
" clip-path="url(#pa355d5f606)" style="fill: none; stroke: #b0b0b0; stroke-opacity: 0.25; stroke-width: 0.8; stroke-linecap: square"/>
     </g>
     <g id="line2d_24">
      <g>
       <use xlink:href="#m9f54d4f566" x="47.72" y="143.51795" style="stroke: #000000; stroke-width: 0.8"/>
      </g>
     </g>
     <g id="text_3">
      <!-- 0.4 -->
      <g transform="translate(24.816875 147.317168) scale(0.1 -0.1)">
       <defs>
        <path id="DejaVuSans-34" d="M 2419 4116 
L 825 1625 
L 2419 1625 
L 2419 4116 
z
M 2253 4666 
L 3047 4666 
L 3047 1625 
L 3713 1625 
L 3713 1100 
L 3047 1100 
L 3047 0 
L 2419 0 
L 2419 1100 
L 313 1100 
L 313 1709 
L 2253 4666 
z
" transform="scale(0.015625)"/>
       </defs>
       <use xlink:href="#DejaVuSans-30"/>
       <use xlink:href="#DejaVuSans-2e" transform="translate(63.623047 0)"/>
       <use xlink:href="#DejaVuSans-34" transform="translate(95.410156 0)"/>
      </g>
     </g>
    </g>
    <g id="ytick_4">
     <g id="line2d_25">
      <path d="M 47.72 101.404424 
L 781.2 101.404424 
" clip-path="url(#pa355d5f606)" style="fill: none; stroke: #b0b0b0; stroke-opacity: 0.25; stroke-width: 0.8; stroke-linecap: square"/>
     </g>
     <g id="line2d_26">
      <g>
       <use xlink:href="#m9f54d4f566" x="47.72" y="101.404424" style="stroke: #000000; stroke-width: 0.8"/>
      </g>
     </g>
     <g id="text_4">
      <!-- 0.6 -->
      <g transform="translate(24.816875 105.203643) scale(0.1 -0.1)">
       <defs>
        <path id="DejaVuSans-36" d="M 2113 2584 
Q 1688 2584 1439 2293 
Q 1191 2003 1191 1497 
Q 1191 994 1439 701 
Q 1688 409 2113 409 
Q 2538 409 2786 701 
Q 3034 994 3034 1497 
Q 3034 2003 2786 2293 
Q 2538 2584 2113 2584 
z
M 3366 4563 
L 3366 3988 
Q 3128 4100 2886 4159 
Q 2644 4219 2406 4219 
Q 1781 4219 1451 3797 
Q 1122 3375 1075 2522 
Q 1259 2794 1537 2939 
Q 1816 3084 2150 3084 
Q 2853 3084 3261 2657 
Q 3669 2231 3669 1497 
Q 3669 778 3244 343 
Q 2819 -91 2113 -91 
Q 1303 -91 875 529 
Q 447 1150 447 2328 
Q 447 3434 972 4092 
Q 1497 4750 2381 4750 
Q 2619 4750 2861 4703 
Q 3103 4656 3366 4563 
z
" transform="scale(0.015625)"/>
       </defs>
       <use xlink:href="#DejaVuSans-30"/>
       <use xlink:href="#DejaVuSans-2e" transform="translate(63.623047 0)"/>
       <use xlink:href="#DejaVuSans-36" transform="translate(95.410156 0)"/>
      </g>
     </g>
    </g>
    <g id="ytick_5">
     <g id="line2d_27">
      <path d="M 47.72 59.290899 
L 781.2 59.290899 
" clip-path="url(#pa355d5f606)" style="fill: none; stroke: #b0b0b0; stroke-opacity: 0.25; stroke-width: 0.8; stroke-linecap: square"/>
     </g>
     <g id="line2d_28">
      <g>
       <use xlink:href="#m9f54d4f566" x="47.72" y="59.290899" style="stroke: #000000; stroke-width: 0.8"/>
      </g>
     </g>
     <g id="text_5">
      <!-- 0.8 -->
      <g transform="translate(24.816875 63.090118) scale(0.1 -0.1)">
       <defs>
        <path id="DejaVuSans-38" d="M 2034 2216 
Q 1584 2216 1326 1975 
Q 1069 1734 1069 1313 
Q 1069 891 1326 650 
Q 1584 409 2034 409 
Q 2484 409 2743 651 
Q 3003 894 3003 1313 
Q 3003 1734 2745 1975 
Q 2488 2216 2034 2216 
z
M 1403 2484 
Q 997 2584 770 2862 
Q 544 3141 544 3541 
Q 544 4100 942 4425 
Q 1341 4750 2034 4750 
Q 2731 4750 3128 4425 
Q 3525 4100 3525 3541 
Q 3525 3141 3298 2862 
Q 3072 2584 2669 2484 
Q 3125 2378 3379 2068 
Q 3634 1759 3634 1313 
Q 3634 634 3220 271 
Q 2806 -91 2034 -91 
Q 1263 -91 848 271 
Q 434 634 434 1313 
Q 434 1759 690 2068 
Q 947 2378 1403 2484 
z
M 1172 3481 
Q 1172 3119 1398 2916 
Q 1625 2713 2034 2713 
Q 2441 2713 2670 2916 
Q 2900 3119 2900 3481 
Q 2900 3844 2670 4047 
Q 2441 4250 2034 4250 
Q 1625 4250 1398 4047 
Q 1172 3844 1172 3481 
z
" transform="scale(0.015625)"/>
       </defs>
       <use xlink:href="#DejaVuSans-30"/>
       <use xlink:href="#DejaVuSans-2e" transform="translate(63.623047 0)"/>
       <use xlink:href="#DejaVuSans-38" transform="translate(95.410156 0)"/>
      </g>
     </g>
    </g>
    <g id="text_6">
     <!-- Accuracy -->
     <g transform="translate(18.737188 154.923125) rotate(-90) scale(0.1 -0.1)">
      <defs>
       <path id="DejaVuSans-41" d="M 2188 4044 
L 1331 1722 
L 3047 1722 
L 2188 4044 
z
M 1831 4666 
L 2547 4666 
L 4325 0 
L 3669 0 
L 3244 1197 
L 1141 1197 
L 716 0 
L 50 0 
L 1831 4666 
z
" transform="scale(0.015625)"/>
       <path id="DejaVuSans-63" d="M 3122 3366 
L 3122 2828 
Q 2878 2963 2633 3030 
Q 2388 3097 2138 3097 
Q 1578 3097 1268 2742 
Q 959 2388 959 1747 
Q 959 1106 1268 751 
Q 1578 397 2138 397 
Q 2388 397 2633 464 
Q 2878 531 3122 666 
L 3122 134 
Q 2881 22 2623 -34 
Q 2366 -91 2075 -91 
Q 1284 -91 818 406 
Q 353 903 353 1747 
Q 353 2603 823 3093 
Q 1294 3584 2113 3584 
Q 2378 3584 2631 3529 
Q 2884 3475 3122 3366 
z
" transform="scale(0.015625)"/>
       <path id="DejaVuSans-75" d="M 544 1381 
L 544 3500 
L 1119 3500 
L 1119 1403 
Q 1119 906 1312 657 
Q 1506 409 1894 409 
Q 2359 409 2629 706 
Q 2900 1003 2900 1516 
L 2900 3500 
L 3475 3500 
L 3475 0 
L 2900 0 
L 2900 538 
Q 2691 219 2414 64 
Q 2138 -91 1772 -91 
Q 1169 -91 856 284 
Q 544 659 544 1381 
z
M 1991 3584 
L 1991 3584 
z
" transform="scale(0.015625)"/>
       <path id="DejaVuSans-72" d="M 2631 2963 
Q 2534 3019 2420 3045 
Q 2306 3072 2169 3072 
Q 1681 3072 1420 2755 
Q 1159 2438 1159 1844 
L 1159 0 
L 581 0 
L 581 3500 
L 1159 3500 
L 1159 2956 
Q 1341 3275 1631 3429 
Q 1922 3584 2338 3584 
Q 2397 3584 2469 3576 
Q 2541 3569 2628 3553 
L 2631 2963 
z
" transform="scale(0.015625)"/>
       <path id="DejaVuSans-61" d="M 2194 1759 
Q 1497 1759 1228 1600 
Q 959 1441 959 1056 
Q 959 750 1161 570 
Q 1363 391 1709 391 
Q 2188 391 2477 730 
Q 2766 1069 2766 1631 
L 2766 1759 
L 2194 1759 
z
M 3341 1997 
L 3341 0 
L 2766 0 
L 2766 531 
Q 2569 213 2275 61 
Q 1981 -91 1556 -91 
Q 1019 -91 701 211 
Q 384 513 384 1019 
Q 384 1609 779 1909 
Q 1175 2209 1959 2209 
L 2766 2209 
L 2766 2266 
Q 2766 2663 2505 2880 
Q 2244 3097 1772 3097 
Q 1472 3097 1187 3025 
Q 903 2953 641 2809 
L 641 3341 
Q 956 3463 1253 3523 
Q 1550 3584 1831 3584 
Q 2591 3584 2966 3190 
Q 3341 2797 3341 1997 
z
" transform="scale(0.015625)"/>
       <path id="DejaVuSans-79" d="M 2059 -325 
Q 1816 -950 1584 -1140 
Q 1353 -1331 966 -1331 
L 506 -1331 
L 506 -850 
L 844 -850 
Q 1081 -850 1212 -737 
Q 1344 -625 1503 -206 
L 1606 56 
L 191 3500 
L 800 3500 
L 1894 763 
L 2988 3500 
L 3597 3500 
L 2059 -325 
z
" transform="scale(0.015625)"/>
      </defs>
      <use xlink:href="#DejaVuSans-41"/>
      <use xlink:href="#DejaVuSans-63" transform="translate(66.658203 0)"/>
      <use xlink:href="#DejaVuSans-63" transform="translate(121.638672 0)"/>
      <use xlink:href="#DejaVuSans-75" transform="translate(176.619141 0)"/>
      <use xlink:href="#DejaVuSans-72" transform="translate(239.998047 0)"/>
      <use xlink:href="#DejaVuSans-61" transform="translate(281.111328 0)"/>
      <use xlink:href="#DejaVuSans-63" transform="translate(342.390625 0)"/>
      <use xlink:href="#DejaVuSans-79" transform="translate(397.371094 0)"/>
     </g>
    </g>
   </g>
   <g id="line2d_29">
    <path d="M 81.06 225.878817 
L 91.644127 226.189848 
L 102.228254 225.256756 
L 112.812381 225.878817 
L 123.396508 225.878817 
L 133.980635 222.768513 
L 144.564762 159.007265 
L 155.148889 149.676354 
L 165.733016 149.987382 
L 176.317143 150.920472 
L 186.90127 146.255016 
L 197.485397 144.077802 
L 208.069524 139.723381 
L 218.653651 134.435857 
L 229.237778 94.934992 
L 239.821905 89.647475 
L 250.406032 88.403351 
L 260.990159 83.426867 
L 271.574286 78.450371 
L 282.158413 75.029046 
L 292.74254 71.918742 
L 303.326667 66.942246 
L 313.910794 67.875336 
L 324.494921 64.142977 
L 335.079048 62.898853 
L 345.663175 60.099583 
L 356.247302 61.654729 
L 366.831429 61.343694 
L 377.415556 60.410605 
L 387.999683 57.922369 
L 398.58381 61.343694 
L 409.167937 60.099583 
L 419.752063 59.166493 
L 430.33619 59.166493 
L 440.920317 61.965763 
L 451.504444 59.477515 
L 462.088571 58.855459 
L 472.672698 60.721639 
L 483.256825 61.032673 
L 493.840952 60.721639 
L 504.425079 61.032673 
L 515.009206 60.721639 
L 525.593333 60.099583 
L 536.17746 60.721639 
L 546.761587 60.099583 
L 557.345714 63.209887 
L 567.929841 61.965763 
L 578.513968 60.410605 
L 589.098095 63.209887 
L 599.682222 63.831942 
L 610.266349 63.831942 
L 620.850476 62.898853 
L 631.434603 61.343694 
L 642.01873 62.276797 
L 652.602857 61.965763 
L 663.186984 60.410605 
L 673.771111 61.965763 
L 684.355238 63.520908 
L 694.939365 62.276797 
L 705.523492 61.965763 
L 716.107619 61.654729 
L 726.691746 64.454011 
L 737.275873 62.898853 
L 747.86 64.142977 
" clip-path="url(#pa355d5f606)" style="fill: none; stroke: #1f77b4; stroke-width: 2; stroke-linecap: square"/>
   </g>
   <g id="line2d_30">
    <path d="M 81.06 227.745 
L 91.644127 227.745 
L 102.228254 227.745 
L 112.812381 227.745 
L 123.396508 227.745 
L 133.980635 227.745 
L 144.564762 211.229892 
L 155.148889 202.972338 
L 165.733016 204.348597 
L 176.317143 205.724856 
L 186.90127 197.467302 
L 197.485397 183.704712 
L 208.069524 187.833489 
L 218.653651 183.704712 
L 229.237778 164.437086 
L 239.821905 158.93205 
L 250.406032 158.93205 
L 260.990159 135.535647 
L 271.574286 127.278094 
L 282.158413 120.396799 
L 292.74254 106.634209 
L 303.326667 87.366583 
L 313.910794 84.614065 
L 324.494921 74.980252 
L 335.079048 66.722698 
L 345.663175 57.088885 
L 356.247302 59.841403 
L 366.831429 57.088885 
L 377.415556 47.455072 
L 387.999683 46.078813 
L 398.58381 48.831331 
L 409.167937 47.455072 
L 419.752063 39.197518 
L 430.33619 43.326295 
L 440.920317 47.455072 
L 451.504444 40.573777 
L 462.088571 39.197518 
L 472.672698 44.702554 
L 483.256825 41.950036 
L 493.840952 43.326295 
L 504.425079 41.950036 
L 515.009206 41.950036 
L 525.593333 39.197518 
L 536.17746 40.573777 
L 546.761587 40.573777 
L 557.345714 43.326295 
L 567.929841 41.950036 
L 578.513968 36.445 
L 589.098095 43.326295 
L 599.682222 43.326295 
L 610.266349 43.326295 
L 620.850476 44.702554 
L 631.434603 40.573777 
L 642.01873 39.197518 
L 652.602857 40.573777 
L 663.186984 36.445 
L 673.771111 36.445 
L 684.355238 39.197518 
L 694.939365 40.573777 
L 705.523492 37.821259 
L 716.107619 40.573777 
L 726.691746 40.573777 
L 737.275873 37.821259 
L 747.86 40.573777 
" clip-path="url(#pa355d5f606)" style="fill: none; stroke: #ff7f0e; stroke-width: 2; stroke-linecap: square"/>
   </g>
   <g id="patch_6">
    <path d="M 47.72 237.31 
L 47.72 26.88 
" style="fill: none; stroke: #000000; stroke-width: 0.8; stroke-linejoin: miter; stroke-linecap: square"/>
   </g>
   <g id="patch_7">
    <path d="M 781.2 237.31 
L 781.2 26.88 
" style="fill: none; stroke: #000000; stroke-width: 0.8; stroke-linejoin: miter; stroke-linecap: square"/>
   </g>
   <g id="patch_8">
    <path d="M 47.72 237.31 
L 781.2 237.31 
" style="fill: none; stroke: #000000; stroke-width: 0.8; stroke-linejoin: miter; stroke-linecap: square"/>
   </g>
   <g id="patch_9">
    <path d="M 47.72 26.88 
L 781.2 26.88 
" style="fill: none; stroke: #000000; stroke-width: 0.8; stroke-linejoin: miter; stroke-linecap: square"/>
   </g>
   <g id="text_7">
    <!-- Checkpoint behavior over training -->
    <g transform="translate(312.019375 20.88) scale(0.12 -0.12)">
     <defs>
      <path id="DejaVuSans-43" d="M 4122 4306 
L 4122 3641 
Q 3803 3938 3442 4084 
Q 3081 4231 2675 4231 
Q 1875 4231 1450 3742 
Q 1025 3253 1025 2328 
Q 1025 1406 1450 917 
Q 1875 428 2675 428 
Q 3081 428 3442 575 
Q 3803 722 4122 1019 
L 4122 359 
Q 3791 134 3420 21 
Q 3050 -91 2638 -91 
Q 1578 -91 968 557 
Q 359 1206 359 2328 
Q 359 3453 968 4101 
Q 1578 4750 2638 4750 
Q 3056 4750 3426 4639 
Q 3797 4528 4122 4306 
z
" transform="scale(0.015625)"/>
      <path id="DejaVuSans-68" d="M 3513 2113 
L 3513 0 
L 2938 0 
L 2938 2094 
Q 2938 2591 2744 2837 
Q 2550 3084 2163 3084 
Q 1697 3084 1428 2787 
Q 1159 2491 1159 1978 
L 1159 0 
L 581 0 
L 581 4863 
L 1159 4863 
L 1159 2956 
Q 1366 3272 1645 3428 
Q 1925 3584 2291 3584 
Q 2894 3584 3203 3211 
Q 3513 2838 3513 2113 
z
" transform="scale(0.015625)"/>
      <path id="DejaVuSans-65" d="M 3597 1894 
L 3597 1613 
L 953 1613 
Q 991 1019 1311 708 
Q 1631 397 2203 397 
Q 2534 397 2845 478 
Q 3156 559 3463 722 
L 3463 178 
Q 3153 47 2828 -22 
Q 2503 -91 2169 -91 
Q 1331 -91 842 396 
Q 353 884 353 1716 
Q 353 2575 817 3079 
Q 1281 3584 2069 3584 
Q 2775 3584 3186 3129 
Q 3597 2675 3597 1894 
z
M 3022 2063 
Q 3016 2534 2758 2815 
Q 2500 3097 2075 3097 
Q 1594 3097 1305 2825 
Q 1016 2553 972 2059 
L 3022 2063 
z
" transform="scale(0.015625)"/>
      <path id="DejaVuSans-6b" d="M 581 4863 
L 1159 4863 
L 1159 1991 
L 2875 3500 
L 3609 3500 
L 1753 1863 
L 3688 0 
L 2938 0 
L 1159 1709 
L 1159 0 
L 581 0 
L 581 4863 
z
" transform="scale(0.015625)"/>
      <path id="DejaVuSans-70" d="M 1159 525 
L 1159 -1331 
L 581 -1331 
L 581 3500 
L 1159 3500 
L 1159 2969 
Q 1341 3281 1617 3432 
Q 1894 3584 2278 3584 
Q 2916 3584 3314 3078 
Q 3713 2572 3713 1747 
Q 3713 922 3314 415 
Q 2916 -91 2278 -91 
Q 1894 -91 1617 61 
Q 1341 213 1159 525 
z
M 3116 1747 
Q 3116 2381 2855 2742 
Q 2594 3103 2138 3103 
Q 1681 3103 1420 2742 
Q 1159 2381 1159 1747 
Q 1159 1113 1420 752 
Q 1681 391 2138 391 
Q 2594 391 2855 752 
Q 3116 1113 3116 1747 
z
" transform="scale(0.015625)"/>
      <path id="DejaVuSans-6f" d="M 1959 3097 
Q 1497 3097 1228 2736 
Q 959 2375 959 1747 
Q 959 1119 1226 758 
Q 1494 397 1959 397 
Q 2419 397 2687 759 
Q 2956 1122 2956 1747 
Q 2956 2369 2687 2733 
Q 2419 3097 1959 3097 
z
M 1959 3584 
Q 2709 3584 3137 3096 
Q 3566 2609 3566 1747 
Q 3566 888 3137 398 
Q 2709 -91 1959 -91 
Q 1206 -91 779 398 
Q 353 888 353 1747 
Q 353 2609 779 3096 
Q 1206 3584 1959 3584 
z
" transform="scale(0.015625)"/>
      <path id="DejaVuSans-69" d="M 603 3500 
L 1178 3500 
L 1178 0 
L 603 0 
L 603 3500 
z
M 603 4863 
L 1178 4863 
L 1178 4134 
L 603 4134 
L 603 4863 
z
" transform="scale(0.015625)"/>
      <path id="DejaVuSans-6e" d="M 3513 2113 
L 3513 0 
L 2938 0 
L 2938 2094 
Q 2938 2591 2744 2837 
Q 2550 3084 2163 3084 
Q 1697 3084 1428 2787 
Q 1159 2491 1159 1978 
L 1159 0 
L 581 0 
L 581 3500 
L 1159 3500 
L 1159 2956 
Q 1366 3272 1645 3428 
Q 1925 3584 2291 3584 
Q 2894 3584 3203 3211 
Q 3513 2838 3513 2113 
z
" transform="scale(0.015625)"/>
      <path id="DejaVuSans-74" d="M 1172 4494 
L 1172 3500 
L 2356 3500 
L 2356 3053 
L 1172 3053 
L 1172 1153 
Q 1172 725 1289 603 
Q 1406 481 1766 481 
L 2356 481 
L 2356 0 
L 1766 0 
Q 1100 0 847 248 
Q 594 497 594 1153 
L 594 3053 
L 172 3053 
L 172 3500 
L 594 3500 
L 594 4494 
L 1172 4494 
z
" transform="scale(0.015625)"/>
      <path id="DejaVuSans-20" transform="scale(0.015625)"/>
      <path id="DejaVuSans-62" d="M 3116 1747 
Q 3116 2381 2855 2742 
Q 2594 3103 2138 3103 
Q 1681 3103 1420 2742 
Q 1159 2381 1159 1747 
Q 1159 1113 1420 752 
Q 1681 391 2138 391 
Q 2594 391 2855 752 
Q 3116 1113 3116 1747 
z
M 1159 2969 
Q 1341 3281 1617 3432 
Q 1894 3584 2278 3584 
Q 2916 3584 3314 3078 
Q 3713 2572 3713 1747 
Q 3713 922 3314 415 
Q 2916 -91 2278 -91 
Q 1894 -91 1617 61 
Q 1341 213 1159 525 
L 1159 0 
L 581 0 
L 581 4863 
L 1159 4863 
L 1159 2969 
z
" transform="scale(0.015625)"/>
      <path id="DejaVuSans-76" d="M 191 3500 
L 800 3500 
L 1894 563 
L 2988 3500 
L 3597 3500 
L 2284 0 
L 1503 0 
L 191 3500 
z
" transform="scale(0.015625)"/>
      <path id="DejaVuSans-67" d="M 2906 1791 
Q 2906 2416 2648 2759 
Q 2391 3103 1925 3103 
Q 1463 3103 1205 2759 
Q 947 2416 947 1791 
Q 947 1169 1205 825 
Q 1463 481 1925 481 
Q 2391 481 2648 825 
Q 2906 1169 2906 1791 
z
M 3481 434 
Q 3481 -459 3084 -895 
Q 2688 -1331 1869 -1331 
Q 1566 -1331 1297 -1286 
Q 1028 -1241 775 -1147 
L 775 -588 
Q 1028 -725 1275 -790 
Q 1522 -856 1778 -856 
Q 2344 -856 2625 -561 
Q 2906 -266 2906 331 
L 2906 616 
Q 2728 306 2450 153 
Q 2172 0 1784 0 
Q 1141 0 747 490 
Q 353 981 353 1791 
Q 353 2603 747 3093 
Q 1141 3584 1784 3584 
Q 2172 3584 2450 3431 
Q 2728 3278 2906 2969 
L 2906 3500 
L 3481 3500 
L 3481 434 
z
" transform="scale(0.015625)"/>
     </defs>
     <use xlink:href="#DejaVuSans-43"/>
     <use xlink:href="#DejaVuSans-68" transform="translate(69.824219 0)"/>
     <use xlink:href="#DejaVuSans-65" transform="translate(133.203125 0)"/>
     <use xlink:href="#DejaVuSans-63" transform="translate(194.726562 0)"/>
     <use xlink:href="#DejaVuSans-6b" transform="translate(249.707031 0)"/>
     <use xlink:href="#DejaVuSans-70" transform="translate(307.617188 0)"/>
     <use xlink:href="#DejaVuSans-6f" transform="translate(371.09375 0)"/>
     <use xlink:href="#DejaVuSans-69" transform="translate(432.275391 0)"/>
     <use xlink:href="#DejaVuSans-6e" transform="translate(460.058594 0)"/>
     <use xlink:href="#DejaVuSans-74" transform="translate(523.4375 0)"/>
     <use xlink:href="#DejaVuSans-20" transform="translate(562.646484 0)"/>
     <use xlink:href="#DejaVuSans-62" transform="translate(594.433594 0)"/>
     <use xlink:href="#DejaVuSans-65" transform="translate(657.910156 0)"/>
     <use xlink:href="#DejaVuSans-68" transform="translate(719.433594 0)"/>
     <use xlink:href="#DejaVuSans-61" transform="translate(782.8125 0)"/>
     <use xlink:href="#DejaVuSans-76" transform="translate(844.091797 0)"/>
     <use xlink:href="#DejaVuSans-69" transform="translate(903.271484 0)"/>
     <use xlink:href="#DejaVuSans-6f" transform="translate(931.054688 0)"/>
     <use xlink:href="#DejaVuSans-72" transform="translate(992.236328 0)"/>
     <use xlink:href="#DejaVuSans-20" transform="translate(1033.349609 0)"/>
     <use xlink:href="#DejaVuSans-6f" transform="translate(1065.136719 0)"/>
     <use xlink:href="#DejaVuSans-76" transform="translate(1126.318359 0)"/>
     <use xlink:href="#DejaVuSans-65" transform="translate(1185.498047 0)"/>
     <use xlink:href="#DejaVuSans-72" transform="translate(1247.021484 0)"/>
     <use xlink:href="#DejaVuSans-20" transform="translate(1288.134766 0)"/>
     <use xlink:href="#DejaVuSans-74" transform="translate(1319.921875 0)"/>
     <use xlink:href="#DejaVuSans-72" transform="translate(1359.130859 0)"/>
     <use xlink:href="#DejaVuSans-61" transform="translate(1400.244141 0)"/>
     <use xlink:href="#DejaVuSans-69" transform="translate(1461.523438 0)"/>
     <use xlink:href="#DejaVuSans-6e" transform="translate(1489.306641 0)"/>
     <use xlink:href="#DejaVuSans-69" transform="translate(1552.685547 0)"/>
     <use xlink:href="#DejaVuSans-6e" transform="translate(1580.46875 0)"/>
     <use xlink:href="#DejaVuSans-67" transform="translate(1643.847656 0)"/>
    </g>
   </g>
   <g id="legend_1">
    <g id="patch_10">
     <path d="M 672.667187 232.31 
L 774.2 232.31 
Q 776.2 232.31 776.2 230.31 
L 776.2 201.95375 
Q 776.2 199.95375 774.2 199.95375 
L 672.667187 199.95375 
Q 670.667187 199.95375 670.667187 201.95375 
L 670.667187 230.31 
Q 670.667187 232.31 672.667187 232.31 
z
" style="fill: #ffffff; opacity: 0.8; stroke: #cccccc; stroke-linejoin: miter"/>
    </g>
    <g id="line2d_31">
     <path d="M 674.667187 208.052187 
L 684.667187 208.052187 
L 694.667187 208.052187 
" style="fill: none; stroke: #1f77b4; stroke-width: 2; stroke-linecap: square"/>
    </g>
    <g id="text_8">
     <!-- Probe answer -->
     <g transform="translate(702.667187 211.552187) scale(0.1 -0.1)">
      <defs>
       <path id="DejaVuSans-50" d="M 1259 4147 
L 1259 2394 
L 2053 2394 
Q 2494 2394 2734 2622 
Q 2975 2850 2975 3272 
Q 2975 3691 2734 3919 
Q 2494 4147 2053 4147 
L 1259 4147 
z
M 628 4666 
L 2053 4666 
Q 2838 4666 3239 4311 
Q 3641 3956 3641 3272 
Q 3641 2581 3239 2228 
Q 2838 1875 2053 1875 
L 1259 1875 
L 1259 0 
L 628 0 
L 628 4666 
z
" transform="scale(0.015625)"/>
       <path id="DejaVuSans-73" d="M 2834 3397 
L 2834 2853 
Q 2591 2978 2328 3040 
Q 2066 3103 1784 3103 
Q 1356 3103 1142 2972 
Q 928 2841 928 2578 
Q 928 2378 1081 2264 
Q 1234 2150 1697 2047 
L 1894 2003 
Q 2506 1872 2764 1633 
Q 3022 1394 3022 966 
Q 3022 478 2636 193 
Q 2250 -91 1575 -91 
Q 1294 -91 989 -36 
Q 684 19 347 128 
L 347 722 
Q 666 556 975 473 
Q 1284 391 1588 391 
Q 1994 391 2212 530 
Q 2431 669 2431 922 
Q 2431 1156 2273 1281 
Q 2116 1406 1581 1522 
L 1381 1569 
Q 847 1681 609 1914 
Q 372 2147 372 2553 
Q 372 3047 722 3315 
Q 1072 3584 1716 3584 
Q 2034 3584 2315 3537 
Q 2597 3491 2834 3397 
z
" transform="scale(0.015625)"/>
       <path id="DejaVuSans-77" d="M 269 3500 
L 844 3500 
L 1563 769 
L 2278 3500 
L 2956 3500 
L 3675 769 
L 4391 3500 
L 4966 3500 
L 4050 0 
L 3372 0 
L 2619 2869 
L 1863 0 
L 1184 0 
L 269 3500 
z
" transform="scale(0.015625)"/>
      </defs>
      <use xlink:href="#DejaVuSans-50"/>
      <use xlink:href="#DejaVuSans-72" transform="translate(58.552734 0)"/>
      <use xlink:href="#DejaVuSans-6f" transform="translate(97.416016 0)"/>
      <use xlink:href="#DejaVuSans-62" transform="translate(158.597656 0)"/>
      <use xlink:href="#DejaVuSans-65" transform="translate(222.074219 0)"/>
      <use xlink:href="#DejaVuSans-20" transform="translate(283.597656 0)"/>
      <use xlink:href="#DejaVuSans-61" transform="translate(315.384766 0)"/>
      <use xlink:href="#DejaVuSans-6e" transform="translate(376.664062 0)"/>
      <use xlink:href="#DejaVuSans-73" transform="translate(440.042969 0)"/>
      <use xlink:href="#DejaVuSans-77" transform="translate(492.142578 0)"/>
      <use xlink:href="#DejaVuSans-65" transform="translate(573.929688 0)"/>
      <use xlink:href="#DejaVuSans-72" transform="translate(635.453125 0)"/>
     </g>
    </g>
    <g id="line2d_32">
     <path d="M 674.667187 222.730312 
L 684.667187 222.730312 
L 694.667187 222.730312 
" style="fill: none; stroke: #ff7f0e; stroke-width: 2; stroke-linecap: square"/>
    </g>
    <g id="text_9">
     <!-- Probe heldout -->
     <g transform="translate(702.667187 226.230312) scale(0.1 -0.1)">
      <defs>
       <path id="DejaVuSans-6c" d="M 603 4863 
L 1178 4863 
L 1178 0 
L 603 0 
L 603 4863 
z
" transform="scale(0.015625)"/>
       <path id="DejaVuSans-64" d="M 2906 2969 
L 2906 4863 
L 3481 4863 
L 3481 0 
L 2906 0 
L 2906 525 
Q 2725 213 2448 61 
Q 2172 -91 1784 -91 
Q 1150 -91 751 415 
Q 353 922 353 1747 
Q 353 2572 751 3078 
Q 1150 3584 1784 3584 
Q 2172 3584 2448 3432 
Q 2725 3281 2906 2969 
z
M 947 1747 
Q 947 1113 1208 752 
Q 1469 391 1925 391 
Q 2381 391 2643 752 
Q 2906 1113 2906 1747 
Q 2906 2381 2643 2742 
Q 2381 3103 1925 3103 
Q 1469 3103 1208 2742 
Q 947 2381 947 1747 
z
" transform="scale(0.015625)"/>
      </defs>
      <use xlink:href="#DejaVuSans-50"/>
      <use xlink:href="#DejaVuSans-72" transform="translate(58.552734 0)"/>
      <use xlink:href="#DejaVuSans-6f" transform="translate(97.416016 0)"/>
      <use xlink:href="#DejaVuSans-62" transform="translate(158.597656 0)"/>
      <use xlink:href="#DejaVuSans-65" transform="translate(222.074219 0)"/>
      <use xlink:href="#DejaVuSans-20" transform="translate(283.597656 0)"/>
      <use xlink:href="#DejaVuSans-68" transform="translate(315.384766 0)"/>
      <use xlink:href="#DejaVuSans-65" transform="translate(378.763672 0)"/>
      <use xlink:href="#DejaVuSans-6c" transform="translate(440.287109 0)"/>
      <use xlink:href="#DejaVuSans-64" transform="translate(468.070312 0)"/>
      <use xlink:href="#DejaVuSans-6f" transform="translate(531.546875 0)"/>
      <use xlink:href="#DejaVuSans-75" transform="translate(592.728516 0)"/>
      <use xlink:href="#DejaVuSans-74" transform="translate(656.107422 0)"/>
     </g>
    </g>
   </g>
  </g>
  <g id="axes_2">
   <g id="patch_11">
    <path d="M 47.72 462.04 
L 781.2 462.04 
L 781.2 251.61 
L 47.72 251.61 
z
" style="fill: #ffffff"/>
   </g>
   <g id="patch_12">
    <path d="M 133.980635 462.04 
L 155.148889 462.04 
L 155.148889 251.61 
L 133.980635 251.61 
z
" clip-path="url(#p4d067f4112)" style="fill: #dbeafe; opacity: 0.35; stroke: #dbeafe; stroke-linejoin: miter"/>
   </g>
   <g id="patch_13">
    <path d="M 250.406032 462.04 
L 271.574286 462.04 
L 271.574286 251.61 
L 250.406032 251.61 
z
" clip-path="url(#p4d067f4112)" style="fill: #dbeafe; opacity: 0.35; stroke: #dbeafe; stroke-linejoin: miter"/>
   </g>
   <g id="patch_14">
    <path d="M 387.999683 462.04 
L 409.167937 462.04 
L 409.167937 251.61 
L 387.999683 251.61 
z
" clip-path="url(#p4d067f4112)" style="fill: #dbeafe; opacity: 0.35; stroke: #dbeafe; stroke-linejoin: miter"/>
   </g>
   <g id="matplotlib.axis_3">
    <g id="xtick_10">
     <g id="line2d_33">
      <path d="M 70.475873 462.04 
L 70.475873 251.61 
" clip-path="url(#p4d067f4112)" style="fill: none; stroke: #b0b0b0; stroke-opacity: 0.25; stroke-width: 0.8; stroke-linecap: square"/>
     </g>
     <g id="line2d_34">
      <g>
       <use xlink:href="#m8b1ab6ac50" x="70.475873" y="462.04" style="stroke: #000000; stroke-width: 0.8"/>
      </g>
     </g>
     <g id="text_10">
      <!-- 0 -->
      <g transform="translate(67.294623 476.638438) scale(0.1 -0.1)">
       <use xlink:href="#DejaVuSans-30"/>
      </g>
     </g>
    </g>
    <g id="xtick_11">
     <g id="line2d_35">
      <path d="M 155.148889 462.04 
L 155.148889 251.61 
" clip-path="url(#p4d067f4112)" style="fill: none; stroke: #b0b0b0; stroke-opacity: 0.25; stroke-width: 0.8; stroke-linecap: square"/>
     </g>
     <g id="line2d_36">
      <g>
       <use xlink:href="#m8b1ab6ac50" x="155.148889" y="462.04" style="stroke: #000000; stroke-width: 0.8"/>
      </g>
     </g>
     <g id="text_11">
      <!-- 2000 -->
      <g transform="translate(142.423889 476.638438) scale(0.1 -0.1)">
       <use xlink:href="#DejaVuSans-32"/>
       <use xlink:href="#DejaVuSans-30" transform="translate(63.623047 0)"/>
       <use xlink:href="#DejaVuSans-30" transform="translate(127.246094 0)"/>
       <use xlink:href="#DejaVuSans-30" transform="translate(190.869141 0)"/>
      </g>
     </g>
    </g>
    <g id="xtick_12">
     <g id="line2d_37">
      <path d="M 239.821905 462.04 
L 239.821905 251.61 
" clip-path="url(#p4d067f4112)" style="fill: none; stroke: #b0b0b0; stroke-opacity: 0.25; stroke-width: 0.8; stroke-linecap: square"/>
     </g>
     <g id="line2d_38">
      <g>
       <use xlink:href="#m8b1ab6ac50" x="239.821905" y="462.04" style="stroke: #000000; stroke-width: 0.8"/>
      </g>
     </g>
     <g id="text_12">
      <!-- 4000 -->
      <g transform="translate(227.096905 476.638438) scale(0.1 -0.1)">
       <use xlink:href="#DejaVuSans-34"/>
       <use xlink:href="#DejaVuSans-30" transform="translate(63.623047 0)"/>
       <use xlink:href="#DejaVuSans-30" transform="translate(127.246094 0)"/>
       <use xlink:href="#DejaVuSans-30" transform="translate(190.869141 0)"/>
      </g>
     </g>
    </g>
    <g id="xtick_13">
     <g id="line2d_39">
      <path d="M 324.494921 462.04 
L 324.494921 251.61 
" clip-path="url(#p4d067f4112)" style="fill: none; stroke: #b0b0b0; stroke-opacity: 0.25; stroke-width: 0.8; stroke-linecap: square"/>
     </g>
     <g id="line2d_40">
      <g>
       <use xlink:href="#m8b1ab6ac50" x="324.494921" y="462.04" style="stroke: #000000; stroke-width: 0.8"/>
      </g>
     </g>
     <g id="text_13">
      <!-- 6000 -->
      <g transform="translate(311.769921 476.638438) scale(0.1 -0.1)">
       <use xlink:href="#DejaVuSans-36"/>
       <use xlink:href="#DejaVuSans-30" transform="translate(63.623047 0)"/>
       <use xlink:href="#DejaVuSans-30" transform="translate(127.246094 0)"/>
       <use xlink:href="#DejaVuSans-30" transform="translate(190.869141 0)"/>
      </g>
     </g>
    </g>
    <g id="xtick_14">
     <g id="line2d_41">
      <path d="M 409.167937 462.04 
L 409.167937 251.61 
" clip-path="url(#p4d067f4112)" style="fill: none; stroke: #b0b0b0; stroke-opacity: 0.25; stroke-width: 0.8; stroke-linecap: square"/>
     </g>
     <g id="line2d_42">
      <g>
       <use xlink:href="#m8b1ab6ac50" x="409.167937" y="462.04" style="stroke: #000000; stroke-width: 0.8"/>
      </g>
     </g>
     <g id="text_14">
      <!-- 8000 -->
      <g transform="translate(396.442937 476.638438) scale(0.1 -0.1)">
       <use xlink:href="#DejaVuSans-38"/>
       <use xlink:href="#DejaVuSans-30" transform="translate(63.623047 0)"/>
       <use xlink:href="#DejaVuSans-30" transform="translate(127.246094 0)"/>
       <use xlink:href="#DejaVuSans-30" transform="translate(190.869141 0)"/>
      </g>
     </g>
    </g>
    <g id="xtick_15">
     <g id="line2d_43">
      <path d="M 493.840952 462.04 
L 493.840952 251.61 
" clip-path="url(#p4d067f4112)" style="fill: none; stroke: #b0b0b0; stroke-opacity: 0.25; stroke-width: 0.8; stroke-linecap: square"/>
     </g>
     <g id="line2d_44">
      <g>
       <use xlink:href="#m8b1ab6ac50" x="493.840952" y="462.04" style="stroke: #000000; stroke-width: 0.8"/>
      </g>
     </g>
     <g id="text_15">
      <!-- 10000 -->
      <g transform="translate(477.934702 476.638438) scale(0.1 -0.1)">
       <defs>
        <path id="DejaVuSans-31" d="M 794 531 
L 1825 531 
L 1825 4091 
L 703 3866 
L 703 4441 
L 1819 4666 
L 2450 4666 
L 2450 531 
L 3481 531 
L 3481 0 
L 794 0 
L 794 531 
z
" transform="scale(0.015625)"/>
       </defs>
       <use xlink:href="#DejaVuSans-31"/>
       <use xlink:href="#DejaVuSans-30" transform="translate(63.623047 0)"/>
       <use xlink:href="#DejaVuSans-30" transform="translate(127.246094 0)"/>
       <use xlink:href="#DejaVuSans-30" transform="translate(190.869141 0)"/>
       <use xlink:href="#DejaVuSans-30" transform="translate(254.492188 0)"/>
      </g>
     </g>
    </g>
    <g id="xtick_16">
     <g id="line2d_45">
      <path d="M 578.513968 462.04 
L 578.513968 251.61 
" clip-path="url(#p4d067f4112)" style="fill: none; stroke: #b0b0b0; stroke-opacity: 0.25; stroke-width: 0.8; stroke-linecap: square"/>
     </g>
     <g id="line2d_46">
      <g>
       <use xlink:href="#m8b1ab6ac50" x="578.513968" y="462.04" style="stroke: #000000; stroke-width: 0.8"/>
      </g>
     </g>
     <g id="text_16">
      <!-- 12000 -->
      <g transform="translate(562.607718 476.638438) scale(0.1 -0.1)">
       <use xlink:href="#DejaVuSans-31"/>
       <use xlink:href="#DejaVuSans-32" transform="translate(63.623047 0)"/>
       <use xlink:href="#DejaVuSans-30" transform="translate(127.246094 0)"/>
       <use xlink:href="#DejaVuSans-30" transform="translate(190.869141 0)"/>
       <use xlink:href="#DejaVuSans-30" transform="translate(254.492188 0)"/>
      </g>
     </g>
    </g>
    <g id="xtick_17">
     <g id="line2d_47">
      <path d="M 663.186984 462.04 
L 663.186984 251.61 
" clip-path="url(#p4d067f4112)" style="fill: none; stroke: #b0b0b0; stroke-opacity: 0.25; stroke-width: 0.8; stroke-linecap: square"/>
     </g>
     <g id="line2d_48">
      <g>
       <use xlink:href="#m8b1ab6ac50" x="663.186984" y="462.04" style="stroke: #000000; stroke-width: 0.8"/>
      </g>
     </g>
     <g id="text_17">
      <!-- 14000 -->
      <g transform="translate(647.280734 476.638438) scale(0.1 -0.1)">
       <use xlink:href="#DejaVuSans-31"/>
       <use xlink:href="#DejaVuSans-34" transform="translate(63.623047 0)"/>
       <use xlink:href="#DejaVuSans-30" transform="translate(127.246094 0)"/>
       <use xlink:href="#DejaVuSans-30" transform="translate(190.869141 0)"/>
       <use xlink:href="#DejaVuSans-30" transform="translate(254.492188 0)"/>
      </g>
     </g>
    </g>
    <g id="xtick_18">
     <g id="line2d_49">
      <path d="M 747.86 462.04 
L 747.86 251.61 
" clip-path="url(#p4d067f4112)" style="fill: none; stroke: #b0b0b0; stroke-opacity: 0.25; stroke-width: 0.8; stroke-linecap: square"/>
     </g>
     <g id="line2d_50">
      <g>
       <use xlink:href="#m8b1ab6ac50" x="747.86" y="462.04" style="stroke: #000000; stroke-width: 0.8"/>
      </g>
     </g>
     <g id="text_18">
      <!-- 16000 -->
      <g transform="translate(731.95375 476.638438) scale(0.1 -0.1)">
       <use xlink:href="#DejaVuSans-31"/>
       <use xlink:href="#DejaVuSans-36" transform="translate(63.623047 0)"/>
       <use xlink:href="#DejaVuSans-30" transform="translate(127.246094 0)"/>
       <use xlink:href="#DejaVuSans-30" transform="translate(190.869141 0)"/>
       <use xlink:href="#DejaVuSans-30" transform="translate(254.492188 0)"/>
      </g>
     </g>
    </g>
    <g id="text_19">
     <!-- Checkpoint step -->
     <g transform="translate(373.9225 490.316563) scale(0.1 -0.1)">
      <use xlink:href="#DejaVuSans-43"/>
      <use xlink:href="#DejaVuSans-68" transform="translate(69.824219 0)"/>
      <use xlink:href="#DejaVuSans-65" transform="translate(133.203125 0)"/>
      <use xlink:href="#DejaVuSans-63" transform="translate(194.726562 0)"/>
      <use xlink:href="#DejaVuSans-6b" transform="translate(249.707031 0)"/>
      <use xlink:href="#DejaVuSans-70" transform="translate(307.617188 0)"/>
      <use xlink:href="#DejaVuSans-6f" transform="translate(371.09375 0)"/>
      <use xlink:href="#DejaVuSans-69" transform="translate(432.275391 0)"/>
      <use xlink:href="#DejaVuSans-6e" transform="translate(460.058594 0)"/>
      <use xlink:href="#DejaVuSans-74" transform="translate(523.4375 0)"/>
      <use xlink:href="#DejaVuSans-20" transform="translate(562.646484 0)"/>
      <use xlink:href="#DejaVuSans-73" transform="translate(594.433594 0)"/>
      <use xlink:href="#DejaVuSans-74" transform="translate(646.533203 0)"/>
      <use xlink:href="#DejaVuSans-65" transform="translate(685.742188 0)"/>
      <use xlink:href="#DejaVuSans-70" transform="translate(747.265625 0)"/>
     </g>
    </g>
   </g>
   <g id="matplotlib.axis_4">
    <g id="ytick_6">
     <g id="line2d_51">
      <path d="M 47.72 451.641259 
L 781.2 451.641259 
" clip-path="url(#p4d067f4112)" style="fill: none; stroke: #b0b0b0; stroke-opacity: 0.25; stroke-width: 0.8; stroke-linecap: square"/>
     </g>
     <g id="line2d_52">
      <g>
       <use xlink:href="#m9f54d4f566" x="47.72" y="451.641259" style="stroke: #000000; stroke-width: 0.8"/>
      </g>
     </g>
     <g id="text_20">
      <!-- −2 -->
      <g transform="translate(25.977813 455.440478) scale(0.1 -0.1)">
       <defs>
        <path id="DejaVuSans-2212" d="M 678 2272 
L 4684 2272 
L 4684 1741 
L 678 1741 
L 678 2272 
z
" transform="scale(0.015625)"/>
       </defs>
       <use xlink:href="#DejaVuSans-2212"/>
       <use xlink:href="#DejaVuSans-32" transform="translate(83.789062 0)"/>
      </g>
     </g>
    </g>
    <g id="ytick_7">
     <g id="line2d_53">
      <path d="M 47.72 416.526782 
L 781.2 416.526782 
" clip-path="url(#p4d067f4112)" style="fill: none; stroke: #b0b0b0; stroke-opacity: 0.25; stroke-width: 0.8; stroke-linecap: square"/>
     </g>
     <g id="line2d_54">
      <g>
       <use xlink:href="#m9f54d4f566" x="47.72" y="416.526782" style="stroke: #000000; stroke-width: 0.8"/>
      </g>
     </g>
     <g id="text_21">
      <!-- 0 -->
      <g transform="translate(34.3575 420.326) scale(0.1 -0.1)">
       <use xlink:href="#DejaVuSans-30"/>
      </g>
     </g>
    </g>
    <g id="ytick_8">
     <g id="line2d_55">
      <path d="M 47.72 381.412304 
L 781.2 381.412304 
" clip-path="url(#p4d067f4112)" style="fill: none; stroke: #b0b0b0; stroke-opacity: 0.25; stroke-width: 0.8; stroke-linecap: square"/>
     </g>
     <g id="line2d_56">
      <g>
       <use xlink:href="#m9f54d4f566" x="47.72" y="381.412304" style="stroke: #000000; stroke-width: 0.8"/>
      </g>
     </g>
     <g id="text_22">
      <!-- 2 -->
      <g transform="translate(34.3575 385.211523) scale(0.1 -0.1)">
       <use xlink:href="#DejaVuSans-32"/>
      </g>
     </g>
    </g>
    <g id="ytick_9">
     <g id="line2d_57">
      <path d="M 47.72 346.297827 
L 781.2 346.297827 
" clip-path="url(#p4d067f4112)" style="fill: none; stroke: #b0b0b0; stroke-opacity: 0.25; stroke-width: 0.8; stroke-linecap: square"/>
     </g>
     <g id="line2d_58">
      <g>
       <use xlink:href="#m9f54d4f566" x="47.72" y="346.297827" style="stroke: #000000; stroke-width: 0.8"/>
      </g>
     </g>
     <g id="text_23">
      <!-- 4 -->
      <g transform="translate(34.3575 350.097046) scale(0.1 -0.1)">
       <use xlink:href="#DejaVuSans-34"/>
      </g>
     </g>
    </g>
    <g id="ytick_10">
     <g id="line2d_59">
      <path d="M 47.72 311.18335 
L 781.2 311.18335 
" clip-path="url(#p4d067f4112)" style="fill: none; stroke: #b0b0b0; stroke-opacity: 0.25; stroke-width: 0.8; stroke-linecap: square"/>
     </g>
     <g id="line2d_60">
      <g>
       <use xlink:href="#m9f54d4f566" x="47.72" y="311.18335" style="stroke: #000000; stroke-width: 0.8"/>
      </g>
     </g>
     <g id="text_24">
      <!-- 6 -->
      <g transform="translate(34.3575 314.982568) scale(0.1 -0.1)">
       <use xlink:href="#DejaVuSans-36"/>
      </g>
     </g>
    </g>
    <g id="ytick_11">
     <g id="line2d_61">
      <path d="M 47.72 276.068872 
L 781.2 276.068872 
" clip-path="url(#p4d067f4112)" style="fill: none; stroke: #b0b0b0; stroke-opacity: 0.25; stroke-width: 0.8; stroke-linecap: square"/>
     </g>
     <g id="line2d_62">
      <g>
       <use xlink:href="#m9f54d4f566" x="47.72" y="276.068872" style="stroke: #000000; stroke-width: 0.8"/>
      </g>
     </g>
     <g id="text_25">
      <!-- 8 -->
      <g transform="translate(34.3575 279.868091) scale(0.1 -0.1)">
       <use xlink:href="#DejaVuSans-38"/>
      </g>
     </g>
    </g>
    <g id="text_26">
     <!-- Metric value -->
     <g transform="translate(19.898125 387.616406) rotate(-90) scale(0.1 -0.1)">
      <defs>
       <path id="DejaVuSans-4d" d="M 628 4666 
L 1569 4666 
L 2759 1491 
L 3956 4666 
L 4897 4666 
L 4897 0 
L 4281 0 
L 4281 4097 
L 3078 897 
L 2444 897 
L 1241 4097 
L 1241 0 
L 628 0 
L 628 4666 
z
" transform="scale(0.015625)"/>
      </defs>
      <use xlink:href="#DejaVuSans-4d"/>
      <use xlink:href="#DejaVuSans-65" transform="translate(86.279297 0)"/>
      <use xlink:href="#DejaVuSans-74" transform="translate(147.802734 0)"/>
      <use xlink:href="#DejaVuSans-72" transform="translate(187.011719 0)"/>
      <use xlink:href="#DejaVuSans-69" transform="translate(228.125 0)"/>
      <use xlink:href="#DejaVuSans-63" transform="translate(255.908203 0)"/>
      <use xlink:href="#DejaVuSans-20" transform="translate(310.888672 0)"/>
      <use xlink:href="#DejaVuSans-76" transform="translate(342.675781 0)"/>
      <use xlink:href="#DejaVuSans-61" transform="translate(401.855469 0)"/>
      <use xlink:href="#DejaVuSans-6c" transform="translate(463.134766 0)"/>
      <use xlink:href="#DejaVuSans-75" transform="translate(490.917969 0)"/>
      <use xlink:href="#DejaVuSans-65" transform="translate(554.296875 0)"/>
     </g>
    </g>
   </g>
   <g id="line2d_63">
    <path d="M 81.06 415.171289 
L 91.644127 415.099592 
L 102.228254 415.143514 
L 112.812381 415.261446 
L 123.396508 415.402731 
L 133.980635 415.608539 
L 144.564762 415.610171 
L 155.148889 415.723233 
L 165.733016 415.731319 
L 176.317143 415.736116 
L 186.90127 415.778823 
L 197.485397 415.799807 
L 208.069524 415.805838 
L 218.653651 415.770305 
L 229.237778 415.783613 
L 239.821905 415.726496 
L 250.406032 415.750089 
L 260.990159 415.72976 
L 271.574286 415.678783 
L 282.158413 415.666467 
L 292.74254 415.674778 
L 303.326667 415.62834 
L 313.910794 415.603137 
L 324.494921 415.619798 
L 335.079048 415.601747 
L 345.663175 415.577357 
L 356.247302 415.537413 
L 366.831429 415.475469 
L 377.415556 415.481743 
L 387.999683 415.538288 
L 398.58381 415.441115 
L 409.167937 415.469318 
L 419.752063 415.453126 
L 430.33619 415.397357 
L 440.920317 415.442173 
L 451.504444 415.366985 
L 462.088571 415.399924 
L 472.672698 415.442373 
L 483.256825 415.473949 
L 493.840952 415.424902 
L 504.425079 415.419078 
L 515.009206 415.399705 
L 525.593333 415.428687 
L 536.17746 415.4068 
L 546.761587 415.486698 
L 557.345714 415.429442 
L 567.929841 415.436314 
L 578.513968 415.440899 
L 589.098095 415.484493 
L 599.682222 415.470589 
L 610.266349 415.466408 
L 620.850476 415.445184 
L 631.434603 415.46308 
L 642.01873 415.45137 
L 652.602857 415.434586 
L 663.186984 415.448306 
L 673.771111 415.453552 
L 684.355238 415.504326 
L 694.939365 415.468673 
L 705.523492 415.492162 
L 716.107619 415.488448 
L 726.691746 415.512489 
L 737.275873 415.445545 
L 747.86 415.466064 
" clip-path="url(#p4d067f4112)" style="fill: none; stroke: #1f77b4; stroke-width: 1.8; stroke-linecap: square"/>
   </g>
   <g id="line2d_64">
    <path d="M 81.06 415.800235 
L 91.644127 415.826013 
L 102.228254 415.645875 
L 112.812381 415.434226 
L 123.396508 414.708838 
L 133.980635 410.97307 
L 144.564762 407.674594 
L 155.148889 407.060707 
L 165.733016 406.810889 
L 176.317143 406.792673 
L 186.90127 406.979778 
L 197.485397 406.64328 
L 208.069524 406.456163 
L 218.653651 406.246759 
L 229.237778 404.009928 
L 239.821905 403.72209 
L 250.406032 403.539096 
L 260.990159 403.192232 
L 271.574286 402.752743 
L 282.158413 402.529251 
L 292.74254 402.237063 
L 303.326667 402.175819 
L 313.910794 402.197479 
L 324.494921 401.848428 
L 335.079048 401.891254 
L 345.663175 401.744361 
L 356.247302 401.772998 
L 366.831429 401.618445 
L 377.415556 401.669395 
L 387.999683 401.631494 
L 398.58381 401.604435 
L 409.167937 401.629965 
L 419.752063 401.609452 
L 430.33619 401.521656 
L 440.920317 401.599074 
L 451.504444 401.557448 
L 462.088571 401.405273 
L 472.672698 401.456885 
L 483.256825 401.482234 
L 493.840952 401.429694 
L 504.425079 401.446334 
L 515.009206 401.441467 
L 525.593333 401.422866 
L 536.17746 401.389751 
L 546.761587 401.436988 
L 557.345714 401.385548 
L 567.929841 401.389992 
L 578.513968 401.347609 
L 589.098095 401.394855 
L 599.682222 401.417196 
L 610.266349 401.410838 
L 620.850476 401.420982 
L 631.434603 401.425154 
L 642.01873 401.461861 
L 652.602857 401.377152 
L 663.186984 401.40148 
L 673.771111 401.408275 
L 684.355238 401.390699 
L 694.939365 401.322324 
L 705.523492 401.363838 
L 716.107619 401.343107 
L 726.691746 401.394511 
L 737.275873 401.343898 
L 747.86 401.343008 
" clip-path="url(#p4d067f4112)" style="fill: none; stroke: #ff7f0e; stroke-width: 1.8; stroke-linecap: square"/>
   </g>
   <g id="line2d_65">
    <path d="M 81.06 452.475 
L 91.644127 437.992605 
L 102.228254 437.912473 
L 112.812381 438.883654 
L 123.396508 438.245636 
L 133.980635 440.884929 
L 144.564762 441.705706 
L 155.148889 429.505236 
L 165.733016 427.961558 
L 176.317143 434.641345 
L 186.90127 431.274062 
L 197.485397 432.264923 
L 208.069524 430.765118 
L 218.653651 424.902086 
L 229.237778 362.570504 
L 239.821905 349.653796 
L 250.406032 341.397519 
L 260.990159 326.571744 
L 271.574286 316.434609 
L 282.158413 304.858949 
L 292.74254 294.596377 
L 303.326667 284.4247 
L 313.910794 291.10747 
L 324.494921 279.019614 
L 335.079048 275.33626 
L 345.663175 266.70785 
L 356.247302 271.974188 
L 366.831429 268.205474 
L 377.415556 269.843478 
L 387.999683 263.631747 
L 398.58381 263.767171 
L 409.167937 263.272624 
L 419.752063 261.722492 
L 430.33619 262.534269 
L 440.920317 267.33084 
L 451.504444 265.499712 
L 462.088571 266.200025 
L 472.672698 265.950373 
L 483.256825 268.360338 
L 493.840952 266.073709 
L 504.425079 268.123613 
L 515.009206 266.749459 
L 525.593333 266.094806 
L 536.17746 266.848331 
L 546.761587 266.715301 
L 557.345714 271.01694 
L 567.929841 266.28865 
L 578.513968 267.227463 
L 589.098095 272.245506 
L 599.682222 272.955547 
L 610.266349 270.566981 
L 620.850476 270.277111 
L 631.434603 270.139594 
L 642.01873 272.144272 
L 652.602857 271.482939 
L 663.186984 270.820953 
L 673.771111 269.851883 
L 684.355238 269.125986 
L 694.939365 264.092857 
L 705.523492 266.559617 
L 716.107619 268.954779 
L 726.691746 265.245858 
L 737.275873 261.175 
L 747.86 269.246123 
" clip-path="url(#p4d067f4112)" style="fill: none; stroke: #2ca02c; stroke-width: 1.8; stroke-linecap: square"/>
   </g>
   <g id="patch_15">
    <path d="M 47.72 462.04 
L 47.72 251.61 
" style="fill: none; stroke: #000000; stroke-width: 0.8; stroke-linejoin: miter; stroke-linecap: square"/>
   </g>
   <g id="patch_16">
    <path d="M 781.2 462.04 
L 781.2 251.61 
" style="fill: none; stroke: #000000; stroke-width: 0.8; stroke-linejoin: miter; stroke-linecap: square"/>
   </g>
   <g id="patch_17">
    <path d="M 47.72 462.04 
L 781.2 462.04 
" style="fill: none; stroke: #000000; stroke-width: 0.8; stroke-linejoin: miter; stroke-linecap: square"/>
   </g>
   <g id="patch_18">
    <path d="M 47.72 251.61 
L 781.2 251.61 
" style="fill: none; stroke: #000000; stroke-width: 0.8; stroke-linejoin: miter; stroke-linecap: square"/>
   </g>
   <g id="legend_2">
    <g id="patch_19">
     <path d="M 54.72 303.644375 
L 96.6075 303.644375 
Q 98.6075 303.644375 98.6075 301.644375 
L 98.6075 258.61 
Q 98.6075 256.61 96.6075 256.61 
L 54.72 256.61 
Q 52.72 256.61 52.72 258.61 
L 52.72 301.644375 
Q 52.72 303.644375 54.72 303.644375 
z
" style="fill: #ffffff; opacity: 0.8; stroke: #cccccc; stroke-linejoin: miter"/>
    </g>
    <g id="line2d_66">
     <path d="M 56.72 264.708438 
L 66.72 264.708438 
L 76.72 264.708438 
" style="fill: none; stroke: #1f77b4; stroke-width: 1.8; stroke-linecap: square"/>
    </g>
    <g id="text_27">
     <!-- Q -->
     <g transform="translate(84.72 268.208438) scale(0.1 -0.1)">
      <defs>
       <path id="DejaVuSans-51" d="M 2522 4238 
Q 1834 4238 1429 3725 
Q 1025 3213 1025 2328 
Q 1025 1447 1429 934 
Q 1834 422 2522 422 
Q 3209 422 3611 934 
Q 4013 1447 4013 2328 
Q 4013 3213 3611 3725 
Q 3209 4238 2522 4238 
z
M 3406 84 
L 4238 -825 
L 3475 -825 
L 2784 -78 
Q 2681 -84 2626 -87 
Q 2572 -91 2522 -91 
Q 1538 -91 948 567 
Q 359 1225 359 2328 
Q 359 3434 948 4092 
Q 1538 4750 2522 4750 
Q 3503 4750 4090 4092 
Q 4678 3434 4678 2328 
Q 4678 1516 4351 937 
Q 4025 359 3406 84 
z
" transform="scale(0.015625)"/>
      </defs>
      <use xlink:href="#DejaVuSans-51"/>
     </g>
    </g>
    <g id="line2d_67">
     <path d="M 56.72 279.386563 
L 66.72 279.386563 
L 76.72 279.386563 
" style="fill: none; stroke: #ff7f0e; stroke-width: 1.8; stroke-linecap: square"/>
    </g>
    <g id="text_28">
     <!-- R -->
     <g transform="translate(84.72 282.886563) scale(0.1 -0.1)">
      <defs>
       <path id="DejaVuSans-52" d="M 2841 2188 
Q 3044 2119 3236 1894 
Q 3428 1669 3622 1275 
L 4263 0 
L 3584 0 
L 2988 1197 
Q 2756 1666 2539 1819 
Q 2322 1972 1947 1972 
L 1259 1972 
L 1259 0 
L 628 0 
L 628 4666 
L 2053 4666 
Q 2853 4666 3247 4331 
Q 3641 3997 3641 3322 
Q 3641 2881 3436 2590 
Q 3231 2300 2841 2188 
z
M 1259 4147 
L 1259 2491 
L 2053 2491 
Q 2509 2491 2742 2702 
Q 2975 2913 2975 3322 
Q 2975 3731 2742 3939 
Q 2509 4147 2053 4147 
L 1259 4147 
z
" transform="scale(0.015625)"/>
      </defs>
      <use xlink:href="#DejaVuSans-52"/>
     </g>
    </g>
    <g id="line2d_68">
     <path d="M 56.72 294.064688 
L 66.72 294.064688 
L 76.72 294.064688 
" style="fill: none; stroke: #2ca02c; stroke-width: 1.8; stroke-linecap: square"/>
    </g>
    <g id="text_29">
     <!-- W -->
     <g transform="translate(84.72 297.564688) scale(0.1 -0.1)">
      <defs>
       <path id="DejaVuSans-57" d="M 213 4666 
L 850 4666 
L 1831 722 
L 2809 4666 
L 3519 4666 
L 4500 722 
L 5478 4666 
L 6119 4666 
L 4947 0 
L 4153 0 
L 3169 4050 
L 2175 0 
L 1381 0 
L 213 4666 
z
" transform="scale(0.015625)"/>
      </defs>
      <use xlink:href="#DejaVuSans-57"/>
     </g>
    </g>
   </g>
  </g>
 </g>
 <defs>
  <clipPath id="pa355d5f606">
   <rect x="47.72" y="26.88" width="733.48" height="210.43"/>
  </clipPath>
  <clipPath id="p4d067f4112">
   <rect x="47.72" y="251.61" width="733.48" height="210.43"/>
  </clipPath>
 </defs>
</svg>
