<?xml version="1.0" encoding="utf-8" standalone="no"?>
<!DOCTYPE svg PUBLIC "-//W3C//DTD SVG 1.1//EN"
  "http://www.w3.org/Graphics/SVG/1.1/DTD/svg11.dtd">
<svg xmlns:xlink="http://www.w3.org/1999/xlink" width="864pt" height="396pt" viewBox="0 0 864 396" xmlns="http://www.w3.org/2000/svg" version="1.1">
 <metadata>
  <rdf:RDF xmlns:dc="http://purl.org/dc/elements/1.1/" xmlns:cc="http://creativecommons.org/ns#" xmlns:rdf="http://www.w3.org/1999/02/22-rdf-syntax-ns#">
   <cc:Work>
    <dc:type rdf:resource="http://purl.org/dc/dcmitype/StillImage"/>
    <dc:date>2026-04-11T22:20:44.899305</dc:date>
    <dc:format>image/svg+xml</dc:format>
    <dc:creator>
     <cc:Agent>
      <dc:title>Matplotlib v3.10.1, https://matplotlib.org/</dc:title>
     </cc:Agent>
    </dc:creator>
   </cc:Work>
  </rdf:RDF>
 </metadata>
 <defs>
  <style type="text/css">*{stroke-linejoin: round; stroke-linecap: butt}</style>
 </defs>
 <g id="figure_1">
  <g id="patch_1">
   <path d="M 0 396 
L 864 396 
L 864 0 
L 0 0 
z
" style="fill: #ffffff"/>
  </g>
  <g id="axes_1">
   <g id="patch_2">
    <path d="M 38.27 343.763848 
L 853.2 343.763848 
L 853.2 26.88 
L 38.27 26.88 
z
" style="fill: #ffffff"/>
   </g>
   <g id="patch_3">
    <path d="M 75.312273 343.763848 
L 98.625591 343.763848 
L 98.625591 278.219308 
L 75.312273 278.219308 
z
" clip-path="url(#p89aca3bba2)" style="fill: #1f77b4"/>
   </g>
   <g id="patch_4">
    <path d="M 204.830709 343.763848 
L 228.144027 343.763848 
L 228.144027 278.498425 
L 204.830709 278.498425 
z
" clip-path="url(#p89aca3bba2)" style="fill: #1f77b4"/>
   </g>
   <g id="patch_5">
    <path d="M 334.349145 343.763848 
L 357.662463 343.763848 
L 357.662463 278.043139 
L 334.349145 278.043139 
z
" clip-path="url(#p89aca3bba2)" style="fill: #1f77b4"/>
   </g>
   <g id="patch_6">
    <path d="M 463.867581 343.763848 
L 487.1809 343.763848 
L 487.1809 277.839219 
L 463.867581 277.839219 
z
" clip-path="url(#p89aca3bba2)" style="fill: #1f77b4"/>
   </g>
   <g id="patch_7">
    <path d="M 593.386017 343.763848 
L 616.699336 343.763848 
L 616.699336 292.585616 
L 593.386017 292.585616 
z
" clip-path="url(#p89aca3bba2)" style="fill: #1f77b4"/>
   </g>
   <g id="patch_8">
    <path d="M 722.904453 343.763848 
L 746.217772 343.763848 
L 746.217772 278.043139 
L 722.904453 278.043139 
z
" clip-path="url(#p89aca3bba2)" style="fill: #1f77b4"/>
   </g>
   <g id="patch_9">
    <path d="M 98.625591 343.763848 
L 121.93891 343.763848 
L 121.93891 190.367601 
L 98.625591 190.367601 
z
" clip-path="url(#p89aca3bba2)" style="fill: #ff7f0e"/>
   </g>
   <g id="patch_10">
    <path d="M 228.144027 343.763848 
L 251.457346 343.763848 
L 251.457346 190.71766 
L 228.144027 190.71766 
z
" clip-path="url(#p89aca3bba2)" style="fill: #ff7f0e"/>
   </g>
   <g id="patch_11">
    <path d="M 357.662463 343.763848 
L 380.975782 343.763848 
L 380.975782 191.410384 
L 357.662463 191.410384 
z
" clip-path="url(#p89aca3bba2)" style="fill: #ff7f0e"/>
   </g>
   <g id="patch_12">
    <path d="M 487.1809 343.763848 
L 510.494218 343.763848 
L 510.494218 191.637393 
L 487.1809 191.637393 
z
" clip-path="url(#p89aca3bba2)" style="fill: #ff7f0e"/>
   </g>
   <g id="patch_13">
    <path d="M 616.699336 343.763848 
L 640.012654 343.763848 
L 640.012654 41.969707 
L 616.699336 41.969707 
z
" clip-path="url(#p89aca3bba2)" style="fill: #ff7f0e"/>
   </g>
   <g id="patch_14">
    <path d="M 746.217772 343.763848 
L 769.53109 343.763848 
L 769.53109 191.410384 
L 746.217772 191.410384 
z
" clip-path="url(#p89aca3bba2)" style="fill: #ff7f0e"/>
   </g>
   <g id="patch_15">
    <path d="M 121.93891 343.763848 
L 145.252228 343.763848 
L 145.252228 293.557009 
L 121.93891 293.557009 
z
" clip-path="url(#p89aca3bba2)" style="fill: #2ca02c"/>
   </g>
   <g id="patch_16">
    <path d="M 251.457346 343.763848 
L 274.770664 343.763848 
L 274.770664 293.5003 
L 251.457346 293.5003 
z
" clip-path="url(#p89aca3bba2)" style="fill: #2ca02c"/>
   </g>
   <g id="patch_17">
    <path d="M 380.975782 343.763848 
L 404.2891 343.763848 
L 404.2891 293.823734 
L 380.975782 293.823734 
z
" clip-path="url(#p89aca3bba2)" style="fill: #2ca02c"/>
   </g>
   <g id="patch_18">
    <path d="M 510.494218 343.763848 
L 533.807537 343.763848 
L 533.807537 294.142945 
L 510.494218 294.142945 
z
" clip-path="url(#p89aca3bba2)" style="fill: #2ca02c"/>
   </g>
   <g id="patch_19">
    <path d="M 640.012654 343.763848 
L 663.325973 343.763848 
L 663.325973 226.556526 
L 640.012654 226.556526 
z
" clip-path="url(#p89aca3bba2)" style="fill: #2ca02c"/>
   </g>
   <g id="patch_20">
    <path d="M 769.53109 343.763848 
L 792.844409 343.763848 
L 792.844409 293.823734 
L 769.53109 293.823734 
z
" clip-path="url(#p89aca3bba2)" style="fill: #2ca02c"/>
   </g>
   <g id="patch_21">
    <path d="M 145.252228 343.763848 
L 168.565547 343.763848 
L 168.565547 343.763848 
L 145.252228 343.763848 
z
" clip-path="url(#p89aca3bba2)" style="fill: #d62728"/>
   </g>
   <g id="patch_22">
    <path d="M 274.770664 343.763848 
L 298.083983 343.763848 
L 298.083983 343.763848 
L 274.770664 343.763848 
z
" clip-path="url(#p89aca3bba2)" style="fill: #d62728"/>
   </g>
   <g id="patch_23">
    <path d="M 404.2891 343.763848 
L 427.602419 343.763848 
L 427.602419 343.763848 
L 404.2891 343.763848 
z
" clip-path="url(#p89aca3bba2)" style="fill: #d62728"/>
   </g>
   <g id="patch_24">
    <path d="M 533.807537 343.763848 
L 557.120855 343.763848 
L 557.120855 343.763848 
L 533.807537 343.763848 
z
" clip-path="url(#p89aca3bba2)" style="fill: #d62728"/>
   </g>
   <g id="patch_25">
    <path d="M 663.325973 343.763848 
L 686.639291 343.763848 
L 686.639291 343.763848 
L 663.325973 343.763848 
z
" clip-path="url(#p89aca3bba2)" style="fill: #d62728"/>
   </g>
   <g id="patch_26">
    <path d="M 792.844409 343.763848 
L 816.157727 343.763848 
L 816.157727 343.763848 
L 792.844409 343.763848 
z
" clip-path="url(#p89aca3bba2)" style="fill: #d62728"/>
   </g>
   <g id="matplotlib.axis_1">
    <g id="xtick_1">
     <g id="line2d_1">
      <defs>
       <path id="m19cd895f0b" d="M 0 0 
L 0 3.5 
" style="stroke: #000000; stroke-width: 0.8"/>
      </defs>
      <g>
       <use xlink:href="#m19cd895f0b" x="121.93891" y="343.763848" style="stroke: #000000; stroke-width: 0.8"/>
      </g>
     </g>
     <g id="text_1">
      <!-- train -->
      <g transform="translate(99.356269 365.864563) rotate(-20) scale(0.1 -0.1)">
       <defs>
        <path id="DejaVuSans-74" d="M 1172 4494 
L 1172 3500 
L 2356 3500 
L 2356 3053 
L 1172 3053 
L 1172 1153 
Q 1172 725 1289 603 
Q 1406 481 1766 481 
L 2356 481 
L 2356 0 
L 1766 0 
Q 1100 0 847 248 
Q 594 497 594 1153 
L 594 3053 
L 172 3053 
L 172 3500 
L 594 3500 
L 594 4494 
L 1172 4494 
z
" transform="scale(0.015625)"/>
        <path id="DejaVuSans-72" d="M 2631 2963 
Q 2534 3019 2420 3045 
Q 2306 3072 2169 3072 
Q 1681 3072 1420 2755 
Q 1159 2438 1159 1844 
L 1159 0 
L 581 0 
L 581 3500 
L 1159 3500 
L 1159 2956 
Q 1341 3275 1631 3429 
Q 1922 3584 2338 3584 
Q 2397 3584 2469 3576 
Q 2541 3569 2628 3553 
L 2631 2963 
z
" transform="scale(0.015625)"/>
        <path id="DejaVuSans-61" d="M 2194 1759 
Q 1497 1759 1228 1600 
Q 959 1441 959 1056 
Q 959 750 1161 570 
Q 1363 391 1709 391 
Q 2188 391 2477 730 
Q 2766 1069 2766 1631 
L 2766 1759 
L 2194 1759 
z
M 3341 1997 
L 3341 0 
L 2766 0 
L 2766 531 
Q 2569 213 2275 61 
Q 1981 -91 1556 -91 
Q 1019 -91 701 211 
Q 384 513 384 1019 
Q 384 1609 779 1909 
Q 1175 2209 1959 2209 
L 2766 2209 
L 2766 2266 
Q 2766 2663 2505 2880 
Q 2244 3097 1772 3097 
Q 1472 3097 1187 3025 
Q 903 2953 641 2809 
L 641 3341 
Q 956 3463 1253 3523 
Q 1550 3584 1831 3584 
Q 2591 3584 2966 3190 
Q 3341 2797 3341 1997 
z
" transform="scale(0.015625)"/>
        <path id="DejaVuSans-69" d="M 603 3500 
L 1178 3500 
L 1178 0 
L 603 0 
L 603 3500 
z
M 603 4863 
L 1178 4863 
L 1178 4134 
L 603 4134 
L 603 4863 
z
" transform="scale(0.015625)"/>
        <path id="DejaVuSans-6e" d="M 3513 2113 
L 3513 0 
L 2938 0 
L 2938 2094 
Q 2938 2591 2744 2837 
Q 2550 3084 2163 3084 
Q 1697 3084 1428 2787 
Q 1159 2491 1159 1978 
L 1159 0 
L 581 0 
L 581 3500 
L 1159 3500 
L 1159 2956 
Q 1366 3272 1645 3428 
Q 1925 3584 2291 3584 
Q 2894 3584 3203 3211 
Q 3513 2838 3513 2113 
z
" transform="scale(0.015625)"/>
       </defs>
       <use xlink:href="#DejaVuSans-74"/>
       <use xlink:href="#DejaVuSans-72" transform="translate(39.208984 0)"/>
       <use xlink:href="#DejaVuSans-61" transform="translate(80.322266 0)"/>
       <use xlink:href="#DejaVuSans-69" transform="translate(141.601562 0)"/>
       <use xlink:href="#DejaVuSans-6e" transform="translate(169.384766 0)"/>
      </g>
     </g>
    </g>
    <g id="xtick_2">
     <g id="line2d_2">
      <g>
       <use xlink:href="#m19cd895f0b" x="251.457346" y="343.763848" style="stroke: #000000; stroke-width: 0.8"/>
      </g>
     </g>
     <g id="text_2">
      <!-- validation_iid -->
      <g transform="translate(188.500537 380.524935) rotate(-20) scale(0.1 -0.1)">
       <defs>
        <path id="DejaVuSans-76" d="M 191 3500 
L 800 3500 
L 1894 563 
L 2988 3500 
L 3597 3500 
L 2284 0 
L 1503 0 
L 191 3500 
z
" transform="scale(0.015625)"/>
        <path id="DejaVuSans-6c" d="M 603 4863 
L 1178 4863 
L 1178 0 
L 603 0 
L 603 4863 
z
" transform="scale(0.015625)"/>
        <path id="DejaVuSans-64" d="M 2906 2969 
L 2906 4863 
L 3481 4863 
L 3481 0 
L 2906 0 
L 2906 525 
Q 2725 213 2448 61 
Q 2172 -91 1784 -91 
Q 1150 -91 751 415 
Q 353 922 353 1747 
Q 353 2572 751 3078 
Q 1150 3584 1784 3584 
Q 2172 3584 2448 3432 
Q 2725 3281 2906 2969 
z
M 947 1747 
Q 947 1113 1208 752 
Q 1469 391 1925 391 
Q 2381 391 2643 752 
Q 2906 1113 2906 1747 
Q 2906 2381 2643 2742 
Q 2381 3103 1925 3103 
Q 1469 3103 1208 2742 
Q 947 2381 947 1747 
z
" transform="scale(0.015625)"/>
        <path id="DejaVuSans-6f" d="M 1959 3097 
Q 1497 3097 1228 2736 
Q 959 2375 959 1747 
Q 959 1119 1226 758 
Q 1494 397 1959 397 
Q 2419 397 2687 759 
Q 2956 1122 2956 1747 
Q 2956 2369 2687 2733 
Q 2419 3097 1959 3097 
z
M 1959 3584 
Q 2709 3584 3137 3096 
Q 3566 2609 3566 1747 
Q 3566 888 3137 398 
Q 2709 -91 1959 -91 
Q 1206 -91 779 398 
Q 353 888 353 1747 
Q 353 2609 779 3096 
Q 1206 3584 1959 3584 
z
" transform="scale(0.015625)"/>
        <path id="DejaVuSans-5f" d="M 3263 -1063 
L 3263 -1509 
L -63 -1509 
L -63 -1063 
L 3263 -1063 
z
" transform="scale(0.015625)"/>
       </defs>
       <use xlink:href="#DejaVuSans-76"/>
       <use xlink:href="#DejaVuSans-61" transform="translate(59.179688 0)"/>
       <use xlink:href="#DejaVuSans-6c" transform="translate(120.458984 0)"/>
       <use xlink:href="#DejaVuSans-69" transform="translate(148.242188 0)"/>
       <use xlink:href="#DejaVuSans-64" transform="translate(176.025391 0)"/>
       <use xlink:href="#DejaVuSans-61" transform="translate(239.501953 0)"/>
       <use xlink:href="#DejaVuSans-74" transform="translate(300.78125 0)"/>
       <use xlink:href="#DejaVuSans-69" transform="translate(339.990234 0)"/>
       <use xlink:href="#DejaVuSans-6f" transform="translate(367.773438 0)"/>
       <use xlink:href="#DejaVuSans-6e" transform="translate(428.955078 0)"/>
       <use xlink:href="#DejaVuSans-5f" transform="translate(492.333984 0)"/>
       <use xlink:href="#DejaVuSans-69" transform="translate(542.333984 0)"/>
       <use xlink:href="#DejaVuSans-69" transform="translate(570.117188 0)"/>
       <use xlink:href="#DejaVuSans-64" transform="translate(597.900391 0)"/>
      </g>
     </g>
    </g>
    <g id="xtick_3">
     <g id="line2d_3">
      <g>
       <use xlink:href="#m19cd895f0b" x="380.975782" y="343.763848" style="stroke: #000000; stroke-width: 0.8"/>
      </g>
     </g>
     <g id="text_3">
      <!-- test_iid -->
      <g transform="translate(346.239118 370.253643) rotate(-20) scale(0.1 -0.1)">
       <defs>
        <path id="DejaVuSans-65" d="M 3597 1894 
L 3597 1613 
L 953 1613 
Q 991 1019 1311 708 
Q 1631 397 2203 397 
Q 2534 397 2845 478 
Q 3156 559 3463 722 
L 3463 178 
Q 3153 47 2828 -22 
Q 2503 -91 2169 -91 
Q 1331 -91 842 396 
Q 353 884 353 1716 
Q 353 2575 817 3079 
Q 1281 3584 2069 3584 
Q 2775 3584 3186 3129 
Q 3597 2675 3597 1894 
z
M 3022 2063 
Q 3016 2534 2758 2815 
Q 2500 3097 2075 3097 
Q 1594 3097 1305 2825 
Q 1016 2553 972 2059 
L 3022 2063 
z
" transform="scale(0.015625)"/>
        <path id="DejaVuSans-73" d="M 2834 3397 
L 2834 2853 
Q 2591 2978 2328 3040 
Q 2066 3103 1784 3103 
Q 1356 3103 1142 2972 
Q 928 2841 928 2578 
Q 928 2378 1081 2264 
Q 1234 2150 1697 2047 
L 1894 2003 
Q 2506 1872 2764 1633 
Q 3022 1394 3022 966 
Q 3022 478 2636 193 
Q 2250 -91 1575 -91 
Q 1294 -91 989 -36 
Q 684 19 347 128 
L 347 722 
Q 666 556 975 473 
Q 1284 391 1588 391 
Q 1994 391 2212 530 
Q 2431 669 2431 922 
Q 2431 1156 2273 1281 
Q 2116 1406 1581 1522 
L 1381 1569 
Q 847 1681 609 1914 
Q 372 2147 372 2553 
Q 372 3047 722 3315 
Q 1072 3584 1716 3584 
Q 2034 3584 2315 3537 
Q 2597 3491 2834 3397 
z
" transform="scale(0.015625)"/>
       </defs>
       <use xlink:href="#DejaVuSans-74"/>
       <use xlink:href="#DejaVuSans-65" transform="translate(39.208984 0)"/>
       <use xlink:href="#DejaVuSans-73" transform="translate(100.732422 0)"/>
       <use xlink:href="#DejaVuSans-74" transform="translate(152.832031 0)"/>
       <use xlink:href="#DejaVuSans-5f" transform="translate(192.041016 0)"/>
       <use xlink:href="#DejaVuSans-69" transform="translate(242.041016 0)"/>
       <use xlink:href="#DejaVuSans-69" transform="translate(269.824219 0)"/>
       <use xlink:href="#DejaVuSans-64" transform="translate(297.607422 0)"/>
      </g>
     </g>
    </g>
    <g id="xtick_4">
     <g id="line2d_4">
      <g>
       <use xlink:href="#m19cd895f0b" x="510.494218" y="343.763848" style="stroke: #000000; stroke-width: 0.8"/>
      </g>
     </g>
     <g id="text_4">
      <!-- heldout_pairs -->
      <g transform="translate(446.193943 381.013917) rotate(-20) scale(0.1 -0.1)">
       <defs>
        <path id="DejaVuSans-68" d="M 3513 2113 
L 3513 0 
L 2938 0 
L 2938 2094 
Q 2938 2591 2744 2837 
Q 2550 3084 2163 3084 
Q 1697 3084 1428 2787 
Q 1159 2491 1159 1978 
L 1159 0 
L 581 0 
L 581 4863 
L 1159 4863 
L 1159 2956 
Q 1366 3272 1645 3428 
Q 1925 3584 2291 3584 
Q 2894 3584 3203 3211 
Q 3513 2838 3513 2113 
z
" transform="scale(0.015625)"/>
        <path id="DejaVuSans-75" d="M 544 1381 
L 544 3500 
L 1119 3500 
L 1119 1403 
Q 1119 906 1312 657 
Q 1506 409 1894 409 
Q 2359 409 2629 706 
Q 2900 1003 2900 1516 
L 2900 3500 
L 3475 3500 
L 3475 0 
L 2900 0 
L 2900 538 
Q 2691 219 2414 64 
Q 2138 -91 1772 -91 
Q 1169 -91 856 284 
Q 544 659 544 1381 
z
M 1991 3584 
L 1991 3584 
z
" transform="scale(0.015625)"/>
        <path id="DejaVuSans-70" d="M 1159 525 
L 1159 -1331 
L 581 -1331 
L 581 3500 
L 1159 3500 
L 1159 2969 
Q 1341 3281 1617 3432 
Q 1894 3584 2278 3584 
Q 2916 3584 3314 3078 
Q 3713 2572 3713 1747 
Q 3713 922 3314 415 
Q 2916 -91 2278 -91 
Q 1894 -91 1617 61 
Q 1341 213 1159 525 
z
M 3116 1747 
Q 3116 2381 2855 2742 
Q 2594 3103 2138 3103 
Q 1681 3103 1420 2742 
Q 1159 2381 1159 1747 
Q 1159 1113 1420 752 
Q 1681 391 2138 391 
Q 2594 391 2855 752 
Q 3116 1113 3116 1747 
z
" transform="scale(0.015625)"/>
       </defs>
       <use xlink:href="#DejaVuSans-68"/>
       <use xlink:href="#DejaVuSans-65" transform="translate(63.378906 0)"/>
       <use xlink:href="#DejaVuSans-6c" transform="translate(124.902344 0)"/>
       <use xlink:href="#DejaVuSans-64" transform="translate(152.685547 0)"/>
       <use xlink:href="#DejaVuSans-6f" transform="translate(216.162109 0)"/>
       <use xlink:href="#DejaVuSans-75" transform="translate(277.34375 0)"/>
       <use xlink:href="#DejaVuSans-74" transform="translate(340.722656 0)"/>
       <use xlink:href="#DejaVuSans-5f" transform="translate(379.931641 0)"/>
       <use xlink:href="#DejaVuSans-70" transform="translate(429.931641 0)"/>
       <use xlink:href="#DejaVuSans-61" transform="translate(493.408203 0)"/>
       <use xlink:href="#DejaVuSans-69" transform="translate(554.6875 0)"/>
       <use xlink:href="#DejaVuSans-72" transform="translate(582.470703 0)"/>
       <use xlink:href="#DejaVuSans-73" transform="translate(623.583984 0)"/>
      </g>
     </g>
    </g>
    <g id="xtick_5">
     <g id="line2d_5">
      <g>
       <use xlink:href="#m19cd895f0b" x="640.012654" y="343.763848" style="stroke: #000000; stroke-width: 0.8"/>
      </g>
     </g>
     <g id="text_5">
      <!-- structural_ood -->
      <g transform="translate(571.607097 382.508118) rotate(-20) scale(0.1 -0.1)">
       <defs>
        <path id="DejaVuSans-63" d="M 3122 3366 
L 3122 2828 
Q 2878 2963 2633 3030 
Q 2388 3097 2138 3097 
Q 1578 3097 1268 2742 
Q 959 2388 959 1747 
Q 959 1106 1268 751 
Q 1578 397 2138 397 
Q 2388 397 2633 464 
Q 2878 531 3122 666 
L 3122 134 
Q 2881 22 2623 -34 
Q 2366 -91 2075 -91 
Q 1284 -91 818 406 
Q 353 903 353 1747 
Q 353 2603 823 3093 
Q 1294 3584 2113 3584 
Q 2378 3584 2631 3529 
Q 2884 3475 3122 3366 
z
" transform="scale(0.015625)"/>
       </defs>
       <use xlink:href="#DejaVuSans-73"/>
       <use xlink:href="#DejaVuSans-74" transform="translate(52.099609 0)"/>
       <use xlink:href="#DejaVuSans-72" transform="translate(91.308594 0)"/>
       <use xlink:href="#DejaVuSans-75" transform="translate(132.421875 0)"/>
       <use xlink:href="#DejaVuSans-63" transform="translate(195.800781 0)"/>
       <use xlink:href="#DejaVuSans-74" transform="translate(250.78125 0)"/>
       <use xlink:href="#DejaVuSans-75" transform="translate(289.990234 0)"/>
       <use xlink:href="#DejaVuSans-72" transform="translate(353.369141 0)"/>
       <use xlink:href="#DejaVuSans-61" transform="translate(394.482422 0)"/>
       <use xlink:href="#DejaVuSans-6c" transform="translate(455.761719 0)"/>
       <use xlink:href="#DejaVuSans-5f" transform="translate(483.544922 0)"/>
       <use xlink:href="#DejaVuSans-6f" transform="translate(533.544922 0)"/>
       <use xlink:href="#DejaVuSans-6f" transform="translate(594.726562 0)"/>
       <use xlink:href="#DejaVuSans-64" transform="translate(655.908203 0)"/>
      </g>
     </g>
    </g>
    <g id="xtick_6">
     <g id="line2d_6">
      <g>
       <use xlink:href="#m19cd895f0b" x="769.53109" y="343.763848" style="stroke: #000000; stroke-width: 0.8"/>
      </g>
     </g>
     <g id="text_6">
      <!-- counterfactual -->
      <g transform="translate(700.421919 382.798835) rotate(-20) scale(0.1 -0.1)">
       <defs>
        <path id="DejaVuSans-66" d="M 2375 4863 
L 2375 4384 
L 1825 4384 
Q 1516 4384 1395 4259 
Q 1275 4134 1275 3809 
L 1275 3500 
L 2222 3500 
L 2222 3053 
L 1275 3053 
L 1275 0 
L 697 0 
L 697 3053 
L 147 3053 
L 147 3500 
L 697 3500 
L 697 3744 
Q 697 4328 969 4595 
Q 1241 4863 1831 4863 
L 2375 4863 
z
" transform="scale(0.015625)"/>
       </defs>
       <use xlink:href="#DejaVuSans-63"/>
       <use xlink:href="#DejaVuSans-6f" transform="translate(54.980469 0)"/>
       <use xlink:href="#DejaVuSans-75" transform="translate(116.162109 0)"/>
       <use xlink:href="#DejaVuSans-6e" transform="translate(179.541016 0)"/>
       <use xlink:href="#DejaVuSans-74" transform="translate(242.919922 0)"/>
       <use xlink:href="#DejaVuSans-65" transform="translate(282.128906 0)"/>
       <use xlink:href="#DejaVuSans-72" transform="translate(343.652344 0)"/>
       <use xlink:href="#DejaVuSans-66" transform="translate(384.765625 0)"/>
       <use xlink:href="#DejaVuSans-61" transform="translate(419.970703 0)"/>
       <use xlink:href="#DejaVuSans-63" transform="translate(481.25 0)"/>
       <use xlink:href="#DejaVuSans-74" transform="translate(536.230469 0)"/>
       <use xlink:href="#DejaVuSans-75" transform="translate(575.439453 0)"/>
       <use xlink:href="#DejaVuSans-61" transform="translate(638.818359 0)"/>
       <use xlink:href="#DejaVuSans-6c" transform="translate(700.097656 0)"/>
      </g>
     </g>
    </g>
   </g>
   <g id="matplotlib.axis_2">
    <g id="ytick_1">
     <g id="line2d_7">
      <path d="M 38.27 343.763848 
L 853.2 343.763848 
" clip-path="url(#p89aca3bba2)" style="fill: none; stroke: #b0b0b0; stroke-opacity: 0.25; stroke-width: 0.8; stroke-linecap: square"/>
     </g>
     <g id="line2d_8">
      <defs>
       <path id="m403d563568" d="M 0 0 
L -3.5 0 
" style="stroke: #000000; stroke-width: 0.8"/>
      </defs>
      <g>
       <use xlink:href="#m403d563568" x="38.27" y="343.763848" style="stroke: #000000; stroke-width: 0.8"/>
      </g>
     </g>
     <g id="text_7">
      <!-- 0 -->
      <g transform="translate(24.9075 347.563067) scale(0.1 -0.1)">
       <defs>
        <path id="DejaVuSans-30" d="M 2034 4250 
Q 1547 4250 1301 3770 
Q 1056 3291 1056 2328 
Q 1056 1369 1301 889 
Q 1547 409 2034 409 
Q 2525 409 2770 889 
Q 3016 1369 3016 2328 
Q 3016 3291 2770 3770 
Q 2525 4250 2034 4250 
z
M 2034 4750 
Q 2819 4750 3233 4129 
Q 3647 3509 3647 2328 
Q 3647 1150 3233 529 
Q 2819 -91 2034 -91 
Q 1250 -91 836 529 
Q 422 1150 422 2328 
Q 422 3509 836 4129 
Q 1250 4750 2034 4750 
z
" transform="scale(0.015625)"/>
       </defs>
       <use xlink:href="#DejaVuSans-30"/>
      </g>
     </g>
    </g>
    <g id="ytick_2">
     <g id="line2d_9">
      <path d="M 38.27 276.929569 
L 853.2 276.929569 
" clip-path="url(#p89aca3bba2)" style="fill: none; stroke: #b0b0b0; stroke-opacity: 0.25; stroke-width: 0.8; stroke-linecap: square"/>
     </g>
     <g id="line2d_10">
      <g>
       <use xlink:href="#m403d563568" x="38.27" y="276.929569" style="stroke: #000000; stroke-width: 0.8"/>
      </g>
     </g>
     <g id="text_8">
      <!-- 2 -->
      <g transform="translate(24.9075 280.728788) scale(0.1 -0.1)">
       <defs>
        <path id="DejaVuSans-32" d="M 1228 531 
L 3431 531 
L 3431 0 
L 469 0 
L 469 531 
Q 828 903 1448 1529 
Q 2069 2156 2228 2338 
Q 2531 2678 2651 2914 
Q 2772 3150 2772 3378 
Q 2772 3750 2511 3984 
Q 2250 4219 1831 4219 
Q 1534 4219 1204 4116 
Q 875 4013 500 3803 
L 500 4441 
Q 881 4594 1212 4672 
Q 1544 4750 1819 4750 
Q 2544 4750 2975 4387 
Q 3406 4025 3406 3419 
Q 3406 3131 3298 2873 
Q 3191 2616 2906 2266 
Q 2828 2175 2409 1742 
Q 1991 1309 1228 531 
z
" transform="scale(0.015625)"/>
       </defs>
       <use xlink:href="#DejaVuSans-32"/>
      </g>
     </g>
    </g>
    <g id="ytick_3">
     <g id="line2d_11">
      <path d="M 38.27 210.09529 
L 853.2 210.09529 
" clip-path="url(#p89aca3bba2)" style="fill: none; stroke: #b0b0b0; stroke-opacity: 0.25; stroke-width: 0.8; stroke-linecap: square"/>
     </g>
     <g id="line2d_12">
      <g>
       <use xlink:href="#m403d563568" x="38.27" y="210.09529" style="stroke: #000000; stroke-width: 0.8"/>
      </g>
     </g>
     <g id="text_9">
      <!-- 4 -->
      <g transform="translate(24.9075 213.894509) scale(0.1 -0.1)">
       <defs>
        <path id="DejaVuSans-34" d="M 2419 4116 
L 825 1625 
L 2419 1625 
L 2419 4116 
z
M 2253 4666 
L 3047 4666 
L 3047 1625 
L 3713 1625 
L 3713 1100 
L 3047 1100 
L 3047 0 
L 2419 0 
L 2419 1100 
L 313 1100 
L 313 1709 
L 2253 4666 
z
" transform="scale(0.015625)"/>
       </defs>
       <use xlink:href="#DejaVuSans-34"/>
      </g>
     </g>
    </g>
    <g id="ytick_4">
     <g id="line2d_13">
      <path d="M 38.27 143.261011 
L 853.2 143.261011 
" clip-path="url(#p89aca3bba2)" style="fill: none; stroke: #b0b0b0; stroke-opacity: 0.25; stroke-width: 0.8; stroke-linecap: square"/>
     </g>
     <g id="line2d_14">
      <g>
       <use xlink:href="#m403d563568" x="38.27" y="143.261011" style="stroke: #000000; stroke-width: 0.8"/>
      </g>
     </g>
     <g id="text_10">
      <!-- 6 -->
      <g transform="translate(24.9075 147.06023) scale(0.1 -0.1)">
       <defs>
        <path id="DejaVuSans-36" d="M 2113 2584 
Q 1688 2584 1439 2293 
Q 1191 2003 1191 1497 
Q 1191 994 1439 701 
Q 1688 409 2113 409 
Q 2538 409 2786 701 
Q 3034 994 3034 1497 
Q 3034 2003 2786 2293 
Q 2538 2584 2113 2584 
z
M 3366 4563 
L 3366 3988 
Q 3128 4100 2886 4159 
Q 2644 4219 2406 4219 
Q 1781 4219 1451 3797 
Q 1122 3375 1075 2522 
Q 1259 2794 1537 2939 
Q 1816 3084 2150 3084 
Q 2853 3084 3261 2657 
Q 3669 2231 3669 1497 
Q 3669 778 3244 343 
Q 2819 -91 2113 -91 
Q 1303 -91 875 529 
Q 447 1150 447 2328 
Q 447 3434 972 4092 
Q 1497 4750 2381 4750 
Q 2619 4750 2861 4703 
Q 3103 4656 3366 4563 
z
" transform="scale(0.015625)"/>
       </defs>
       <use xlink:href="#DejaVuSans-36"/>
      </g>
     </g>
    </g>
    <g id="ytick_5">
     <g id="line2d_15">
      <path d="M 38.27 76.426732 
L 853.2 76.426732 
" clip-path="url(#p89aca3bba2)" style="fill: none; stroke: #b0b0b0; stroke-opacity: 0.25; stroke-width: 0.8; stroke-linecap: square"/>
     </g>
     <g id="line2d_16">
      <g>
       <use xlink:href="#m403d563568" x="38.27" y="76.426732" style="stroke: #000000; stroke-width: 0.8"/>
      </g>
     </g>
     <g id="text_11">
      <!-- 8 -->
      <g transform="translate(24.9075 80.22595) scale(0.1 -0.1)">
       <defs>
        <path id="DejaVuSans-38" d="M 2034 2216 
Q 1584 2216 1326 1975 
Q 1069 1734 1069 1313 
Q 1069 891 1326 650 
Q 1584 409 2034 409 
Q 2484 409 2743 651 
Q 3003 894 3003 1313 
Q 3003 1734 2745 1975 
Q 2488 2216 2034 2216 
z
M 1403 2484 
Q 997 2584 770 2862 
Q 544 3141 544 3541 
Q 544 4100 942 4425 
Q 1341 4750 2034 4750 
Q 2731 4750 3128 4425 
Q 3525 4100 3525 3541 
Q 3525 3141 3298 2862 
Q 3072 2584 2669 2484 
Q 3125 2378 3379 2068 
Q 3634 1759 3634 1313 
Q 3634 634 3220 271 
Q 2806 -91 2034 -91 
Q 1263 -91 848 271 
Q 434 634 434 1313 
Q 434 1759 690 2068 
Q 947 2378 1403 2484 
z
M 1172 3481 
Q 1172 3119 1398 2916 
Q 1625 2713 2034 2713 
Q 2441 2713 2670 2916 
Q 2900 3119 2900 3481 
Q 2900 3844 2670 4047 
Q 2441 4250 2034 4250 
Q 1625 4250 1398 4047 
Q 1172 3844 1172 3481 
z
" transform="scale(0.015625)"/>
       </defs>
       <use xlink:href="#DejaVuSans-38"/>
      </g>
     </g>
    </g>
    <g id="text_12">
     <!-- mean or fraction -->
     <g transform="translate(18.827813 227.00083) rotate(-90) scale(0.1 -0.1)">
      <defs>
       <path id="DejaVuSans-6d" d="M 3328 2828 
Q 3544 3216 3844 3400 
Q 4144 3584 4550 3584 
Q 5097 3584 5394 3201 
Q 5691 2819 5691 2113 
L 5691 0 
L 5113 0 
L 5113 2094 
Q 5113 2597 4934 2840 
Q 4756 3084 4391 3084 
Q 3944 3084 3684 2787 
Q 3425 2491 3425 1978 
L 3425 0 
L 2847 0 
L 2847 2094 
Q 2847 2600 2669 2842 
Q 2491 3084 2119 3084 
Q 1678 3084 1418 2786 
Q 1159 2488 1159 1978 
L 1159 0 
L 581 0 
L 581 3500 
L 1159 3500 
L 1159 2956 
Q 1356 3278 1631 3431 
Q 1906 3584 2284 3584 
Q 2666 3584 2933 3390 
Q 3200 3197 3328 2828 
z
" transform="scale(0.015625)"/>
       <path id="DejaVuSans-20" transform="scale(0.015625)"/>
      </defs>
      <use xlink:href="#DejaVuSans-6d"/>
      <use xlink:href="#DejaVuSans-65" transform="translate(97.412109 0)"/>
      <use xlink:href="#DejaVuSans-61" transform="translate(158.935547 0)"/>
      <use xlink:href="#DejaVuSans-6e" transform="translate(220.214844 0)"/>
      <use xlink:href="#DejaVuSans-20" transform="translate(283.59375 0)"/>
      <use xlink:href="#DejaVuSans-6f" transform="translate(315.380859 0)"/>
      <use xlink:href="#DejaVuSans-72" transform="translate(376.5625 0)"/>
      <use xlink:href="#DejaVuSans-20" transform="translate(417.675781 0)"/>
      <use xlink:href="#DejaVuSans-66" transform="translate(449.462891 0)"/>
      <use xlink:href="#DejaVuSans-72" transform="translate(484.667969 0)"/>
      <use xlink:href="#DejaVuSans-61" transform="translate(525.78125 0)"/>
      <use xlink:href="#DejaVuSans-63" transform="translate(587.060547 0)"/>
      <use xlink:href="#DejaVuSans-74" transform="translate(642.041016 0)"/>
      <use xlink:href="#DejaVuSans-69" transform="translate(681.25 0)"/>
      <use xlink:href="#DejaVuSans-6f" transform="translate(709.033203 0)"/>
      <use xlink:href="#DejaVuSans-6e" transform="translate(770.214844 0)"/>
     </g>
    </g>
   </g>
   <g id="patch_27">
    <path d="M 38.27 343.763848 
L 38.27 26.88 
" style="fill: none; stroke: #000000; stroke-width: 0.8; stroke-linejoin: miter; stroke-linecap: square"/>
   </g>
   <g id="patch_28">
    <path d="M 853.2 343.763848 
L 853.2 26.88 
" style="fill: none; stroke: #000000; stroke-width: 0.8; stroke-linejoin: miter; stroke-linecap: square"/>
   </g>
   <g id="patch_29">
    <path d="M 38.27 343.763848 
L 853.2 343.763848 
" style="fill: none; stroke: #000000; stroke-width: 0.8; stroke-linejoin: miter; stroke-linecap: square"/>
   </g>
   <g id="patch_30">
    <path d="M 38.27 26.88 
L 853.2 26.88 
" style="fill: none; stroke: #000000; stroke-width: 0.8; stroke-linejoin: miter; stroke-linecap: square"/>
   </g>
   <g id="text_13">
    <!-- Query distractor geometry -->
    <g transform="translate(365.72125 20.88) scale(0.12 -0.12)">
     <defs>
      <path id="DejaVuSans-51" d="M 2522 4238 
Q 1834 4238 1429 3725 
Q 1025 3213 1025 2328 
Q 1025 1447 1429 934 
Q 1834 422 2522 422 
Q 3209 422 3611 934 
Q 4013 1447 4013 2328 
Q 4013 3213 3611 3725 
Q 3209 4238 2522 4238 
z
M 3406 84 
L 4238 -825 
L 3475 -825 
L 2784 -78 
Q 2681 -84 2626 -87 
Q 2572 -91 2522 -91 
Q 1538 -91 948 567 
Q 359 1225 359 2328 
Q 359 3434 948 4092 
Q 1538 4750 2522 4750 
Q 3503 4750 4090 4092 
Q 4678 3434 4678 2328 
Q 4678 1516 4351 937 
Q 4025 359 3406 84 
z
" transform="scale(0.015625)"/>
      <path id="DejaVuSans-79" d="M 2059 -325 
Q 1816 -950 1584 -1140 
Q 1353 -1331 966 -1331 
L 506 -1331 
L 506 -850 
L 844 -850 
Q 1081 -850 1212 -737 
Q 1344 -625 1503 -206 
L 1606 56 
L 191 3500 
L 800 3500 
L 1894 763 
L 2988 3500 
L 3597 3500 
L 2059 -325 
z
" transform="scale(0.015625)"/>
      <path id="DejaVuSans-67" d="M 2906 1791 
Q 2906 2416 2648 2759 
Q 2391 3103 1925 3103 
Q 1463 3103 1205 2759 
Q 947 2416 947 1791 
Q 947 1169 1205 825 
Q 1463 481 1925 481 
Q 2391 481 2648 825 
Q 2906 1169 2906 1791 
z
M 3481 434 
Q 3481 -459 3084 -895 
Q 2688 -1331 1869 -1331 
Q 1566 -1331 1297 -1286 
Q 1028 -1241 775 -1147 
L 775 -588 
Q 1028 -725 1275 -790 
Q 1522 -856 1778 -856 
Q 2344 -856 2625 -561 
Q 2906 -266 2906 331 
L 2906 616 
Q 2728 306 2450 153 
Q 2172 0 1784 0 
Q 1141 0 747 490 
Q 353 981 353 1791 
Q 353 2603 747 3093 
Q 1141 3584 1784 3584 
Q 2172 3584 2450 3431 
Q 2728 3278 2906 2969 
L 2906 3500 
L 3481 3500 
L 3481 434 
z
" transform="scale(0.015625)"/>
     </defs>
     <use xlink:href="#DejaVuSans-51"/>
     <use xlink:href="#DejaVuSans-75" transform="translate(78.710938 0)"/>
     <use xlink:href="#DejaVuSans-65" transform="translate(142.089844 0)"/>
     <use xlink:href="#DejaVuSans-72" transform="translate(203.613281 0)"/>
     <use xlink:href="#DejaVuSans-79" transform="translate(244.726562 0)"/>
     <use xlink:href="#DejaVuSans-20" transform="translate(303.90625 0)"/>
     <use xlink:href="#DejaVuSans-64" transform="translate(335.693359 0)"/>
     <use xlink:href="#DejaVuSans-69" transform="translate(399.169922 0)"/>
     <use xlink:href="#DejaVuSans-73" transform="translate(426.953125 0)"/>
     <use xlink:href="#DejaVuSans-74" transform="translate(479.052734 0)"/>
     <use xlink:href="#DejaVuSans-72" transform="translate(518.261719 0)"/>
     <use xlink:href="#DejaVuSans-61" transform="translate(559.375 0)"/>
     <use xlink:href="#DejaVuSans-63" transform="translate(620.654297 0)"/>
     <use xlink:href="#DejaVuSans-74" transform="translate(675.634766 0)"/>
     <use xlink:href="#DejaVuSans-6f" transform="translate(714.84375 0)"/>
     <use xlink:href="#DejaVuSans-72" transform="translate(776.025391 0)"/>
     <use xlink:href="#DejaVuSans-20" transform="translate(817.138672 0)"/>
     <use xlink:href="#DejaVuSans-67" transform="translate(848.925781 0)"/>
     <use xlink:href="#DejaVuSans-65" transform="translate(912.402344 0)"/>
     <use xlink:href="#DejaVuSans-6f" transform="translate(973.925781 0)"/>
     <use xlink:href="#DejaVuSans-6d" transform="translate(1035.107422 0)"/>
     <use xlink:href="#DejaVuSans-65" transform="translate(1132.519531 0)"/>
     <use xlink:href="#DejaVuSans-74" transform="translate(1194.042969 0)"/>
     <use xlink:href="#DejaVuSans-72" transform="translate(1233.251953 0)"/>
     <use xlink:href="#DejaVuSans-79" transform="translate(1274.365234 0)"/>
    </g>
   </g>
   <g id="legend_1">
    <g id="patch_31">
     <path d="M 45.27 64.7925 
L 504.324687 64.7925 
Q 506.324687 64.7925 506.324687 62.7925 
L 506.324687 33.88 
Q 506.324687 31.88 504.324687 31.88 
L 45.27 31.88 
Q 43.27 31.88 43.27 33.88 
L 43.27 62.7925 
Q 43.27 64.7925 45.27 64.7925 
z
" style="fill: #ffffff; opacity: 0.8; stroke: #cccccc; stroke-linejoin: miter"/>
    </g>
    <g id="patch_32">
     <path d="M 47.27 43.478438 
L 67.27 43.478438 
L 67.27 36.478438 
L 47.27 36.478438 
z
" style="fill: #1f77b4"/>
    </g>
    <g id="text_14">
     <!-- same_key_stale_writes_mean -->
     <g transform="translate(75.27 43.478438) scale(0.1 -0.1)">
      <defs>
       <path id="DejaVuSans-6b" d="M 581 4863 
L 1159 4863 
L 1159 1991 
L 2875 3500 
L 3609 3500 
L 1753 1863 
L 3688 0 
L 2938 0 
L 1159 1709 
L 1159 0 
L 581 0 
L 581 4863 
z
" transform="scale(0.015625)"/>
       <path id="DejaVuSans-77" d="M 269 3500 
L 844 3500 
L 1563 769 
L 2278 3500 
L 2956 3500 
L 3675 769 
L 4391 3500 
L 4966 3500 
L 4050 0 
L 3372 0 
L 2619 2869 
L 1863 0 
L 1184 0 
L 269 3500 
z
" transform="scale(0.015625)"/>
      </defs>
      <use xlink:href="#DejaVuSans-73"/>
      <use xlink:href="#DejaVuSans-61" transform="translate(52.099609 0)"/>
      <use xlink:href="#DejaVuSans-6d" transform="translate(113.378906 0)"/>
      <use xlink:href="#DejaVuSans-65" transform="translate(210.791016 0)"/>
      <use xlink:href="#DejaVuSans-5f" transform="translate(272.314453 0)"/>
      <use xlink:href="#DejaVuSans-6b" transform="translate(322.314453 0)"/>
      <use xlink:href="#DejaVuSans-65" transform="translate(376.599609 0)"/>
      <use xlink:href="#DejaVuSans-79" transform="translate(438.123047 0)"/>
      <use xlink:href="#DejaVuSans-5f" transform="translate(497.302734 0)"/>
      <use xlink:href="#DejaVuSans-73" transform="translate(547.302734 0)"/>
      <use xlink:href="#DejaVuSans-74" transform="translate(599.402344 0)"/>
      <use xlink:href="#DejaVuSans-61" transform="translate(638.611328 0)"/>
      <use xlink:href="#DejaVuSans-6c" transform="translate(699.890625 0)"/>
      <use xlink:href="#DejaVuSans-65" transform="translate(727.673828 0)"/>
      <use xlink:href="#DejaVuSans-5f" transform="translate(789.197266 0)"/>
      <use xlink:href="#DejaVuSans-77" transform="translate(839.197266 0)"/>
      <use xlink:href="#DejaVuSans-72" transform="translate(920.984375 0)"/>
      <use xlink:href="#DejaVuSans-69" transform="translate(962.097656 0)"/>
      <use xlink:href="#DejaVuSans-74" transform="translate(989.880859 0)"/>
      <use xlink:href="#DejaVuSans-65" transform="translate(1029.089844 0)"/>
      <use xlink:href="#DejaVuSans-73" transform="translate(1090.613281 0)"/>
      <use xlink:href="#DejaVuSans-5f" transform="translate(1142.712891 0)"/>
      <use xlink:href="#DejaVuSans-6d" transform="translate(1192.712891 0)"/>
      <use xlink:href="#DejaVuSans-65" transform="translate(1290.125 0)"/>
      <use xlink:href="#DejaVuSans-61" transform="translate(1351.648438 0)"/>
      <use xlink:href="#DejaVuSans-6e" transform="translate(1412.927734 0)"/>
     </g>
    </g>
    <g id="patch_33">
     <path d="M 47.27 58.434688 
L 67.27 58.434688 
L 67.27 51.434688 
L 47.27 51.434688 
z
" style="fill: #ff7f0e"/>
    </g>
    <g id="text_15">
     <!-- other_key_prior_writes_mean -->
     <g transform="translate(75.27 58.434688) scale(0.1 -0.1)">
      <use xlink:href="#DejaVuSans-6f"/>
      <use xlink:href="#DejaVuSans-74" transform="translate(61.181641 0)"/>
      <use xlink:href="#DejaVuSans-68" transform="translate(100.390625 0)"/>
      <use xlink:href="#DejaVuSans-65" transform="translate(163.769531 0)"/>
      <use xlink:href="#DejaVuSans-72" transform="translate(225.292969 0)"/>
      <use xlink:href="#DejaVuSans-5f" transform="translate(266.40625 0)"/>
      <use xlink:href="#DejaVuSans-6b" transform="translate(316.40625 0)"/>
      <use xlink:href="#DejaVuSans-65" transform="translate(370.691406 0)"/>
      <use xlink:href="#DejaVuSans-79" transform="translate(432.214844 0)"/>
      <use xlink:href="#DejaVuSans-5f" transform="translate(491.394531 0)"/>
      <use xlink:href="#DejaVuSans-70" transform="translate(541.394531 0)"/>
      <use xlink:href="#DejaVuSans-72" transform="translate(604.871094 0)"/>
      <use xlink:href="#DejaVuSans-69" transform="translate(645.984375 0)"/>
      <use xlink:href="#DejaVuSans-6f" transform="translate(673.767578 0)"/>
      <use xlink:href="#DejaVuSans-72" transform="translate(734.949219 0)"/>
      <use xlink:href="#DejaVuSans-5f" transform="translate(776.0625 0)"/>
      <use xlink:href="#DejaVuSans-77" transform="translate(826.0625 0)"/>
      <use xlink:href="#DejaVuSans-72" transform="translate(907.849609 0)"/>
      <use xlink:href="#DejaVuSans-69" transform="translate(948.962891 0)"/>
      <use xlink:href="#DejaVuSans-74" transform="translate(976.746094 0)"/>
      <use xlink:href="#DejaVuSans-65" transform="translate(1015.955078 0)"/>
      <use xlink:href="#DejaVuSans-73" transform="translate(1077.478516 0)"/>
      <use xlink:href="#DejaVuSans-5f" transform="translate(1129.578125 0)"/>
      <use xlink:href="#DejaVuSans-6d" transform="translate(1179.578125 0)"/>
      <use xlink:href="#DejaVuSans-65" transform="translate(1276.990234 0)"/>
      <use xlink:href="#DejaVuSans-61" transform="translate(1338.513672 0)"/>
      <use xlink:href="#DejaVuSans-6e" transform="translate(1399.792969 0)"/>
     </g>
    </g>
    <g id="patch_34">
     <path d="M 242.899688 43.478438 
L 262.899688 43.478438 
L 262.899688 36.478438 
L 242.899688 36.478438 
z
" style="fill: #2ca02c"/>
    </g>
    <g id="text_16">
     <!-- other_key_current_values_mean -->
     <g transform="translate(270.899688 43.478438) scale(0.1 -0.1)">
      <use xlink:href="#DejaVuSans-6f"/>
      <use xlink:href="#DejaVuSans-74" transform="translate(61.181641 0)"/>
      <use xlink:href="#DejaVuSans-68" transform="translate(100.390625 0)"/>
      <use xlink:href="#DejaVuSans-65" transform="translate(163.769531 0)"/>
      <use xlink:href="#DejaVuSans-72" transform="translate(225.292969 0)"/>
      <use xlink:href="#DejaVuSans-5f" transform="translate(266.40625 0)"/>
      <use xlink:href="#DejaVuSans-6b" transform="translate(316.40625 0)"/>
      <use xlink:href="#DejaVuSans-65" transform="translate(370.691406 0)"/>
      <use xlink:href="#DejaVuSans-79" transform="translate(432.214844 0)"/>
      <use xlink:href="#DejaVuSans-5f" transform="translate(491.394531 0)"/>
      <use xlink:href="#DejaVuSans-63" transform="translate(541.394531 0)"/>
      <use xlink:href="#DejaVuSans-75" transform="translate(596.375 0)"/>
      <use xlink:href="#DejaVuSans-72" transform="translate(659.753906 0)"/>
      <use xlink:href="#DejaVuSans-72" transform="translate(699.117188 0)"/>
      <use xlink:href="#DejaVuSans-65" transform="translate(737.980469 0)"/>
      <use xlink:href="#DejaVuSans-6e" transform="translate(799.503906 0)"/>
      <use xlink:href="#DejaVuSans-74" transform="translate(862.882812 0)"/>
      <use xlink:href="#DejaVuSans-5f" transform="translate(902.091797 0)"/>
      <use xlink:href="#DejaVuSans-76" transform="translate(952.091797 0)"/>
      <use xlink:href="#DejaVuSans-61" transform="translate(1011.271484 0)"/>
      <use xlink:href="#DejaVuSans-6c" transform="translate(1072.550781 0)"/>
      <use xlink:href="#DejaVuSans-75" transform="translate(1100.333984 0)"/>
      <use xlink:href="#DejaVuSans-65" transform="translate(1163.712891 0)"/>
      <use xlink:href="#DejaVuSans-73" transform="translate(1225.236328 0)"/>
      <use xlink:href="#DejaVuSans-5f" transform="translate(1277.335938 0)"/>
      <use xlink:href="#DejaVuSans-6d" transform="translate(1327.335938 0)"/>
      <use xlink:href="#DejaVuSans-65" transform="translate(1424.748047 0)"/>
      <use xlink:href="#DejaVuSans-61" transform="translate(1486.271484 0)"/>
      <use xlink:href="#DejaVuSans-6e" transform="translate(1547.550781 0)"/>
     </g>
    </g>
    <g id="patch_35">
     <path d="M 242.899688 58.434688 
L 262.899688 58.434688 
L 262.899688 51.434688 
L 242.899688 51.434688 
z
" style="fill: #d62728"/>
    </g>
    <g id="text_17">
     <!-- support_is_immediate_previous_write_fraction -->
     <g transform="translate(270.899688 58.434688) scale(0.1 -0.1)">
      <use xlink:href="#DejaVuSans-73"/>
      <use xlink:href="#DejaVuSans-75" transform="translate(52.099609 0)"/>
      <use xlink:href="#DejaVuSans-70" transform="translate(115.478516 0)"/>
      <use xlink:href="#DejaVuSans-70" transform="translate(178.955078 0)"/>
      <use xlink:href="#DejaVuSans-6f" transform="translate(242.431641 0)"/>
      <use xlink:href="#DejaVuSans-72" transform="translate(303.613281 0)"/>
      <use xlink:href="#DejaVuSans-74" transform="translate(344.726562 0)"/>
      <use xlink:href="#DejaVuSans-5f" transform="translate(383.935547 0)"/>
      <use xlink:href="#DejaVuSans-69" transform="translate(433.935547 0)"/>
      <use xlink:href="#DejaVuSans-73" transform="translate(461.71875 0)"/>
      <use xlink:href="#DejaVuSans-5f" transform="translate(513.818359 0)"/>
      <use xlink:href="#DejaVuSans-69" transform="translate(563.818359 0)"/>
      <use xlink:href="#DejaVuSans-6d" transform="translate(591.601562 0)"/>
      <use xlink:href="#DejaVuSans-6d" transform="translate(689.013672 0)"/>
      <use xlink:href="#DejaVuSans-65" transform="translate(786.425781 0)"/>
      <use xlink:href="#DejaVuSans-64" transform="translate(847.949219 0)"/>
      <use xlink:href="#DejaVuSans-69" transform="translate(911.425781 0)"/>
      <use xlink:href="#DejaVuSans-61" transform="translate(939.208984 0)"/>
      <use xlink:href="#DejaVuSans-74" transform="translate(1000.488281 0)"/>
      <use xlink:href="#DejaVuSans-65" transform="translate(1039.697266 0)"/>
      <use xlink:href="#DejaVuSans-5f" transform="translate(1101.220703 0)"/>
      <use xlink:href="#DejaVuSans-70" transform="translate(1151.220703 0)"/>
      <use xlink:href="#DejaVuSans-72" transform="translate(1214.697266 0)"/>
      <use xlink:href="#DejaVuSans-65" transform="translate(1253.560547 0)"/>
      <use xlink:href="#DejaVuSans-76" transform="translate(1315.083984 0)"/>
      <use xlink:href="#DejaVuSans-69" transform="translate(1374.263672 0)"/>
      <use xlink:href="#DejaVuSans-6f" transform="translate(1402.046875 0)"/>
      <use xlink:href="#DejaVuSans-75" transform="translate(1463.228516 0)"/>
      <use xlink:href="#DejaVuSans-73" transform="translate(1526.607422 0)"/>
      <use xlink:href="#DejaVuSans-5f" transform="translate(1578.707031 0)"/>
      <use xlink:href="#DejaVuSans-77" transform="translate(1628.707031 0)"/>
      <use xlink:href="#DejaVuSans-72" transform="translate(1710.494141 0)"/>
      <use xlink:href="#DejaVuSans-69" transform="translate(1751.607422 0)"/>
      <use xlink:href="#DejaVuSans-74" transform="translate(1779.390625 0)"/>
      <use xlink:href="#DejaVuSans-65" transform="translate(1818.599609 0)"/>
      <use xlink:href="#DejaVuSans-5f" transform="translate(1880.123047 0)"/>
      <use xlink:href="#DejaVuSans-66" transform="translate(1930.123047 0)"/>
      <use xlink:href="#DejaVuSans-72" transform="translate(1965.328125 0)"/>
      <use xlink:href="#DejaVuSans-61" transform="translate(2006.441406 0)"/>
      <use xlink:href="#DejaVuSans-63" transform="translate(2067.720703 0)"/>
      <use xlink:href="#DejaVuSans-74" transform="translate(2122.701172 0)"/>
      <use xlink:href="#DejaVuSans-69" transform="translate(2161.910156 0)"/>
      <use xlink:href="#DejaVuSans-6f" transform="translate(2189.693359 0)"/>
      <use xlink:href="#DejaVuSans-6e" transform="translate(2250.875 0)"/>
     </g>
    </g>
   </g>
  </g>
 </g>
 <defs>
  <clipPath id="p89aca3bba2">
   <rect x="38.27" y="26.88" width="814.93" height="316.883848"/>
  </clipPath>
 </defs>
</svg>
