<?xml version="1.0" encoding="utf-8" standalone="no"?>
<!DOCTYPE svg PUBLIC "-//W3C//DTD SVG 1.1//EN"
  "http://www.w3.org/Graphics/SVG/1.1/DTD/svg11.dtd">
<svg xmlns:xlink="http://www.w3.org/1999/xlink" width="864pt" height="396pt" viewBox="0 0 864 396" xmlns="http://www.w3.org/2000/svg" version="1.1">
 <metadata>
  <rdf:RDF xmlns:dc="http://purl.org/dc/elements/1.1/" xmlns:cc="http://creativecommons.org/ns#" xmlns:rdf="http://www.w3.org/1999/02/22-rdf-syntax-ns#">
   <cc:Work>
    <dc:type rdf:resource="http://purl.org/dc/dcmitype/StillImage"/>
    <dc:date>2026-04-11T22:20:44.845647</dc:date>
    <dc:format>image/svg+xml</dc:format>
    <dc:creator>
     <cc:Agent>
      <dc:title>Matplotlib v3.10.1, https://matplotlib.org/</dc:title>
     </cc:Agent>
    </dc:creator>
   </cc:Work>
  </rdf:RDF>
 </metadata>
 <defs>
  <style type="text/css">*{stroke-linejoin: round; stroke-linecap: butt}</style>
 </defs>
 <g id="figure_1">
  <g id="patch_1">
   <path d="M 0 396 
L 864 396 
L 864 0 
L 0 0 
z
" style="fill: #ffffff"/>
  </g>
  <g id="axes_1">
   <g id="patch_2">
    <path d="M 44.57 343.763848 
L 853.2 343.763848 
L 853.2 26.88 
L 44.57 26.88 
z
" style="fill: #ffffff"/>
   </g>
   <g id="patch_3">
    <path d="M 81.325909 343.763848 
L 99.381443 343.763848 
L 99.381443 333.765051 
L 81.325909 333.765051 
z
" clip-path="url(#p74f2e44b73)" style="fill: #1f77b4"/>
   </g>
   <g id="patch_4">
    <path d="M 210.294011 343.763848 
L 228.349545 343.763848 
L 228.349545 333.755031 
L 210.294011 333.755031 
z
" clip-path="url(#p74f2e44b73)" style="fill: #1f77b4"/>
   </g>
   <g id="patch_5">
    <path d="M 339.262113 343.763848 
L 357.317648 343.763848 
L 357.317648 333.797953 
L 339.262113 333.797953 
z
" clip-path="url(#p74f2e44b73)" style="fill: #1f77b4"/>
   </g>
   <g id="patch_6">
    <path d="M 468.230215 343.763848 
L 486.28575 343.763848 
L 486.28575 333.840876 
L 468.230215 333.840876 
z
" clip-path="url(#p74f2e44b73)" style="fill: #1f77b4"/>
   </g>
   <g id="patch_7">
    <path d="M 597.198317 343.763848 
L 615.253852 343.763848 
L 615.253852 325.755781 
L 597.198317 325.755781 
z
" clip-path="url(#p74f2e44b73)" style="fill: #1f77b4"/>
   </g>
   <g id="patch_8">
    <path d="M 726.166419 343.763848 
L 744.221954 343.763848 
L 744.221954 333.797953 
L 726.166419 333.797953 
z
" clip-path="url(#p74f2e44b73)" style="fill: #1f77b4"/>
   </g>
   <g id="patch_9">
    <path d="M 99.381443 343.763848 
L 117.436978 343.763848 
L 117.436978 311.798065 
L 99.381443 311.798065 
z
" clip-path="url(#p74f2e44b73)" style="fill: #ff7f0e"/>
   </g>
   <g id="patch_10">
    <path d="M 228.349545 343.763848 
L 246.40508 343.763848 
L 246.40508 311.798065 
L 228.349545 311.798065 
z
" clip-path="url(#p74f2e44b73)" style="fill: #ff7f0e"/>
   </g>
   <g id="patch_11">
    <path d="M 357.317648 343.763848 
L 375.373182 343.763848 
L 375.373182 311.798065 
L 357.317648 311.798065 
z
" clip-path="url(#p74f2e44b73)" style="fill: #ff7f0e"/>
   </g>
   <g id="patch_12">
    <path d="M 486.28575 343.763848 
L 504.341284 343.763848 
L 504.341284 311.798065 
L 486.28575 311.798065 
z
" clip-path="url(#p74f2e44b73)" style="fill: #ff7f0e"/>
   </g>
   <g id="patch_13">
    <path d="M 615.253852 343.763848 
L 633.309386 343.763848 
L 633.309386 299.951371 
L 615.253852 299.951371 
z
" clip-path="url(#p74f2e44b73)" style="fill: #ff7f0e"/>
   </g>
   <g id="patch_14">
    <path d="M 744.221954 343.763848 
L 762.277488 343.763848 
L 762.277488 311.798065 
L 744.221954 311.798065 
z
" clip-path="url(#p74f2e44b73)" style="fill: #ff7f0e"/>
   </g>
   <g id="patch_15">
    <path d="M 117.436978 343.763848 
L 135.492512 343.763848 
L 135.492512 317.739205 
L 117.436978 317.739205 
z
" clip-path="url(#p74f2e44b73)" style="fill: #2ca02c"/>
   </g>
   <g id="patch_16">
    <path d="M 246.40508 343.763848 
L 264.460614 343.763848 
L 264.460614 317.748726 
L 246.40508 317.748726 
z
" clip-path="url(#p74f2e44b73)" style="fill: #2ca02c"/>
   </g>
   <g id="patch_17">
    <path d="M 375.373182 343.763848 
L 393.428716 343.763848 
L 393.428716 317.768237 
L 375.373182 317.768237 
z
" clip-path="url(#p74f2e44b73)" style="fill: #2ca02c"/>
   </g>
   <g id="patch_18">
    <path d="M 504.341284 343.763848 
L 522.396818 343.763848 
L 522.396818 317.674587 
L 504.341284 317.674587 
z
" clip-path="url(#p74f2e44b73)" style="fill: #2ca02c"/>
   </g>
   <g id="patch_19">
    <path d="M 633.309386 343.763848 
L 651.36492 343.763848 
L 651.36492 307.650161 
L 633.309386 307.650161 
z
" clip-path="url(#p74f2e44b73)" style="fill: #2ca02c"/>
   </g>
   <g id="patch_20">
    <path d="M 762.277488 343.763848 
L 780.333022 343.763848 
L 780.333022 317.768237 
L 762.277488 317.768237 
z
" clip-path="url(#p74f2e44b73)" style="fill: #2ca02c"/>
   </g>
   <g id="patch_21">
    <path d="M 135.492512 343.763848 
L 153.548046 343.763848 
L 153.548046 301.799268 
L 135.492512 301.799268 
z
" clip-path="url(#p74f2e44b73)" style="fill: #d62728"/>
   </g>
   <g id="patch_22">
    <path d="M 264.460614 343.763848 
L 282.516148 343.763848 
L 282.516148 301.789247 
L 264.460614 301.789247 
z
" clip-path="url(#p74f2e44b73)" style="fill: #d62728"/>
   </g>
   <g id="patch_23">
    <path d="M 393.428716 343.763848 
L 411.48425 343.763848 
L 411.48425 301.83217 
L 393.428716 301.83217 
z
" clip-path="url(#p74f2e44b73)" style="fill: #d62728"/>
   </g>
   <g id="patch_24">
    <path d="M 522.396818 343.763848 
L 540.452352 343.763848 
L 540.452352 301.875093 
L 522.396818 301.875093 
z
" clip-path="url(#p74f2e44b73)" style="fill: #d62728"/>
   </g>
   <g id="patch_25">
    <path d="M 651.36492 343.763848 
L 669.420455 343.763848 
L 669.420455 281.943303 
L 651.36492 281.943303 
z
" clip-path="url(#p74f2e44b73)" style="fill: #d62728"/>
   </g>
   <g id="patch_26">
    <path d="M 780.333022 343.763848 
L 798.388557 343.763848 
L 798.388557 301.83217 
L 780.333022 301.83217 
z
" clip-path="url(#p74f2e44b73)" style="fill: #d62728"/>
   </g>
   <g id="patch_27">
    <path d="M 153.548046 343.763848 
L 171.603581 343.763848 
L 171.603581 131.804733 
L 153.548046 131.804733 
z
" clip-path="url(#p74f2e44b73)" style="fill: #9467bd"/>
   </g>
   <g id="patch_28">
    <path d="M 282.516148 343.763848 
L 300.571683 343.763848 
L 300.571683 131.803235 
L 282.516148 131.803235 
z
" clip-path="url(#p74f2e44b73)" style="fill: #9467bd"/>
   </g>
   <g id="patch_29">
    <path d="M 411.48425 343.763848 
L 429.539785 343.763848 
L 429.539785 131.990534 
L 411.48425 131.990534 
z
" clip-path="url(#p74f2e44b73)" style="fill: #9467bd"/>
   </g>
   <g id="patch_30">
    <path d="M 540.452352 343.763848 
L 558.507887 343.763848 
L 558.507887 131.838354 
L 540.452352 131.838354 
z
" clip-path="url(#p74f2e44b73)" style="fill: #9467bd"/>
   </g>
   <g id="patch_31">
    <path d="M 669.420455 343.763848 
L 687.475989 343.763848 
L 687.475989 41.969707 
L 669.420455 41.969707 
z
" clip-path="url(#p74f2e44b73)" style="fill: #9467bd"/>
   </g>
   <g id="patch_32">
    <path d="M 798.388557 343.763848 
L 816.444091 343.763848 
L 816.444091 131.990534 
L 798.388557 131.990534 
z
" clip-path="url(#p74f2e44b73)" style="fill: #9467bd"/>
   </g>
   <g id="matplotlib.axis_1">
    <g id="xtick_1">
     <g id="line2d_1">
      <defs>
       <path id="m98117c96a7" d="M 0 0 
L 0 3.5 
" style="stroke: #000000; stroke-width: 0.8"/>
      </defs>
      <g>
       <use xlink:href="#m98117c96a7" x="126.464745" y="343.763848" style="stroke: #000000; stroke-width: 0.8"/>
      </g>
     </g>
     <g id="text_1">
      <!-- train -->
      <g transform="translate(103.882104 365.864563) rotate(-20) scale(0.1 -0.1)">
       <defs>
        <path id="DejaVuSans-74" d="M 1172 4494 
L 1172 3500 
L 2356 3500 
L 2356 3053 
L 1172 3053 
L 1172 1153 
Q 1172 725 1289 603 
Q 1406 481 1766 481 
L 2356 481 
L 2356 0 
L 1766 0 
Q 1100 0 847 248 
Q 594 497 594 1153 
L 594 3053 
L 172 3053 
L 172 3500 
L 594 3500 
L 594 4494 
L 1172 4494 
z
" transform="scale(0.015625)"/>
        <path id="DejaVuSans-72" d="M 2631 2963 
Q 2534 3019 2420 3045 
Q 2306 3072 2169 3072 
Q 1681 3072 1420 2755 
Q 1159 2438 1159 1844 
L 1159 0 
L 581 0 
L 581 3500 
L 1159 3500 
L 1159 2956 
Q 1341 3275 1631 3429 
Q 1922 3584 2338 3584 
Q 2397 3584 2469 3576 
Q 2541 3569 2628 3553 
L 2631 2963 
z
" transform="scale(0.015625)"/>
        <path id="DejaVuSans-61" d="M 2194 1759 
Q 1497 1759 1228 1600 
Q 959 1441 959 1056 
Q 959 750 1161 570 
Q 1363 391 1709 391 
Q 2188 391 2477 730 
Q 2766 1069 2766 1631 
L 2766 1759 
L 2194 1759 
z
M 3341 1997 
L 3341 0 
L 2766 0 
L 2766 531 
Q 2569 213 2275 61 
Q 1981 -91 1556 -91 
Q 1019 -91 701 211 
Q 384 513 384 1019 
Q 384 1609 779 1909 
Q 1175 2209 1959 2209 
L 2766 2209 
L 2766 2266 
Q 2766 2663 2505 2880 
Q 2244 3097 1772 3097 
Q 1472 3097 1187 3025 
Q 903 2953 641 2809 
L 641 3341 
Q 956 3463 1253 3523 
Q 1550 3584 1831 3584 
Q 2591 3584 2966 3190 
Q 3341 2797 3341 1997 
z
" transform="scale(0.015625)"/>
        <path id="DejaVuSans-69" d="M 603 3500 
L 1178 3500 
L 1178 0 
L 603 0 
L 603 3500 
z
M 603 4863 
L 1178 4863 
L 1178 4134 
L 603 4134 
L 603 4863 
z
" transform="scale(0.015625)"/>
        <path id="DejaVuSans-6e" d="M 3513 2113 
L 3513 0 
L 2938 0 
L 2938 2094 
Q 2938 2591 2744 2837 
Q 2550 3084 2163 3084 
Q 1697 3084 1428 2787 
Q 1159 2491 1159 1978 
L 1159 0 
L 581 0 
L 581 3500 
L 1159 3500 
L 1159 2956 
Q 1366 3272 1645 3428 
Q 1925 3584 2291 3584 
Q 2894 3584 3203 3211 
Q 3513 2838 3513 2113 
z
" transform="scale(0.015625)"/>
       </defs>
       <use xlink:href="#DejaVuSans-74"/>
       <use xlink:href="#DejaVuSans-72" transform="translate(39.208984 0)"/>
       <use xlink:href="#DejaVuSans-61" transform="translate(80.322266 0)"/>
       <use xlink:href="#DejaVuSans-69" transform="translate(141.601562 0)"/>
       <use xlink:href="#DejaVuSans-6e" transform="translate(169.384766 0)"/>
      </g>
     </g>
    </g>
    <g id="xtick_2">
     <g id="line2d_2">
      <g>
       <use xlink:href="#m98117c96a7" x="255.432847" y="343.763848" style="stroke: #000000; stroke-width: 0.8"/>
      </g>
     </g>
     <g id="text_2">
      <!-- validation_iid -->
      <g transform="translate(192.476039 380.524935) rotate(-20) scale(0.1 -0.1)">
       <defs>
        <path id="DejaVuSans-76" d="M 191 3500 
L 800 3500 
L 1894 563 
L 2988 3500 
L 3597 3500 
L 2284 0 
L 1503 0 
L 191 3500 
z
" transform="scale(0.015625)"/>
        <path id="DejaVuSans-6c" d="M 603 4863 
L 1178 4863 
L 1178 0 
L 603 0 
L 603 4863 
z
" transform="scale(0.015625)"/>
        <path id="DejaVuSans-64" d="M 2906 2969 
L 2906 4863 
L 3481 4863 
L 3481 0 
L 2906 0 
L 2906 525 
Q 2725 213 2448 61 
Q 2172 -91 1784 -91 
Q 1150 -91 751 415 
Q 353 922 353 1747 
Q 353 2572 751 3078 
Q 1150 3584 1784 3584 
Q 2172 3584 2448 3432 
Q 2725 3281 2906 2969 
z
M 947 1747 
Q 947 1113 1208 752 
Q 1469 391 1925 391 
Q 2381 391 2643 752 
Q 2906 1113 2906 1747 
Q 2906 2381 2643 2742 
Q 2381 3103 1925 3103 
Q 1469 3103 1208 2742 
Q 947 2381 947 1747 
z
" transform="scale(0.015625)"/>
        <path id="DejaVuSans-6f" d="M 1959 3097 
Q 1497 3097 1228 2736 
Q 959 2375 959 1747 
Q 959 1119 1226 758 
Q 1494 397 1959 397 
Q 2419 397 2687 759 
Q 2956 1122 2956 1747 
Q 2956 2369 2687 2733 
Q 2419 3097 1959 3097 
z
M 1959 3584 
Q 2709 3584 3137 3096 
Q 3566 2609 3566 1747 
Q 3566 888 3137 398 
Q 2709 -91 1959 -91 
Q 1206 -91 779 398 
Q 353 888 353 1747 
Q 353 2609 779 3096 
Q 1206 3584 1959 3584 
z
" transform="scale(0.015625)"/>
        <path id="DejaVuSans-5f" d="M 3263 -1063 
L 3263 -1509 
L -63 -1509 
L -63 -1063 
L 3263 -1063 
z
" transform="scale(0.015625)"/>
       </defs>
       <use xlink:href="#DejaVuSans-76"/>
       <use xlink:href="#DejaVuSans-61" transform="translate(59.179688 0)"/>
       <use xlink:href="#DejaVuSans-6c" transform="translate(120.458984 0)"/>
       <use xlink:href="#DejaVuSans-69" transform="translate(148.242188 0)"/>
       <use xlink:href="#DejaVuSans-64" transform="translate(176.025391 0)"/>
       <use xlink:href="#DejaVuSans-61" transform="translate(239.501953 0)"/>
       <use xlink:href="#DejaVuSans-74" transform="translate(300.78125 0)"/>
       <use xlink:href="#DejaVuSans-69" transform="translate(339.990234 0)"/>
       <use xlink:href="#DejaVuSans-6f" transform="translate(367.773438 0)"/>
       <use xlink:href="#DejaVuSans-6e" transform="translate(428.955078 0)"/>
       <use xlink:href="#DejaVuSans-5f" transform="translate(492.333984 0)"/>
       <use xlink:href="#DejaVuSans-69" transform="translate(542.333984 0)"/>
       <use xlink:href="#DejaVuSans-69" transform="translate(570.117188 0)"/>
       <use xlink:href="#DejaVuSans-64" transform="translate(597.900391 0)"/>
      </g>
     </g>
    </g>
    <g id="xtick_3">
     <g id="line2d_3">
      <g>
       <use xlink:href="#m98117c96a7" x="384.400949" y="343.763848" style="stroke: #000000; stroke-width: 0.8"/>
      </g>
     </g>
     <g id="text_3">
      <!-- test_iid -->
      <g transform="translate(349.664285 370.253643) rotate(-20) scale(0.1 -0.1)">
       <defs>
        <path id="DejaVuSans-65" d="M 3597 1894 
L 3597 1613 
L 953 1613 
Q 991 1019 1311 708 
Q 1631 397 2203 397 
Q 2534 397 2845 478 
Q 3156 559 3463 722 
L 3463 178 
Q 3153 47 2828 -22 
Q 2503 -91 2169 -91 
Q 1331 -91 842 396 
Q 353 884 353 1716 
Q 353 2575 817 3079 
Q 1281 3584 2069 3584 
Q 2775 3584 3186 3129 
Q 3597 2675 3597 1894 
z
M 3022 2063 
Q 3016 2534 2758 2815 
Q 2500 3097 2075 3097 
Q 1594 3097 1305 2825 
Q 1016 2553 972 2059 
L 3022 2063 
z
" transform="scale(0.015625)"/>
        <path id="DejaVuSans-73" d="M 2834 3397 
L 2834 2853 
Q 2591 2978 2328 3040 
Q 2066 3103 1784 3103 
Q 1356 3103 1142 2972 
Q 928 2841 928 2578 
Q 928 2378 1081 2264 
Q 1234 2150 1697 2047 
L 1894 2003 
Q 2506 1872 2764 1633 
Q 3022 1394 3022 966 
Q 3022 478 2636 193 
Q 2250 -91 1575 -91 
Q 1294 -91 989 -36 
Q 684 19 347 128 
L 347 722 
Q 666 556 975 473 
Q 1284 391 1588 391 
Q 1994 391 2212 530 
Q 2431 669 2431 922 
Q 2431 1156 2273 1281 
Q 2116 1406 1581 1522 
L 1381 1569 
Q 847 1681 609 1914 
Q 372 2147 372 2553 
Q 372 3047 722 3315 
Q 1072 3584 1716 3584 
Q 2034 3584 2315 3537 
Q 2597 3491 2834 3397 
z
" transform="scale(0.015625)"/>
       </defs>
       <use xlink:href="#DejaVuSans-74"/>
       <use xlink:href="#DejaVuSans-65" transform="translate(39.208984 0)"/>
       <use xlink:href="#DejaVuSans-73" transform="translate(100.732422 0)"/>
       <use xlink:href="#DejaVuSans-74" transform="translate(152.832031 0)"/>
       <use xlink:href="#DejaVuSans-5f" transform="translate(192.041016 0)"/>
       <use xlink:href="#DejaVuSans-69" transform="translate(242.041016 0)"/>
       <use xlink:href="#DejaVuSans-69" transform="translate(269.824219 0)"/>
       <use xlink:href="#DejaVuSans-64" transform="translate(297.607422 0)"/>
      </g>
     </g>
    </g>
    <g id="xtick_4">
     <g id="line2d_4">
      <g>
       <use xlink:href="#m98117c96a7" x="513.369051" y="343.763848" style="stroke: #000000; stroke-width: 0.8"/>
      </g>
     </g>
     <g id="text_4">
      <!-- heldout_pairs -->
      <g transform="translate(449.068776 381.013917) rotate(-20) scale(0.1 -0.1)">
       <defs>
        <path id="DejaVuSans-68" d="M 3513 2113 
L 3513 0 
L 2938 0 
L 2938 2094 
Q 2938 2591 2744 2837 
Q 2550 3084 2163 3084 
Q 1697 3084 1428 2787 
Q 1159 2491 1159 1978 
L 1159 0 
L 581 0 
L 581 4863 
L 1159 4863 
L 1159 2956 
Q 1366 3272 1645 3428 
Q 1925 3584 2291 3584 
Q 2894 3584 3203 3211 
Q 3513 2838 3513 2113 
z
" transform="scale(0.015625)"/>
        <path id="DejaVuSans-75" d="M 544 1381 
L 544 3500 
L 1119 3500 
L 1119 1403 
Q 1119 906 1312 657 
Q 1506 409 1894 409 
Q 2359 409 2629 706 
Q 2900 1003 2900 1516 
L 2900 3500 
L 3475 3500 
L 3475 0 
L 2900 0 
L 2900 538 
Q 2691 219 2414 64 
Q 2138 -91 1772 -91 
Q 1169 -91 856 284 
Q 544 659 544 1381 
z
M 1991 3584 
L 1991 3584 
z
" transform="scale(0.015625)"/>
        <path id="DejaVuSans-70" d="M 1159 525 
L 1159 -1331 
L 581 -1331 
L 581 3500 
L 1159 3500 
L 1159 2969 
Q 1341 3281 1617 3432 
Q 1894 3584 2278 3584 
Q 2916 3584 3314 3078 
Q 3713 2572 3713 1747 
Q 3713 922 3314 415 
Q 2916 -91 2278 -91 
Q 1894 -91 1617 61 
Q 1341 213 1159 525 
z
M 3116 1747 
Q 3116 2381 2855 2742 
Q 2594 3103 2138 3103 
Q 1681 3103 1420 2742 
Q 1159 2381 1159 1747 
Q 1159 1113 1420 752 
Q 1681 391 2138 391 
Q 2594 391 2855 752 
Q 3116 1113 3116 1747 
z
" transform="scale(0.015625)"/>
       </defs>
       <use xlink:href="#DejaVuSans-68"/>
       <use xlink:href="#DejaVuSans-65" transform="translate(63.378906 0)"/>
       <use xlink:href="#DejaVuSans-6c" transform="translate(124.902344 0)"/>
       <use xlink:href="#DejaVuSans-64" transform="translate(152.685547 0)"/>
       <use xlink:href="#DejaVuSans-6f" transform="translate(216.162109 0)"/>
       <use xlink:href="#DejaVuSans-75" transform="translate(277.34375 0)"/>
       <use xlink:href="#DejaVuSans-74" transform="translate(340.722656 0)"/>
       <use xlink:href="#DejaVuSans-5f" transform="translate(379.931641 0)"/>
       <use xlink:href="#DejaVuSans-70" transform="translate(429.931641 0)"/>
       <use xlink:href="#DejaVuSans-61" transform="translate(493.408203 0)"/>
       <use xlink:href="#DejaVuSans-69" transform="translate(554.6875 0)"/>
       <use xlink:href="#DejaVuSans-72" transform="translate(582.470703 0)"/>
       <use xlink:href="#DejaVuSans-73" transform="translate(623.583984 0)"/>
      </g>
     </g>
    </g>
    <g id="xtick_5">
     <g id="line2d_5">
      <g>
       <use xlink:href="#m98117c96a7" x="642.337153" y="343.763848" style="stroke: #000000; stroke-width: 0.8"/>
      </g>
     </g>
     <g id="text_5">
      <!-- structural_ood -->
      <g transform="translate(573.931596 382.508118) rotate(-20) scale(0.1 -0.1)">
       <defs>
        <path id="DejaVuSans-63" d="M 3122 3366 
L 3122 2828 
Q 2878 2963 2633 3030 
Q 2388 3097 2138 3097 
Q 1578 3097 1268 2742 
Q 959 2388 959 1747 
Q 959 1106 1268 751 
Q 1578 397 2138 397 
Q 2388 397 2633 464 
Q 2878 531 3122 666 
L 3122 134 
Q 2881 22 2623 -34 
Q 2366 -91 2075 -91 
Q 1284 -91 818 406 
Q 353 903 353 1747 
Q 353 2603 823 3093 
Q 1294 3584 2113 3584 
Q 2378 3584 2631 3529 
Q 2884 3475 3122 3366 
z
" transform="scale(0.015625)"/>
       </defs>
       <use xlink:href="#DejaVuSans-73"/>
       <use xlink:href="#DejaVuSans-74" transform="translate(52.099609 0)"/>
       <use xlink:href="#DejaVuSans-72" transform="translate(91.308594 0)"/>
       <use xlink:href="#DejaVuSans-75" transform="translate(132.421875 0)"/>
       <use xlink:href="#DejaVuSans-63" transform="translate(195.800781 0)"/>
       <use xlink:href="#DejaVuSans-74" transform="translate(250.78125 0)"/>
       <use xlink:href="#DejaVuSans-75" transform="translate(289.990234 0)"/>
       <use xlink:href="#DejaVuSans-72" transform="translate(353.369141 0)"/>
       <use xlink:href="#DejaVuSans-61" transform="translate(394.482422 0)"/>
       <use xlink:href="#DejaVuSans-6c" transform="translate(455.761719 0)"/>
       <use xlink:href="#DejaVuSans-5f" transform="translate(483.544922 0)"/>
       <use xlink:href="#DejaVuSans-6f" transform="translate(533.544922 0)"/>
       <use xlink:href="#DejaVuSans-6f" transform="translate(594.726562 0)"/>
       <use xlink:href="#DejaVuSans-64" transform="translate(655.908203 0)"/>
      </g>
     </g>
    </g>
    <g id="xtick_6">
     <g id="line2d_6">
      <g>
       <use xlink:href="#m98117c96a7" x="771.305255" y="343.763848" style="stroke: #000000; stroke-width: 0.8"/>
      </g>
     </g>
     <g id="text_6">
      <!-- counterfactual -->
      <g transform="translate(702.196084 382.798835) rotate(-20) scale(0.1 -0.1)">
       <defs>
        <path id="DejaVuSans-66" d="M 2375 4863 
L 2375 4384 
L 1825 4384 
Q 1516 4384 1395 4259 
Q 1275 4134 1275 3809 
L 1275 3500 
L 2222 3500 
L 2222 3053 
L 1275 3053 
L 1275 0 
L 697 0 
L 697 3053 
L 147 3053 
L 147 3500 
L 697 3500 
L 697 3744 
Q 697 4328 969 4595 
Q 1241 4863 1831 4863 
L 2375 4863 
z
" transform="scale(0.015625)"/>
       </defs>
       <use xlink:href="#DejaVuSans-63"/>
       <use xlink:href="#DejaVuSans-6f" transform="translate(54.980469 0)"/>
       <use xlink:href="#DejaVuSans-75" transform="translate(116.162109 0)"/>
       <use xlink:href="#DejaVuSans-6e" transform="translate(179.541016 0)"/>
       <use xlink:href="#DejaVuSans-74" transform="translate(242.919922 0)"/>
       <use xlink:href="#DejaVuSans-65" transform="translate(282.128906 0)"/>
       <use xlink:href="#DejaVuSans-72" transform="translate(343.652344 0)"/>
       <use xlink:href="#DejaVuSans-66" transform="translate(384.765625 0)"/>
       <use xlink:href="#DejaVuSans-61" transform="translate(419.970703 0)"/>
       <use xlink:href="#DejaVuSans-63" transform="translate(481.25 0)"/>
       <use xlink:href="#DejaVuSans-74" transform="translate(536.230469 0)"/>
       <use xlink:href="#DejaVuSans-75" transform="translate(575.439453 0)"/>
       <use xlink:href="#DejaVuSans-61" transform="translate(638.818359 0)"/>
       <use xlink:href="#DejaVuSans-6c" transform="translate(700.097656 0)"/>
      </g>
     </g>
    </g>
   </g>
   <g id="matplotlib.axis_2">
    <g id="ytick_1">
     <g id="line2d_7">
      <path d="M 44.57 343.763848 
L 853.2 343.763848 
" clip-path="url(#p74f2e44b73)" style="fill: none; stroke: #b0b0b0; stroke-opacity: 0.25; stroke-width: 0.8; stroke-linecap: square"/>
     </g>
     <g id="line2d_8">
      <defs>
       <path id="m7784dd8f47" d="M 0 0 
L -3.5 0 
" style="stroke: #000000; stroke-width: 0.8"/>
      </defs>
      <g>
       <use xlink:href="#m7784dd8f47" x="44.57" y="343.763848" style="stroke: #000000; stroke-width: 0.8"/>
      </g>
     </g>
     <g id="text_7">
      <!-- 0 -->
      <g transform="translate(31.2075 347.563067) scale(0.1 -0.1)">
       <defs>
        <path id="DejaVuSans-30" d="M 2034 4250 
Q 1547 4250 1301 3770 
Q 1056 3291 1056 2328 
Q 1056 1369 1301 889 
Q 1547 409 2034 409 
Q 2525 409 2770 889 
Q 3016 1369 3016 2328 
Q 3016 3291 2770 3770 
Q 2525 4250 2034 4250 
z
M 2034 4750 
Q 2819 4750 3233 4129 
Q 3647 3509 3647 2328 
Q 3647 1150 3233 529 
Q 2819 -91 2034 -91 
Q 1250 -91 836 529 
Q 422 1150 422 2328 
Q 422 3509 836 4129 
Q 1250 4750 2034 4750 
z
" transform="scale(0.015625)"/>
       </defs>
       <use xlink:href="#DejaVuSans-30"/>
      </g>
     </g>
    </g>
    <g id="ytick_2">
     <g id="line2d_9">
      <path d="M 44.57 303.806619 
L 853.2 303.806619 
" clip-path="url(#p74f2e44b73)" style="fill: none; stroke: #b0b0b0; stroke-opacity: 0.25; stroke-width: 0.8; stroke-linecap: square"/>
     </g>
     <g id="line2d_10">
      <g>
       <use xlink:href="#m7784dd8f47" x="44.57" y="303.806619" style="stroke: #000000; stroke-width: 0.8"/>
      </g>
     </g>
     <g id="text_8">
      <!-- 10 -->
      <g transform="translate(24.845 307.605838) scale(0.1 -0.1)">
       <defs>
        <path id="DejaVuSans-31" d="M 794 531 
L 1825 531 
L 1825 4091 
L 703 3866 
L 703 4441 
L 1819 4666 
L 2450 4666 
L 2450 531 
L 3481 531 
L 3481 0 
L 794 0 
L 794 531 
z
" transform="scale(0.015625)"/>
       </defs>
       <use xlink:href="#DejaVuSans-31"/>
       <use xlink:href="#DejaVuSans-30" transform="translate(63.623047 0)"/>
      </g>
     </g>
    </g>
    <g id="ytick_3">
     <g id="line2d_11">
      <path d="M 44.57 263.84939 
L 853.2 263.84939 
" clip-path="url(#p74f2e44b73)" style="fill: none; stroke: #b0b0b0; stroke-opacity: 0.25; stroke-width: 0.8; stroke-linecap: square"/>
     </g>
     <g id="line2d_12">
      <g>
       <use xlink:href="#m7784dd8f47" x="44.57" y="263.84939" style="stroke: #000000; stroke-width: 0.8"/>
      </g>
     </g>
     <g id="text_9">
      <!-- 20 -->
      <g transform="translate(24.845 267.648609) scale(0.1 -0.1)">
       <defs>
        <path id="DejaVuSans-32" d="M 1228 531 
L 3431 531 
L 3431 0 
L 469 0 
L 469 531 
Q 828 903 1448 1529 
Q 2069 2156 2228 2338 
Q 2531 2678 2651 2914 
Q 2772 3150 2772 3378 
Q 2772 3750 2511 3984 
Q 2250 4219 1831 4219 
Q 1534 4219 1204 4116 
Q 875 4013 500 3803 
L 500 4441 
Q 881 4594 1212 4672 
Q 1544 4750 1819 4750 
Q 2544 4750 2975 4387 
Q 3406 4025 3406 3419 
Q 3406 3131 3298 2873 
Q 3191 2616 2906 2266 
Q 2828 2175 2409 1742 
Q 1991 1309 1228 531 
z
" transform="scale(0.015625)"/>
       </defs>
       <use xlink:href="#DejaVuSans-32"/>
       <use xlink:href="#DejaVuSans-30" transform="translate(63.623047 0)"/>
      </g>
     </g>
    </g>
    <g id="ytick_4">
     <g id="line2d_13">
      <path d="M 44.57 223.892161 
L 853.2 223.892161 
" clip-path="url(#p74f2e44b73)" style="fill: none; stroke: #b0b0b0; stroke-opacity: 0.25; stroke-width: 0.8; stroke-linecap: square"/>
     </g>
     <g id="line2d_14">
      <g>
       <use xlink:href="#m7784dd8f47" x="44.57" y="223.892161" style="stroke: #000000; stroke-width: 0.8"/>
      </g>
     </g>
     <g id="text_10">
      <!-- 30 -->
      <g transform="translate(24.845 227.69138) scale(0.1 -0.1)">
       <defs>
        <path id="DejaVuSans-33" d="M 2597 2516 
Q 3050 2419 3304 2112 
Q 3559 1806 3559 1356 
Q 3559 666 3084 287 
Q 2609 -91 1734 -91 
Q 1441 -91 1130 -33 
Q 819 25 488 141 
L 488 750 
Q 750 597 1062 519 
Q 1375 441 1716 441 
Q 2309 441 2620 675 
Q 2931 909 2931 1356 
Q 2931 1769 2642 2001 
Q 2353 2234 1838 2234 
L 1294 2234 
L 1294 2753 
L 1863 2753 
Q 2328 2753 2575 2939 
Q 2822 3125 2822 3475 
Q 2822 3834 2567 4026 
Q 2313 4219 1838 4219 
Q 1578 4219 1281 4162 
Q 984 4106 628 3988 
L 628 4550 
Q 988 4650 1302 4700 
Q 1616 4750 1894 4750 
Q 2613 4750 3031 4423 
Q 3450 4097 3450 3541 
Q 3450 3153 3228 2886 
Q 3006 2619 2597 2516 
z
" transform="scale(0.015625)"/>
       </defs>
       <use xlink:href="#DejaVuSans-33"/>
       <use xlink:href="#DejaVuSans-30" transform="translate(63.623047 0)"/>
      </g>
     </g>
    </g>
    <g id="ytick_5">
     <g id="line2d_15">
      <path d="M 44.57 183.934932 
L 853.2 183.934932 
" clip-path="url(#p74f2e44b73)" style="fill: none; stroke: #b0b0b0; stroke-opacity: 0.25; stroke-width: 0.8; stroke-linecap: square"/>
     </g>
     <g id="line2d_16">
      <g>
       <use xlink:href="#m7784dd8f47" x="44.57" y="183.934932" style="stroke: #000000; stroke-width: 0.8"/>
      </g>
     </g>
     <g id="text_11">
      <!-- 40 -->
      <g transform="translate(24.845 187.734151) scale(0.1 -0.1)">
       <defs>
        <path id="DejaVuSans-34" d="M 2419 4116 
L 825 1625 
L 2419 1625 
L 2419 4116 
z
M 2253 4666 
L 3047 4666 
L 3047 1625 
L 3713 1625 
L 3713 1100 
L 3047 1100 
L 3047 0 
L 2419 0 
L 2419 1100 
L 313 1100 
L 313 1709 
L 2253 4666 
z
" transform="scale(0.015625)"/>
       </defs>
       <use xlink:href="#DejaVuSans-34"/>
       <use xlink:href="#DejaVuSans-30" transform="translate(63.623047 0)"/>
      </g>
     </g>
    </g>
    <g id="ytick_6">
     <g id="line2d_17">
      <path d="M 44.57 143.977703 
L 853.2 143.977703 
" clip-path="url(#p74f2e44b73)" style="fill: none; stroke: #b0b0b0; stroke-opacity: 0.25; stroke-width: 0.8; stroke-linecap: square"/>
     </g>
     <g id="line2d_18">
      <g>
       <use xlink:href="#m7784dd8f47" x="44.57" y="143.977703" style="stroke: #000000; stroke-width: 0.8"/>
      </g>
     </g>
     <g id="text_12">
      <!-- 50 -->
      <g transform="translate(24.845 147.776922) scale(0.1 -0.1)">
       <defs>
        <path id="DejaVuSans-35" d="M 691 4666 
L 3169 4666 
L 3169 4134 
L 1269 4134 
L 1269 2991 
Q 1406 3038 1543 3061 
Q 1681 3084 1819 3084 
Q 2600 3084 3056 2656 
Q 3513 2228 3513 1497 
Q 3513 744 3044 326 
Q 2575 -91 1722 -91 
Q 1428 -91 1123 -41 
Q 819 9 494 109 
L 494 744 
Q 775 591 1075 516 
Q 1375 441 1709 441 
Q 2250 441 2565 725 
Q 2881 1009 2881 1497 
Q 2881 1984 2565 2268 
Q 2250 2553 1709 2553 
Q 1456 2553 1204 2497 
Q 953 2441 691 2322 
L 691 4666 
z
" transform="scale(0.015625)"/>
       </defs>
       <use xlink:href="#DejaVuSans-35"/>
       <use xlink:href="#DejaVuSans-30" transform="translate(63.623047 0)"/>
      </g>
     </g>
    </g>
    <g id="ytick_7">
     <g id="line2d_19">
      <path d="M 44.57 104.020474 
L 853.2 104.020474 
" clip-path="url(#p74f2e44b73)" style="fill: none; stroke: #b0b0b0; stroke-opacity: 0.25; stroke-width: 0.8; stroke-linecap: square"/>
     </g>
     <g id="line2d_20">
      <g>
       <use xlink:href="#m7784dd8f47" x="44.57" y="104.020474" style="stroke: #000000; stroke-width: 0.8"/>
      </g>
     </g>
     <g id="text_13">
      <!-- 60 -->
      <g transform="translate(24.845 107.819693) scale(0.1 -0.1)">
       <defs>
        <path id="DejaVuSans-36" d="M 2113 2584 
Q 1688 2584 1439 2293 
Q 1191 2003 1191 1497 
Q 1191 994 1439 701 
Q 1688 409 2113 409 
Q 2538 409 2786 701 
Q 3034 994 3034 1497 
Q 3034 2003 2786 2293 
Q 2538 2584 2113 2584 
z
M 3366 4563 
L 3366 3988 
Q 3128 4100 2886 4159 
Q 2644 4219 2406 4219 
Q 1781 4219 1451 3797 
Q 1122 3375 1075 2522 
Q 1259 2794 1537 2939 
Q 1816 3084 2150 3084 
Q 2853 3084 3261 2657 
Q 3669 2231 3669 1497 
Q 3669 778 3244 343 
Q 2819 -91 2113 -91 
Q 1303 -91 875 529 
Q 447 1150 447 2328 
Q 447 3434 972 4092 
Q 1497 4750 2381 4750 
Q 2619 4750 2861 4703 
Q 3103 4656 3366 4563 
z
" transform="scale(0.015625)"/>
       </defs>
       <use xlink:href="#DejaVuSans-36"/>
       <use xlink:href="#DejaVuSans-30" transform="translate(63.623047 0)"/>
      </g>
     </g>
    </g>
    <g id="ytick_8">
     <g id="line2d_21">
      <path d="M 44.57 64.063245 
L 853.2 64.063245 
" clip-path="url(#p74f2e44b73)" style="fill: none; stroke: #b0b0b0; stroke-opacity: 0.25; stroke-width: 0.8; stroke-linecap: square"/>
     </g>
     <g id="line2d_22">
      <g>
       <use xlink:href="#m7784dd8f47" x="44.57" y="64.063245" style="stroke: #000000; stroke-width: 0.8"/>
      </g>
     </g>
     <g id="text_14">
      <!-- 70 -->
      <g transform="translate(24.845 67.862464) scale(0.1 -0.1)">
       <defs>
        <path id="DejaVuSans-37" d="M 525 4666 
L 3525 4666 
L 3525 4397 
L 1831 0 
L 1172 0 
L 2766 4134 
L 525 4134 
L 525 4666 
z
" transform="scale(0.015625)"/>
       </defs>
       <use xlink:href="#DejaVuSans-37"/>
       <use xlink:href="#DejaVuSans-30" transform="translate(63.623047 0)"/>
      </g>
     </g>
    </g>
    <g id="text_15">
     <!-- mean -->
     <g transform="translate(18.765313 199.501612) rotate(-90) scale(0.1 -0.1)">
      <defs>
       <path id="DejaVuSans-6d" d="M 3328 2828 
Q 3544 3216 3844 3400 
Q 4144 3584 4550 3584 
Q 5097 3584 5394 3201 
Q 5691 2819 5691 2113 
L 5691 0 
L 5113 0 
L 5113 2094 
Q 5113 2597 4934 2840 
Q 4756 3084 4391 3084 
Q 3944 3084 3684 2787 
Q 3425 2491 3425 1978 
L 3425 0 
L 2847 0 
L 2847 2094 
Q 2847 2600 2669 2842 
Q 2491 3084 2119 3084 
Q 1678 3084 1418 2786 
Q 1159 2488 1159 1978 
L 1159 0 
L 581 0 
L 581 3500 
L 1159 3500 
L 1159 2956 
Q 1356 3278 1631 3431 
Q 1906 3584 2284 3584 
Q 2666 3584 2933 3390 
Q 3200 3197 3328 2828 
z
" transform="scale(0.015625)"/>
      </defs>
      <use xlink:href="#DejaVuSans-6d"/>
      <use xlink:href="#DejaVuSans-65" transform="translate(97.412109 0)"/>
      <use xlink:href="#DejaVuSans-61" transform="translate(158.935547 0)"/>
      <use xlink:href="#DejaVuSans-6e" transform="translate(220.214844 0)"/>
     </g>
    </g>
   </g>
   <g id="patch_33">
    <path d="M 44.57 343.763848 
L 44.57 26.88 
" style="fill: none; stroke: #000000; stroke-width: 0.8; stroke-linejoin: miter; stroke-linecap: square"/>
   </g>
   <g id="patch_34">
    <path d="M 853.2 343.763848 
L 853.2 26.88 
" style="fill: none; stroke: #000000; stroke-width: 0.8; stroke-linejoin: miter; stroke-linecap: square"/>
   </g>
   <g id="patch_35">
    <path d="M 44.57 343.763848 
L 853.2 343.763848 
" style="fill: none; stroke: #000000; stroke-width: 0.8; stroke-linejoin: miter; stroke-linecap: square"/>
   </g>
   <g id="patch_36">
    <path d="M 44.57 26.88 
L 853.2 26.88 
" style="fill: none; stroke: #000000; stroke-width: 0.8; stroke-linejoin: miter; stroke-linecap: square"/>
   </g>
   <g id="text_16">
    <!-- Dataset split geometry -->
    <g transform="translate(379.876562 20.88) scale(0.12 -0.12)">
     <defs>
      <path id="DejaVuSans-44" d="M 1259 4147 
L 1259 519 
L 2022 519 
Q 2988 519 3436 956 
Q 3884 1394 3884 2338 
Q 3884 3275 3436 3711 
Q 2988 4147 2022 4147 
L 1259 4147 
z
M 628 4666 
L 1925 4666 
Q 3281 4666 3915 4102 
Q 4550 3538 4550 2338 
Q 4550 1131 3912 565 
Q 3275 0 1925 0 
L 628 0 
L 628 4666 
z
" transform="scale(0.015625)"/>
      <path id="DejaVuSans-20" transform="scale(0.015625)"/>
      <path id="DejaVuSans-67" d="M 2906 1791 
Q 2906 2416 2648 2759 
Q 2391 3103 1925 3103 
Q 1463 3103 1205 2759 
Q 947 2416 947 1791 
Q 947 1169 1205 825 
Q 1463 481 1925 481 
Q 2391 481 2648 825 
Q 2906 1169 2906 1791 
z
M 3481 434 
Q 3481 -459 3084 -895 
Q 2688 -1331 1869 -1331 
Q 1566 -1331 1297 -1286 
Q 1028 -1241 775 -1147 
L 775 -588 
Q 1028 -725 1275 -790 
Q 1522 -856 1778 -856 
Q 2344 -856 2625 -561 
Q 2906 -266 2906 331 
L 2906 616 
Q 2728 306 2450 153 
Q 2172 0 1784 0 
Q 1141 0 747 490 
Q 353 981 353 1791 
Q 353 2603 747 3093 
Q 1141 3584 1784 3584 
Q 2172 3584 2450 3431 
Q 2728 3278 2906 2969 
L 2906 3500 
L 3481 3500 
L 3481 434 
z
" transform="scale(0.015625)"/>
      <path id="DejaVuSans-79" d="M 2059 -325 
Q 1816 -950 1584 -1140 
Q 1353 -1331 966 -1331 
L 506 -1331 
L 506 -850 
L 844 -850 
Q 1081 -850 1212 -737 
Q 1344 -625 1503 -206 
L 1606 56 
L 191 3500 
L 800 3500 
L 1894 763 
L 2988 3500 
L 3597 3500 
L 2059 -325 
z
" transform="scale(0.015625)"/>
     </defs>
     <use xlink:href="#DejaVuSans-44"/>
     <use xlink:href="#DejaVuSans-61" transform="translate(77.001953 0)"/>
     <use xlink:href="#DejaVuSans-74" transform="translate(138.28125 0)"/>
     <use xlink:href="#DejaVuSans-61" transform="translate(177.490234 0)"/>
     <use xlink:href="#DejaVuSans-73" transform="translate(238.769531 0)"/>
     <use xlink:href="#DejaVuSans-65" transform="translate(290.869141 0)"/>
     <use xlink:href="#DejaVuSans-74" transform="translate(352.392578 0)"/>
     <use xlink:href="#DejaVuSans-20" transform="translate(391.601562 0)"/>
     <use xlink:href="#DejaVuSans-73" transform="translate(423.388672 0)"/>
     <use xlink:href="#DejaVuSans-70" transform="translate(475.488281 0)"/>
     <use xlink:href="#DejaVuSans-6c" transform="translate(538.964844 0)"/>
     <use xlink:href="#DejaVuSans-69" transform="translate(566.748047 0)"/>
     <use xlink:href="#DejaVuSans-74" transform="translate(594.53125 0)"/>
     <use xlink:href="#DejaVuSans-20" transform="translate(633.740234 0)"/>
     <use xlink:href="#DejaVuSans-67" transform="translate(665.527344 0)"/>
     <use xlink:href="#DejaVuSans-65" transform="translate(729.003906 0)"/>
     <use xlink:href="#DejaVuSans-6f" transform="translate(790.527344 0)"/>
     <use xlink:href="#DejaVuSans-6d" transform="translate(851.708984 0)"/>
     <use xlink:href="#DejaVuSans-65" transform="translate(949.121094 0)"/>
     <use xlink:href="#DejaVuSans-74" transform="translate(1010.644531 0)"/>
     <use xlink:href="#DejaVuSans-72" transform="translate(1049.853516 0)"/>
     <use xlink:href="#DejaVuSans-79" transform="translate(1090.966797 0)"/>
    </g>
   </g>
   <g id="legend_1">
    <g id="patch_37">
     <path d="M 51.57 79.74875 
L 288.084063 79.74875 
Q 290.084063 79.74875 290.084063 77.74875 
L 290.084063 33.88 
Q 290.084063 31.88 288.084063 31.88 
L 51.57 31.88 
Q 49.57 31.88 49.57 33.88 
L 49.57 77.74875 
Q 49.57 79.74875 51.57 79.74875 
z
" style="fill: #ffffff; opacity: 0.8; stroke: #cccccc; stroke-linejoin: miter"/>
    </g>
    <g id="patch_38">
     <path d="M 53.57 43.478437 
L 73.57 43.478437 
L 73.57 36.478437 
L 53.57 36.478437 
z
" style="fill: #1f77b4"/>
    </g>
    <g id="text_17">
     <!-- active_keys -->
     <g transform="translate(81.57 43.478437) scale(0.1 -0.1)">
      <defs>
       <path id="DejaVuSans-6b" d="M 581 4863 
L 1159 4863 
L 1159 1991 
L 2875 3500 
L 3609 3500 
L 1753 1863 
L 3688 0 
L 2938 0 
L 1159 1709 
L 1159 0 
L 581 0 
L 581 4863 
z
" transform="scale(0.015625)"/>
      </defs>
      <use xlink:href="#DejaVuSans-61"/>
      <use xlink:href="#DejaVuSans-63" transform="translate(61.279297 0)"/>
      <use xlink:href="#DejaVuSans-74" transform="translate(116.259766 0)"/>
      <use xlink:href="#DejaVuSans-69" transform="translate(155.46875 0)"/>
      <use xlink:href="#DejaVuSans-76" transform="translate(183.251953 0)"/>
      <use xlink:href="#DejaVuSans-65" transform="translate(242.431641 0)"/>
      <use xlink:href="#DejaVuSans-5f" transform="translate(303.955078 0)"/>
      <use xlink:href="#DejaVuSans-6b" transform="translate(353.955078 0)"/>
      <use xlink:href="#DejaVuSans-65" transform="translate(408.240234 0)"/>
      <use xlink:href="#DejaVuSans-79" transform="translate(469.763672 0)"/>
      <use xlink:href="#DejaVuSans-73" transform="translate(528.943359 0)"/>
     </g>
    </g>
    <g id="patch_39">
     <path d="M 53.57 58.434687 
L 73.57 58.434687 
L 73.57 51.434687 
L 53.57 51.434687 
z
" style="fill: #ff7f0e"/>
    </g>
    <g id="text_18">
     <!-- overwrite_count -->
     <g transform="translate(81.57 58.434687) scale(0.1 -0.1)">
      <defs>
       <path id="DejaVuSans-77" d="M 269 3500 
L 844 3500 
L 1563 769 
L 2278 3500 
L 2956 3500 
L 3675 769 
L 4391 3500 
L 4966 3500 
L 4050 0 
L 3372 0 
L 2619 2869 
L 1863 0 
L 1184 0 
L 269 3500 
z
" transform="scale(0.015625)"/>
      </defs>
      <use xlink:href="#DejaVuSans-6f"/>
      <use xlink:href="#DejaVuSans-76" transform="translate(61.181641 0)"/>
      <use xlink:href="#DejaVuSans-65" transform="translate(120.361328 0)"/>
      <use xlink:href="#DejaVuSans-72" transform="translate(181.884766 0)"/>
      <use xlink:href="#DejaVuSans-77" transform="translate(222.998047 0)"/>
      <use xlink:href="#DejaVuSans-72" transform="translate(304.785156 0)"/>
      <use xlink:href="#DejaVuSans-69" transform="translate(345.898438 0)"/>
      <use xlink:href="#DejaVuSans-74" transform="translate(373.681641 0)"/>
      <use xlink:href="#DejaVuSans-65" transform="translate(412.890625 0)"/>
      <use xlink:href="#DejaVuSans-5f" transform="translate(474.414062 0)"/>
      <use xlink:href="#DejaVuSans-63" transform="translate(524.414062 0)"/>
      <use xlink:href="#DejaVuSans-6f" transform="translate(579.394531 0)"/>
      <use xlink:href="#DejaVuSans-75" transform="translate(640.576172 0)"/>
      <use xlink:href="#DejaVuSans-6e" transform="translate(703.955078 0)"/>
      <use xlink:href="#DejaVuSans-74" transform="translate(767.333984 0)"/>
     </g>
    </g>
    <g id="patch_40">
     <path d="M 53.57 73.390938 
L 73.57 73.390938 
L 73.57 66.390938 
L 53.57 66.390938 
z
" style="fill: #2ca02c"/>
    </g>
    <g id="text_19">
     <!-- num_queries -->
     <g transform="translate(81.57 73.390938) scale(0.1 -0.1)">
      <defs>
       <path id="DejaVuSans-71" d="M 947 1747 
Q 947 1113 1208 752 
Q 1469 391 1925 391 
Q 2381 391 2643 752 
Q 2906 1113 2906 1747 
Q 2906 2381 2643 2742 
Q 2381 3103 1925 3103 
Q 1469 3103 1208 2742 
Q 947 2381 947 1747 
z
M 2906 525 
Q 2725 213 2448 61 
Q 2172 -91 1784 -91 
Q 1150 -91 751 415 
Q 353 922 353 1747 
Q 353 2572 751 3078 
Q 1150 3584 1784 3584 
Q 2172 3584 2448 3432 
Q 2725 3281 2906 2969 
L 2906 3500 
L 3481 3500 
L 3481 -1331 
L 2906 -1331 
L 2906 525 
z
" transform="scale(0.015625)"/>
      </defs>
      <use xlink:href="#DejaVuSans-6e"/>
      <use xlink:href="#DejaVuSans-75" transform="translate(63.378906 0)"/>
      <use xlink:href="#DejaVuSans-6d" transform="translate(126.757812 0)"/>
      <use xlink:href="#DejaVuSans-5f" transform="translate(224.169922 0)"/>
      <use xlink:href="#DejaVuSans-71" transform="translate(274.169922 0)"/>
      <use xlink:href="#DejaVuSans-75" transform="translate(337.646484 0)"/>
      <use xlink:href="#DejaVuSans-65" transform="translate(401.025391 0)"/>
      <use xlink:href="#DejaVuSans-72" transform="translate(462.548828 0)"/>
      <use xlink:href="#DejaVuSans-69" transform="translate(503.662109 0)"/>
      <use xlink:href="#DejaVuSans-65" transform="translate(531.445312 0)"/>
      <use xlink:href="#DejaVuSans-73" transform="translate(592.96875 0)"/>
     </g>
    </g>
    <g id="patch_41">
     <path d="M 182.224688 43.478437 
L 202.224688 43.478437 
L 202.224688 36.478437 
L 182.224688 36.478437 
z
" style="fill: #d62728"/>
    </g>
    <g id="text_20">
     <!-- total_writes -->
     <g transform="translate(210.224688 43.478437) scale(0.1 -0.1)">
      <use xlink:href="#DejaVuSans-74"/>
      <use xlink:href="#DejaVuSans-6f" transform="translate(39.208984 0)"/>
      <use xlink:href="#DejaVuSans-74" transform="translate(100.390625 0)"/>
      <use xlink:href="#DejaVuSans-61" transform="translate(139.599609 0)"/>
      <use xlink:href="#DejaVuSans-6c" transform="translate(200.878906 0)"/>
      <use xlink:href="#DejaVuSans-5f" transform="translate(228.662109 0)"/>
      <use xlink:href="#DejaVuSans-77" transform="translate(278.662109 0)"/>
      <use xlink:href="#DejaVuSans-72" transform="translate(360.449219 0)"/>
      <use xlink:href="#DejaVuSans-69" transform="translate(401.5625 0)"/>
      <use xlink:href="#DejaVuSans-74" transform="translate(429.345703 0)"/>
      <use xlink:href="#DejaVuSans-65" transform="translate(468.554688 0)"/>
      <use xlink:href="#DejaVuSans-73" transform="translate(530.078125 0)"/>
     </g>
    </g>
    <g id="patch_42">
     <path d="M 182.224688 58.434687 
L 202.224688 58.434687 
L 202.224688 51.434687 
L 182.224688 51.434687 
z
" style="fill: #9467bd"/>
    </g>
    <g id="text_21">
     <!-- context_tokens -->
     <g transform="translate(210.224688 58.434687) scale(0.1 -0.1)">
      <defs>
       <path id="DejaVuSans-78" d="M 3513 3500 
L 2247 1797 
L 3578 0 
L 2900 0 
L 1881 1375 
L 863 0 
L 184 0 
L 1544 1831 
L 300 3500 
L 978 3500 
L 1906 2253 
L 2834 3500 
L 3513 3500 
z
" transform="scale(0.015625)"/>
      </defs>
      <use xlink:href="#DejaVuSans-63"/>
      <use xlink:href="#DejaVuSans-6f" transform="translate(54.980469 0)"/>
      <use xlink:href="#DejaVuSans-6e" transform="translate(116.162109 0)"/>
      <use xlink:href="#DejaVuSans-74" transform="translate(179.541016 0)"/>
      <use xlink:href="#DejaVuSans-65" transform="translate(218.75 0)"/>
      <use xlink:href="#DejaVuSans-78" transform="translate(278.523438 0)"/>
      <use xlink:href="#DejaVuSans-74" transform="translate(337.703125 0)"/>
      <use xlink:href="#DejaVuSans-5f" transform="translate(376.912109 0)"/>
      <use xlink:href="#DejaVuSans-74" transform="translate(426.912109 0)"/>
      <use xlink:href="#DejaVuSans-6f" transform="translate(466.121094 0)"/>
      <use xlink:href="#DejaVuSans-6b" transform="translate(527.302734 0)"/>
      <use xlink:href="#DejaVuSans-65" transform="translate(581.587891 0)"/>
      <use xlink:href="#DejaVuSans-6e" transform="translate(643.111328 0)"/>
      <use xlink:href="#DejaVuSans-73" transform="translate(706.490234 0)"/>
     </g>
    </g>
   </g>
  </g>
 </g>
 <defs>
  <clipPath id="p74f2e44b73">
   <rect x="44.57" y="26.88" width="808.63" height="316.883848"/>
  </clipPath>
 </defs>
</svg>
