<?xml version="1.0" encoding="utf-8" standalone="no"?>
<!DOCTYPE svg PUBLIC "-//W3C//DTD SVG 1.1//EN"
  "http://www.w3.org/Graphics/SVG/1.1/DTD/svg11.dtd">
<svg xmlns:xlink="http://www.w3.org/1999/xlink" width="504pt" height="504pt" viewBox="0 0 504 504" xmlns="http://www.w3.org/2000/svg" version="1.1">
 <metadata>
  <rdf:RDF xmlns:dc="http://purl.org/dc/elements/1.1/" xmlns:cc="http://creativecommons.org/ns#" xmlns:rdf="http://www.w3.org/1999/02/22-rdf-syntax-ns#">
   <cc:Work>
    <dc:type rdf:resource="http://purl.org/dc/dcmitype/StillImage"/>
    <dc:date>2026-04-18T11:17:16.828626</dc:date>
    <dc:format>image/svg+xml</dc:format>
    <dc:creator>
     <cc:Agent>
      <dc:title>Matplotlib v3.10.1, https://matplotlib.org/</dc:title>
     </cc:Agent>
    </dc:creator>
   </cc:Work>
  </rdf:RDF>
 </metadata>
 <defs>
  <style type="text/css">*{stroke-linejoin: round; stroke-linecap: butt}</style>
 </defs>
 <g id="figure_1">
  <g id="patch_1">
   <path d="M 0 504 
L 504 504 
L 504 0 
L 0 0 
z
" style="fill: #ffffff"/>
  </g>
  <g id="axes_1">
   <g id="patch_2">
    <path d="M 68.6 462.04 
L 493.2 462.04 
L 493.2 26.88 
L 68.6 26.88 
z
" style="fill: #ffffff"/>
   </g>
   <g id="PathCollection_1">
    <defs>
     <path id="m6a8ea04d98" d="M 0 3 
C 0.795609 3 1.55874 2.683901 2.12132 2.12132 
C 2.683901 1.55874 3 0.795609 3 0 
C 3 -0.795609 2.683901 -1.55874 2.12132 -2.12132 
C 1.55874 -2.683901 0.795609 -3 0 -3 
C -0.795609 -3 -1.55874 -2.683901 -2.12132 -2.12132 
C -2.683901 -1.55874 -3 -0.795609 -3 0 
C -3 0.795609 -2.683901 1.55874 -2.12132 2.12132 
C -1.55874 2.683901 -0.795609 3 0 3 
z
" style="stroke: #376f8f"/>
    </defs>
    <g clip-path="url(#p4c454977bb)">
     <use xlink:href="#m6a8ea04d98" x="286.042621" y="240.124653" style="fill: #376f8f; stroke: #376f8f"/>
     <use xlink:href="#m6a8ea04d98" x="307.001842" y="218.185237" style="fill: #376f8f; stroke: #376f8f"/>
     <use xlink:href="#m6a8ea04d98" x="243.909165" y="282.853141" style="fill: #376f8f; stroke: #376f8f"/>
     <use xlink:href="#m6a8ea04d98" x="351.153611" y="173.022033" style="fill: #376f8f; stroke: #376f8f"/>
     <use xlink:href="#m6a8ea04d98" x="348.791623" y="175.47482" style="fill: #376f8f; stroke: #376f8f"/>
     <use xlink:href="#m6a8ea04d98" x="267.230374" y="258.449288" style="fill: #376f8f; stroke: #376f8f"/>
     <use xlink:href="#m6a8ea04d98" x="434.437533" y="87.228749" style="fill: #376f8f; stroke: #376f8f"/>
     <use xlink:href="#m6a8ea04d98" x="394.002605" y="128.732285" style="fill: #376f8f; stroke: #376f8f"/>
     <use xlink:href="#m6a8ea04d98" x="305.303314" y="219.458506" style="fill: #376f8f; stroke: #376f8f"/>
     <use xlink:href="#m6a8ea04d98" x="455.245478" y="65.423852" style="fill: #376f8f; stroke: #376f8f"/>
     <use xlink:href="#m6a8ea04d98" x="399.497938" y="122.790233" style="fill: #376f8f; stroke: #376f8f"/>
     <use xlink:href="#m6a8ea04d98" x="320.615926" y="203.63171" style="fill: #376f8f; stroke: #376f8f"/>
     <use xlink:href="#m6a8ea04d98" x="416.048256" y="105.75698" style="fill: #376f8f; stroke: #376f8f"/>
     <use xlink:href="#m6a8ea04d98" x="355.986901" y="167.441425" style="fill: #376f8f; stroke: #376f8f"/>
     <use xlink:href="#m6a8ea04d98" x="324.929741" y="199.258407" style="fill: #376f8f; stroke: #376f8f"/>
     <use xlink:href="#m6a8ea04d98" x="409.060622" y="113.294635" style="fill: #376f8f; stroke: #376f8f"/>
     <use xlink:href="#m6a8ea04d98" x="350.437911" y="173.728921" style="fill: #376f8f; stroke: #376f8f"/>
     <use xlink:href="#m6a8ea04d98" x="323.491098" y="200.544697" style="fill: #376f8f; stroke: #376f8f"/>
     <use xlink:href="#m6a8ea04d98" x="443.682777" y="77.678176" style="fill: #376f8f; stroke: #376f8f"/>
     <use xlink:href="#m6a8ea04d98" x="378.460052" y="144.865971" style="fill: #376f8f; stroke: #376f8f"/>
     <use xlink:href="#m6a8ea04d98" x="330.091112" y="193.800276" style="fill: #376f8f; stroke: #376f8f"/>
     <use xlink:href="#m6a8ea04d98" x="417.4697" y="104.299787" style="fill: #376f8f; stroke: #376f8f"/>
     <use xlink:href="#m6a8ea04d98" x="365.562569" y="157.911877" style="fill: #376f8f; stroke: #376f8f"/>
     <use xlink:href="#m6a8ea04d98" x="316.775517" y="207.359796" style="fill: #376f8f; stroke: #376f8f"/>
     <use xlink:href="#m6a8ea04d98" x="451.073388" y="70.126221" style="fill: #376f8f; stroke: #376f8f"/>
     <use xlink:href="#m6a8ea04d98" x="388.002428" y="135.052152" style="fill: #376f8f; stroke: #376f8f"/>
     <use xlink:href="#m6a8ea04d98" x="327.939346" y="196.130426" style="fill: #376f8f; stroke: #376f8f"/>
     <use xlink:href="#m6a8ea04d98" x="367.357465" y="155.70921" style="fill: #376f8f; stroke: #376f8f"/>
     <use xlink:href="#m6a8ea04d98" x="338.45745" y="185.730944" style="fill: #376f8f; stroke: #376f8f"/>
     <use xlink:href="#m6a8ea04d98" x="293.768402" y="230.995833" style="fill: #376f8f; stroke: #376f8f"/>
     <use xlink:href="#m6a8ea04d98" x="308.490733" y="216.889201" style="fill: #376f8f; stroke: #376f8f"/>
     <use xlink:href="#m6a8ea04d98" x="311.725957" y="213.715438" style="fill: #376f8f; stroke: #376f8f"/>
     <use xlink:href="#m6a8ea04d98" x="261.633161" y="264.119391" style="fill: #376f8f; stroke: #376f8f"/>
     <use xlink:href="#m6a8ea04d98" x="232.521124" y="295.410353" style="fill: #376f8f; stroke: #376f8f"/>
     <use xlink:href="#m6a8ea04d98" x="260.930574" y="266.311388" style="fill: #376f8f; stroke: #376f8f"/>
     <use xlink:href="#m6a8ea04d98" x="236.458937" y="290.034829" style="fill: #376f8f; stroke: #376f8f"/>
     <use xlink:href="#m6a8ea04d98" x="284.168807" y="242.086248" style="fill: #376f8f; stroke: #376f8f"/>
     <use xlink:href="#m6a8ea04d98" x="295.097438" y="231.222294" style="fill: #376f8f; stroke: #376f8f"/>
     <use xlink:href="#m6a8ea04d98" x="253.939756" y="271.815707" style="fill: #376f8f; stroke: #376f8f"/>
     <use xlink:href="#m6a8ea04d98" x="258.15663" y="267.893102" style="fill: #376f8f; stroke: #376f8f"/>
     <use xlink:href="#m6a8ea04d98" x="273.5986" y="252.341113" style="fill: #376f8f; stroke: #376f8f"/>
     <use xlink:href="#m6a8ea04d98" x="249.426416" y="276.466268" style="fill: #376f8f; stroke: #376f8f"/>
     <use xlink:href="#m6a8ea04d98" x="194.60004" y="332.607042" style="fill: #376f8f; stroke: #376f8f"/>
     <use xlink:href="#m6a8ea04d98" x="230.535169" y="295.833355" style="fill: #376f8f; stroke: #376f8f"/>
     <use xlink:href="#m6a8ea04d98" x="228.933257" y="297.648947" style="fill: #376f8f; stroke: #376f8f"/>
     <use xlink:href="#m6a8ea04d98" x="151.428608" y="376.267964" style="fill: #376f8f; stroke: #376f8f"/>
     <use xlink:href="#m6a8ea04d98" x="206.238298" y="320.004098" style="fill: #376f8f; stroke: #376f8f"/>
     <use xlink:href="#m6a8ea04d98" x="210.058697" y="317.133812" style="fill: #376f8f; stroke: #376f8f"/>
     <use xlink:href="#m6a8ea04d98" x="229.364854" y="296.137987" style="fill: #376f8f; stroke: #376f8f"/>
     <use xlink:href="#m6a8ea04d98" x="260.606092" y="263.893133" style="fill: #376f8f; stroke: #376f8f"/>
     <use xlink:href="#m6a8ea04d98" x="233.627148" y="293.116765" style="fill: #376f8f; stroke: #376f8f"/>
     <use xlink:href="#m6a8ea04d98" x="180.40131" y="346.954992" style="fill: #376f8f; stroke: #376f8f"/>
     <use xlink:href="#m6a8ea04d98" x="231.012908" y="294.787477" style="fill: #376f8f; stroke: #376f8f"/>
     <use xlink:href="#m6a8ea04d98" x="214.256788" y="313.060181" style="fill: #376f8f; stroke: #376f8f"/>
     <use xlink:href="#m6a8ea04d98" x="175.699156" y="352.703543" style="fill: #376f8f; stroke: #376f8f"/>
     <use xlink:href="#m6a8ea04d98" x="234.838819" y="291.885287" style="fill: #376f8f; stroke: #376f8f"/>
     <use xlink:href="#m6a8ea04d98" x="205.728724" y="321.711664" style="fill: #376f8f; stroke: #376f8f"/>
     <use xlink:href="#m6a8ea04d98" x="88.495343" y="442.26" style="fill: #376f8f; stroke: #376f8f"/>
     <use xlink:href="#m6a8ea04d98" x="174.341598" y="353.998093" style="fill: #376f8f; stroke: #376f8f"/>
     <use xlink:href="#m6a8ea04d98" x="179.022131" y="349.176219" style="fill: #376f8f; stroke: #376f8f"/>
     <use xlink:href="#m6a8ea04d98" x="146.232308" y="383.66633" style="fill: #376f8f; stroke: #376f8f"/>
     <use xlink:href="#m6a8ea04d98" x="194.230763" y="333.822663" style="fill: #376f8f; stroke: #376f8f"/>
     <use xlink:href="#m6a8ea04d98" x="216.869931" y="310.754676" style="fill: #376f8f; stroke: #376f8f"/>
     <use xlink:href="#m6a8ea04d98" x="223.691006" y="304.095706" style="fill: #376f8f; stroke: #376f8f"/>
     <use xlink:href="#m6a8ea04d98" x="240.042131" y="286.781044" style="fill: #376f8f; stroke: #376f8f"/>
     <use xlink:href="#m6a8ea04d98" x="248.517261" y="278.19506" style="fill: #376f8f; stroke: #376f8f"/>
     <use xlink:href="#m6a8ea04d98" x="203.393264" y="324.25561" style="fill: #376f8f; stroke: #376f8f"/>
     <use xlink:href="#m6a8ea04d98" x="235.474939" y="290.849876" style="fill: #376f8f; stroke: #376f8f"/>
     <use xlink:href="#m6a8ea04d98" x="232.786711" y="294.296845" style="fill: #376f8f; stroke: #376f8f"/>
     <use xlink:href="#m6a8ea04d98" x="234.930172" y="292.232349" style="fill: #376f8f; stroke: #376f8f"/>
     <use xlink:href="#m6a8ea04d98" x="254.489945" y="271.54753" style="fill: #376f8f; stroke: #376f8f"/>
     <use xlink:href="#m6a8ea04d98" x="245.308613" y="281.577339" style="fill: #376f8f; stroke: #376f8f"/>
     <use xlink:href="#m6a8ea04d98" x="178.503835" y="350.440504" style="fill: #376f8f; stroke: #376f8f"/>
     <use xlink:href="#m6a8ea04d98" x="218.300384" y="309.171439" style="fill: #376f8f; stroke: #376f8f"/>
     <use xlink:href="#m6a8ea04d98" x="225.071838" y="302.189773" style="fill: #376f8f; stroke: #376f8f"/>
     <use xlink:href="#m6a8ea04d98" x="181.03099" y="348.09666" style="fill: #376f8f; stroke: #376f8f"/>
     <use xlink:href="#m6a8ea04d98" x="211.341104" y="316.336893" style="fill: #376f8f; stroke: #376f8f"/>
     <use xlink:href="#m6a8ea04d98" x="234.558272" y="292.650632" style="fill: #376f8f; stroke: #376f8f"/>
     <use xlink:href="#m6a8ea04d98" x="219.646388" y="309.198481" style="fill: #376f8f; stroke: #376f8f"/>
     <use xlink:href="#m6a8ea04d98" x="230.396766" y="297.474296" style="fill: #376f8f; stroke: #376f8f"/>
     <use xlink:href="#m6a8ea04d98" x="254.118008" y="272.602655" style="fill: #376f8f; stroke: #376f8f"/>
     <use xlink:href="#m6a8ea04d98" x="205.465875" y="323.964149" style="fill: #376f8f; stroke: #376f8f"/>
     <use xlink:href="#m6a8ea04d98" x="223.764066" y="304.481383" style="fill: #376f8f; stroke: #376f8f"/>
     <use xlink:href="#m6a8ea04d98" x="246.570194" y="280.377315" style="fill: #376f8f; stroke: #376f8f"/>
     <use xlink:href="#m6a8ea04d98" x="214.273278" y="314.58032" style="fill: #376f8f; stroke: #376f8f"/>
     <use xlink:href="#m6a8ea04d98" x="228.536978" y="299.496039" style="fill: #376f8f; stroke: #376f8f"/>
     <use xlink:href="#m6a8ea04d98" x="250.604685" y="275.982417" style="fill: #376f8f; stroke: #376f8f"/>
     <use xlink:href="#m6a8ea04d98" x="251.801306" y="274.761101" style="fill: #376f8f; stroke: #376f8f"/>
     <use xlink:href="#m6a8ea04d98" x="253.689818" y="272.633793" style="fill: #376f8f; stroke: #376f8f"/>
     <use xlink:href="#m6a8ea04d98" x="262.979875" y="263.018508" style="fill: #376f8f; stroke: #376f8f"/>
     <use xlink:href="#m6a8ea04d98" x="309.383049" y="215.376265" style="fill: #376f8f; stroke: #376f8f"/>
     <use xlink:href="#m6a8ea04d98" x="284.677148" y="240.442997" style="fill: #376f8f; stroke: #376f8f"/>
     <use xlink:href="#m6a8ea04d98" x="289.574287" y="235.830348" style="fill: #376f8f; stroke: #376f8f"/>
     <use xlink:href="#m6a8ea04d98" x="330.126763" y="193.419946" style="fill: #376f8f; stroke: #376f8f"/>
     <use xlink:href="#m6a8ea04d98" x="292.358914" y="232.128698" style="fill: #376f8f; stroke: #376f8f"/>
     <use xlink:href="#m6a8ea04d98" x="302.636235" y="222.169277" style="fill: #376f8f; stroke: #376f8f"/>
     <use xlink:href="#m6a8ea04d98" x="264.608172" y="260.533979" style="fill: #376f8f; stroke: #376f8f"/>
     <use xlink:href="#m6a8ea04d98" x="259.422256" y="265.930423" style="fill: #376f8f; stroke: #376f8f"/>
     <use xlink:href="#m6a8ea04d98" x="270.054301" y="255.468371" style="fill: #376f8f; stroke: #376f8f"/>
     <use xlink:href="#m6a8ea04d98" x="280.888132" y="243.940513" style="fill: #376f8f; stroke: #376f8f"/>
     <use xlink:href="#m6a8ea04d98" x="267.270969" y="258.121894" style="fill: #376f8f; stroke: #376f8f"/>
     <use xlink:href="#m6a8ea04d98" x="278.485549" y="246.664278" style="fill: #376f8f; stroke: #376f8f"/>
     <use xlink:href="#m6a8ea04d98" x="359.004462" y="164.990867" style="fill: #376f8f; stroke: #376f8f"/>
     <use xlink:href="#m6a8ea04d98" x="323.983634" y="200.906282" style="fill: #376f8f; stroke: #376f8f"/>
     <use xlink:href="#m6a8ea04d98" x="299.889215" y="224.961171" style="fill: #376f8f; stroke: #376f8f"/>
     <use xlink:href="#m6a8ea04d98" x="436.912549" y="85.627982" style="fill: #376f8f; stroke: #376f8f"/>
     <use xlink:href="#m6a8ea04d98" x="371.743833" y="152.453972" style="fill: #376f8f; stroke: #376f8f"/>
     <use xlink:href="#m6a8ea04d98" x="330.037103" y="194.068744" style="fill: #376f8f; stroke: #376f8f"/>
     <use xlink:href="#m6a8ea04d98" x="473.9" y="47.433227" style="fill: #376f8f; stroke: #376f8f"/>
     <use xlink:href="#m6a8ea04d98" x="394.067111" y="129.517061" style="fill: #376f8f; stroke: #376f8f"/>
     <use xlink:href="#m6a8ea04d98" x="344.701275" y="178.835399" style="fill: #376f8f; stroke: #376f8f"/>
     <use xlink:href="#m6a8ea04d98" x="423.361998" y="98.790234" style="fill: #376f8f; stroke: #376f8f"/>
     <use xlink:href="#m6a8ea04d98" x="368.321065" y="155.53401" style="fill: #376f8f; stroke: #376f8f"/>
     <use xlink:href="#m6a8ea04d98" x="319.909319" y="204.192067" style="fill: #376f8f; stroke: #376f8f"/>
     <use xlink:href="#m6a8ea04d98" x="426.508951" y="95.818148" style="fill: #376f8f; stroke: #376f8f"/>
     <use xlink:href="#m6a8ea04d98" x="373.862414" y="149.843726" style="fill: #376f8f; stroke: #376f8f"/>
     <use xlink:href="#m6a8ea04d98" x="317.514923" y="206.919805" style="fill: #376f8f; stroke: #376f8f"/>
     <use xlink:href="#m6a8ea04d98" x="440.382162" y="81.784368" style="fill: #376f8f; stroke: #376f8f"/>
     <use xlink:href="#m6a8ea04d98" x="379.7929" y="143.879926" style="fill: #376f8f; stroke: #376f8f"/>
     <use xlink:href="#m6a8ea04d98" x="325.457648" y="198.865195" style="fill: #376f8f; stroke: #376f8f"/>
     <use xlink:href="#m6a8ea04d98" x="422.593683" y="100.368272" style="fill: #376f8f; stroke: #376f8f"/>
     <use xlink:href="#m6a8ea04d98" x="368.15588" y="155.976737" style="fill: #376f8f; stroke: #376f8f"/>
     <use xlink:href="#m6a8ea04d98" x="319.306188" y="205.343314" style="fill: #376f8f; stroke: #376f8f"/>
     <use xlink:href="#m6a8ea04d98" x="378.659838" y="145.939436" style="fill: #376f8f; stroke: #376f8f"/>
     <use xlink:href="#m6a8ea04d98" x="342.092595" y="182.973602" style="fill: #376f8f; stroke: #376f8f"/>
     <use xlink:href="#m6a8ea04d98" x="301.435628" y="223.900163" style="fill: #376f8f; stroke: #376f8f"/>
     <use xlink:href="#m6a8ea04d98" x="316.647631" y="209.440388" style="fill: #376f8f; stroke: #376f8f"/>
     <use xlink:href="#m6a8ea04d98" x="296.332727" y="229.730996" style="fill: #376f8f; stroke: #376f8f"/>
     <use xlink:href="#m6a8ea04d98" x="285.183289" y="240.637037" style="fill: #376f8f; stroke: #376f8f"/>
     <use xlink:href="#m6a8ea04d98" x="338.906755" y="186.0992" style="fill: #376f8f; stroke: #376f8f"/>
     <use xlink:href="#m6a8ea04d98" x="318.65705" y="206.51958" style="fill: #376f8f; stroke: #376f8f"/>
     <use xlink:href="#m6a8ea04d98" x="285.118091" y="240.476631" style="fill: #376f8f; stroke: #376f8f"/>
     <use xlink:href="#m6a8ea04d98" x="329.413881" y="196.303369" style="fill: #376f8f; stroke: #376f8f"/>
     <use xlink:href="#m6a8ea04d98" x="310.105133" y="215.572068" style="fill: #376f8f; stroke: #376f8f"/>
     <use xlink:href="#m6a8ea04d98" x="284.177135" y="241.621286" style="fill: #376f8f; stroke: #376f8f"/>
     <use xlink:href="#m6a8ea04d98" x="256.220329" y="270.77567" style="fill: #376f8f; stroke: #376f8f"/>
     <use xlink:href="#m6a8ea04d98" x="264.662367" y="261.607814" style="fill: #376f8f; stroke: #376f8f"/>
     <use xlink:href="#m6a8ea04d98" x="256.426348" y="270.043417" style="fill: #376f8f; stroke: #376f8f"/>
     <use xlink:href="#m6a8ea04d98" x="226.55329" y="300.523387" style="fill: #376f8f; stroke: #376f8f"/>
     <use xlink:href="#m6a8ea04d98" x="240.485064" y="285.829943" style="fill: #376f8f; stroke: #376f8f"/>
     <use xlink:href="#m6a8ea04d98" x="250.936611" y="275.606739" style="fill: #376f8f; stroke: #376f8f"/>
     <use xlink:href="#m6a8ea04d98" x="244.669457" y="281.515243" style="fill: #376f8f; stroke: #376f8f"/>
     <use xlink:href="#m6a8ea04d98" x="253.095383" y="272.536657" style="fill: #376f8f; stroke: #376f8f"/>
     <use xlink:href="#m6a8ea04d98" x="256.442461" y="269.884507" style="fill: #376f8f; stroke: #376f8f"/>
     <use xlink:href="#m6a8ea04d98" x="274.075635" y="251.062157" style="fill: #376f8f; stroke: #376f8f"/>
     <use xlink:href="#m6a8ea04d98" x="275.848285" y="249.059471" style="fill: #376f8f; stroke: #376f8f"/>
     <use xlink:href="#m6a8ea04d98" x="263.095736" y="262.90003" style="fill: #376f8f; stroke: #376f8f"/>
     <use xlink:href="#m6a8ea04d98" x="330.361326" y="194.491372" style="fill: #376f8f; stroke: #376f8f"/>
     <use xlink:href="#m6a8ea04d98" x="312.966565" y="211.938904" style="fill: #376f8f; stroke: #376f8f"/>
     <use xlink:href="#m6a8ea04d98" x="282.263148" y="243.444415" style="fill: #376f8f; stroke: #376f8f"/>
    </g>
   </g>
   <g id="matplotlib.axis_1">
    <g id="xtick_1">
     <g id="line2d_1">
      <path d="M 107.739683 462.04 
L 107.739683 26.88 
" clip-path="url(#p4c454977bb)" style="fill: none; stroke: #b0b0b0; stroke-opacity: 0.25; stroke-width: 0.8; stroke-linecap: square"/>
     </g>
     <g id="line2d_2">
      <defs>
       <path id="m3a878daad4" d="M 0 0 
L 0 3.5 
" style="stroke: #000000; stroke-width: 0.8"/>
      </defs>
      <g>
       <use xlink:href="#m3a878daad4" x="107.739683" y="462.04" style="stroke: #000000; stroke-width: 0.8"/>
      </g>
     </g>
     <g id="text_1">
      <!-- −0.004 -->
      <g transform="translate(89.235777 476.638438) scale(0.1 -0.1)">
       <defs>
        <path id="DejaVuSans-2212" d="M 678 2272 
L 4684 2272 
L 4684 1741 
L 678 1741 
L 678 2272 
z
" transform="scale(0.015625)"/>
        <path id="DejaVuSans-30" d="M 2034 4250 
Q 1547 4250 1301 3770 
Q 1056 3291 1056 2328 
Q 1056 1369 1301 889 
Q 1547 409 2034 409 
Q 2525 409 2770 889 
Q 3016 1369 3016 2328 
Q 3016 3291 2770 3770 
Q 2525 4250 2034 4250 
z
M 2034 4750 
Q 2819 4750 3233 4129 
Q 3647 3509 3647 2328 
Q 3647 1150 3233 529 
Q 2819 -91 2034 -91 
Q 1250 -91 836 529 
Q 422 1150 422 2328 
Q 422 3509 836 4129 
Q 1250 4750 2034 4750 
z
" transform="scale(0.015625)"/>
        <path id="DejaVuSans-2e" d="M 684 794 
L 1344 794 
L 1344 0 
L 684 0 
L 684 794 
z
" transform="scale(0.015625)"/>
        <path id="DejaVuSans-34" d="M 2419 4116 
L 825 1625 
L 2419 1625 
L 2419 4116 
z
M 2253 4666 
L 3047 4666 
L 3047 1625 
L 3713 1625 
L 3713 1100 
L 3047 1100 
L 3047 0 
L 2419 0 
L 2419 1100 
L 313 1100 
L 313 1709 
L 2253 4666 
z
" transform="scale(0.015625)"/>
       </defs>
       <use xlink:href="#DejaVuSans-2212"/>
       <use xlink:href="#DejaVuSans-30" transform="translate(83.789062 0)"/>
       <use xlink:href="#DejaVuSans-2e" transform="translate(147.412109 0)"/>
       <use xlink:href="#DejaVuSans-30" transform="translate(179.199219 0)"/>
       <use xlink:href="#DejaVuSans-30" transform="translate(242.822266 0)"/>
       <use xlink:href="#DejaVuSans-34" transform="translate(306.445312 0)"/>
      </g>
     </g>
    </g>
    <g id="xtick_2">
     <g id="line2d_3">
      <path d="M 186.304035 462.04 
L 186.304035 26.88 
" clip-path="url(#p4c454977bb)" style="fill: none; stroke: #b0b0b0; stroke-opacity: 0.25; stroke-width: 0.8; stroke-linecap: square"/>
     </g>
     <g id="line2d_4">
      <g>
       <use xlink:href="#m3a878daad4" x="186.304035" y="462.04" style="stroke: #000000; stroke-width: 0.8"/>
      </g>
     </g>
     <g id="text_2">
      <!-- −0.002 -->
      <g transform="translate(167.800128 476.638438) scale(0.1 -0.1)">
       <defs>
        <path id="DejaVuSans-32" d="M 1228 531 
L 3431 531 
L 3431 0 
L 469 0 
L 469 531 
Q 828 903 1448 1529 
Q 2069 2156 2228 2338 
Q 2531 2678 2651 2914 
Q 2772 3150 2772 3378 
Q 2772 3750 2511 3984 
Q 2250 4219 1831 4219 
Q 1534 4219 1204 4116 
Q 875 4013 500 3803 
L 500 4441 
Q 881 4594 1212 4672 
Q 1544 4750 1819 4750 
Q 2544 4750 2975 4387 
Q 3406 4025 3406 3419 
Q 3406 3131 3298 2873 
Q 3191 2616 2906 2266 
Q 2828 2175 2409 1742 
Q 1991 1309 1228 531 
z
" transform="scale(0.015625)"/>
       </defs>
       <use xlink:href="#DejaVuSans-2212"/>
       <use xlink:href="#DejaVuSans-30" transform="translate(83.789062 0)"/>
       <use xlink:href="#DejaVuSans-2e" transform="translate(147.412109 0)"/>
       <use xlink:href="#DejaVuSans-30" transform="translate(179.199219 0)"/>
       <use xlink:href="#DejaVuSans-30" transform="translate(242.822266 0)"/>
       <use xlink:href="#DejaVuSans-32" transform="translate(306.445312 0)"/>
      </g>
     </g>
    </g>
    <g id="xtick_3">
     <g id="line2d_5">
      <path d="M 264.868386 462.04 
L 264.868386 26.88 
" clip-path="url(#p4c454977bb)" style="fill: none; stroke: #b0b0b0; stroke-opacity: 0.25; stroke-width: 0.8; stroke-linecap: square"/>
     </g>
     <g id="line2d_6">
      <g>
       <use xlink:href="#m3a878daad4" x="264.868386" y="462.04" style="stroke: #000000; stroke-width: 0.8"/>
      </g>
     </g>
     <g id="text_3">
      <!-- 0.000 -->
      <g transform="translate(250.554324 476.638438) scale(0.1 -0.1)">
       <use xlink:href="#DejaVuSans-30"/>
       <use xlink:href="#DejaVuSans-2e" transform="translate(63.623047 0)"/>
       <use xlink:href="#DejaVuSans-30" transform="translate(95.410156 0)"/>
       <use xlink:href="#DejaVuSans-30" transform="translate(159.033203 0)"/>
       <use xlink:href="#DejaVuSans-30" transform="translate(222.65625 0)"/>
      </g>
     </g>
    </g>
    <g id="xtick_4">
     <g id="line2d_7">
      <path d="M 343.432738 462.04 
L 343.432738 26.88 
" clip-path="url(#p4c454977bb)" style="fill: none; stroke: #b0b0b0; stroke-opacity: 0.25; stroke-width: 0.8; stroke-linecap: square"/>
     </g>
     <g id="line2d_8">
      <g>
       <use xlink:href="#m3a878daad4" x="343.432738" y="462.04" style="stroke: #000000; stroke-width: 0.8"/>
      </g>
     </g>
     <g id="text_4">
      <!-- 0.002 -->
      <g transform="translate(329.118675 476.638438) scale(0.1 -0.1)">
       <use xlink:href="#DejaVuSans-30"/>
       <use xlink:href="#DejaVuSans-2e" transform="translate(63.623047 0)"/>
       <use xlink:href="#DejaVuSans-30" transform="translate(95.410156 0)"/>
       <use xlink:href="#DejaVuSans-30" transform="translate(159.033203 0)"/>
       <use xlink:href="#DejaVuSans-32" transform="translate(222.65625 0)"/>
      </g>
     </g>
    </g>
    <g id="xtick_5">
     <g id="line2d_9">
      <path d="M 421.997089 462.04 
L 421.997089 26.88 
" clip-path="url(#p4c454977bb)" style="fill: none; stroke: #b0b0b0; stroke-opacity: 0.25; stroke-width: 0.8; stroke-linecap: square"/>
     </g>
     <g id="line2d_10">
      <g>
       <use xlink:href="#m3a878daad4" x="421.997089" y="462.04" style="stroke: #000000; stroke-width: 0.8"/>
      </g>
     </g>
     <g id="text_5">
      <!-- 0.004 -->
      <g transform="translate(407.683027 476.638438) scale(0.1 -0.1)">
       <use xlink:href="#DejaVuSans-30"/>
       <use xlink:href="#DejaVuSans-2e" transform="translate(63.623047 0)"/>
       <use xlink:href="#DejaVuSans-30" transform="translate(95.410156 0)"/>
       <use xlink:href="#DejaVuSans-30" transform="translate(159.033203 0)"/>
       <use xlink:href="#DejaVuSans-34" transform="translate(222.65625 0)"/>
      </g>
     </g>
    </g>
    <g id="text_6">
     <!-- grad(score component) . Delta theta -->
     <g transform="translate(189.296094 490.316563) scale(0.1 -0.1)">
      <defs>
       <path id="DejaVuSans-67" d="M 2906 1791 
Q 2906 2416 2648 2759 
Q 2391 3103 1925 3103 
Q 1463 3103 1205 2759 
Q 947 2416 947 1791 
Q 947 1169 1205 825 
Q 1463 481 1925 481 
Q 2391 481 2648 825 
Q 2906 1169 2906 1791 
z
M 3481 434 
Q 3481 -459 3084 -895 
Q 2688 -1331 1869 -1331 
Q 1566 -1331 1297 -1286 
Q 1028 -1241 775 -1147 
L 775 -588 
Q 1028 -725 1275 -790 
Q 1522 -856 1778 -856 
Q 2344 -856 2625 -561 
Q 2906 -266 2906 331 
L 2906 616 
Q 2728 306 2450 153 
Q 2172 0 1784 0 
Q 1141 0 747 490 
Q 353 981 353 1791 
Q 353 2603 747 3093 
Q 1141 3584 1784 3584 
Q 2172 3584 2450 3431 
Q 2728 3278 2906 2969 
L 2906 3500 
L 3481 3500 
L 3481 434 
z
" transform="scale(0.015625)"/>
       <path id="DejaVuSans-72" d="M 2631 2963 
Q 2534 3019 2420 3045 
Q 2306 3072 2169 3072 
Q 1681 3072 1420 2755 
Q 1159 2438 1159 1844 
L 1159 0 
L 581 0 
L 581 3500 
L 1159 3500 
L 1159 2956 
Q 1341 3275 1631 3429 
Q 1922 3584 2338 3584 
Q 2397 3584 2469 3576 
Q 2541 3569 2628 3553 
L 2631 2963 
z
" transform="scale(0.015625)"/>
       <path id="DejaVuSans-61" d="M 2194 1759 
Q 1497 1759 1228 1600 
Q 959 1441 959 1056 
Q 959 750 1161 570 
Q 1363 391 1709 391 
Q 2188 391 2477 730 
Q 2766 1069 2766 1631 
L 2766 1759 
L 2194 1759 
z
M 3341 1997 
L 3341 0 
L 2766 0 
L 2766 531 
Q 2569 213 2275 61 
Q 1981 -91 1556 -91 
Q 1019 -91 701 211 
Q 384 513 384 1019 
Q 384 1609 779 1909 
Q 1175 2209 1959 2209 
L 2766 2209 
L 2766 2266 
Q 2766 2663 2505 2880 
Q 2244 3097 1772 3097 
Q 1472 3097 1187 3025 
Q 903 2953 641 2809 
L 641 3341 
Q 956 3463 1253 3523 
Q 1550 3584 1831 3584 
Q 2591 3584 2966 3190 
Q 3341 2797 3341 1997 
z
" transform="scale(0.015625)"/>
       <path id="DejaVuSans-64" d="M 2906 2969 
L 2906 4863 
L 3481 4863 
L 3481 0 
L 2906 0 
L 2906 525 
Q 2725 213 2448 61 
Q 2172 -91 1784 -91 
Q 1150 -91 751 415 
Q 353 922 353 1747 
Q 353 2572 751 3078 
Q 1150 3584 1784 3584 
Q 2172 3584 2448 3432 
Q 2725 3281 2906 2969 
z
M 947 1747 
Q 947 1113 1208 752 
Q 1469 391 1925 391 
Q 2381 391 2643 752 
Q 2906 1113 2906 1747 
Q 2906 2381 2643 2742 
Q 2381 3103 1925 3103 
Q 1469 3103 1208 2742 
Q 947 2381 947 1747 
z
" transform="scale(0.015625)"/>
       <path id="DejaVuSans-28" d="M 1984 4856 
Q 1566 4138 1362 3434 
Q 1159 2731 1159 2009 
Q 1159 1288 1364 580 
Q 1569 -128 1984 -844 
L 1484 -844 
Q 1016 -109 783 600 
Q 550 1309 550 2009 
Q 550 2706 781 3412 
Q 1013 4119 1484 4856 
L 1984 4856 
z
" transform="scale(0.015625)"/>
       <path id="DejaVuSans-73" d="M 2834 3397 
L 2834 2853 
Q 2591 2978 2328 3040 
Q 2066 3103 1784 3103 
Q 1356 3103 1142 2972 
Q 928 2841 928 2578 
Q 928 2378 1081 2264 
Q 1234 2150 1697 2047 
L 1894 2003 
Q 2506 1872 2764 1633 
Q 3022 1394 3022 966 
Q 3022 478 2636 193 
Q 2250 -91 1575 -91 
Q 1294 -91 989 -36 
Q 684 19 347 128 
L 347 722 
Q 666 556 975 473 
Q 1284 391 1588 391 
Q 1994 391 2212 530 
Q 2431 669 2431 922 
Q 2431 1156 2273 1281 
Q 2116 1406 1581 1522 
L 1381 1569 
Q 847 1681 609 1914 
Q 372 2147 372 2553 
Q 372 3047 722 3315 
Q 1072 3584 1716 3584 
Q 2034 3584 2315 3537 
Q 2597 3491 2834 3397 
z
" transform="scale(0.015625)"/>
       <path id="DejaVuSans-63" d="M 3122 3366 
L 3122 2828 
Q 2878 2963 2633 3030 
Q 2388 3097 2138 3097 
Q 1578 3097 1268 2742 
Q 959 2388 959 1747 
Q 959 1106 1268 751 
Q 1578 397 2138 397 
Q 2388 397 2633 464 
Q 2878 531 3122 666 
L 3122 134 
Q 2881 22 2623 -34 
Q 2366 -91 2075 -91 
Q 1284 -91 818 406 
Q 353 903 353 1747 
Q 353 2603 823 3093 
Q 1294 3584 2113 3584 
Q 2378 3584 2631 3529 
Q 2884 3475 3122 3366 
z
" transform="scale(0.015625)"/>
       <path id="DejaVuSans-6f" d="M 1959 3097 
Q 1497 3097 1228 2736 
Q 959 2375 959 1747 
Q 959 1119 1226 758 
Q 1494 397 1959 397 
Q 2419 397 2687 759 
Q 2956 1122 2956 1747 
Q 2956 2369 2687 2733 
Q 2419 3097 1959 3097 
z
M 1959 3584 
Q 2709 3584 3137 3096 
Q 3566 2609 3566 1747 
Q 3566 888 3137 398 
Q 2709 -91 1959 -91 
Q 1206 -91 779 398 
Q 353 888 353 1747 
Q 353 2609 779 3096 
Q 1206 3584 1959 3584 
z
" transform="scale(0.015625)"/>
       <path id="DejaVuSans-65" d="M 3597 1894 
L 3597 1613 
L 953 1613 
Q 991 1019 1311 708 
Q 1631 397 2203 397 
Q 2534 397 2845 478 
Q 3156 559 3463 722 
L 3463 178 
Q 3153 47 2828 -22 
Q 2503 -91 2169 -91 
Q 1331 -91 842 396 
Q 353 884 353 1716 
Q 353 2575 817 3079 
Q 1281 3584 2069 3584 
Q 2775 3584 3186 3129 
Q 3597 2675 3597 1894 
z
M 3022 2063 
Q 3016 2534 2758 2815 
Q 2500 3097 2075 3097 
Q 1594 3097 1305 2825 
Q 1016 2553 972 2059 
L 3022 2063 
z
" transform="scale(0.015625)"/>
       <path id="DejaVuSans-20" transform="scale(0.015625)"/>
       <path id="DejaVuSans-6d" d="M 3328 2828 
Q 3544 3216 3844 3400 
Q 4144 3584 4550 3584 
Q 5097 3584 5394 3201 
Q 5691 2819 5691 2113 
L 5691 0 
L 5113 0 
L 5113 2094 
Q 5113 2597 4934 2840 
Q 4756 3084 4391 3084 
Q 3944 3084 3684 2787 
Q 3425 2491 3425 1978 
L 3425 0 
L 2847 0 
L 2847 2094 
Q 2847 2600 2669 2842 
Q 2491 3084 2119 3084 
Q 1678 3084 1418 2786 
Q 1159 2488 1159 1978 
L 1159 0 
L 581 0 
L 581 3500 
L 1159 3500 
L 1159 2956 
Q 1356 3278 1631 3431 
Q 1906 3584 2284 3584 
Q 2666 3584 2933 3390 
Q 3200 3197 3328 2828 
z
" transform="scale(0.015625)"/>
       <path id="DejaVuSans-70" d="M 1159 525 
L 1159 -1331 
L 581 -1331 
L 581 3500 
L 1159 3500 
L 1159 2969 
Q 1341 3281 1617 3432 
Q 1894 3584 2278 3584 
Q 2916 3584 3314 3078 
Q 3713 2572 3713 1747 
Q 3713 922 3314 415 
Q 2916 -91 2278 -91 
Q 1894 -91 1617 61 
Q 1341 213 1159 525 
z
M 3116 1747 
Q 3116 2381 2855 2742 
Q 2594 3103 2138 3103 
Q 1681 3103 1420 2742 
Q 1159 2381 1159 1747 
Q 1159 1113 1420 752 
Q 1681 391 2138 391 
Q 2594 391 2855 752 
Q 3116 1113 3116 1747 
z
" transform="scale(0.015625)"/>
       <path id="DejaVuSans-6e" d="M 3513 2113 
L 3513 0 
L 2938 0 
L 2938 2094 
Q 2938 2591 2744 2837 
Q 2550 3084 2163 3084 
Q 1697 3084 1428 2787 
Q 1159 2491 1159 1978 
L 1159 0 
L 581 0 
L 581 3500 
L 1159 3500 
L 1159 2956 
Q 1366 3272 1645 3428 
Q 1925 3584 2291 3584 
Q 2894 3584 3203 3211 
Q 3513 2838 3513 2113 
z
" transform="scale(0.015625)"/>
       <path id="DejaVuSans-74" d="M 1172 4494 
L 1172 3500 
L 2356 3500 
L 2356 3053 
L 1172 3053 
L 1172 1153 
Q 1172 725 1289 603 
Q 1406 481 1766 481 
L 2356 481 
L 2356 0 
L 1766 0 
Q 1100 0 847 248 
Q 594 497 594 1153 
L 594 3053 
L 172 3053 
L 172 3500 
L 594 3500 
L 594 4494 
L 1172 4494 
z
" transform="scale(0.015625)"/>
       <path id="DejaVuSans-29" d="M 513 4856 
L 1013 4856 
Q 1481 4119 1714 3412 
Q 1947 2706 1947 2009 
Q 1947 1309 1714 600 
Q 1481 -109 1013 -844 
L 513 -844 
Q 928 -128 1133 580 
Q 1338 1288 1338 2009 
Q 1338 2731 1133 3434 
Q 928 4138 513 4856 
z
" transform="scale(0.015625)"/>
       <path id="DejaVuSans-44" d="M 1259 4147 
L 1259 519 
L 2022 519 
Q 2988 519 3436 956 
Q 3884 1394 3884 2338 
Q 3884 3275 3436 3711 
Q 2988 4147 2022 4147 
L 1259 4147 
z
M 628 4666 
L 1925 4666 
Q 3281 4666 3915 4102 
Q 4550 3538 4550 2338 
Q 4550 1131 3912 565 
Q 3275 0 1925 0 
L 628 0 
L 628 4666 
z
" transform="scale(0.015625)"/>
       <path id="DejaVuSans-6c" d="M 603 4863 
L 1178 4863 
L 1178 0 
L 603 0 
L 603 4863 
z
" transform="scale(0.015625)"/>
       <path id="DejaVuSans-68" d="M 3513 2113 
L 3513 0 
L 2938 0 
L 2938 2094 
Q 2938 2591 2744 2837 
Q 2550 3084 2163 3084 
Q 1697 3084 1428 2787 
Q 1159 2491 1159 1978 
L 1159 0 
L 581 0 
L 581 4863 
L 1159 4863 
L 1159 2956 
Q 1366 3272 1645 3428 
Q 1925 3584 2291 3584 
Q 2894 3584 3203 3211 
Q 3513 2838 3513 2113 
z
" transform="scale(0.015625)"/>
      </defs>
      <use xlink:href="#DejaVuSans-67"/>
      <use xlink:href="#DejaVuSans-72" transform="translate(63.476562 0)"/>
      <use xlink:href="#DejaVuSans-61" transform="translate(104.589844 0)"/>
      <use xlink:href="#DejaVuSans-64" transform="translate(165.869141 0)"/>
      <use xlink:href="#DejaVuSans-28" transform="translate(229.345703 0)"/>
      <use xlink:href="#DejaVuSans-73" transform="translate(268.359375 0)"/>
      <use xlink:href="#DejaVuSans-63" transform="translate(320.458984 0)"/>
      <use xlink:href="#DejaVuSans-6f" transform="translate(375.439453 0)"/>
      <use xlink:href="#DejaVuSans-72" transform="translate(436.621094 0)"/>
      <use xlink:href="#DejaVuSans-65" transform="translate(475.484375 0)"/>
      <use xlink:href="#DejaVuSans-20" transform="translate(537.007812 0)"/>
      <use xlink:href="#DejaVuSans-63" transform="translate(568.794922 0)"/>
      <use xlink:href="#DejaVuSans-6f" transform="translate(623.775391 0)"/>
      <use xlink:href="#DejaVuSans-6d" transform="translate(684.957031 0)"/>
      <use xlink:href="#DejaVuSans-70" transform="translate(782.369141 0)"/>
      <use xlink:href="#DejaVuSans-6f" transform="translate(845.845703 0)"/>
      <use xlink:href="#DejaVuSans-6e" transform="translate(907.027344 0)"/>
      <use xlink:href="#DejaVuSans-65" transform="translate(970.40625 0)"/>
      <use xlink:href="#DejaVuSans-6e" transform="translate(1031.929688 0)"/>
      <use xlink:href="#DejaVuSans-74" transform="translate(1095.308594 0)"/>
      <use xlink:href="#DejaVuSans-29" transform="translate(1134.517578 0)"/>
      <use xlink:href="#DejaVuSans-20" transform="translate(1173.53125 0)"/>
      <use xlink:href="#DejaVuSans-2e" transform="translate(1205.318359 0)"/>
      <use xlink:href="#DejaVuSans-20" transform="translate(1237.105469 0)"/>
      <use xlink:href="#DejaVuSans-44" transform="translate(1268.892578 0)"/>
      <use xlink:href="#DejaVuSans-65" transform="translate(1345.894531 0)"/>
      <use xlink:href="#DejaVuSans-6c" transform="translate(1407.417969 0)"/>
      <use xlink:href="#DejaVuSans-74" transform="translate(1435.201172 0)"/>
      <use xlink:href="#DejaVuSans-61" transform="translate(1474.410156 0)"/>
      <use xlink:href="#DejaVuSans-20" transform="translate(1535.689453 0)"/>
      <use xlink:href="#DejaVuSans-74" transform="translate(1567.476562 0)"/>
      <use xlink:href="#DejaVuSans-68" transform="translate(1606.685547 0)"/>
      <use xlink:href="#DejaVuSans-65" transform="translate(1670.064453 0)"/>
      <use xlink:href="#DejaVuSans-74" transform="translate(1731.587891 0)"/>
      <use xlink:href="#DejaVuSans-61" transform="translate(1770.796875 0)"/>
     </g>
    </g>
   </g>
   <g id="matplotlib.axis_2">
    <g id="ytick_1">
     <g id="line2d_11">
      <path d="M 68.6 421.926895 
L 493.2 421.926895 
" clip-path="url(#p4c454977bb)" style="fill: none; stroke: #b0b0b0; stroke-opacity: 0.25; stroke-width: 0.8; stroke-linecap: square"/>
     </g>
     <g id="line2d_12">
      <defs>
       <path id="m051565d2c7" d="M 0 0 
L -3.5 0 
" style="stroke: #000000; stroke-width: 0.8"/>
      </defs>
      <g>
       <use xlink:href="#m051565d2c7" x="68.6" y="421.926895" style="stroke: #000000; stroke-width: 0.8"/>
      </g>
     </g>
     <g id="text_7">
      <!-- −0.004 -->
      <g transform="translate(24.592188 425.726114) scale(0.1 -0.1)">
       <use xlink:href="#DejaVuSans-2212"/>
       <use xlink:href="#DejaVuSans-30" transform="translate(83.789062 0)"/>
       <use xlink:href="#DejaVuSans-2e" transform="translate(147.412109 0)"/>
       <use xlink:href="#DejaVuSans-30" transform="translate(179.199219 0)"/>
       <use xlink:href="#DejaVuSans-30" transform="translate(242.822266 0)"/>
       <use xlink:href="#DejaVuSans-34" transform="translate(306.445312 0)"/>
      </g>
     </g>
    </g>
    <g id="ytick_2">
     <g id="line2d_13">
      <path d="M 68.6 341.408611 
L 493.2 341.408611 
" clip-path="url(#p4c454977bb)" style="fill: none; stroke: #b0b0b0; stroke-opacity: 0.25; stroke-width: 0.8; stroke-linecap: square"/>
     </g>
     <g id="line2d_14">
      <g>
       <use xlink:href="#m051565d2c7" x="68.6" y="341.408611" style="stroke: #000000; stroke-width: 0.8"/>
      </g>
     </g>
     <g id="text_8">
      <!-- −0.002 -->
      <g transform="translate(24.592188 345.20783) scale(0.1 -0.1)">
       <use xlink:href="#DejaVuSans-2212"/>
       <use xlink:href="#DejaVuSans-30" transform="translate(83.789062 0)"/>
       <use xlink:href="#DejaVuSans-2e" transform="translate(147.412109 0)"/>
       <use xlink:href="#DejaVuSans-30" transform="translate(179.199219 0)"/>
       <use xlink:href="#DejaVuSans-30" transform="translate(242.822266 0)"/>
       <use xlink:href="#DejaVuSans-32" transform="translate(306.445312 0)"/>
      </g>
     </g>
    </g>
    <g id="ytick_3">
     <g id="line2d_15">
      <path d="M 68.6 260.890328 
L 493.2 260.890328 
" clip-path="url(#p4c454977bb)" style="fill: none; stroke: #b0b0b0; stroke-opacity: 0.25; stroke-width: 0.8; stroke-linecap: square"/>
     </g>
     <g id="line2d_16">
      <g>
       <use xlink:href="#m051565d2c7" x="68.6" y="260.890328" style="stroke: #000000; stroke-width: 0.8"/>
      </g>
     </g>
     <g id="text_9">
      <!-- 0.000 -->
      <g transform="translate(32.971875 264.689546) scale(0.1 -0.1)">
       <use xlink:href="#DejaVuSans-30"/>
       <use xlink:href="#DejaVuSans-2e" transform="translate(63.623047 0)"/>
       <use xlink:href="#DejaVuSans-30" transform="translate(95.410156 0)"/>
       <use xlink:href="#DejaVuSans-30" transform="translate(159.033203 0)"/>
       <use xlink:href="#DejaVuSans-30" transform="translate(222.65625 0)"/>
      </g>
     </g>
    </g>
    <g id="ytick_4">
     <g id="line2d_17">
      <path d="M 68.6 180.372044 
L 493.2 180.372044 
" clip-path="url(#p4c454977bb)" style="fill: none; stroke: #b0b0b0; stroke-opacity: 0.25; stroke-width: 0.8; stroke-linecap: square"/>
     </g>
     <g id="line2d_18">
      <g>
       <use xlink:href="#m051565d2c7" x="68.6" y="180.372044" style="stroke: #000000; stroke-width: 0.8"/>
      </g>
     </g>
     <g id="text_10">
      <!-- 0.002 -->
      <g transform="translate(32.971875 184.171263) scale(0.1 -0.1)">
       <use xlink:href="#DejaVuSans-30"/>
       <use xlink:href="#DejaVuSans-2e" transform="translate(63.623047 0)"/>
       <use xlink:href="#DejaVuSans-30" transform="translate(95.410156 0)"/>
       <use xlink:href="#DejaVuSans-30" transform="translate(159.033203 0)"/>
       <use xlink:href="#DejaVuSans-32" transform="translate(222.65625 0)"/>
      </g>
     </g>
    </g>
    <g id="ytick_5">
     <g id="line2d_19">
      <path d="M 68.6 99.85376 
L 493.2 99.85376 
" clip-path="url(#p4c454977bb)" style="fill: none; stroke: #b0b0b0; stroke-opacity: 0.25; stroke-width: 0.8; stroke-linecap: square"/>
     </g>
     <g id="line2d_20">
      <g>
       <use xlink:href="#m051565d2c7" x="68.6" y="99.85376" style="stroke: #000000; stroke-width: 0.8"/>
      </g>
     </g>
     <g id="text_11">
      <!-- 0.004 -->
      <g transform="translate(32.971875 103.652979) scale(0.1 -0.1)">
       <use xlink:href="#DejaVuSans-30"/>
       <use xlink:href="#DejaVuSans-2e" transform="translate(63.623047 0)"/>
       <use xlink:href="#DejaVuSans-30" transform="translate(95.410156 0)"/>
       <use xlink:href="#DejaVuSans-30" transform="translate(159.033203 0)"/>
       <use xlink:href="#DejaVuSans-34" transform="translate(222.65625 0)"/>
      </g>
     </g>
    </g>
    <g id="text_12">
     <!-- actual score-component delta -->
     <g transform="translate(18.5125 319.220937) rotate(-90) scale(0.1 -0.1)">
      <defs>
       <path id="DejaVuSans-75" d="M 544 1381 
L 544 3500 
L 1119 3500 
L 1119 1403 
Q 1119 906 1312 657 
Q 1506 409 1894 409 
Q 2359 409 2629 706 
Q 2900 1003 2900 1516 
L 2900 3500 
L 3475 3500 
L 3475 0 
L 2900 0 
L 2900 538 
Q 2691 219 2414 64 
Q 2138 -91 1772 -91 
Q 1169 -91 856 284 
Q 544 659 544 1381 
z
M 1991 3584 
L 1991 3584 
z
" transform="scale(0.015625)"/>
       <path id="DejaVuSans-2d" d="M 313 2009 
L 1997 2009 
L 1997 1497 
L 313 1497 
L 313 2009 
z
" transform="scale(0.015625)"/>
      </defs>
      <use xlink:href="#DejaVuSans-61"/>
      <use xlink:href="#DejaVuSans-63" transform="translate(61.279297 0)"/>
      <use xlink:href="#DejaVuSans-74" transform="translate(116.259766 0)"/>
      <use xlink:href="#DejaVuSans-75" transform="translate(155.46875 0)"/>
      <use xlink:href="#DejaVuSans-61" transform="translate(218.847656 0)"/>
      <use xlink:href="#DejaVuSans-6c" transform="translate(280.126953 0)"/>
      <use xlink:href="#DejaVuSans-20" transform="translate(307.910156 0)"/>
      <use xlink:href="#DejaVuSans-73" transform="translate(339.697266 0)"/>
      <use xlink:href="#DejaVuSans-63" transform="translate(391.796875 0)"/>
      <use xlink:href="#DejaVuSans-6f" transform="translate(446.777344 0)"/>
      <use xlink:href="#DejaVuSans-72" transform="translate(507.958984 0)"/>
      <use xlink:href="#DejaVuSans-65" transform="translate(546.822266 0)"/>
      <use xlink:href="#DejaVuSans-2d" transform="translate(608.345703 0)"/>
      <use xlink:href="#DejaVuSans-63" transform="translate(644.429688 0)"/>
      <use xlink:href="#DejaVuSans-6f" transform="translate(699.410156 0)"/>
      <use xlink:href="#DejaVuSans-6d" transform="translate(760.591797 0)"/>
      <use xlink:href="#DejaVuSans-70" transform="translate(858.003906 0)"/>
      <use xlink:href="#DejaVuSans-6f" transform="translate(921.480469 0)"/>
      <use xlink:href="#DejaVuSans-6e" transform="translate(982.662109 0)"/>
      <use xlink:href="#DejaVuSans-65" transform="translate(1046.041016 0)"/>
      <use xlink:href="#DejaVuSans-6e" transform="translate(1107.564453 0)"/>
      <use xlink:href="#DejaVuSans-74" transform="translate(1170.943359 0)"/>
      <use xlink:href="#DejaVuSans-20" transform="translate(1210.152344 0)"/>
      <use xlink:href="#DejaVuSans-64" transform="translate(1241.939453 0)"/>
      <use xlink:href="#DejaVuSans-65" transform="translate(1305.416016 0)"/>
      <use xlink:href="#DejaVuSans-6c" transform="translate(1366.939453 0)"/>
      <use xlink:href="#DejaVuSans-74" transform="translate(1394.722656 0)"/>
      <use xlink:href="#DejaVuSans-61" transform="translate(1433.931641 0)"/>
     </g>
    </g>
   </g>
   <g id="line2d_21">
    <path d="M 87.9 442.26 
L 473.9 46.66 
" clip-path="url(#p4c454977bb)" style="fill: none; stroke-dasharray: 3.7,1.6; stroke-dashoffset: 0; stroke: #777777"/>
   </g>
   <g id="line2d_22">
    <path d="M 68.6 260.890328 
L 493.2 260.890328 
" clip-path="url(#p4c454977bb)" style="fill: none; stroke: #999999; stroke-width: 0.8; stroke-linecap: square"/>
   </g>
   <g id="line2d_23">
    <path d="M 264.868386 462.04 
L 264.868386 26.88 
" clip-path="url(#p4c454977bb)" style="fill: none; stroke: #999999; stroke-width: 0.8; stroke-linecap: square"/>
   </g>
   <g id="patch_3">
    <path d="M 68.6 462.04 
L 68.6 26.88 
" style="fill: none; stroke: #000000; stroke-width: 0.8; stroke-linejoin: miter; stroke-linecap: square"/>
   </g>
   <g id="patch_4">
    <path d="M 493.2 462.04 
L 493.2 26.88 
" style="fill: none; stroke: #000000; stroke-width: 0.8; stroke-linejoin: miter; stroke-linecap: square"/>
   </g>
   <g id="patch_5">
    <path d="M 68.6 462.04 
L 493.2 462.04 
" style="fill: none; stroke: #000000; stroke-width: 0.8; stroke-linejoin: miter; stroke-linecap: square"/>
   </g>
   <g id="patch_6">
    <path d="M 68.6 26.88 
L 493.2 26.88 
" style="fill: none; stroke: #000000; stroke-width: 0.8; stroke-linejoin: miter; stroke-linecap: square"/>
   </g>
   <g id="text_13">
    <!-- Attention score update attribution: actual vs predicted -->
    <g transform="translate(117.254687 20.88) scale(0.12 -0.12)">
     <defs>
      <path id="DejaVuSans-41" d="M 2188 4044 
L 1331 1722 
L 3047 1722 
L 2188 4044 
z
M 1831 4666 
L 2547 4666 
L 4325 0 
L 3669 0 
L 3244 1197 
L 1141 1197 
L 716 0 
L 50 0 
L 1831 4666 
z
" transform="scale(0.015625)"/>
      <path id="DejaVuSans-69" d="M 603 3500 
L 1178 3500 
L 1178 0 
L 603 0 
L 603 3500 
z
M 603 4863 
L 1178 4863 
L 1178 4134 
L 603 4134 
L 603 4863 
z
" transform="scale(0.015625)"/>
      <path id="DejaVuSans-62" d="M 3116 1747 
Q 3116 2381 2855 2742 
Q 2594 3103 2138 3103 
Q 1681 3103 1420 2742 
Q 1159 2381 1159 1747 
Q 1159 1113 1420 752 
Q 1681 391 2138 391 
Q 2594 391 2855 752 
Q 3116 1113 3116 1747 
z
M 1159 2969 
Q 1341 3281 1617 3432 
Q 1894 3584 2278 3584 
Q 2916 3584 3314 3078 
Q 3713 2572 3713 1747 
Q 3713 922 3314 415 
Q 2916 -91 2278 -91 
Q 1894 -91 1617 61 
Q 1341 213 1159 525 
L 1159 0 
L 581 0 
L 581 4863 
L 1159 4863 
L 1159 2969 
z
" transform="scale(0.015625)"/>
      <path id="DejaVuSans-3a" d="M 750 794 
L 1409 794 
L 1409 0 
L 750 0 
L 750 794 
z
M 750 3309 
L 1409 3309 
L 1409 2516 
L 750 2516 
L 750 3309 
z
" transform="scale(0.015625)"/>
      <path id="DejaVuSans-76" d="M 191 3500 
L 800 3500 
L 1894 563 
L 2988 3500 
L 3597 3500 
L 2284 0 
L 1503 0 
L 191 3500 
z
" transform="scale(0.015625)"/>
     </defs>
     <use xlink:href="#DejaVuSans-41"/>
     <use xlink:href="#DejaVuSans-74" transform="translate(66.658203 0)"/>
     <use xlink:href="#DejaVuSans-74" transform="translate(105.867188 0)"/>
     <use xlink:href="#DejaVuSans-65" transform="translate(145.076172 0)"/>
     <use xlink:href="#DejaVuSans-6e" transform="translate(206.599609 0)"/>
     <use xlink:href="#DejaVuSans-74" transform="translate(269.978516 0)"/>
     <use xlink:href="#DejaVuSans-69" transform="translate(309.1875 0)"/>
     <use xlink:href="#DejaVuSans-6f" transform="translate(336.970703 0)"/>
     <use xlink:href="#DejaVuSans-6e" transform="translate(398.152344 0)"/>
     <use xlink:href="#DejaVuSans-20" transform="translate(461.53125 0)"/>
     <use xlink:href="#DejaVuSans-73" transform="translate(493.318359 0)"/>
     <use xlink:href="#DejaVuSans-63" transform="translate(545.417969 0)"/>
     <use xlink:href="#DejaVuSans-6f" transform="translate(600.398438 0)"/>
     <use xlink:href="#DejaVuSans-72" transform="translate(661.580078 0)"/>
     <use xlink:href="#DejaVuSans-65" transform="translate(700.443359 0)"/>
     <use xlink:href="#DejaVuSans-20" transform="translate(761.966797 0)"/>
     <use xlink:href="#DejaVuSans-75" transform="translate(793.753906 0)"/>
     <use xlink:href="#DejaVuSans-70" transform="translate(857.132812 0)"/>
     <use xlink:href="#DejaVuSans-64" transform="translate(920.609375 0)"/>
     <use xlink:href="#DejaVuSans-61" transform="translate(984.085938 0)"/>
     <use xlink:href="#DejaVuSans-74" transform="translate(1045.365234 0)"/>
     <use xlink:href="#DejaVuSans-65" transform="translate(1084.574219 0)"/>
     <use xlink:href="#DejaVuSans-20" transform="translate(1146.097656 0)"/>
     <use xlink:href="#DejaVuSans-61" transform="translate(1177.884766 0)"/>
     <use xlink:href="#DejaVuSans-74" transform="translate(1239.164062 0)"/>
     <use xlink:href="#DejaVuSans-74" transform="translate(1278.373047 0)"/>
     <use xlink:href="#DejaVuSans-72" transform="translate(1317.582031 0)"/>
     <use xlink:href="#DejaVuSans-69" transform="translate(1358.695312 0)"/>
     <use xlink:href="#DejaVuSans-62" transform="translate(1386.478516 0)"/>
     <use xlink:href="#DejaVuSans-75" transform="translate(1449.955078 0)"/>
     <use xlink:href="#DejaVuSans-74" transform="translate(1513.333984 0)"/>
     <use xlink:href="#DejaVuSans-69" transform="translate(1552.542969 0)"/>
     <use xlink:href="#DejaVuSans-6f" transform="translate(1580.326172 0)"/>
     <use xlink:href="#DejaVuSans-6e" transform="translate(1641.507812 0)"/>
     <use xlink:href="#DejaVuSans-3a" transform="translate(1704.886719 0)"/>
     <use xlink:href="#DejaVuSans-20" transform="translate(1738.578125 0)"/>
     <use xlink:href="#DejaVuSans-61" transform="translate(1770.365234 0)"/>
     <use xlink:href="#DejaVuSans-63" transform="translate(1831.644531 0)"/>
     <use xlink:href="#DejaVuSans-74" transform="translate(1886.625 0)"/>
     <use xlink:href="#DejaVuSans-75" transform="translate(1925.833984 0)"/>
     <use xlink:href="#DejaVuSans-61" transform="translate(1989.212891 0)"/>
     <use xlink:href="#DejaVuSans-6c" transform="translate(2050.492188 0)"/>
     <use xlink:href="#DejaVuSans-20" transform="translate(2078.275391 0)"/>
     <use xlink:href="#DejaVuSans-76" transform="translate(2110.0625 0)"/>
     <use xlink:href="#DejaVuSans-73" transform="translate(2169.242188 0)"/>
     <use xlink:href="#DejaVuSans-20" transform="translate(2221.341797 0)"/>
     <use xlink:href="#DejaVuSans-70" transform="translate(2253.128906 0)"/>
     <use xlink:href="#DejaVuSans-72" transform="translate(2316.605469 0)"/>
     <use xlink:href="#DejaVuSans-65" transform="translate(2355.46875 0)"/>
     <use xlink:href="#DejaVuSans-64" transform="translate(2416.992188 0)"/>
     <use xlink:href="#DejaVuSans-69" transform="translate(2480.46875 0)"/>
     <use xlink:href="#DejaVuSans-63" transform="translate(2508.251953 0)"/>
     <use xlink:href="#DejaVuSans-74" transform="translate(2563.232422 0)"/>
     <use xlink:href="#DejaVuSans-65" transform="translate(2602.441406 0)"/>
     <use xlink:href="#DejaVuSans-64" transform="translate(2663.964844 0)"/>
    </g>
   </g>
  </g>
 </g>
 <defs>
  <clipPath id="p4c454977bb">
   <rect x="68.6" y="26.88" width="424.6" height="435.16"/>
  </clipPath>
 </defs>
</svg>
