<?xml version="1.0" encoding="utf-8" standalone="no"?>
<!DOCTYPE svg PUBLIC "-//W3C//DTD SVG 1.1//EN"
  "http://www.w3.org/Graphics/SVG/1.1/DTD/svg11.dtd">
<svg xmlns:xlink="http://www.w3.org/1999/xlink" width="720pt" height="432pt" viewBox="0 0 720 432" xmlns="http://www.w3.org/2000/svg" version="1.1">
 <metadata>
  <rdf:RDF xmlns:dc="http://purl.org/dc/elements/1.1/" xmlns:cc="http://creativecommons.org/ns#" xmlns:rdf="http://www.w3.org/1999/02/22-rdf-syntax-ns#">
   <cc:Work>
    <dc:type rdf:resource="http://purl.org/dc/dcmitype/StillImage"/>
    <dc:date>2026-04-20T12:10:51.305686</dc:date>
    <dc:format>image/svg+xml</dc:format>
    <dc:creator>
     <cc:Agent>
      <dc:title>Matplotlib v3.10.1, https://matplotlib.org/</dc:title>
     </cc:Agent>
    </dc:creator>
   </cc:Work>
  </rdf:RDF>
 </metadata>
 <defs>
  <style type="text/css">*{stroke-linejoin: round; stroke-linecap: butt}</style>
 </defs>
 <g id="figure_1">
  <g id="patch_1">
   <path d="M 0 432 
L 720 432 
L 720 0 
L 0 0 
z
" style="fill: #ffffff"/>
  </g>
  <g id="axes_1">
   <g id="patch_2">
    <path d="M 68.405276 266.611789 
L 709.2 266.611789 
L 709.2 26.88 
L 68.405276 26.88 
z
" style="fill: #ffffff"/>
   </g>
   <g id="patch_3">
    <path d="M 97.532309 193.943456 
L 109.926791 193.943456 
L 109.926791 37.776899 
L 97.532309 37.776899 
z
" clip-path="url(#p8e816c8a9b)" style="fill: #376f8f"/>
   </g>
   <g id="patch_4">
    <path d="M 147.110238 193.943456 
L 159.50472 193.943456 
L 159.50472 72.815971 
L 147.110238 72.815971 
z
" clip-path="url(#p8e816c8a9b)" style="fill: #376f8f"/>
   </g>
   <g id="patch_5">
    <path d="M 196.688166 193.943456 
L 209.082648 193.943456 
L 209.082648 98.641971 
L 196.688166 98.641971 
z
" clip-path="url(#p8e816c8a9b)" style="fill: #376f8f"/>
   </g>
   <g id="patch_6">
    <path d="M 246.266094 193.943456 
L 258.660576 193.943456 
L 258.660576 105.484482 
L 246.266094 105.484482 
z
" clip-path="url(#p8e816c8a9b)" style="fill: #376f8f"/>
   </g>
   <g id="patch_7">
    <path d="M 295.844023 193.943456 
L 308.238505 193.943456 
L 308.238505 116.922278 
L 295.844023 116.922278 
z
" clip-path="url(#p8e816c8a9b)" style="fill: #376f8f"/>
   </g>
   <g id="patch_8">
    <path d="M 345.421951 193.943456 
L 357.816433 193.943456 
L 357.816433 116.997069 
L 345.421951 116.997069 
z
" clip-path="url(#p8e816c8a9b)" style="fill: #376f8f"/>
   </g>
   <g id="patch_9">
    <path d="M 394.999879 193.943456 
L 407.394361 193.943456 
L 407.394361 133.732021 
L 394.999879 133.732021 
z
" clip-path="url(#p8e816c8a9b)" style="fill: #376f8f"/>
   </g>
   <g id="patch_10">
    <path d="M 444.577808 193.943456 
L 456.97229 193.943456 
L 456.97229 133.775777 
L 444.577808 133.775777 
z
" clip-path="url(#p8e816c8a9b)" style="fill: #376f8f"/>
   </g>
   <g id="patch_11">
    <path d="M 494.155736 193.943456 
L 506.550218 193.943456 
L 506.550218 166.220291 
L 494.155736 166.220291 
z
" clip-path="url(#p8e816c8a9b)" style="fill: #376f8f"/>
   </g>
   <g id="patch_12">
    <path d="M 543.733664 193.943456 
L 556.128146 193.943456 
L 556.128146 166.275778 
L 543.733664 166.275778 
z
" clip-path="url(#p8e816c8a9b)" style="fill: #376f8f"/>
   </g>
   <g id="patch_13">
    <path d="M 593.311593 193.943456 
L 605.706075 193.943456 
L 605.706075 182.126347 
L 593.311593 182.126347 
z
" clip-path="url(#p8e816c8a9b)" style="fill: #376f8f"/>
   </g>
   <g id="patch_14">
    <path d="M 642.889521 193.943456 
L 655.284003 193.943456 
L 655.284003 183.154265 
L 642.889521 183.154265 
z
" clip-path="url(#p8e816c8a9b)" style="fill: #376f8f"/>
   </g>
   <g id="patch_15">
    <path d="M 109.926791 193.943456 
L 122.321273 193.943456 
L 122.321273 237.026043 
L 109.926791 237.026043 
z
" clip-path="url(#p8e816c8a9b)" style="fill: #8f6b37"/>
   </g>
   <g id="patch_16">
    <path d="M 159.50472 193.943456 
L 171.899202 193.943456 
L 171.899202 209.208933 
L 159.50472 209.208933 
z
" clip-path="url(#p8e816c8a9b)" style="fill: #8f6b37"/>
   </g>
   <g id="patch_17">
    <path d="M 209.082648 193.943456 
L 221.47713 193.943456 
L 221.47713 193.638994 
L 209.082648 193.638994 
z
" clip-path="url(#p8e816c8a9b)" style="fill: #8f6b37"/>
   </g>
   <g id="patch_18">
    <path d="M 258.660576 193.943456 
L 271.055058 193.943456 
L 271.055058 196.122556 
L 258.660576 196.122556 
z
" clip-path="url(#p8e816c8a9b)" style="fill: #8f6b37"/>
   </g>
   <g id="patch_19">
    <path d="M 308.238505 193.943456 
L 320.632987 193.943456 
L 320.632987 209.157008 
L 308.238505 209.157008 
z
" clip-path="url(#p8e816c8a9b)" style="fill: #8f6b37"/>
   </g>
   <g id="patch_20">
    <path d="M 357.816433 193.943456 
L 370.210915 193.943456 
L 370.210915 209.25473 
L 357.816433 209.25473 
z
" clip-path="url(#p8e816c8a9b)" style="fill: #8f6b37"/>
   </g>
   <g id="patch_21">
    <path d="M 407.394361 193.943456 
L 419.788843 193.943456 
L 419.788843 199.206734 
L 407.394361 199.206734 
z
" clip-path="url(#p8e816c8a9b)" style="fill: #8f6b37"/>
   </g>
   <g id="patch_22">
    <path d="M 456.97229 193.943456 
L 469.366772 193.943456 
L 469.366772 199.225509 
L 456.97229 199.225509 
z
" clip-path="url(#p8e816c8a9b)" style="fill: #8f6b37"/>
   </g>
   <g id="patch_23">
    <path d="M 506.550218 193.943456 
L 518.9447 193.943456 
L 518.9447 197.786158 
L 506.550218 197.786158 
z
" clip-path="url(#p8e816c8a9b)" style="fill: #8f6b37"/>
   </g>
   <g id="patch_24">
    <path d="M 556.128146 193.943456 
L 568.522628 193.943456 
L 568.522628 197.812616 
L 556.128146 197.812616 
z
" clip-path="url(#p8e816c8a9b)" style="fill: #8f6b37"/>
   </g>
   <g id="patch_25">
    <path d="M 605.706075 193.943456 
L 618.100557 193.943456 
L 618.100557 194.088327 
L 605.706075 194.088327 
z
" clip-path="url(#p8e816c8a9b)" style="fill: #8f6b37"/>
   </g>
   <g id="patch_26">
    <path d="M 655.284003 193.943456 
L 667.678485 193.943456 
L 667.678485 193.834674 
L 655.284003 193.834674 
z
" clip-path="url(#p8e816c8a9b)" style="fill: #8f6b37"/>
   </g>
   <g id="patch_27">
    <path d="M 122.321273 193.943456 
L 134.715755 193.943456 
L 134.715755 103.166637 
L 122.321273 103.166637 
z
" clip-path="url(#p8e816c8a9b)" style="fill: #4a8f37"/>
   </g>
   <g id="patch_28">
    <path d="M 171.899202 193.943456 
L 184.293684 193.943456 
L 184.293684 123.132806 
L 171.899202 123.132806 
z
" clip-path="url(#p8e816c8a9b)" style="fill: #4a8f37"/>
   </g>
   <g id="patch_29">
    <path d="M 221.47713 193.943456 
L 233.871612 193.943456 
L 233.871612 255.714889 
L 221.47713 255.714889 
z
" clip-path="url(#p8e816c8a9b)" style="fill: #4a8f37"/>
   </g>
   <g id="patch_30">
    <path d="M 271.055058 193.943456 
L 283.44954 193.943456 
L 283.44954 128.723424 
L 271.055058 128.723424 
z
" clip-path="url(#p8e816c8a9b)" style="fill: #4a8f37"/>
   </g>
   <g id="patch_31">
    <path d="M 320.632987 193.943456 
L 333.027469 193.943456 
L 333.027469 137.004183 
L 320.632987 137.004183 
z
" clip-path="url(#p8e816c8a9b)" style="fill: #4a8f37"/>
   </g>
   <g id="patch_32">
    <path d="M 370.210915 193.943456 
L 382.605397 193.943456 
L 382.605397 137.019462 
L 370.210915 137.019462 
z
" clip-path="url(#p8e816c8a9b)" style="fill: #4a8f37"/>
   </g>
   <g id="patch_33">
    <path d="M 419.788843 193.943456 
L 432.183325 193.943456 
L 432.183325 148.498995 
L 419.788843 148.498995 
z
" clip-path="url(#p8e816c8a9b)" style="fill: #4a8f37"/>
   </g>
   <g id="patch_34">
    <path d="M 469.366772 193.943456 
L 481.761254 193.943456 
L 481.761254 148.531954 
L 469.366772 148.531954 
z
" clip-path="url(#p8e816c8a9b)" style="fill: #4a8f37"/>
   </g>
   <g id="patch_35">
    <path d="M 518.9447 193.943456 
L 531.339182 193.943456 
L 531.339182 160.222289 
L 518.9447 160.222289 
z
" clip-path="url(#p8e816c8a9b)" style="fill: #4a8f37"/>
   </g>
   <g id="patch_36">
    <path d="M 568.522628 193.943456 
L 580.91711 193.943456 
L 580.91711 160.220481 
L 568.522628 160.220481 
z
" clip-path="url(#p8e816c8a9b)" style="fill: #4a8f37"/>
   </g>
   <g id="patch_37">
    <path d="M 618.100557 193.943456 
L 630.495039 193.943456 
L 630.495039 198.552564 
L 618.100557 198.552564 
z
" clip-path="url(#p8e816c8a9b)" style="fill: #4a8f37"/>
   </g>
   <g id="patch_38">
    <path d="M 667.678485 193.943456 
L 680.072967 193.943456 
L 680.072967 193.999909 
L 667.678485 193.999909 
z
" clip-path="url(#p8e816c8a9b)" style="fill: #4a8f37"/>
   </g>
   <g id="matplotlib.axis_1">
    <g id="xtick_1">
     <g id="line2d_1">
      <defs>
       <path id="mf0c68fd1f8" d="M 0 0 
L 0 3.5 
" style="stroke: #000000; stroke-width: 0.8"/>
      </defs>
      <g>
       <use xlink:href="#mf0c68fd1f8" x="116.124032" y="266.611789" style="stroke: #000000; stroke-width: 0.8"/>
      </g>
     </g>
     <g id="text_1">
      <!-- correct_value_logit:L0MLP -->
      <g transform="translate(22.672137 370.769365) rotate(-45) scale(0.1 -0.1)">
       <defs>
        <path id="DejaVuSans-63" d="M 3122 3366 
L 3122 2828 
Q 2878 2963 2633 3030 
Q 2388 3097 2138 3097 
Q 1578 3097 1268 2742 
Q 959 2388 959 1747 
Q 959 1106 1268 751 
Q 1578 397 2138 397 
Q 2388 397 2633 464 
Q 2878 531 3122 666 
L 3122 134 
Q 2881 22 2623 -34 
Q 2366 -91 2075 -91 
Q 1284 -91 818 406 
Q 353 903 353 1747 
Q 353 2603 823 3093 
Q 1294 3584 2113 3584 
Q 2378 3584 2631 3529 
Q 2884 3475 3122 3366 
z
" transform="scale(0.015625)"/>
        <path id="DejaVuSans-6f" d="M 1959 3097 
Q 1497 3097 1228 2736 
Q 959 2375 959 1747 
Q 959 1119 1226 758 
Q 1494 397 1959 397 
Q 2419 397 2687 759 
Q 2956 1122 2956 1747 
Q 2956 2369 2687 2733 
Q 2419 3097 1959 3097 
z
M 1959 3584 
Q 2709 3584 3137 3096 
Q 3566 2609 3566 1747 
Q 3566 888 3137 398 
Q 2709 -91 1959 -91 
Q 1206 -91 779 398 
Q 353 888 353 1747 
Q 353 2609 779 3096 
Q 1206 3584 1959 3584 
z
" transform="scale(0.015625)"/>
        <path id="DejaVuSans-72" d="M 2631 2963 
Q 2534 3019 2420 3045 
Q 2306 3072 2169 3072 
Q 1681 3072 1420 2755 
Q 1159 2438 1159 1844 
L 1159 0 
L 581 0 
L 581 3500 
L 1159 3500 
L 1159 2956 
Q 1341 3275 1631 3429 
Q 1922 3584 2338 3584 
Q 2397 3584 2469 3576 
Q 2541 3569 2628 3553 
L 2631 2963 
z
" transform="scale(0.015625)"/>
        <path id="DejaVuSans-65" d="M 3597 1894 
L 3597 1613 
L 953 1613 
Q 991 1019 1311 708 
Q 1631 397 2203 397 
Q 2534 397 2845 478 
Q 3156 559 3463 722 
L 3463 178 
Q 3153 47 2828 -22 
Q 2503 -91 2169 -91 
Q 1331 -91 842 396 
Q 353 884 353 1716 
Q 353 2575 817 3079 
Q 1281 3584 2069 3584 
Q 2775 3584 3186 3129 
Q 3597 2675 3597 1894 
z
M 3022 2063 
Q 3016 2534 2758 2815 
Q 2500 3097 2075 3097 
Q 1594 3097 1305 2825 
Q 1016 2553 972 2059 
L 3022 2063 
z
" transform="scale(0.015625)"/>
        <path id="DejaVuSans-74" d="M 1172 4494 
L 1172 3500 
L 2356 3500 
L 2356 3053 
L 1172 3053 
L 1172 1153 
Q 1172 725 1289 603 
Q 1406 481 1766 481 
L 2356 481 
L 2356 0 
L 1766 0 
Q 1100 0 847 248 
Q 594 497 594 1153 
L 594 3053 
L 172 3053 
L 172 3500 
L 594 3500 
L 594 4494 
L 1172 4494 
z
" transform="scale(0.015625)"/>
        <path id="DejaVuSans-5f" d="M 3263 -1063 
L 3263 -1509 
L -63 -1509 
L -63 -1063 
L 3263 -1063 
z
" transform="scale(0.015625)"/>
        <path id="DejaVuSans-76" d="M 191 3500 
L 800 3500 
L 1894 563 
L 2988 3500 
L 3597 3500 
L 2284 0 
L 1503 0 
L 191 3500 
z
" transform="scale(0.015625)"/>
        <path id="DejaVuSans-61" d="M 2194 1759 
Q 1497 1759 1228 1600 
Q 959 1441 959 1056 
Q 959 750 1161 570 
Q 1363 391 1709 391 
Q 2188 391 2477 730 
Q 2766 1069 2766 1631 
L 2766 1759 
L 2194 1759 
z
M 3341 1997 
L 3341 0 
L 2766 0 
L 2766 531 
Q 2569 213 2275 61 
Q 1981 -91 1556 -91 
Q 1019 -91 701 211 
Q 384 513 384 1019 
Q 384 1609 779 1909 
Q 1175 2209 1959 2209 
L 2766 2209 
L 2766 2266 
Q 2766 2663 2505 2880 
Q 2244 3097 1772 3097 
Q 1472 3097 1187 3025 
Q 903 2953 641 2809 
L 641 3341 
Q 956 3463 1253 3523 
Q 1550 3584 1831 3584 
Q 2591 3584 2966 3190 
Q 3341 2797 3341 1997 
z
" transform="scale(0.015625)"/>
        <path id="DejaVuSans-6c" d="M 603 4863 
L 1178 4863 
L 1178 0 
L 603 0 
L 603 4863 
z
" transform="scale(0.015625)"/>
        <path id="DejaVuSans-75" d="M 544 1381 
L 544 3500 
L 1119 3500 
L 1119 1403 
Q 1119 906 1312 657 
Q 1506 409 1894 409 
Q 2359 409 2629 706 
Q 2900 1003 2900 1516 
L 2900 3500 
L 3475 3500 
L 3475 0 
L 2900 0 
L 2900 538 
Q 2691 219 2414 64 
Q 2138 -91 1772 -91 
Q 1169 -91 856 284 
Q 544 659 544 1381 
z
M 1991 3584 
L 1991 3584 
z
" transform="scale(0.015625)"/>
        <path id="DejaVuSans-67" d="M 2906 1791 
Q 2906 2416 2648 2759 
Q 2391 3103 1925 3103 
Q 1463 3103 1205 2759 
Q 947 2416 947 1791 
Q 947 1169 1205 825 
Q 1463 481 1925 481 
Q 2391 481 2648 825 
Q 2906 1169 2906 1791 
z
M 3481 434 
Q 3481 -459 3084 -895 
Q 2688 -1331 1869 -1331 
Q 1566 -1331 1297 -1286 
Q 1028 -1241 775 -1147 
L 775 -588 
Q 1028 -725 1275 -790 
Q 1522 -856 1778 -856 
Q 2344 -856 2625 -561 
Q 2906 -266 2906 331 
L 2906 616 
Q 2728 306 2450 153 
Q 2172 0 1784 0 
Q 1141 0 747 490 
Q 353 981 353 1791 
Q 353 2603 747 3093 
Q 1141 3584 1784 3584 
Q 2172 3584 2450 3431 
Q 2728 3278 2906 2969 
L 2906 3500 
L 3481 3500 
L 3481 434 
z
" transform="scale(0.015625)"/>
        <path id="DejaVuSans-69" d="M 603 3500 
L 1178 3500 
L 1178 0 
L 603 0 
L 603 3500 
z
M 603 4863 
L 1178 4863 
L 1178 4134 
L 603 4134 
L 603 4863 
z
" transform="scale(0.015625)"/>
        <path id="DejaVuSans-3a" d="M 750 794 
L 1409 794 
L 1409 0 
L 750 0 
L 750 794 
z
M 750 3309 
L 1409 3309 
L 1409 2516 
L 750 2516 
L 750 3309 
z
" transform="scale(0.015625)"/>
        <path id="DejaVuSans-4c" d="M 628 4666 
L 1259 4666 
L 1259 531 
L 3531 531 
L 3531 0 
L 628 0 
L 628 4666 
z
" transform="scale(0.015625)"/>
        <path id="DejaVuSans-30" d="M 2034 4250 
Q 1547 4250 1301 3770 
Q 1056 3291 1056 2328 
Q 1056 1369 1301 889 
Q 1547 409 2034 409 
Q 2525 409 2770 889 
Q 3016 1369 3016 2328 
Q 3016 3291 2770 3770 
Q 2525 4250 2034 4250 
z
M 2034 4750 
Q 2819 4750 3233 4129 
Q 3647 3509 3647 2328 
Q 3647 1150 3233 529 
Q 2819 -91 2034 -91 
Q 1250 -91 836 529 
Q 422 1150 422 2328 
Q 422 3509 836 4129 
Q 1250 4750 2034 4750 
z
" transform="scale(0.015625)"/>
        <path id="DejaVuSans-4d" d="M 628 4666 
L 1569 4666 
L 2759 1491 
L 3956 4666 
L 4897 4666 
L 4897 0 
L 4281 0 
L 4281 4097 
L 3078 897 
L 2444 897 
L 1241 4097 
L 1241 0 
L 628 0 
L 628 4666 
z
" transform="scale(0.015625)"/>
        <path id="DejaVuSans-50" d="M 1259 4147 
L 1259 2394 
L 2053 2394 
Q 2494 2394 2734 2622 
Q 2975 2850 2975 3272 
Q 2975 3691 2734 3919 
Q 2494 4147 2053 4147 
L 1259 4147 
z
M 628 4666 
L 2053 4666 
Q 2838 4666 3239 4311 
Q 3641 3956 3641 3272 
Q 3641 2581 3239 2228 
Q 2838 1875 2053 1875 
L 1259 1875 
L 1259 0 
L 628 0 
L 628 4666 
z
" transform="scale(0.015625)"/>
       </defs>
       <use xlink:href="#DejaVuSans-63"/>
       <use xlink:href="#DejaVuSans-6f" transform="translate(54.980469 0)"/>
       <use xlink:href="#DejaVuSans-72" transform="translate(116.162109 0)"/>
       <use xlink:href="#DejaVuSans-72" transform="translate(155.525391 0)"/>
       <use xlink:href="#DejaVuSans-65" transform="translate(194.388672 0)"/>
       <use xlink:href="#DejaVuSans-63" transform="translate(255.912109 0)"/>
       <use xlink:href="#DejaVuSans-74" transform="translate(310.892578 0)"/>
       <use xlink:href="#DejaVuSans-5f" transform="translate(350.101562 0)"/>
       <use xlink:href="#DejaVuSans-76" transform="translate(400.101562 0)"/>
       <use xlink:href="#DejaVuSans-61" transform="translate(459.28125 0)"/>
       <use xlink:href="#DejaVuSans-6c" transform="translate(520.560547 0)"/>
       <use xlink:href="#DejaVuSans-75" transform="translate(548.34375 0)"/>
       <use xlink:href="#DejaVuSans-65" transform="translate(611.722656 0)"/>
       <use xlink:href="#DejaVuSans-5f" transform="translate(673.246094 0)"/>
       <use xlink:href="#DejaVuSans-6c" transform="translate(723.246094 0)"/>
       <use xlink:href="#DejaVuSans-6f" transform="translate(751.029297 0)"/>
       <use xlink:href="#DejaVuSans-67" transform="translate(812.210938 0)"/>
       <use xlink:href="#DejaVuSans-69" transform="translate(875.6875 0)"/>
       <use xlink:href="#DejaVuSans-74" transform="translate(903.470703 0)"/>
       <use xlink:href="#DejaVuSans-3a" transform="translate(942.679688 0)"/>
       <use xlink:href="#DejaVuSans-4c" transform="translate(976.371094 0)"/>
       <use xlink:href="#DejaVuSans-30" transform="translate(1032.083984 0)"/>
       <use xlink:href="#DejaVuSans-4d" transform="translate(1095.707031 0)"/>
       <use xlink:href="#DejaVuSans-4c" transform="translate(1181.986328 0)"/>
       <use xlink:href="#DejaVuSans-50" transform="translate(1237.699219 0)"/>
      </g>
     </g>
    </g>
    <g id="xtick_2">
     <g id="line2d_2">
      <g>
       <use xlink:href="#mf0c68fd1f8" x="165.701961" y="266.611789" style="stroke: #000000; stroke-width: 0.8"/>
      </g>
     </g>
     <g id="text_2">
      <!-- correct_value_logit:L1H3 -->
      <g transform="translate(76.737984 366.281447) rotate(-45) scale(0.1 -0.1)">
       <defs>
        <path id="DejaVuSans-31" d="M 794 531 
L 1825 531 
L 1825 4091 
L 703 3866 
L 703 4441 
L 1819 4666 
L 2450 4666 
L 2450 531 
L 3481 531 
L 3481 0 
L 794 0 
L 794 531 
z
" transform="scale(0.015625)"/>
        <path id="DejaVuSans-48" d="M 628 4666 
L 1259 4666 
L 1259 2753 
L 3553 2753 
L 3553 4666 
L 4184 4666 
L 4184 0 
L 3553 0 
L 3553 2222 
L 1259 2222 
L 1259 0 
L 628 0 
L 628 4666 
z
" transform="scale(0.015625)"/>
        <path id="DejaVuSans-33" d="M 2597 2516 
Q 3050 2419 3304 2112 
Q 3559 1806 3559 1356 
Q 3559 666 3084 287 
Q 2609 -91 1734 -91 
Q 1441 -91 1130 -33 
Q 819 25 488 141 
L 488 750 
Q 750 597 1062 519 
Q 1375 441 1716 441 
Q 2309 441 2620 675 
Q 2931 909 2931 1356 
Q 2931 1769 2642 2001 
Q 2353 2234 1838 2234 
L 1294 2234 
L 1294 2753 
L 1863 2753 
Q 2328 2753 2575 2939 
Q 2822 3125 2822 3475 
Q 2822 3834 2567 4026 
Q 2313 4219 1838 4219 
Q 1578 4219 1281 4162 
Q 984 4106 628 3988 
L 628 4550 
Q 988 4650 1302 4700 
Q 1616 4750 1894 4750 
Q 2613 4750 3031 4423 
Q 3450 4097 3450 3541 
Q 3450 3153 3228 2886 
Q 3006 2619 2597 2516 
z
" transform="scale(0.015625)"/>
       </defs>
       <use xlink:href="#DejaVuSans-63"/>
       <use xlink:href="#DejaVuSans-6f" transform="translate(54.980469 0)"/>
       <use xlink:href="#DejaVuSans-72" transform="translate(116.162109 0)"/>
       <use xlink:href="#DejaVuSans-72" transform="translate(155.525391 0)"/>
       <use xlink:href="#DejaVuSans-65" transform="translate(194.388672 0)"/>
       <use xlink:href="#DejaVuSans-63" transform="translate(255.912109 0)"/>
       <use xlink:href="#DejaVuSans-74" transform="translate(310.892578 0)"/>
       <use xlink:href="#DejaVuSans-5f" transform="translate(350.101562 0)"/>
       <use xlink:href="#DejaVuSans-76" transform="translate(400.101562 0)"/>
       <use xlink:href="#DejaVuSans-61" transform="translate(459.28125 0)"/>
       <use xlink:href="#DejaVuSans-6c" transform="translate(520.560547 0)"/>
       <use xlink:href="#DejaVuSans-75" transform="translate(548.34375 0)"/>
       <use xlink:href="#DejaVuSans-65" transform="translate(611.722656 0)"/>
       <use xlink:href="#DejaVuSans-5f" transform="translate(673.246094 0)"/>
       <use xlink:href="#DejaVuSans-6c" transform="translate(723.246094 0)"/>
       <use xlink:href="#DejaVuSans-6f" transform="translate(751.029297 0)"/>
       <use xlink:href="#DejaVuSans-67" transform="translate(812.210938 0)"/>
       <use xlink:href="#DejaVuSans-69" transform="translate(875.6875 0)"/>
       <use xlink:href="#DejaVuSans-74" transform="translate(903.470703 0)"/>
       <use xlink:href="#DejaVuSans-3a" transform="translate(942.679688 0)"/>
       <use xlink:href="#DejaVuSans-4c" transform="translate(976.371094 0)"/>
       <use xlink:href="#DejaVuSans-31" transform="translate(1032.083984 0)"/>
       <use xlink:href="#DejaVuSans-48" transform="translate(1095.707031 0)"/>
       <use xlink:href="#DejaVuSans-33" transform="translate(1170.902344 0)"/>
      </g>
     </g>
    </g>
    <g id="xtick_3">
     <g id="line2d_3">
      <g>
       <use xlink:href="#mf0c68fd1f8" x="215.279889" y="266.611789" style="stroke: #000000; stroke-width: 0.8"/>
      </g>
     </g>
     <g id="text_3">
      <!-- negative_answer_loss:L0MLP -->
      <g transform="translate(111.292103 381.305256) rotate(-45) scale(0.1 -0.1)">
       <defs>
        <path id="DejaVuSans-6e" d="M 3513 2113 
L 3513 0 
L 2938 0 
L 2938 2094 
Q 2938 2591 2744 2837 
Q 2550 3084 2163 3084 
Q 1697 3084 1428 2787 
Q 1159 2491 1159 1978 
L 1159 0 
L 581 0 
L 581 3500 
L 1159 3500 
L 1159 2956 
Q 1366 3272 1645 3428 
Q 1925 3584 2291 3584 
Q 2894 3584 3203 3211 
Q 3513 2838 3513 2113 
z
" transform="scale(0.015625)"/>
        <path id="DejaVuSans-73" d="M 2834 3397 
L 2834 2853 
Q 2591 2978 2328 3040 
Q 2066 3103 1784 3103 
Q 1356 3103 1142 2972 
Q 928 2841 928 2578 
Q 928 2378 1081 2264 
Q 1234 2150 1697 2047 
L 1894 2003 
Q 2506 1872 2764 1633 
Q 3022 1394 3022 966 
Q 3022 478 2636 193 
Q 2250 -91 1575 -91 
Q 1294 -91 989 -36 
Q 684 19 347 128 
L 347 722 
Q 666 556 975 473 
Q 1284 391 1588 391 
Q 1994 391 2212 530 
Q 2431 669 2431 922 
Q 2431 1156 2273 1281 
Q 2116 1406 1581 1522 
L 1381 1569 
Q 847 1681 609 1914 
Q 372 2147 372 2553 
Q 372 3047 722 3315 
Q 1072 3584 1716 3584 
Q 2034 3584 2315 3537 
Q 2597 3491 2834 3397 
z
" transform="scale(0.015625)"/>
        <path id="DejaVuSans-77" d="M 269 3500 
L 844 3500 
L 1563 769 
L 2278 3500 
L 2956 3500 
L 3675 769 
L 4391 3500 
L 4966 3500 
L 4050 0 
L 3372 0 
L 2619 2869 
L 1863 0 
L 1184 0 
L 269 3500 
z
" transform="scale(0.015625)"/>
       </defs>
       <use xlink:href="#DejaVuSans-6e"/>
       <use xlink:href="#DejaVuSans-65" transform="translate(63.378906 0)"/>
       <use xlink:href="#DejaVuSans-67" transform="translate(124.902344 0)"/>
       <use xlink:href="#DejaVuSans-61" transform="translate(188.378906 0)"/>
       <use xlink:href="#DejaVuSans-74" transform="translate(249.658203 0)"/>
       <use xlink:href="#DejaVuSans-69" transform="translate(288.867188 0)"/>
       <use xlink:href="#DejaVuSans-76" transform="translate(316.650391 0)"/>
       <use xlink:href="#DejaVuSans-65" transform="translate(375.830078 0)"/>
       <use xlink:href="#DejaVuSans-5f" transform="translate(437.353516 0)"/>
       <use xlink:href="#DejaVuSans-61" transform="translate(487.353516 0)"/>
       <use xlink:href="#DejaVuSans-6e" transform="translate(548.632812 0)"/>
       <use xlink:href="#DejaVuSans-73" transform="translate(612.011719 0)"/>
       <use xlink:href="#DejaVuSans-77" transform="translate(664.111328 0)"/>
       <use xlink:href="#DejaVuSans-65" transform="translate(745.898438 0)"/>
       <use xlink:href="#DejaVuSans-72" transform="translate(807.421875 0)"/>
       <use xlink:href="#DejaVuSans-5f" transform="translate(848.535156 0)"/>
       <use xlink:href="#DejaVuSans-6c" transform="translate(898.535156 0)"/>
       <use xlink:href="#DejaVuSans-6f" transform="translate(926.318359 0)"/>
       <use xlink:href="#DejaVuSans-73" transform="translate(987.5 0)"/>
       <use xlink:href="#DejaVuSans-73" transform="translate(1039.599609 0)"/>
       <use xlink:href="#DejaVuSans-3a" transform="translate(1091.699219 0)"/>
       <use xlink:href="#DejaVuSans-4c" transform="translate(1125.390625 0)"/>
       <use xlink:href="#DejaVuSans-30" transform="translate(1181.103516 0)"/>
       <use xlink:href="#DejaVuSans-4d" transform="translate(1244.726562 0)"/>
       <use xlink:href="#DejaVuSans-4c" transform="translate(1331.005859 0)"/>
       <use xlink:href="#DejaVuSans-50" transform="translate(1386.71875 0)"/>
      </g>
     </g>
    </g>
    <g id="xtick_4">
     <g id="line2d_4">
      <g>
       <use xlink:href="#mf0c68fd1f8" x="264.857817" y="266.611789" style="stroke: #000000; stroke-width: 0.8"/>
      </g>
     </g>
     <g id="text_4">
      <!-- correct_value_logit:L1MLP -->
      <g transform="translate(171.405922 370.769365) rotate(-45) scale(0.1 -0.1)">
       <use xlink:href="#DejaVuSans-63"/>
       <use xlink:href="#DejaVuSans-6f" transform="translate(54.980469 0)"/>
       <use xlink:href="#DejaVuSans-72" transform="translate(116.162109 0)"/>
       <use xlink:href="#DejaVuSans-72" transform="translate(155.525391 0)"/>
       <use xlink:href="#DejaVuSans-65" transform="translate(194.388672 0)"/>
       <use xlink:href="#DejaVuSans-63" transform="translate(255.912109 0)"/>
       <use xlink:href="#DejaVuSans-74" transform="translate(310.892578 0)"/>
       <use xlink:href="#DejaVuSans-5f" transform="translate(350.101562 0)"/>
       <use xlink:href="#DejaVuSans-76" transform="translate(400.101562 0)"/>
       <use xlink:href="#DejaVuSans-61" transform="translate(459.28125 0)"/>
       <use xlink:href="#DejaVuSans-6c" transform="translate(520.560547 0)"/>
       <use xlink:href="#DejaVuSans-75" transform="translate(548.34375 0)"/>
       <use xlink:href="#DejaVuSans-65" transform="translate(611.722656 0)"/>
       <use xlink:href="#DejaVuSans-5f" transform="translate(673.246094 0)"/>
       <use xlink:href="#DejaVuSans-6c" transform="translate(723.246094 0)"/>
       <use xlink:href="#DejaVuSans-6f" transform="translate(751.029297 0)"/>
       <use xlink:href="#DejaVuSans-67" transform="translate(812.210938 0)"/>
       <use xlink:href="#DejaVuSans-69" transform="translate(875.6875 0)"/>
       <use xlink:href="#DejaVuSans-74" transform="translate(903.470703 0)"/>
       <use xlink:href="#DejaVuSans-3a" transform="translate(942.679688 0)"/>
       <use xlink:href="#DejaVuSans-4c" transform="translate(976.371094 0)"/>
       <use xlink:href="#DejaVuSans-31" transform="translate(1032.083984 0)"/>
       <use xlink:href="#DejaVuSans-4d" transform="translate(1095.707031 0)"/>
       <use xlink:href="#DejaVuSans-4c" transform="translate(1181.986328 0)"/>
       <use xlink:href="#DejaVuSans-50" transform="translate(1237.699219 0)"/>
      </g>
     </g>
    </g>
    <g id="xtick_5">
     <g id="line2d_5">
      <g>
       <use xlink:href="#mf0c68fd1f8" x="314.435746" y="266.611789" style="stroke: #000000; stroke-width: 0.8"/>
      </g>
     </g>
     <g id="text_5">
      <!-- fixed_source_competitor_margin:L0MLP -->
      <g transform="translate(172.677409 419.075807) rotate(-45) scale(0.1 -0.1)">
       <defs>
        <path id="DejaVuSans-66" d="M 2375 4863 
L 2375 4384 
L 1825 4384 
Q 1516 4384 1395 4259 
Q 1275 4134 1275 3809 
L 1275 3500 
L 2222 3500 
L 2222 3053 
L 1275 3053 
L 1275 0 
L 697 0 
L 697 3053 
L 147 3053 
L 147 3500 
L 697 3500 
L 697 3744 
Q 697 4328 969 4595 
Q 1241 4863 1831 4863 
L 2375 4863 
z
" transform="scale(0.015625)"/>
        <path id="DejaVuSans-78" d="M 3513 3500 
L 2247 1797 
L 3578 0 
L 2900 0 
L 1881 1375 
L 863 0 
L 184 0 
L 1544 1831 
L 300 3500 
L 978 3500 
L 1906 2253 
L 2834 3500 
L 3513 3500 
z
" transform="scale(0.015625)"/>
        <path id="DejaVuSans-64" d="M 2906 2969 
L 2906 4863 
L 3481 4863 
L 3481 0 
L 2906 0 
L 2906 525 
Q 2725 213 2448 61 
Q 2172 -91 1784 -91 
Q 1150 -91 751 415 
Q 353 922 353 1747 
Q 353 2572 751 3078 
Q 1150 3584 1784 3584 
Q 2172 3584 2448 3432 
Q 2725 3281 2906 2969 
z
M 947 1747 
Q 947 1113 1208 752 
Q 1469 391 1925 391 
Q 2381 391 2643 752 
Q 2906 1113 2906 1747 
Q 2906 2381 2643 2742 
Q 2381 3103 1925 3103 
Q 1469 3103 1208 2742 
Q 947 2381 947 1747 
z
" transform="scale(0.015625)"/>
        <path id="DejaVuSans-6d" d="M 3328 2828 
Q 3544 3216 3844 3400 
Q 4144 3584 4550 3584 
Q 5097 3584 5394 3201 
Q 5691 2819 5691 2113 
L 5691 0 
L 5113 0 
L 5113 2094 
Q 5113 2597 4934 2840 
Q 4756 3084 4391 3084 
Q 3944 3084 3684 2787 
Q 3425 2491 3425 1978 
L 3425 0 
L 2847 0 
L 2847 2094 
Q 2847 2600 2669 2842 
Q 2491 3084 2119 3084 
Q 1678 3084 1418 2786 
Q 1159 2488 1159 1978 
L 1159 0 
L 581 0 
L 581 3500 
L 1159 3500 
L 1159 2956 
Q 1356 3278 1631 3431 
Q 1906 3584 2284 3584 
Q 2666 3584 2933 3390 
Q 3200 3197 3328 2828 
z
" transform="scale(0.015625)"/>
        <path id="DejaVuSans-70" d="M 1159 525 
L 1159 -1331 
L 581 -1331 
L 581 3500 
L 1159 3500 
L 1159 2969 
Q 1341 3281 1617 3432 
Q 1894 3584 2278 3584 
Q 2916 3584 3314 3078 
Q 3713 2572 3713 1747 
Q 3713 922 3314 415 
Q 2916 -91 2278 -91 
Q 1894 -91 1617 61 
Q 1341 213 1159 525 
z
M 3116 1747 
Q 3116 2381 2855 2742 
Q 2594 3103 2138 3103 
Q 1681 3103 1420 2742 
Q 1159 2381 1159 1747 
Q 1159 1113 1420 752 
Q 1681 391 2138 391 
Q 2594 391 2855 752 
Q 3116 1113 3116 1747 
z
" transform="scale(0.015625)"/>
       </defs>
       <use xlink:href="#DejaVuSans-66"/>
       <use xlink:href="#DejaVuSans-69" transform="translate(35.205078 0)"/>
       <use xlink:href="#DejaVuSans-78" transform="translate(62.988281 0)"/>
       <use xlink:href="#DejaVuSans-65" transform="translate(119.042969 0)"/>
       <use xlink:href="#DejaVuSans-64" transform="translate(180.566406 0)"/>
       <use xlink:href="#DejaVuSans-5f" transform="translate(244.042969 0)"/>
       <use xlink:href="#DejaVuSans-73" transform="translate(294.042969 0)"/>
       <use xlink:href="#DejaVuSans-6f" transform="translate(346.142578 0)"/>
       <use xlink:href="#DejaVuSans-75" transform="translate(407.324219 0)"/>
       <use xlink:href="#DejaVuSans-72" transform="translate(470.703125 0)"/>
       <use xlink:href="#DejaVuSans-63" transform="translate(509.566406 0)"/>
       <use xlink:href="#DejaVuSans-65" transform="translate(564.546875 0)"/>
       <use xlink:href="#DejaVuSans-5f" transform="translate(626.070312 0)"/>
       <use xlink:href="#DejaVuSans-63" transform="translate(676.070312 0)"/>
       <use xlink:href="#DejaVuSans-6f" transform="translate(731.050781 0)"/>
       <use xlink:href="#DejaVuSans-6d" transform="translate(792.232422 0)"/>
       <use xlink:href="#DejaVuSans-70" transform="translate(889.644531 0)"/>
       <use xlink:href="#DejaVuSans-65" transform="translate(953.121094 0)"/>
       <use xlink:href="#DejaVuSans-74" transform="translate(1014.644531 0)"/>
       <use xlink:href="#DejaVuSans-69" transform="translate(1053.853516 0)"/>
       <use xlink:href="#DejaVuSans-74" transform="translate(1081.636719 0)"/>
       <use xlink:href="#DejaVuSans-6f" transform="translate(1120.845703 0)"/>
       <use xlink:href="#DejaVuSans-72" transform="translate(1182.027344 0)"/>
       <use xlink:href="#DejaVuSans-5f" transform="translate(1223.140625 0)"/>
       <use xlink:href="#DejaVuSans-6d" transform="translate(1273.140625 0)"/>
       <use xlink:href="#DejaVuSans-61" transform="translate(1370.552734 0)"/>
       <use xlink:href="#DejaVuSans-72" transform="translate(1431.832031 0)"/>
       <use xlink:href="#DejaVuSans-67" transform="translate(1471.195312 0)"/>
       <use xlink:href="#DejaVuSans-69" transform="translate(1534.671875 0)"/>
       <use xlink:href="#DejaVuSans-6e" transform="translate(1562.455078 0)"/>
       <use xlink:href="#DejaVuSans-3a" transform="translate(1625.833984 0)"/>
       <use xlink:href="#DejaVuSans-4c" transform="translate(1659.525391 0)"/>
       <use xlink:href="#DejaVuSans-30" transform="translate(1715.238281 0)"/>
       <use xlink:href="#DejaVuSans-4d" transform="translate(1778.861328 0)"/>
       <use xlink:href="#DejaVuSans-4c" transform="translate(1865.140625 0)"/>
       <use xlink:href="#DejaVuSans-50" transform="translate(1920.853516 0)"/>
      </g>
     </g>
    </g>
    <g id="xtick_6">
     <g id="line2d_6">
      <g>
       <use xlink:href="#mf0c68fd1f8" x="364.013674" y="266.611789" style="stroke: #000000; stroke-width: 0.8"/>
      </g>
     </g>
     <g id="text_6">
      <!-- fixed_target_competitor_margin:L0MLP -->
      <g transform="translate(224.233026 417.098118) rotate(-45) scale(0.1 -0.1)">
       <use xlink:href="#DejaVuSans-66"/>
       <use xlink:href="#DejaVuSans-69" transform="translate(35.205078 0)"/>
       <use xlink:href="#DejaVuSans-78" transform="translate(62.988281 0)"/>
       <use xlink:href="#DejaVuSans-65" transform="translate(119.042969 0)"/>
       <use xlink:href="#DejaVuSans-64" transform="translate(180.566406 0)"/>
       <use xlink:href="#DejaVuSans-5f" transform="translate(244.042969 0)"/>
       <use xlink:href="#DejaVuSans-74" transform="translate(294.042969 0)"/>
       <use xlink:href="#DejaVuSans-61" transform="translate(333.251953 0)"/>
       <use xlink:href="#DejaVuSans-72" transform="translate(394.53125 0)"/>
       <use xlink:href="#DejaVuSans-67" transform="translate(433.894531 0)"/>
       <use xlink:href="#DejaVuSans-65" transform="translate(497.371094 0)"/>
       <use xlink:href="#DejaVuSans-74" transform="translate(558.894531 0)"/>
       <use xlink:href="#DejaVuSans-5f" transform="translate(598.103516 0)"/>
       <use xlink:href="#DejaVuSans-63" transform="translate(648.103516 0)"/>
       <use xlink:href="#DejaVuSans-6f" transform="translate(703.083984 0)"/>
       <use xlink:href="#DejaVuSans-6d" transform="translate(764.265625 0)"/>
       <use xlink:href="#DejaVuSans-70" transform="translate(861.677734 0)"/>
       <use xlink:href="#DejaVuSans-65" transform="translate(925.154297 0)"/>
       <use xlink:href="#DejaVuSans-74" transform="translate(986.677734 0)"/>
       <use xlink:href="#DejaVuSans-69" transform="translate(1025.886719 0)"/>
       <use xlink:href="#DejaVuSans-74" transform="translate(1053.669922 0)"/>
       <use xlink:href="#DejaVuSans-6f" transform="translate(1092.878906 0)"/>
       <use xlink:href="#DejaVuSans-72" transform="translate(1154.060547 0)"/>
       <use xlink:href="#DejaVuSans-5f" transform="translate(1195.173828 0)"/>
       <use xlink:href="#DejaVuSans-6d" transform="translate(1245.173828 0)"/>
       <use xlink:href="#DejaVuSans-61" transform="translate(1342.585938 0)"/>
       <use xlink:href="#DejaVuSans-72" transform="translate(1403.865234 0)"/>
       <use xlink:href="#DejaVuSans-67" transform="translate(1443.228516 0)"/>
       <use xlink:href="#DejaVuSans-69" transform="translate(1506.705078 0)"/>
       <use xlink:href="#DejaVuSans-6e" transform="translate(1534.488281 0)"/>
       <use xlink:href="#DejaVuSans-3a" transform="translate(1597.867188 0)"/>
       <use xlink:href="#DejaVuSans-4c" transform="translate(1631.558594 0)"/>
       <use xlink:href="#DejaVuSans-30" transform="translate(1687.271484 0)"/>
       <use xlink:href="#DejaVuSans-4d" transform="translate(1750.894531 0)"/>
       <use xlink:href="#DejaVuSans-4c" transform="translate(1837.173828 0)"/>
       <use xlink:href="#DejaVuSans-50" transform="translate(1892.886719 0)"/>
      </g>
     </g>
    </g>
    <g id="xtick_7">
     <g id="line2d_7">
      <g>
       <use xlink:href="#mf0c68fd1f8" x="413.591602" y="266.611789" style="stroke: #000000; stroke-width: 0.8"/>
      </g>
     </g>
     <g id="text_7">
      <!-- fixed_source_competitor_margin:L1H3 -->
      <g transform="translate(276.321184 414.587889) rotate(-45) scale(0.1 -0.1)">
       <use xlink:href="#DejaVuSans-66"/>
       <use xlink:href="#DejaVuSans-69" transform="translate(35.205078 0)"/>
       <use xlink:href="#DejaVuSans-78" transform="translate(62.988281 0)"/>
       <use xlink:href="#DejaVuSans-65" transform="translate(119.042969 0)"/>
       <use xlink:href="#DejaVuSans-64" transform="translate(180.566406 0)"/>
       <use xlink:href="#DejaVuSans-5f" transform="translate(244.042969 0)"/>
       <use xlink:href="#DejaVuSans-73" transform="translate(294.042969 0)"/>
       <use xlink:href="#DejaVuSans-6f" transform="translate(346.142578 0)"/>
       <use xlink:href="#DejaVuSans-75" transform="translate(407.324219 0)"/>
       <use xlink:href="#DejaVuSans-72" transform="translate(470.703125 0)"/>
       <use xlink:href="#DejaVuSans-63" transform="translate(509.566406 0)"/>
       <use xlink:href="#DejaVuSans-65" transform="translate(564.546875 0)"/>
       <use xlink:href="#DejaVuSans-5f" transform="translate(626.070312 0)"/>
       <use xlink:href="#DejaVuSans-63" transform="translate(676.070312 0)"/>
       <use xlink:href="#DejaVuSans-6f" transform="translate(731.050781 0)"/>
       <use xlink:href="#DejaVuSans-6d" transform="translate(792.232422 0)"/>
       <use xlink:href="#DejaVuSans-70" transform="translate(889.644531 0)"/>
       <use xlink:href="#DejaVuSans-65" transform="translate(953.121094 0)"/>
       <use xlink:href="#DejaVuSans-74" transform="translate(1014.644531 0)"/>
       <use xlink:href="#DejaVuSans-69" transform="translate(1053.853516 0)"/>
       <use xlink:href="#DejaVuSans-74" transform="translate(1081.636719 0)"/>
       <use xlink:href="#DejaVuSans-6f" transform="translate(1120.845703 0)"/>
       <use xlink:href="#DejaVuSans-72" transform="translate(1182.027344 0)"/>
       <use xlink:href="#DejaVuSans-5f" transform="translate(1223.140625 0)"/>
       <use xlink:href="#DejaVuSans-6d" transform="translate(1273.140625 0)"/>
       <use xlink:href="#DejaVuSans-61" transform="translate(1370.552734 0)"/>
       <use xlink:href="#DejaVuSans-72" transform="translate(1431.832031 0)"/>
       <use xlink:href="#DejaVuSans-67" transform="translate(1471.195312 0)"/>
       <use xlink:href="#DejaVuSans-69" transform="translate(1534.671875 0)"/>
       <use xlink:href="#DejaVuSans-6e" transform="translate(1562.455078 0)"/>
       <use xlink:href="#DejaVuSans-3a" transform="translate(1625.833984 0)"/>
       <use xlink:href="#DejaVuSans-4c" transform="translate(1659.525391 0)"/>
       <use xlink:href="#DejaVuSans-31" transform="translate(1715.238281 0)"/>
       <use xlink:href="#DejaVuSans-48" transform="translate(1778.861328 0)"/>
       <use xlink:href="#DejaVuSans-33" transform="translate(1854.056641 0)"/>
      </g>
     </g>
    </g>
    <g id="xtick_8">
     <g id="line2d_8">
      <g>
       <use xlink:href="#mf0c68fd1f8" x="463.169531" y="266.611789" style="stroke: #000000; stroke-width: 0.8"/>
      </g>
     </g>
     <g id="text_8">
      <!-- fixed_target_competitor_margin:L1H3 -->
      <g transform="translate(327.876801 412.610199) rotate(-45) scale(0.1 -0.1)">
       <use xlink:href="#DejaVuSans-66"/>
       <use xlink:href="#DejaVuSans-69" transform="translate(35.205078 0)"/>
       <use xlink:href="#DejaVuSans-78" transform="translate(62.988281 0)"/>
       <use xlink:href="#DejaVuSans-65" transform="translate(119.042969 0)"/>
       <use xlink:href="#DejaVuSans-64" transform="translate(180.566406 0)"/>
       <use xlink:href="#DejaVuSans-5f" transform="translate(244.042969 0)"/>
       <use xlink:href="#DejaVuSans-74" transform="translate(294.042969 0)"/>
       <use xlink:href="#DejaVuSans-61" transform="translate(333.251953 0)"/>
       <use xlink:href="#DejaVuSans-72" transform="translate(394.53125 0)"/>
       <use xlink:href="#DejaVuSans-67" transform="translate(433.894531 0)"/>
       <use xlink:href="#DejaVuSans-65" transform="translate(497.371094 0)"/>
       <use xlink:href="#DejaVuSans-74" transform="translate(558.894531 0)"/>
       <use xlink:href="#DejaVuSans-5f" transform="translate(598.103516 0)"/>
       <use xlink:href="#DejaVuSans-63" transform="translate(648.103516 0)"/>
       <use xlink:href="#DejaVuSans-6f" transform="translate(703.083984 0)"/>
       <use xlink:href="#DejaVuSans-6d" transform="translate(764.265625 0)"/>
       <use xlink:href="#DejaVuSans-70" transform="translate(861.677734 0)"/>
       <use xlink:href="#DejaVuSans-65" transform="translate(925.154297 0)"/>
       <use xlink:href="#DejaVuSans-74" transform="translate(986.677734 0)"/>
       <use xlink:href="#DejaVuSans-69" transform="translate(1025.886719 0)"/>
       <use xlink:href="#DejaVuSans-74" transform="translate(1053.669922 0)"/>
       <use xlink:href="#DejaVuSans-6f" transform="translate(1092.878906 0)"/>
       <use xlink:href="#DejaVuSans-72" transform="translate(1154.060547 0)"/>
       <use xlink:href="#DejaVuSans-5f" transform="translate(1195.173828 0)"/>
       <use xlink:href="#DejaVuSans-6d" transform="translate(1245.173828 0)"/>
       <use xlink:href="#DejaVuSans-61" transform="translate(1342.585938 0)"/>
       <use xlink:href="#DejaVuSans-72" transform="translate(1403.865234 0)"/>
       <use xlink:href="#DejaVuSans-67" transform="translate(1443.228516 0)"/>
       <use xlink:href="#DejaVuSans-69" transform="translate(1506.705078 0)"/>
       <use xlink:href="#DejaVuSans-6e" transform="translate(1534.488281 0)"/>
       <use xlink:href="#DejaVuSans-3a" transform="translate(1597.867188 0)"/>
       <use xlink:href="#DejaVuSans-4c" transform="translate(1631.558594 0)"/>
       <use xlink:href="#DejaVuSans-31" transform="translate(1687.271484 0)"/>
       <use xlink:href="#DejaVuSans-48" transform="translate(1750.894531 0)"/>
       <use xlink:href="#DejaVuSans-33" transform="translate(1826.089844 0)"/>
      </g>
     </g>
    </g>
    <g id="xtick_9">
     <g id="line2d_9">
      <g>
       <use xlink:href="#mf0c68fd1f8" x="512.747459" y="266.611789" style="stroke: #000000; stroke-width: 0.8"/>
      </g>
     </g>
     <g id="text_9">
      <!-- fixed_source_competitor_margin:L1MLP -->
      <g transform="translate(370.989122 419.075807) rotate(-45) scale(0.1 -0.1)">
       <use xlink:href="#DejaVuSans-66"/>
       <use xlink:href="#DejaVuSans-69" transform="translate(35.205078 0)"/>
       <use xlink:href="#DejaVuSans-78" transform="translate(62.988281 0)"/>
       <use xlink:href="#DejaVuSans-65" transform="translate(119.042969 0)"/>
       <use xlink:href="#DejaVuSans-64" transform="translate(180.566406 0)"/>
       <use xlink:href="#DejaVuSans-5f" transform="translate(244.042969 0)"/>
       <use xlink:href="#DejaVuSans-73" transform="translate(294.042969 0)"/>
       <use xlink:href="#DejaVuSans-6f" transform="translate(346.142578 0)"/>
       <use xlink:href="#DejaVuSans-75" transform="translate(407.324219 0)"/>
       <use xlink:href="#DejaVuSans-72" transform="translate(470.703125 0)"/>
       <use xlink:href="#DejaVuSans-63" transform="translate(509.566406 0)"/>
       <use xlink:href="#DejaVuSans-65" transform="translate(564.546875 0)"/>
       <use xlink:href="#DejaVuSans-5f" transform="translate(626.070312 0)"/>
       <use xlink:href="#DejaVuSans-63" transform="translate(676.070312 0)"/>
       <use xlink:href="#DejaVuSans-6f" transform="translate(731.050781 0)"/>
       <use xlink:href="#DejaVuSans-6d" transform="translate(792.232422 0)"/>
       <use xlink:href="#DejaVuSans-70" transform="translate(889.644531 0)"/>
       <use xlink:href="#DejaVuSans-65" transform="translate(953.121094 0)"/>
       <use xlink:href="#DejaVuSans-74" transform="translate(1014.644531 0)"/>
       <use xlink:href="#DejaVuSans-69" transform="translate(1053.853516 0)"/>
       <use xlink:href="#DejaVuSans-74" transform="translate(1081.636719 0)"/>
       <use xlink:href="#DejaVuSans-6f" transform="translate(1120.845703 0)"/>
       <use xlink:href="#DejaVuSans-72" transform="translate(1182.027344 0)"/>
       <use xlink:href="#DejaVuSans-5f" transform="translate(1223.140625 0)"/>
       <use xlink:href="#DejaVuSans-6d" transform="translate(1273.140625 0)"/>
       <use xlink:href="#DejaVuSans-61" transform="translate(1370.552734 0)"/>
       <use xlink:href="#DejaVuSans-72" transform="translate(1431.832031 0)"/>
       <use xlink:href="#DejaVuSans-67" transform="translate(1471.195312 0)"/>
       <use xlink:href="#DejaVuSans-69" transform="translate(1534.671875 0)"/>
       <use xlink:href="#DejaVuSans-6e" transform="translate(1562.455078 0)"/>
       <use xlink:href="#DejaVuSans-3a" transform="translate(1625.833984 0)"/>
       <use xlink:href="#DejaVuSans-4c" transform="translate(1659.525391 0)"/>
       <use xlink:href="#DejaVuSans-31" transform="translate(1715.238281 0)"/>
       <use xlink:href="#DejaVuSans-4d" transform="translate(1778.861328 0)"/>
       <use xlink:href="#DejaVuSans-4c" transform="translate(1865.140625 0)"/>
       <use xlink:href="#DejaVuSans-50" transform="translate(1920.853516 0)"/>
      </g>
     </g>
    </g>
    <g id="xtick_10">
     <g id="line2d_10">
      <g>
       <use xlink:href="#mf0c68fd1f8" x="562.325387" y="266.611789" style="stroke: #000000; stroke-width: 0.8"/>
      </g>
     </g>
     <g id="text_10">
      <!-- fixed_target_competitor_margin:L1MLP -->
      <g transform="translate(422.54474 417.098118) rotate(-45) scale(0.1 -0.1)">
       <use xlink:href="#DejaVuSans-66"/>
       <use xlink:href="#DejaVuSans-69" transform="translate(35.205078 0)"/>
       <use xlink:href="#DejaVuSans-78" transform="translate(62.988281 0)"/>
       <use xlink:href="#DejaVuSans-65" transform="translate(119.042969 0)"/>
       <use xlink:href="#DejaVuSans-64" transform="translate(180.566406 0)"/>
       <use xlink:href="#DejaVuSans-5f" transform="translate(244.042969 0)"/>
       <use xlink:href="#DejaVuSans-74" transform="translate(294.042969 0)"/>
       <use xlink:href="#DejaVuSans-61" transform="translate(333.251953 0)"/>
       <use xlink:href="#DejaVuSans-72" transform="translate(394.53125 0)"/>
       <use xlink:href="#DejaVuSans-67" transform="translate(433.894531 0)"/>
       <use xlink:href="#DejaVuSans-65" transform="translate(497.371094 0)"/>
       <use xlink:href="#DejaVuSans-74" transform="translate(558.894531 0)"/>
       <use xlink:href="#DejaVuSans-5f" transform="translate(598.103516 0)"/>
       <use xlink:href="#DejaVuSans-63" transform="translate(648.103516 0)"/>
       <use xlink:href="#DejaVuSans-6f" transform="translate(703.083984 0)"/>
       <use xlink:href="#DejaVuSans-6d" transform="translate(764.265625 0)"/>
       <use xlink:href="#DejaVuSans-70" transform="translate(861.677734 0)"/>
       <use xlink:href="#DejaVuSans-65" transform="translate(925.154297 0)"/>
       <use xlink:href="#DejaVuSans-74" transform="translate(986.677734 0)"/>
       <use xlink:href="#DejaVuSans-69" transform="translate(1025.886719 0)"/>
       <use xlink:href="#DejaVuSans-74" transform="translate(1053.669922 0)"/>
       <use xlink:href="#DejaVuSans-6f" transform="translate(1092.878906 0)"/>
       <use xlink:href="#DejaVuSans-72" transform="translate(1154.060547 0)"/>
       <use xlink:href="#DejaVuSans-5f" transform="translate(1195.173828 0)"/>
       <use xlink:href="#DejaVuSans-6d" transform="translate(1245.173828 0)"/>
       <use xlink:href="#DejaVuSans-61" transform="translate(1342.585938 0)"/>
       <use xlink:href="#DejaVuSans-72" transform="translate(1403.865234 0)"/>
       <use xlink:href="#DejaVuSans-67" transform="translate(1443.228516 0)"/>
       <use xlink:href="#DejaVuSans-69" transform="translate(1506.705078 0)"/>
       <use xlink:href="#DejaVuSans-6e" transform="translate(1534.488281 0)"/>
       <use xlink:href="#DejaVuSans-3a" transform="translate(1597.867188 0)"/>
       <use xlink:href="#DejaVuSans-4c" transform="translate(1631.558594 0)"/>
       <use xlink:href="#DejaVuSans-31" transform="translate(1687.271484 0)"/>
       <use xlink:href="#DejaVuSans-4d" transform="translate(1750.894531 0)"/>
       <use xlink:href="#DejaVuSans-4c" transform="translate(1837.173828 0)"/>
       <use xlink:href="#DejaVuSans-50" transform="translate(1892.886719 0)"/>
      </g>
     </g>
    </g>
    <g id="xtick_11">
     <g id="line2d_11">
      <g>
       <use xlink:href="#mf0c68fd1f8" x="611.903316" y="266.611789" style="stroke: #000000; stroke-width: 0.8"/>
      </g>
     </g>
     <g id="text_11">
      <!-- negative_answer_loss:L1H3 -->
      <g transform="translate(512.403448 376.817338) rotate(-45) scale(0.1 -0.1)">
       <use xlink:href="#DejaVuSans-6e"/>
       <use xlink:href="#DejaVuSans-65" transform="translate(63.378906 0)"/>
       <use xlink:href="#DejaVuSans-67" transform="translate(124.902344 0)"/>
       <use xlink:href="#DejaVuSans-61" transform="translate(188.378906 0)"/>
       <use xlink:href="#DejaVuSans-74" transform="translate(249.658203 0)"/>
       <use xlink:href="#DejaVuSans-69" transform="translate(288.867188 0)"/>
       <use xlink:href="#DejaVuSans-76" transform="translate(316.650391 0)"/>
       <use xlink:href="#DejaVuSans-65" transform="translate(375.830078 0)"/>
       <use xlink:href="#DejaVuSans-5f" transform="translate(437.353516 0)"/>
       <use xlink:href="#DejaVuSans-61" transform="translate(487.353516 0)"/>
       <use xlink:href="#DejaVuSans-6e" transform="translate(548.632812 0)"/>
       <use xlink:href="#DejaVuSans-73" transform="translate(612.011719 0)"/>
       <use xlink:href="#DejaVuSans-77" transform="translate(664.111328 0)"/>
       <use xlink:href="#DejaVuSans-65" transform="translate(745.898438 0)"/>
       <use xlink:href="#DejaVuSans-72" transform="translate(807.421875 0)"/>
       <use xlink:href="#DejaVuSans-5f" transform="translate(848.535156 0)"/>
       <use xlink:href="#DejaVuSans-6c" transform="translate(898.535156 0)"/>
       <use xlink:href="#DejaVuSans-6f" transform="translate(926.318359 0)"/>
       <use xlink:href="#DejaVuSans-73" transform="translate(987.5 0)"/>
       <use xlink:href="#DejaVuSans-73" transform="translate(1039.599609 0)"/>
       <use xlink:href="#DejaVuSans-3a" transform="translate(1091.699219 0)"/>
       <use xlink:href="#DejaVuSans-4c" transform="translate(1125.390625 0)"/>
       <use xlink:href="#DejaVuSans-31" transform="translate(1181.103516 0)"/>
       <use xlink:href="#DejaVuSans-48" transform="translate(1244.726562 0)"/>
       <use xlink:href="#DejaVuSans-33" transform="translate(1319.921875 0)"/>
      </g>
     </g>
    </g>
    <g id="xtick_12">
     <g id="line2d_12">
      <g>
       <use xlink:href="#mf0c68fd1f8" x="661.481244" y="266.611789" style="stroke: #000000; stroke-width: 0.8"/>
      </g>
     </g>
     <g id="text_12">
      <!-- negative_answer_loss:L1MLP -->
      <g transform="translate(557.493458 381.305256) rotate(-45) scale(0.1 -0.1)">
       <use xlink:href="#DejaVuSans-6e"/>
       <use xlink:href="#DejaVuSans-65" transform="translate(63.378906 0)"/>
       <use xlink:href="#DejaVuSans-67" transform="translate(124.902344 0)"/>
       <use xlink:href="#DejaVuSans-61" transform="translate(188.378906 0)"/>
       <use xlink:href="#DejaVuSans-74" transform="translate(249.658203 0)"/>
       <use xlink:href="#DejaVuSans-69" transform="translate(288.867188 0)"/>
       <use xlink:href="#DejaVuSans-76" transform="translate(316.650391 0)"/>
       <use xlink:href="#DejaVuSans-65" transform="translate(375.830078 0)"/>
       <use xlink:href="#DejaVuSans-5f" transform="translate(437.353516 0)"/>
       <use xlink:href="#DejaVuSans-61" transform="translate(487.353516 0)"/>
       <use xlink:href="#DejaVuSans-6e" transform="translate(548.632812 0)"/>
       <use xlink:href="#DejaVuSans-73" transform="translate(612.011719 0)"/>
       <use xlink:href="#DejaVuSans-77" transform="translate(664.111328 0)"/>
       <use xlink:href="#DejaVuSans-65" transform="translate(745.898438 0)"/>
       <use xlink:href="#DejaVuSans-72" transform="translate(807.421875 0)"/>
       <use xlink:href="#DejaVuSans-5f" transform="translate(848.535156 0)"/>
       <use xlink:href="#DejaVuSans-6c" transform="translate(898.535156 0)"/>
       <use xlink:href="#DejaVuSans-6f" transform="translate(926.318359 0)"/>
       <use xlink:href="#DejaVuSans-73" transform="translate(987.5 0)"/>
       <use xlink:href="#DejaVuSans-73" transform="translate(1039.599609 0)"/>
       <use xlink:href="#DejaVuSans-3a" transform="translate(1091.699219 0)"/>
       <use xlink:href="#DejaVuSans-4c" transform="translate(1125.390625 0)"/>
       <use xlink:href="#DejaVuSans-31" transform="translate(1181.103516 0)"/>
       <use xlink:href="#DejaVuSans-4d" transform="translate(1244.726562 0)"/>
       <use xlink:href="#DejaVuSans-4c" transform="translate(1331.005859 0)"/>
       <use xlink:href="#DejaVuSans-50" transform="translate(1386.71875 0)"/>
      </g>
     </g>
    </g>
   </g>
   <g id="matplotlib.axis_2">
    <g id="ytick_1">
     <g id="line2d_13">
      <path d="M 68.405276 250.242217 
L 709.2 250.242217 
" clip-path="url(#p8e816c8a9b)" style="fill: none; stroke: #b0b0b0; stroke-opacity: 0.25; stroke-width: 0.8; stroke-linecap: square"/>
     </g>
     <g id="line2d_14">
      <defs>
       <path id="m1b6dc22a3d" d="M 0 0 
L -3.5 0 
" style="stroke: #000000; stroke-width: 0.8"/>
      </defs>
      <g>
       <use xlink:href="#m1b6dc22a3d" x="68.405276" y="250.242217" style="stroke: #000000; stroke-width: 0.8"/>
      </g>
     </g>
     <g id="text_13">
      <!-- −10 -->
      <g transform="translate(40.300589 254.041436) scale(0.1 -0.1)">
       <defs>
        <path id="DejaVuSans-2212" d="M 678 2272 
L 4684 2272 
L 4684 1741 
L 678 1741 
L 678 2272 
z
" transform="scale(0.015625)"/>
       </defs>
       <use xlink:href="#DejaVuSans-2212"/>
       <use xlink:href="#DejaVuSans-31" transform="translate(83.789062 0)"/>
       <use xlink:href="#DejaVuSans-30" transform="translate(147.412109 0)"/>
      </g>
     </g>
    </g>
    <g id="ytick_2">
     <g id="line2d_15">
      <path d="M 68.405276 222.092836 
L 709.2 222.092836 
" clip-path="url(#p8e816c8a9b)" style="fill: none; stroke: #b0b0b0; stroke-opacity: 0.25; stroke-width: 0.8; stroke-linecap: square"/>
     </g>
     <g id="line2d_16">
      <g>
       <use xlink:href="#m1b6dc22a3d" x="68.405276" y="222.092836" style="stroke: #000000; stroke-width: 0.8"/>
      </g>
     </g>
     <g id="text_14">
      <!-- −5 -->
      <g transform="translate(46.663089 225.892055) scale(0.1 -0.1)">
       <defs>
        <path id="DejaVuSans-35" d="M 691 4666 
L 3169 4666 
L 3169 4134 
L 1269 4134 
L 1269 2991 
Q 1406 3038 1543 3061 
Q 1681 3084 1819 3084 
Q 2600 3084 3056 2656 
Q 3513 2228 3513 1497 
Q 3513 744 3044 326 
Q 2575 -91 1722 -91 
Q 1428 -91 1123 -41 
Q 819 9 494 109 
L 494 744 
Q 775 591 1075 516 
Q 1375 441 1709 441 
Q 2250 441 2565 725 
Q 2881 1009 2881 1497 
Q 2881 1984 2565 2268 
Q 2250 2553 1709 2553 
Q 1456 2553 1204 2497 
Q 953 2441 691 2322 
L 691 4666 
z
" transform="scale(0.015625)"/>
       </defs>
       <use xlink:href="#DejaVuSans-2212"/>
       <use xlink:href="#DejaVuSans-35" transform="translate(83.789062 0)"/>
      </g>
     </g>
    </g>
    <g id="ytick_3">
     <g id="line2d_17">
      <path d="M 68.405276 193.943456 
L 709.2 193.943456 
" clip-path="url(#p8e816c8a9b)" style="fill: none; stroke: #b0b0b0; stroke-opacity: 0.25; stroke-width: 0.8; stroke-linecap: square"/>
     </g>
     <g id="line2d_18">
      <g>
       <use xlink:href="#m1b6dc22a3d" x="68.405276" y="193.943456" style="stroke: #000000; stroke-width: 0.8"/>
      </g>
     </g>
     <g id="text_15">
      <!-- 0 -->
      <g transform="translate(55.042776 197.742675) scale(0.1 -0.1)">
       <use xlink:href="#DejaVuSans-30"/>
      </g>
     </g>
    </g>
    <g id="ytick_4">
     <g id="line2d_19">
      <path d="M 68.405276 165.794076 
L 709.2 165.794076 
" clip-path="url(#p8e816c8a9b)" style="fill: none; stroke: #b0b0b0; stroke-opacity: 0.25; stroke-width: 0.8; stroke-linecap: square"/>
     </g>
     <g id="line2d_20">
      <g>
       <use xlink:href="#m1b6dc22a3d" x="68.405276" y="165.794076" style="stroke: #000000; stroke-width: 0.8"/>
      </g>
     </g>
     <g id="text_16">
      <!-- 5 -->
      <g transform="translate(55.042776 169.593294) scale(0.1 -0.1)">
       <use xlink:href="#DejaVuSans-35"/>
      </g>
     </g>
    </g>
    <g id="ytick_5">
     <g id="line2d_21">
      <path d="M 68.405276 137.644695 
L 709.2 137.644695 
" clip-path="url(#p8e816c8a9b)" style="fill: none; stroke: #b0b0b0; stroke-opacity: 0.25; stroke-width: 0.8; stroke-linecap: square"/>
     </g>
     <g id="line2d_22">
      <g>
       <use xlink:href="#m1b6dc22a3d" x="68.405276" y="137.644695" style="stroke: #000000; stroke-width: 0.8"/>
      </g>
     </g>
     <g id="text_17">
      <!-- 10 -->
      <g transform="translate(48.680276 141.443914) scale(0.1 -0.1)">
       <use xlink:href="#DejaVuSans-31"/>
       <use xlink:href="#DejaVuSans-30" transform="translate(63.623047 0)"/>
      </g>
     </g>
    </g>
    <g id="ytick_6">
     <g id="line2d_23">
      <path d="M 68.405276 109.495315 
L 709.2 109.495315 
" clip-path="url(#p8e816c8a9b)" style="fill: none; stroke: #b0b0b0; stroke-opacity: 0.25; stroke-width: 0.8; stroke-linecap: square"/>
     </g>
     <g id="line2d_24">
      <g>
       <use xlink:href="#m1b6dc22a3d" x="68.405276" y="109.495315" style="stroke: #000000; stroke-width: 0.8"/>
      </g>
     </g>
     <g id="text_18">
      <!-- 15 -->
      <g transform="translate(48.680276 113.294534) scale(0.1 -0.1)">
       <use xlink:href="#DejaVuSans-31"/>
       <use xlink:href="#DejaVuSans-35" transform="translate(63.623047 0)"/>
      </g>
     </g>
    </g>
    <g id="ytick_7">
     <g id="line2d_25">
      <path d="M 68.405276 81.345935 
L 709.2 81.345935 
" clip-path="url(#p8e816c8a9b)" style="fill: none; stroke: #b0b0b0; stroke-opacity: 0.25; stroke-width: 0.8; stroke-linecap: square"/>
     </g>
     <g id="line2d_26">
      <g>
       <use xlink:href="#m1b6dc22a3d" x="68.405276" y="81.345935" style="stroke: #000000; stroke-width: 0.8"/>
      </g>
     </g>
     <g id="text_19">
      <!-- 20 -->
      <g transform="translate(48.680276 85.145153) scale(0.1 -0.1)">
       <defs>
        <path id="DejaVuSans-32" d="M 1228 531 
L 3431 531 
L 3431 0 
L 469 0 
L 469 531 
Q 828 903 1448 1529 
Q 2069 2156 2228 2338 
Q 2531 2678 2651 2914 
Q 2772 3150 2772 3378 
Q 2772 3750 2511 3984 
Q 2250 4219 1831 4219 
Q 1534 4219 1204 4116 
Q 875 4013 500 3803 
L 500 4441 
Q 881 4594 1212 4672 
Q 1544 4750 1819 4750 
Q 2544 4750 2975 4387 
Q 3406 4025 3406 3419 
Q 3406 3131 3298 2873 
Q 3191 2616 2906 2266 
Q 2828 2175 2409 1742 
Q 1991 1309 1228 531 
z
" transform="scale(0.015625)"/>
       </defs>
       <use xlink:href="#DejaVuSans-32"/>
       <use xlink:href="#DejaVuSans-30" transform="translate(63.623047 0)"/>
      </g>
     </g>
    </g>
    <g id="ytick_8">
     <g id="line2d_27">
      <path d="M 68.405276 53.196554 
L 709.2 53.196554 
" clip-path="url(#p8e816c8a9b)" style="fill: none; stroke: #b0b0b0; stroke-opacity: 0.25; stroke-width: 0.8; stroke-linecap: square"/>
     </g>
     <g id="line2d_28">
      <g>
       <use xlink:href="#m1b6dc22a3d" x="68.405276" y="53.196554" style="stroke: #000000; stroke-width: 0.8"/>
      </g>
     </g>
     <g id="text_20">
      <!-- 25 -->
      <g transform="translate(48.680276 56.995773) scale(0.1 -0.1)">
       <use xlink:href="#DejaVuSans-32"/>
       <use xlink:href="#DejaVuSans-35" transform="translate(63.623047 0)"/>
      </g>
     </g>
    </g>
    <g id="text_21">
     <!-- mean scalar effect -->
     <g transform="translate(34.220901 193.413082) rotate(-90) scale(0.1 -0.1)">
      <defs>
       <path id="DejaVuSans-20" transform="scale(0.015625)"/>
      </defs>
      <use xlink:href="#DejaVuSans-6d"/>
      <use xlink:href="#DejaVuSans-65" transform="translate(97.412109 0)"/>
      <use xlink:href="#DejaVuSans-61" transform="translate(158.935547 0)"/>
      <use xlink:href="#DejaVuSans-6e" transform="translate(220.214844 0)"/>
      <use xlink:href="#DejaVuSans-20" transform="translate(283.59375 0)"/>
      <use xlink:href="#DejaVuSans-73" transform="translate(315.380859 0)"/>
      <use xlink:href="#DejaVuSans-63" transform="translate(367.480469 0)"/>
      <use xlink:href="#DejaVuSans-61" transform="translate(422.460938 0)"/>
      <use xlink:href="#DejaVuSans-6c" transform="translate(483.740234 0)"/>
      <use xlink:href="#DejaVuSans-61" transform="translate(511.523438 0)"/>
      <use xlink:href="#DejaVuSans-72" transform="translate(572.802734 0)"/>
      <use xlink:href="#DejaVuSans-20" transform="translate(613.916016 0)"/>
      <use xlink:href="#DejaVuSans-65" transform="translate(645.703125 0)"/>
      <use xlink:href="#DejaVuSans-66" transform="translate(707.226562 0)"/>
      <use xlink:href="#DejaVuSans-66" transform="translate(742.431641 0)"/>
      <use xlink:href="#DejaVuSans-65" transform="translate(777.636719 0)"/>
      <use xlink:href="#DejaVuSans-63" transform="translate(839.160156 0)"/>
      <use xlink:href="#DejaVuSans-74" transform="translate(894.140625 0)"/>
     </g>
    </g>
   </g>
   <g id="line2d_29">
    <path d="M 68.405276 193.943456 
L 709.2 193.943456 
" clip-path="url(#p8e816c8a9b)" style="fill: none; stroke: #777777; stroke-linecap: square"/>
   </g>
   <g id="patch_39">
    <path d="M 68.405276 266.611789 
L 68.405276 26.88 
" style="fill: none; stroke: #000000; stroke-width: 0.8; stroke-linejoin: miter; stroke-linecap: square"/>
   </g>
   <g id="patch_40">
    <path d="M 709.2 266.611789 
L 709.2 26.88 
" style="fill: none; stroke: #000000; stroke-width: 0.8; stroke-linejoin: miter; stroke-linecap: square"/>
   </g>
   <g id="patch_41">
    <path d="M 68.405276 266.611789 
L 709.2 266.611789 
" style="fill: none; stroke: #000000; stroke-width: 0.8; stroke-linejoin: miter; stroke-linecap: square"/>
   </g>
   <g id="patch_42">
    <path d="M 68.405276 26.88 
L 709.2 26.88 
" style="fill: none; stroke: #000000; stroke-width: 0.8; stroke-linejoin: miter; stroke-linecap: square"/>
   </g>
   <g id="text_22">
    <!-- Output mediation: total vs direct vs downstream -->
    <g transform="translate(242.880763 20.88) scale(0.12 -0.12)">
     <defs>
      <path id="DejaVuSans-4f" d="M 2522 4238 
Q 1834 4238 1429 3725 
Q 1025 3213 1025 2328 
Q 1025 1447 1429 934 
Q 1834 422 2522 422 
Q 3209 422 3611 934 
Q 4013 1447 4013 2328 
Q 4013 3213 3611 3725 
Q 3209 4238 2522 4238 
z
M 2522 4750 
Q 3503 4750 4090 4092 
Q 4678 3434 4678 2328 
Q 4678 1225 4090 567 
Q 3503 -91 2522 -91 
Q 1538 -91 948 565 
Q 359 1222 359 2328 
Q 359 3434 948 4092 
Q 1538 4750 2522 4750 
z
" transform="scale(0.015625)"/>
     </defs>
     <use xlink:href="#DejaVuSans-4f"/>
     <use xlink:href="#DejaVuSans-75" transform="translate(78.710938 0)"/>
     <use xlink:href="#DejaVuSans-74" transform="translate(142.089844 0)"/>
     <use xlink:href="#DejaVuSans-70" transform="translate(181.298828 0)"/>
     <use xlink:href="#DejaVuSans-75" transform="translate(244.775391 0)"/>
     <use xlink:href="#DejaVuSans-74" transform="translate(308.154297 0)"/>
     <use xlink:href="#DejaVuSans-20" transform="translate(347.363281 0)"/>
     <use xlink:href="#DejaVuSans-6d" transform="translate(379.150391 0)"/>
     <use xlink:href="#DejaVuSans-65" transform="translate(476.5625 0)"/>
     <use xlink:href="#DejaVuSans-64" transform="translate(538.085938 0)"/>
     <use xlink:href="#DejaVuSans-69" transform="translate(601.5625 0)"/>
     <use xlink:href="#DejaVuSans-61" transform="translate(629.345703 0)"/>
     <use xlink:href="#DejaVuSans-74" transform="translate(690.625 0)"/>
     <use xlink:href="#DejaVuSans-69" transform="translate(729.833984 0)"/>
     <use xlink:href="#DejaVuSans-6f" transform="translate(757.617188 0)"/>
     <use xlink:href="#DejaVuSans-6e" transform="translate(818.798828 0)"/>
     <use xlink:href="#DejaVuSans-3a" transform="translate(882.177734 0)"/>
     <use xlink:href="#DejaVuSans-20" transform="translate(915.869141 0)"/>
     <use xlink:href="#DejaVuSans-74" transform="translate(947.65625 0)"/>
     <use xlink:href="#DejaVuSans-6f" transform="translate(986.865234 0)"/>
     <use xlink:href="#DejaVuSans-74" transform="translate(1048.046875 0)"/>
     <use xlink:href="#DejaVuSans-61" transform="translate(1087.255859 0)"/>
     <use xlink:href="#DejaVuSans-6c" transform="translate(1148.535156 0)"/>
     <use xlink:href="#DejaVuSans-20" transform="translate(1176.318359 0)"/>
     <use xlink:href="#DejaVuSans-76" transform="translate(1208.105469 0)"/>
     <use xlink:href="#DejaVuSans-73" transform="translate(1267.285156 0)"/>
     <use xlink:href="#DejaVuSans-20" transform="translate(1319.384766 0)"/>
     <use xlink:href="#DejaVuSans-64" transform="translate(1351.171875 0)"/>
     <use xlink:href="#DejaVuSans-69" transform="translate(1414.648438 0)"/>
     <use xlink:href="#DejaVuSans-72" transform="translate(1442.431641 0)"/>
     <use xlink:href="#DejaVuSans-65" transform="translate(1481.294922 0)"/>
     <use xlink:href="#DejaVuSans-63" transform="translate(1542.818359 0)"/>
     <use xlink:href="#DejaVuSans-74" transform="translate(1597.798828 0)"/>
     <use xlink:href="#DejaVuSans-20" transform="translate(1637.007812 0)"/>
     <use xlink:href="#DejaVuSans-76" transform="translate(1668.794922 0)"/>
     <use xlink:href="#DejaVuSans-73" transform="translate(1727.974609 0)"/>
     <use xlink:href="#DejaVuSans-20" transform="translate(1780.074219 0)"/>
     <use xlink:href="#DejaVuSans-64" transform="translate(1811.861328 0)"/>
     <use xlink:href="#DejaVuSans-6f" transform="translate(1875.337891 0)"/>
     <use xlink:href="#DejaVuSans-77" transform="translate(1936.519531 0)"/>
     <use xlink:href="#DejaVuSans-6e" transform="translate(2018.306641 0)"/>
     <use xlink:href="#DejaVuSans-73" transform="translate(2081.685547 0)"/>
     <use xlink:href="#DejaVuSans-74" transform="translate(2133.785156 0)"/>
     <use xlink:href="#DejaVuSans-72" transform="translate(2172.994141 0)"/>
     <use xlink:href="#DejaVuSans-65" transform="translate(2211.857422 0)"/>
     <use xlink:href="#DejaVuSans-61" transform="translate(2273.380859 0)"/>
     <use xlink:href="#DejaVuSans-6d" transform="translate(2334.660156 0)"/>
    </g>
   </g>
   <g id="legend_1">
    <g id="patch_43">
     <path d="M 557.43125 78.914375 
L 702.2 78.914375 
Q 704.2 78.914375 704.2 76.914375 
L 704.2 33.88 
Q 704.2 31.88 702.2 31.88 
L 557.43125 31.88 
Q 555.43125 31.88 555.43125 33.88 
L 555.43125 76.914375 
Q 555.43125 78.914375 557.43125 78.914375 
z
" style="fill: #ffffff; opacity: 0.8; stroke: #cccccc; stroke-linejoin: miter"/>
    </g>
    <g id="patch_44">
     <path d="M 559.43125 43.478437 
L 579.43125 43.478437 
L 579.43125 36.478437 
L 559.43125 36.478437 
z
" style="fill: #376f8f"/>
    </g>
    <g id="text_23">
     <!-- total causal -->
     <g transform="translate(587.43125 43.478437) scale(0.1 -0.1)">
      <use xlink:href="#DejaVuSans-74"/>
      <use xlink:href="#DejaVuSans-6f" transform="translate(39.208984 0)"/>
      <use xlink:href="#DejaVuSans-74" transform="translate(100.390625 0)"/>
      <use xlink:href="#DejaVuSans-61" transform="translate(139.599609 0)"/>
      <use xlink:href="#DejaVuSans-6c" transform="translate(200.878906 0)"/>
      <use xlink:href="#DejaVuSans-20" transform="translate(228.662109 0)"/>
      <use xlink:href="#DejaVuSans-63" transform="translate(260.449219 0)"/>
      <use xlink:href="#DejaVuSans-61" transform="translate(315.429688 0)"/>
      <use xlink:href="#DejaVuSans-75" transform="translate(376.708984 0)"/>
      <use xlink:href="#DejaVuSans-73" transform="translate(440.087891 0)"/>
      <use xlink:href="#DejaVuSans-61" transform="translate(492.1875 0)"/>
      <use xlink:href="#DejaVuSans-6c" transform="translate(553.466797 0)"/>
     </g>
    </g>
    <g id="patch_45">
     <path d="M 559.43125 58.156563 
L 579.43125 58.156563 
L 579.43125 51.156563 
L 559.43125 51.156563 
z
" style="fill: #8f6b37"/>
    </g>
    <g id="text_24">
     <!-- direct source DLA -->
     <g transform="translate(587.43125 58.156563) scale(0.1 -0.1)">
      <defs>
       <path id="DejaVuSans-44" d="M 1259 4147 
L 1259 519 
L 2022 519 
Q 2988 519 3436 956 
Q 3884 1394 3884 2338 
Q 3884 3275 3436 3711 
Q 2988 4147 2022 4147 
L 1259 4147 
z
M 628 4666 
L 1925 4666 
Q 3281 4666 3915 4102 
Q 4550 3538 4550 2338 
Q 4550 1131 3912 565 
Q 3275 0 1925 0 
L 628 0 
L 628 4666 
z
" transform="scale(0.015625)"/>
       <path id="DejaVuSans-41" d="M 2188 4044 
L 1331 1722 
L 3047 1722 
L 2188 4044 
z
M 1831 4666 
L 2547 4666 
L 4325 0 
L 3669 0 
L 3244 1197 
L 1141 1197 
L 716 0 
L 50 0 
L 1831 4666 
z
" transform="scale(0.015625)"/>
      </defs>
      <use xlink:href="#DejaVuSans-64"/>
      <use xlink:href="#DejaVuSans-69" transform="translate(63.476562 0)"/>
      <use xlink:href="#DejaVuSans-72" transform="translate(91.259766 0)"/>
      <use xlink:href="#DejaVuSans-65" transform="translate(130.123047 0)"/>
      <use xlink:href="#DejaVuSans-63" transform="translate(191.646484 0)"/>
      <use xlink:href="#DejaVuSans-74" transform="translate(246.626953 0)"/>
      <use xlink:href="#DejaVuSans-20" transform="translate(285.835938 0)"/>
      <use xlink:href="#DejaVuSans-73" transform="translate(317.623047 0)"/>
      <use xlink:href="#DejaVuSans-6f" transform="translate(369.722656 0)"/>
      <use xlink:href="#DejaVuSans-75" transform="translate(430.904297 0)"/>
      <use xlink:href="#DejaVuSans-72" transform="translate(494.283203 0)"/>
      <use xlink:href="#DejaVuSans-63" transform="translate(533.146484 0)"/>
      <use xlink:href="#DejaVuSans-65" transform="translate(588.126953 0)"/>
      <use xlink:href="#DejaVuSans-20" transform="translate(649.650391 0)"/>
      <use xlink:href="#DejaVuSans-44" transform="translate(681.4375 0)"/>
      <use xlink:href="#DejaVuSans-4c" transform="translate(758.439453 0)"/>
      <use xlink:href="#DejaVuSans-41" transform="translate(816.402344 0)"/>
     </g>
    </g>
    <g id="patch_46">
     <path d="M 559.43125 72.834687 
L 579.43125 72.834687 
L 579.43125 65.834687 
L 559.43125 65.834687 
z
" style="fill: #4a8f37"/>
    </g>
    <g id="text_25">
     <!-- downstream mediated -->
     <g transform="translate(587.43125 72.834687) scale(0.1 -0.1)">
      <use xlink:href="#DejaVuSans-64"/>
      <use xlink:href="#DejaVuSans-6f" transform="translate(63.476562 0)"/>
      <use xlink:href="#DejaVuSans-77" transform="translate(124.658203 0)"/>
      <use xlink:href="#DejaVuSans-6e" transform="translate(206.445312 0)"/>
      <use xlink:href="#DejaVuSans-73" transform="translate(269.824219 0)"/>
      <use xlink:href="#DejaVuSans-74" transform="translate(321.923828 0)"/>
      <use xlink:href="#DejaVuSans-72" transform="translate(361.132812 0)"/>
      <use xlink:href="#DejaVuSans-65" transform="translate(399.996094 0)"/>
      <use xlink:href="#DejaVuSans-61" transform="translate(461.519531 0)"/>
      <use xlink:href="#DejaVuSans-6d" transform="translate(522.798828 0)"/>
      <use xlink:href="#DejaVuSans-20" transform="translate(620.210938 0)"/>
      <use xlink:href="#DejaVuSans-6d" transform="translate(651.998047 0)"/>
      <use xlink:href="#DejaVuSans-65" transform="translate(749.410156 0)"/>
      <use xlink:href="#DejaVuSans-64" transform="translate(810.933594 0)"/>
      <use xlink:href="#DejaVuSans-69" transform="translate(874.410156 0)"/>
      <use xlink:href="#DejaVuSans-61" transform="translate(902.193359 0)"/>
      <use xlink:href="#DejaVuSans-74" transform="translate(963.472656 0)"/>
      <use xlink:href="#DejaVuSans-65" transform="translate(1002.681641 0)"/>
      <use xlink:href="#DejaVuSans-64" transform="translate(1064.205078 0)"/>
     </g>
    </g>
   </g>
  </g>
 </g>
 <defs>
  <clipPath id="p8e816c8a9b">
   <rect x="68.405276" y="26.88" width="640.794724" height="239.731789"/>
  </clipPath>
 </defs>
</svg>
